<?xml version="1.0" encoding="UTF-8"?>
<!DOCTYPE svg PUBLIC "-//W3C//DTD SVG 1.1//EN" "http://www.w3.org/Graphics/SVG/1.1/DTD/svg11.dtd">
<svg xmlns="http://www.w3.org/2000/svg" version="1.1" width="168px" height="168px" style="shape-rendering:geometricPrecision; text-rendering:geometricPrecision; image-rendering:optimizeQuality; fill-rule:evenodd; clip-rule:evenodd" xmlns:xlink="http://www.w3.org/1999/xlink">
<g><path style="opacity:1" fill="#5e7131" d="M 111.5,-0.5 C 113.833,-0.5 116.167,-0.5 118.5,-0.5C 117.318,1.00313 116.818,2.66979 117,4.5C 119.74,5.28221 122.574,5.78221 125.5,6C 126.973,6.70956 127.64,7.87623 127.5,9.5C 124.833,9.5 122.167,9.5 119.5,9.5C 113.255,7.59276 107.922,9.25943 103.5,14.5C 100.914,15.48 98.2469,15.8134 95.5,15.5C 95.5,14.5 95.5,13.5 95.5,12.5C 101.088,13.0622 104.421,10.7289 105.5,5.5C 110.618,6.0214 112.618,4.0214 111.5,-0.5 Z"/></g>
<g><path style="opacity:1" fill="#748c3b" d="M 151.5,-0.5 C 154.167,-0.5 156.833,-0.5 159.5,-0.5C 159.5,1.5 159.5,3.5 159.5,5.5C 156.833,5.5 154.167,5.5 151.5,5.5C 151.935,3.29671 151.935,1.29671 151.5,-0.5 Z"/></g>
<g><path style="opacity:1" fill="#758448" d="M 159.5,-0.5 C 162.167,-0.5 164.833,-0.5 167.5,-0.5C 167.5,1.83333 167.5,4.16667 167.5,6.5C 166.833,6.5 166.167,6.5 165.5,6.5C 164.833,6.83333 164.167,7.16667 163.5,7.5C 156.859,8.39733 150.192,8.39733 143.5,7.5C 145.961,6.46899 148.627,5.80233 151.5,5.5C 154.167,5.5 156.833,5.5 159.5,5.5C 159.5,3.5 159.5,1.5 159.5,-0.5 Z"/></g>
<g><path style="opacity:1" fill="#778c23" d="M 118.5,-0.5 C 129.5,-0.5 140.5,-0.5 151.5,-0.5C 151.935,1.29671 151.935,3.29671 151.5,5.5C 148.627,5.80233 145.961,6.46899 143.5,7.5C 138.256,8.81486 132.923,9.48153 127.5,9.5C 127.64,7.87623 126.973,6.70956 125.5,6C 122.574,5.78221 119.74,5.28221 117,4.5C 116.818,2.66979 117.318,1.00313 118.5,-0.5 Z"/></g>
<g><path style="opacity:1" fill="#a2bc75" d="M -0.5,-0.5 C 8.16667,-0.5 16.8333,-0.5 25.5,-0.5C 25.67,0.822066 25.3366,1.98873 24.5,3C 22.3686,3.54306 20.3686,4.37639 18.5,5.5C 19.3467,6.84484 20.5134,7.84484 22,8.5C 23.1667,12.6667 21.6667,14.1667 17.5,13C 16.0798,11.47 15.0798,9.63666 14.5,7.5C 13.8165,7.86273 13.1499,8.19607 12.5,8.5C 11.8658,7.05322 10.6991,6.38655 9,6.5C 5.77665,7.1107 2.60998,7.44403 -0.5,7.5C -0.5,4.83333 -0.5,2.16667 -0.5,-0.5 Z"/></g>
<g><path style="opacity:1" fill="#4c5343" d="M 79.5,7.5 C 76.5448,6.84128 73.5448,6.50795 70.5,6.5C 66.3537,5.35303 62.0204,5.18636 57.5,6C 56.7079,8.33609 55.3746,8.83609 53.5,7.5C 50.7617,7.88745 48.4283,8.88745 46.5,10.5C 45.7784,10.0825 45.2784,9.4158 45,8.5C 41.6889,11.2302 38.1889,13.5636 34.5,15.5C 34.5,15.1667 34.5,14.8333 34.5,14.5C 37.3813,10.3765 41.3813,7.70988 46.5,6.5C 47.3857,5.67504 47.719,4.67504 47.5,3.5C 54.8628,3.72649 62.1962,3.39316 69.5,2.5C 72.0561,3.52438 74.7228,4.35771 77.5,5C 78.756,5.41691 79.4226,6.25025 79.5,7.5 Z"/></g>
<g><path style="opacity:1" fill="#667743" d="M 57.5,-0.5 C 70.1667,-0.5 82.8333,-0.5 95.5,-0.5C 94.4479,1.25605 92.7812,1.92271 90.5,1.5C 90.67,2.82207 90.3366,3.98873 89.5,5C 91.0037,6.4907 91.8371,8.32403 92,10.5C 93.3024,11.0848 94.469,11.7515 95.5,12.5C 95.5,13.5 95.5,14.5 95.5,15.5C 94.1667,15.5 92.8333,15.5 91.5,15.5C 87.4754,12.6385 83.4754,9.97185 79.5,7.5C 79.4226,6.25025 78.756,5.41691 77.5,5C 74.7228,4.35771 72.0561,3.52438 69.5,2.5C 62.1962,3.39316 54.8628,3.72649 47.5,3.5C 47.719,4.67504 47.3857,5.67504 46.5,6.5C 41.3813,7.70988 37.3813,10.3765 34.5,14.5C 34.0317,10.9661 35.0317,7.96613 37.5,5.5C 43.4866,2.58683 49.8199,1.08683 56.5,1C 57.056,0.617425 57.3893,0.117425 57.5,-0.5 Z"/></g>
<g><path style="opacity:1" fill="#6f8748" d="M 95.5,-0.5 C 100.833,-0.5 106.167,-0.5 111.5,-0.5C 112.618,4.0214 110.618,6.0214 105.5,5.5C 104.421,10.7289 101.088,13.0622 95.5,12.5C 94.469,11.7515 93.3024,11.0848 92,10.5C 91.8371,8.32403 91.0037,6.4907 89.5,5C 90.3366,3.98873 90.67,2.82207 90.5,1.5C 92.7812,1.92271 94.4479,1.25605 95.5,-0.5 Z"/></g>
<g><path style="opacity:1" fill="#97af6d" d="M 25.5,-0.5 C 25.8333,-0.5 26.1667,-0.5 26.5,-0.5C 26.5,0.833333 26.5,2.16667 26.5,3.5C 27.9305,3.42082 29.2638,3.75415 30.5,4.5C 33.0406,7.5401 33.7073,10.8734 32.5,14.5C 29.952,12.8148 27.952,13.1481 26.5,15.5C 19.3738,15.7357 12.3738,16.7357 5.5,18.5C 5.42082,17.0695 5.75415,15.7362 6.5,14.5C 5.83333,13.8333 5.16667,13.1667 4.5,12.5C 6.71753,11.9426 9.05086,11.9426 11.5,12.5C 11.2322,10.901 11.5655,9.56764 12.5,8.5C 13.1499,8.19607 13.8165,7.86273 14.5,7.5C 15.0798,9.63666 16.0798,11.47 17.5,13C 21.6667,14.1667 23.1667,12.6667 22,8.5C 20.5134,7.84484 19.3467,6.84484 18.5,5.5C 20.3686,4.37639 22.3686,3.54306 24.5,3C 25.3366,1.98873 25.67,0.822066 25.5,-0.5 Z"/></g>
<g><path style="opacity:1" fill="#5b6d17" d="M 143.5,7.5 C 141.502,12.5026 137.835,15.1693 132.5,15.5C 132.251,12.2556 130.584,10.2556 127.5,9.5C 132.923,9.48153 138.256,8.81486 143.5,7.5 Z"/></g>
<g><path style="opacity:1" fill="#455421" d="M 143.5,7.5 C 150.192,8.39733 156.859,8.39733 163.5,7.5C 163.806,10.3854 163.473,13.0521 162.5,15.5C 156.306,13.4373 149.972,13.104 143.5,14.5C 141.329,17.7164 138.662,20.3831 135.5,22.5C 133.955,23.4519 132.288,23.7852 130.5,23.5C 128.947,21.615 126.947,20.615 124.5,20.5C 122.836,19.0512 122.002,17.0512 122,14.5C 121.329,13.7476 120.496,13.4142 119.5,13.5C 119.5,12.1667 119.5,10.8333 119.5,9.5C 122.167,9.5 124.833,9.5 127.5,9.5C 130.584,10.2556 132.251,12.2556 132.5,15.5C 137.835,15.1693 141.502,12.5026 143.5,7.5 Z"/></g>
<g><path style="opacity:1" fill="#566a35" d="M 119.5,9.5 C 119.5,10.8333 119.5,12.1667 119.5,13.5C 116.946,12.612 114.279,12.2786 111.5,12.5C 111.5,14.5 111.5,16.5 111.5,18.5C 110.167,18.5 108.833,18.5 107.5,18.5C 107.78,21.3882 106.447,22.8882 103.5,23C 105.382,27.4249 106.049,31.9249 105.5,36.5C 103.868,33.1007 102.702,29.434 102,25.5C 100.362,23.2663 98.1955,21.933 95.5,21.5C 93.7745,19.7721 92.4411,17.7721 91.5,15.5C 92.8333,15.5 94.1667,15.5 95.5,15.5C 98.2469,15.8134 100.914,15.48 103.5,14.5C 107.922,9.25943 113.255,7.59276 119.5,9.5 Z"/></g>
<g><path style="opacity:1" fill="#4a4745" d="M 46.5,10.5 C 48.603,10.4021 50.9363,10.7354 53.5,11.5C 50.1398,12.8497 46.8065,14.183 43.5,15.5C 43.3253,17.6208 43.6586,19.6208 44.5,21.5C 39.0048,23.2017 33.6715,25.2017 28.5,27.5C 28.3291,25.0072 29.3291,23.1739 31.5,22C 30.552,21.5172 29.552,21.3505 28.5,21.5C 30.5449,20.0772 31.5449,18.0772 31.5,15.5C 32.5,15.5 33.5,15.5 34.5,15.5C 38.1889,13.5636 41.6889,11.2302 45,8.5C 45.2784,9.4158 45.7784,10.0825 46.5,10.5 Z"/></g>
<g><path style="opacity:1" fill="#2a2c25" d="M 70.5,6.5 C 73.5448,6.50795 76.5448,6.84128 79.5,7.5C 83.4754,9.97185 87.4754,12.6385 91.5,15.5C 92.4411,17.7721 93.7745,19.7721 95.5,21.5C 100.766,30.8365 103.766,40.8365 104.5,51.5C 104.5,51.8333 104.5,52.1667 104.5,52.5C 102.347,54.7937 100.68,57.4604 99.5,60.5C 98.8999,61.9002 97.8999,62.9002 96.5,63.5C 95.7861,57.9778 94.4528,52.6445 92.5,47.5C 93.5,47.5 94.5,47.5 95.5,47.5C 95.5,46.1667 95.5,44.8333 95.5,43.5C 97.451,43.2267 98.951,43.8934 100,45.5C 100.913,41.8249 100.247,38.4916 98,35.5C 97.586,35.9574 97.086,36.2907 96.5,36.5C 95.5159,33.5719 95.1826,30.5719 95.5,27.5C 95.5,26.5 95.5,25.5 95.5,24.5C 93.6096,24.7035 92.1096,24.0368 91,22.5C 90.023,20.26 89.523,17.9267 89.5,15.5C 86.1362,16.2107 83.8029,15.044 82.5,12C 79.134,11.6699 75.8006,12.0033 72.5,13C 72.0426,13.414 71.7093,13.914 71.5,14.5C 75.4592,15.3265 79.4592,15.8265 83.5,16C 80.6142,21.0811 81.9475,23.4145 87.5,23C 89.4386,23.9078 90.4386,25.4078 90.5,27.5C 89.5655,28.5676 89.2322,29.901 89.5,31.5C 89.1667,31.5 88.8333,31.5 88.5,31.5C 88.1667,31.5 87.8333,31.5 87.5,31.5C 87.6716,30.5084 87.3382,29.8417 86.5,29.5C 86.6495,28.448 86.4828,27.448 86,26.5C 83.6566,25.8732 81.4899,24.8732 79.5,23.5C 82.1306,21.9954 81.7973,21.3287 78.5,21.5C 78.4208,20.0695 78.7542,18.7362 79.5,17.5C 77.2573,16.5258 74.924,16.1924 72.5,16.5C 72.6495,17.552 72.4828,18.552 72,19.5C 71.5,18.3333 70.6667,17.5 69.5,17C 69.8333,16.6667 70.1667,16.3333 70.5,16C 69.552,15.5172 68.552,15.3505 67.5,15.5C 67.3601,17.1238 68.0267,18.2904 69.5,19C 67.555,18.8718 65.7216,19.0385 64,19.5C 64.1123,17.8217 64.6123,16.155 65.5,14.5C 64.8086,12.1088 63.8086,12.1088 62.5,14.5C 60.9579,13.2532 59.4579,13.2532 58,14.5C 56.5134,13.8448 55.3467,12.8448 54.5,11.5C 56.1481,10.4848 58.3147,9.48476 61,8.5C 61.772,8.6448 62.4387,8.97814 63,9.5C 63.3742,8.58377 63.8742,7.75044 64.5,7C 66.4727,6.50454 68.4727,6.33788 70.5,6.5 Z"/></g>
<g><path style="opacity:1" fill="#1f2123" d="M 95.5,27.5 C 93.5248,27.8222 91.8582,27.8222 90.5,27.5C 90.4386,25.4078 89.4386,23.9078 87.5,23C 81.9475,23.4145 80.6142,21.0811 83.5,16C 79.4592,15.8265 75.4592,15.3265 71.5,14.5C 71.7093,13.914 72.0426,13.414 72.5,13C 75.8006,12.0033 79.134,11.6699 82.5,12C 83.8029,15.044 86.1362,16.2107 89.5,15.5C 89.523,17.9267 90.023,20.26 91,22.5C 92.1096,24.0368 93.6096,24.7035 95.5,24.5C 95.5,25.5 95.5,26.5 95.5,27.5 Z"/></g>
<g><path style="opacity:1" fill="#8aa556" d="M 12.5,8.5 C 11.5655,9.56764 11.2322,10.901 11.5,12.5C 9.05086,11.9426 6.71753,11.9426 4.5,12.5C 5.16667,13.1667 5.83333,13.8333 6.5,14.5C 5.75415,15.7362 5.42082,17.0695 5.5,18.5C 12.3738,16.7357 19.3738,15.7357 26.5,15.5C 26.9382,15.4346 27.2716,15.6012 27.5,16C 25.8333,18.3333 24.1667,20.6667 22.5,23C 21.8333,23.6667 21.1667,23.6667 20.5,23C 16.455,18.4429 14.6217,19.6096 15,26.5C 13.6124,25.4464 12.1124,25.2797 10.5,26C 8.26147,26.8796 6.59481,28.3796 5.5,30.5C 3.60395,31.4656 1.60395,31.7989 -0.5,31.5C -0.5,23.5 -0.5,15.5 -0.5,7.5C 2.60998,7.44403 5.77665,7.1107 9,6.5C 10.6991,6.38655 11.8658,7.05322 12.5,8.5 Z"/></g>
<g><path style="opacity:1" fill="#403a36" d="M 70.5,6.5 C 68.4727,6.33788 66.4727,6.50454 64.5,7C 63.8742,7.75044 63.3742,8.58377 63,9.5C 62.4387,8.97814 61.772,8.6448 61,8.5C 58.3147,9.48476 56.1481,10.4848 54.5,11.5C 55.3467,12.8448 56.5134,13.8448 58,14.5C 59.4579,13.2532 60.9579,13.2532 62.5,14.5C 63.8086,12.1088 64.8086,12.1088 65.5,14.5C 64.6123,16.155 64.1123,17.8217 64,19.5C 65.7216,19.0385 67.555,18.8718 69.5,19C 68.0267,18.2904 67.3601,17.1238 67.5,15.5C 68.552,15.3505 69.552,15.5172 70.5,16C 70.1667,16.3333 69.8333,16.6667 69.5,17C 70.6667,17.5 71.5,18.3333 72,19.5C 72.4828,18.552 72.6495,17.552 72.5,16.5C 74.924,16.1924 77.2573,16.5258 79.5,17.5C 78.7542,18.7362 78.4208,20.0695 78.5,21.5C 81.7973,21.3287 82.1306,21.9954 79.5,23.5C 81.4899,24.8732 83.6566,25.8732 86,26.5C 86.4828,27.448 86.6495,28.448 86.5,29.5C 83.0844,30.1059 80.4178,29.1059 78.5,26.5C 74.8927,25.5108 71.226,25.1774 67.5,25.5C 63.5501,22.8952 59.2167,21.2286 54.5,20.5C 52.3157,19.7337 49.9823,19.0671 47.5,18.5C 46.8589,19.9935 45.8589,20.9935 44.5,21.5C 43.6586,19.6208 43.3253,17.6208 43.5,15.5C 46.8065,14.183 50.1398,12.8497 53.5,11.5C 50.9363,10.7354 48.603,10.4021 46.5,10.5C 48.4283,8.88745 50.7617,7.88745 53.5,7.5C 55.3746,8.83609 56.7079,8.33609 57.5,6C 62.0204,5.18636 66.3537,5.35303 70.5,6.5 Z"/></g>
<g><path style="opacity:1" fill="#627536" d="M 119.5,13.5 C 120.496,13.4142 121.329,13.7476 122,14.5C 122.002,17.0512 122.836,19.0512 124.5,20.5C 122.938,21.7847 121.604,23.2847 120.5,25C 121.022,25.9503 121.689,26.7836 122.5,27.5C 121.754,28.7362 121.421,30.0695 121.5,31.5C 117.167,31.5 112.833,31.5 108.5,31.5C 108.232,33.099 108.566,34.4324 109.5,35.5C 108.791,36.404 107.791,36.7373 106.5,36.5C 106.737,37.791 106.404,38.791 105.5,39.5C 105.5,38.5 105.5,37.5 105.5,36.5C 106.049,31.9249 105.382,27.4249 103.5,23C 106.447,22.8882 107.78,21.3882 107.5,18.5C 108.833,18.5 110.167,18.5 111.5,18.5C 111.5,16.5 111.5,14.5 111.5,12.5C 114.279,12.2786 116.946,12.612 119.5,13.5 Z"/></g>
<g><path style="opacity:1" fill="#7f9751" d="M 26.5,-0.5 C 36.8333,-0.5 47.1667,-0.5 57.5,-0.5C 57.3893,0.117425 57.056,0.617425 56.5,1C 49.8199,1.08683 43.4866,2.58683 37.5,5.5C 35.0317,7.96613 34.0317,10.9661 34.5,14.5C 34.5,14.8333 34.5,15.1667 34.5,15.5C 33.5,15.5 32.5,15.5 31.5,15.5C 31.5449,18.0772 30.5449,20.0772 28.5,21.5C 27.0148,23.9336 25.3481,26.2669 23.5,28.5C 23.4827,26.9719 22.816,26.4719 21.5,27C 20.4178,28.3297 19.7512,29.8297 19.5,31.5C 18.8333,31.5 18.1667,31.5 17.5,31.5C 11.3916,32.3435 5.39156,33.3435 -0.5,34.5C -0.5,33.5 -0.5,32.5 -0.5,31.5C 1.60395,31.7989 3.60395,31.4656 5.5,30.5C 6.59481,28.3796 8.26147,26.8796 10.5,26C 12.1124,25.2797 13.6124,25.4464 15,26.5C 14.6217,19.6096 16.455,18.4429 20.5,23C 21.1667,23.6667 21.8333,23.6667 22.5,23C 24.1667,20.6667 25.8333,18.3333 27.5,16C 27.2716,15.6012 26.9382,15.4346 26.5,15.5C 27.952,13.1481 29.952,12.8148 32.5,14.5C 33.7073,10.8734 33.0406,7.5401 30.5,4.5C 29.2638,3.75415 27.9305,3.42082 26.5,3.5C 26.5,2.16667 26.5,0.833333 26.5,-0.5 Z"/></g>
<g><path style="opacity:1" fill="#736357" d="M 54.5,20.5 C 59.2167,21.2286 63.5501,22.8952 67.5,25.5C 64.8205,25.6726 62.4872,26.6726 60.5,28.5C 58.5466,27.8444 56.5466,27.5111 54.5,27.5C 47.6773,29.0763 41.0106,28.743 34.5,26.5C 38.9569,25.4363 43.4569,25.7697 48,27.5C 49.7889,25.771 51.9556,25.1043 54.5,25.5C 54.6198,22.7952 53.6198,22.1285 51.5,23.5C 50.5,23.1667 49.8333,22.5 49.5,21.5C 51.0453,20.5481 52.712,20.2148 54.5,20.5 Z"/></g>
<g><path style="opacity:1" fill="#5a5249" d="M 54.5,20.5 C 52.712,20.2148 51.0453,20.5481 49.5,21.5C 49.8333,22.5 50.5,23.1667 51.5,23.5C 53.6198,22.1285 54.6198,22.7952 54.5,25.5C 51.9556,25.1043 49.7889,25.771 48,27.5C 43.4569,25.7697 38.9569,25.4363 34.5,26.5C 33.3748,27.9999 32.0414,29.3332 30.5,30.5C 30.5,30.8333 30.5,31.1667 30.5,31.5C 27.8427,34.9722 26.176,38.9722 25.5,43.5C 24.8418,44.7933 24.5085,46.2933 24.5,48C 25.7789,54.6185 26.7789,61.2851 27.5,68C 27.6255,70.0669 27.2922,71.2336 26.5,71.5C 26.0972,68.5145 25.0972,65.8478 23.5,63.5C 20.9067,51.8767 20.9067,40.21 23.5,28.5C 25.3481,26.2669 27.0148,23.9336 28.5,21.5C 29.552,21.3505 30.552,21.5172 31.5,22C 29.3291,23.1739 28.3291,25.0072 28.5,27.5C 33.6715,25.2017 39.0048,23.2017 44.5,21.5C 45.8589,20.9935 46.8589,19.9935 47.5,18.5C 49.9823,19.0671 52.3157,19.7337 54.5,20.5 Z"/></g>
<g><path style="opacity:1" fill="#586933" d="M 124.5,20.5 C 126.947,20.615 128.947,21.615 130.5,23.5C 131.641,25.0876 133.141,26.4209 135,27.5C 135.667,29.1667 135.667,30.8333 135,32.5C 133.271,32.9743 132.105,33.9743 131.5,35.5C 131.5,35.8333 131.5,36.1667 131.5,36.5C 130.167,36.5 128.833,36.5 127.5,36.5C 126.215,38.0622 124.715,39.3955 123,40.5C 120.392,39.3907 118.226,37.724 116.5,35.5C 114.141,34.2857 111.808,34.2857 109.5,35.5C 108.566,34.4324 108.232,33.099 108.5,31.5C 112.833,31.5 117.167,31.5 121.5,31.5C 121.421,30.0695 121.754,28.7362 122.5,27.5C 121.689,26.7836 121.022,25.9503 120.5,25C 121.604,23.2847 122.938,21.7847 124.5,20.5 Z"/></g>
<g><path style="opacity:1" fill="#b79a8d" d="M 34.5,26.5 C 41.0106,28.743 47.6773,29.0763 54.5,27.5C 56.9878,29.3878 59.9878,30.0545 63.5,29.5C 58.8098,30.7783 53.9764,30.7783 49,29.5C 46.8133,30.0189 45.3133,31.3523 44.5,33.5C 41.0375,32.032 37.5375,30.6987 34,29.5C 32.8615,29.9891 31.6948,30.3225 30.5,30.5C 32.0414,29.3332 33.3748,27.9999 34.5,26.5 Z"/></g>
<g><path style="opacity:1" fill="#8b7061" d="M 67.5,25.5 C 71.226,25.1774 74.8927,25.5108 78.5,26.5C 80.4178,29.1059 83.0844,30.1059 86.5,29.5C 87.3382,29.8417 87.6716,30.5084 87.5,31.5C 79.8155,30.9949 72.1488,30.3282 64.5,29.5C 64.1667,29.5 63.8333,29.5 63.5,29.5C 59.9878,30.0545 56.9878,29.3878 54.5,27.5C 56.5466,27.5111 58.5466,27.8444 60.5,28.5C 62.4872,26.6726 64.8205,25.6726 67.5,25.5 Z"/></g>
<g><path style="opacity:1" fill="#4f4239" d="M 88.5,31.5 C 88.8333,31.5 89.1667,31.5 89.5,31.5C 91.3783,32.874 92.3783,34.874 92.5,37.5C 91.673,40.7831 91.3396,44.1165 91.5,47.5C 91.1667,47.5 90.8333,47.5 90.5,47.5C 88.8224,42.4317 88.1557,37.0984 88.5,31.5 Z"/></g>
<g><path style="opacity:1" fill="#9ab471" d="M 17.5,31.5 C 17.8186,33.7505 17.3186,35.7505 16,37.5C 15.5172,36.552 15.3505,35.552 15.5,34.5C 10.8187,34.8757 9.48538,37.209 11.5,41.5C 14.7809,43.4642 17.7809,43.4642 20.5,41.5C 20.0906,48.9648 20.7573,56.2982 22.5,63.5C 22.1667,63.5 21.8333,63.5 21.5,63.5C 19.8591,59.3919 18.8591,55.0585 18.5,50.5C 12.1222,50.7054 5.78887,50.3721 -0.5,49.5C -0.5,44.5 -0.5,39.5 -0.5,34.5C 5.39156,33.3435 11.3916,32.3435 17.5,31.5 Z"/></g>
<g><path style="opacity:1" fill="#d4b6a5" d="M 63.5,29.5 C 63.8333,29.5 64.1667,29.5 64.5,29.5C 68.4569,30.3419 72.4569,31.5086 76.5,33C 80.7912,38.092 82.2912,43.9253 81,50.5C 80.6174,51.056 80.1174,51.3893 79.5,51.5C 77.1667,51.5 74.8333,51.5 72.5,51.5C 72.5,50.8333 72.5,50.1667 72.5,49.5C 76.1336,49.8436 77.8003,48.1769 77.5,44.5C 76.2819,40.8395 74.2819,37.6728 71.5,35C 72.7112,34.1072 72.7112,33.2739 71.5,32.5C 70.3887,33.6113 69.0554,34.278 67.5,34.5C 63.1735,33.3552 58.8401,33.3552 54.5,34.5C 54.5,33.5 54.5,32.5 54.5,31.5C 50.3899,31.3899 46.7233,32.3899 43.5,34.5C 42.1667,34.8333 40.8333,35.1667 39.5,35.5C 38.2921,34.7659 36.9587,34.4326 35.5,34.5C 34.7321,33.7375 34.2321,32.7375 34,31.5C 33.0138,32.1712 31.8471,32.1712 30.5,31.5C 30.5,31.1667 30.5,30.8333 30.5,30.5C 31.6948,30.3225 32.8615,29.9891 34,29.5C 37.5375,30.6987 41.0375,32.032 44.5,33.5C 45.3133,31.3523 46.8133,30.0189 49,29.5C 53.9764,30.7783 58.8098,30.7783 63.5,29.5 Z"/></g>
<g><path style="opacity:1" fill="#4f6026" d="M 162.5,15.5 C 162.5,18.8333 162.5,22.1667 162.5,25.5C 160.025,26.6874 159.025,28.6874 159.5,31.5C 155.158,31.7221 151.491,30.3888 148.5,27.5C 145.976,26.1997 143.309,26.1997 140.5,27.5C 138.438,29.4034 137.104,31.7367 136.5,34.5C 134.929,35.3094 133.262,35.6427 131.5,35.5C 132.105,33.9743 133.271,32.9743 135,32.5C 135.667,30.8333 135.667,29.1667 135,27.5C 133.141,26.4209 131.641,25.0876 130.5,23.5C 132.288,23.7852 133.955,23.4519 135.5,22.5C 138.662,20.3831 141.329,17.7164 143.5,14.5C 149.972,13.104 156.306,13.4373 162.5,15.5 Z"/></g>
<g><path style="opacity:1" fill="#5f7233" d="M 142.5,17.5 C 147.636,17.4334 152.636,18.1 157.5,19.5C 158.077,22.5497 156.91,24.5497 154,25.5C 148.879,24.2981 143.712,24.2981 138.5,25.5C 139.782,22.8627 141.115,20.196 142.5,17.5 Z"/></g>
<g><path style="opacity:1" fill="#e9d4c8" d="M 35.5,34.5 C 36.9587,34.4326 38.2921,34.7659 39.5,35.5C 41.1867,36.9176 43.02,38.2509 45,39.5C 47.6733,36.5878 49.8399,36.9211 51.5,40.5C 52.8333,41.8333 52.8333,43.1667 51.5,44.5C 49.9984,45.0831 48.6651,45.9164 47.5,47C 50.5129,47.5472 53.1795,48.7139 55.5,50.5C 58.1401,49.9049 60.8067,49.5715 63.5,49.5C 66.4815,49.8518 69.4815,49.8518 72.5,49.5C 72.5,50.1667 72.5,50.8333 72.5,51.5C 69.9407,51.1984 67.6074,51.5318 65.5,52.5C 63.8828,53.038 62.2161,53.3713 60.5,53.5C 59.4287,64.2806 59.4287,74.9472 60.5,85.5C 58.8333,85.5 57.1667,85.5 55.5,85.5C 54.0961,76.6878 53.7628,67.8545 54.5,59C 54.0946,58.0546 53.428,57.3879 52.5,57C 49.854,56.5026 47.1873,56.3359 44.5,56.5C 44.6107,55.8826 44.944,55.3826 45.5,55C 43.4453,52.9451 41.7787,50.6117 40.5,48C 48.38,45.8922 48.38,43.8922 40.5,42C 41.6667,39.1667 40.8333,38.3333 38,39.5C 36.6283,38.0899 35.795,36.4233 35.5,34.5 Z"/></g>
<g><path style="opacity:1" fill="#e7cfc3" d="M 43.5,34.5 C 45.3224,37.0379 47.3224,37.0379 49.5,34.5C 54.0448,36.1074 58.7115,37.4407 63.5,38.5C 63.5,42.1667 63.5,45.8333 63.5,49.5C 60.8067,49.5715 58.1401,49.9049 55.5,50.5C 53.1795,48.7139 50.5129,47.5472 47.5,47C 48.6651,45.9164 49.9984,45.0831 51.5,44.5C 52.8333,43.1667 52.8333,41.8333 51.5,40.5C 49.8399,36.9211 47.6733,36.5878 45,39.5C 43.02,38.2509 41.1867,36.9176 39.5,35.5C 40.8333,35.1667 42.1667,34.8333 43.5,34.5 Z"/></g>
<g><path style="opacity:1" fill="#2f2e32" d="M 90.5,27.5 C 91.8582,27.8222 93.5248,27.8222 95.5,27.5C 95.1826,30.5719 95.5159,33.5719 96.5,36.5C 97.086,36.2907 97.586,35.9574 98,35.5C 100.247,38.4916 100.913,41.8249 100,45.5C 98.951,43.8934 97.451,43.2267 95.5,43.5C 95.5,44.8333 95.5,46.1667 95.5,47.5C 94.5,47.5 93.5,47.5 92.5,47.5C 92.1667,47.5 91.8333,47.5 91.5,47.5C 91.3396,44.1165 91.673,40.7831 92.5,37.5C 92.3783,34.874 91.3783,32.874 89.5,31.5C 89.2322,29.901 89.5655,28.5676 90.5,27.5 Z"/></g>
<g><path style="opacity:1" fill="#475722" d="M 127.5,36.5 C 127.5,40.1667 127.5,43.8333 127.5,47.5C 121.833,47.5 116.167,47.5 110.5,47.5C 110.784,49.4147 110.451,51.0813 109.5,52.5C 108.026,51.5637 107.026,50.2303 106.5,48.5C 106.632,45.4299 106.299,42.4299 105.5,39.5C 106.404,38.791 106.737,37.791 106.5,36.5C 107.791,36.7373 108.791,36.404 109.5,35.5C 111.808,34.2857 114.141,34.2857 116.5,35.5C 118.226,37.724 120.392,39.3907 123,40.5C 124.715,39.3955 126.215,38.0622 127.5,36.5 Z"/></g>
<g><path style="opacity:1" fill="#96b35c" d="M 17.5,31.5 C 18.1667,31.5 18.8333,31.5 19.5,31.5C 20.6935,31.9704 21.3601,32.9704 21.5,34.5C 21.0029,36.8183 20.6695,39.1516 20.5,41.5C 17.7809,43.4642 14.7809,43.4642 11.5,41.5C 9.48538,37.209 10.8187,34.8757 15.5,34.5C 15.3505,35.552 15.5172,36.552 16,37.5C 17.3186,35.7505 17.8186,33.7505 17.5,31.5 Z"/></g>
<g><path style="opacity:1" fill="#7f7c58" d="M 165.5,6.5 C 166.167,6.5 166.833,6.5 167.5,6.5C 167.5,20.1667 167.5,33.8333 167.5,47.5C 166.167,47.5 164.833,47.5 163.5,47.5C 164.775,33.8659 165.442,20.1992 165.5,6.5 Z"/></g>
<g><path style="opacity:1" fill="#e9d8cf" d="M 30.5,31.5 C 31.8471,32.1712 33.0138,32.1712 34,31.5C 34.2321,32.7375 34.7321,33.7375 35.5,34.5C 35.795,36.4233 36.6283,38.0899 38,39.5C 40.8333,38.3333 41.6667,39.1667 40.5,42C 48.38,43.8922 48.38,45.8922 40.5,48C 41.7787,50.6117 43.4453,52.9451 45.5,55C 44.944,55.3826 44.6107,55.8826 44.5,56.5C 43.209,56.2627 42.209,56.596 41.5,57.5C 39.8212,57.2852 38.8212,57.9519 38.5,59.5C 36.2143,59.595 34.2143,60.2616 32.5,61.5C 31.5139,57.03 31.1805,52.3633 31.5,47.5C 29.5,47.5 27.5,47.5 25.5,47.5C 25.5,46.1667 25.5,44.8333 25.5,43.5C 26.176,38.9722 27.8427,34.9722 30.5,31.5 Z"/></g>
<g><path style="opacity:1" fill="#e0c7b7" d="M 72.5,49.5 C 69.4815,49.8518 66.4815,49.8518 63.5,49.5C 63.5,45.8333 63.5,42.1667 63.5,38.5C 58.7115,37.4407 54.0448,36.1074 49.5,34.5C 47.3224,37.0379 45.3224,37.0379 43.5,34.5C 46.7233,32.3899 50.3899,31.3899 54.5,31.5C 54.5,32.5 54.5,33.5 54.5,34.5C 58.8401,33.3552 63.1735,33.3552 67.5,34.5C 69.0554,34.278 70.3887,33.6113 71.5,32.5C 72.7112,33.2739 72.7112,34.1072 71.5,35C 74.2819,37.6728 76.2819,40.8395 77.5,44.5C 77.8003,48.1769 76.1336,49.8436 72.5,49.5 Z"/></g>
<g><path style="opacity:1" fill="#4b552f" d="M 95.5,21.5 C 98.1955,21.933 100.362,23.2663 102,25.5C 102.702,29.434 103.868,33.1007 105.5,36.5C 105.5,37.5 105.5,38.5 105.5,39.5C 106.299,42.4299 106.632,45.4299 106.5,48.5C 105.833,49.5 105.167,50.5 104.5,51.5C 103.766,40.8365 100.766,30.8365 95.5,21.5 Z"/></g>
<g><path style="opacity:1" fill="#4a591f" d="M 148.5,27.5 C 144.174,26.8289 141.174,28.4955 139.5,32.5C 142.374,34.1091 145.374,36.2758 148.5,39C 150.556,39.3108 152.556,39.8108 154.5,40.5C 155.528,42.3615 157.028,43.6948 159,44.5C 159.494,46.1341 159.66,47.8008 159.5,49.5C 156.167,49.5 152.833,49.5 149.5,49.5C 149.604,51.7028 150.27,53.7028 151.5,55.5C 151.209,56.6491 150.376,57.3158 149,57.5C 147.061,57.0457 145.228,56.379 143.5,55.5C 143.5,53.5 143.5,51.5 143.5,49.5C 143.5,47.5 143.5,45.5 143.5,43.5C 140.384,43.7114 137.55,44.0447 135,44.5C 133.037,42.2067 131.87,39.54 131.5,36.5C 131.5,36.1667 131.5,35.8333 131.5,35.5C 133.262,35.6427 134.929,35.3094 136.5,34.5C 137.104,31.7367 138.438,29.4034 140.5,27.5C 143.309,26.1997 145.976,26.1997 148.5,27.5 Z"/></g>
<g><path style="opacity:1" fill="#676c42" d="M 165.5,6.5 C 165.442,20.1992 164.775,33.8659 163.5,47.5C 163.664,50.1873 163.497,52.854 163,55.5C 162.617,56.056 162.117,56.3893 161.5,56.5C 162.226,46.1829 162.56,35.8496 162.5,25.5C 162.5,22.1667 162.5,18.8333 162.5,15.5C 163.473,13.0521 163.806,10.3854 163.5,7.5C 164.167,7.16667 164.833,6.83333 165.5,6.5 Z"/></g>
<g><path style="opacity:1" fill="#445123" d="M 127.5,36.5 C 128.833,36.5 130.167,36.5 131.5,36.5C 131.87,39.54 133.037,42.2067 135,44.5C 137.55,44.0447 140.384,43.7114 143.5,43.5C 143.5,45.5 143.5,47.5 143.5,49.5C 142.5,49.5 141.5,49.5 140.5,49.5C 140.374,52.4678 138.874,54.4678 136,55.5C 135.973,61.2581 133.14,63.9248 127.5,63.5C 127.312,59.9094 128.145,56.5761 130,53.5C 132.132,52.2203 134.298,52.2203 136.5,53.5C 137.5,53.1667 138.167,52.5 138.5,51.5C 135.404,48.7933 131.738,47.46 127.5,47.5C 127.5,43.8333 127.5,40.1667 127.5,36.5 Z"/></g>
<g><path style="opacity:1" fill="#987e75" d="M 65.5,52.5 C 67.6074,51.5318 69.9407,51.1984 72.5,51.5C 74.8333,51.5 77.1667,51.5 79.5,51.5C 85.5989,53.8416 85.5989,55.5083 79.5,56.5C 75.4009,54.6768 71.7343,55.1768 68.5,58C 69.0944,58.4643 69.7611,58.631 70.5,58.5C 71.2341,59.7079 71.5674,61.0413 71.5,62.5C 70.0418,60.1451 68.7085,60.4785 67.5,63.5C 67.4392,61.5608 67.4392,59.5608 67.5,57.5C 66.9747,56.8076 66.3081,56.3076 65.5,56C 66.7911,54.7083 66.7911,53.5417 65.5,52.5 Z"/></g>
<g><path style="opacity:1" fill="#8f9e71" d="M 23.5,28.5 C 20.9067,40.21 20.9067,51.8767 23.5,63.5C 23.1667,63.5 22.8333,63.5 22.5,63.5C 20.7573,56.2982 20.0906,48.9648 20.5,41.5C 20.6695,39.1516 21.0029,36.8183 21.5,34.5C 21.3601,32.9704 20.6935,31.9704 19.5,31.5C 19.7512,29.8297 20.4178,28.3297 21.5,27C 22.816,26.4719 23.4827,26.9719 23.5,28.5 Z"/></g>
<g><path style="opacity:1" fill="#b79781" d="M 64.5,29.5 C 72.1488,30.3282 79.8155,30.9949 87.5,31.5C 87.8333,31.5 88.1667,31.5 88.5,31.5C 88.1557,37.0984 88.8224,42.4317 90.5,47.5C 91.1049,50.1267 91.6049,52.7934 92,55.5C 92.3333,55.1667 92.6667,54.8333 93,54.5C 93.8749,55.8732 94.3749,57.3732 94.5,59C 94.09,61.9096 93.7567,64.7429 93.5,67.5C 92.3774,65.2548 91.2107,62.9215 90,60.5C 88.8061,59.5697 87.4728,58.9031 86,58.5C 85.7088,60.6654 84.2088,62.332 81.5,63.5C 80.5514,64.1524 79.3847,64.4857 78,64.5C 75.7794,64.6068 73.9461,63.9402 72.5,62.5C 74.5996,62.5228 76.4329,61.8561 78,60.5C 79.3323,62.9362 80.4989,62.9362 81.5,60.5C 77.9725,59.0787 74.3058,58.4121 70.5,58.5C 69.7611,58.631 69.0944,58.4643 68.5,58C 71.7343,55.1768 75.4009,54.6768 79.5,56.5C 85.5989,55.5083 85.5989,53.8416 79.5,51.5C 80.1174,51.3893 80.6174,51.056 81,50.5C 82.2912,43.9253 80.7912,38.092 76.5,33C 72.4569,31.5086 68.4569,30.3419 64.5,29.5 Z"/></g>
<g><path style="opacity:1" fill="#727f4c" d="M 163.5,47.5 C 164.833,47.5 166.167,47.5 167.5,47.5C 167.5,53.1667 167.5,58.8333 167.5,64.5C 165.742,64.8769 164.075,65.5435 162.5,66.5C 161.516,63.5719 161.183,60.5719 161.5,57.5C 161.5,57.1667 161.5,56.8333 161.5,56.5C 162.117,56.3893 162.617,56.056 163,55.5C 163.497,52.854 163.664,50.1873 163.5,47.5 Z"/></g>
<g><path style="opacity:1" fill="#829a52" d="M -0.5,49.5 C 5.78887,50.3721 12.1222,50.7054 18.5,50.5C 18.8591,55.0585 19.8591,59.3919 21.5,63.5C 20.2652,63.2786 19.2652,62.6119 18.5,61.5C 13.7388,63.37 8.7388,64.0367 3.5,63.5C 2.62356,63.6309 1.95689,63.2975 1.5,62.5C 2.34822,60.5914 2.68155,58.5914 2.5,56.5C 1.5,56.5 0.5,56.5 -0.5,56.5C -0.5,54.1667 -0.5,51.8333 -0.5,49.5 Z"/></g>
<g><path style="opacity:1" fill="#4f5d2a" d="M 127.5,47.5 C 131.738,47.46 135.404,48.7933 138.5,51.5C 138.167,52.5 137.5,53.1667 136.5,53.5C 134.298,52.2203 132.132,52.2203 130,53.5C 128.145,56.5761 127.312,59.9094 127.5,63.5C 124.721,63.2786 122.054,63.612 119.5,64.5C 119.489,62.9826 118.823,61.8159 117.5,61C 115.527,60.5045 113.527,60.3379 111.5,60.5C 111.784,58.5853 111.451,56.9187 110.5,55.5C 109.89,54.609 109.557,53.609 109.5,52.5C 110.451,51.0813 110.784,49.4147 110.5,47.5C 116.167,47.5 121.833,47.5 127.5,47.5 Z"/></g>
<g><path style="opacity:1" fill="#505e2b" d="M 143.5,55.5 C 145.228,56.379 147.061,57.0457 149,57.5C 150.376,57.3158 151.209,56.6491 151.5,55.5C 154.697,59.3882 153.697,61.5548 148.5,62C 147.031,64.6678 147.531,67.1678 150,69.5C 151.011,68.6634 152.178,68.33 153.5,68.5C 153.532,73.3907 154.199,78.0574 155.5,82.5C 154.833,83.5 154.167,84.5 153.5,85.5C 152.5,85.8333 151.833,86.5 151.5,87.5C 147.295,86.0897 142.962,85.423 138.5,85.5C 138.833,84.8333 139.167,84.1667 139.5,83.5C 140.873,83.6567 142.207,83.49 143.5,83C 141.365,82.2411 140.032,80.7411 139.5,78.5C 141.315,76.3055 143.482,75.9722 146,77.5C 147.31,74.497 147.476,71.497 146.5,68.5C 143.995,69.1092 141.662,68.4425 139.5,66.5C 141.022,64.8437 140.689,63.677 138.5,63C 139.509,60.8282 141.176,59.6615 143.5,59.5C 143.5,58.1667 143.5,56.8333 143.5,55.5 Z"/></g>
<g><path style="opacity:1" fill="#d3b9ad" d="M 25.5,43.5 C 25.5,44.8333 25.5,46.1667 25.5,47.5C 27.5,47.5 29.5,47.5 31.5,47.5C 31.1805,52.3633 31.5139,57.03 32.5,61.5C 31.8505,63.4352 31.5172,65.4352 31.5,67.5C 31.5,68.8333 31.5,70.1667 31.5,71.5C 31.8064,74.3854 31.4731,77.0521 30.5,79.5C 29.7784,79.0825 29.2784,78.4158 29,77.5C 29.949,83.6344 29.1156,83.9678 26.5,78.5C 25.9862,76.6336 25.3195,74.8003 24.5,73C 24.8361,71.9701 25.5028,71.4701 26.5,71.5C 27.2922,71.2336 27.6255,70.0669 27.5,68C 26.7789,61.2851 25.7789,54.6185 24.5,48C 24.5085,46.2933 24.8418,44.7933 25.5,43.5 Z"/></g>
<g><path style="opacity:1" fill="#5d443f" d="M 70.5,58.5 C 74.3058,58.4121 77.9725,59.0787 81.5,60.5C 80.4989,62.9362 79.3323,62.9362 78,60.5C 76.4329,61.8561 74.5996,62.5228 72.5,62.5C 72.1667,62.5 71.8333,62.5 71.5,62.5C 71.5674,61.0413 71.2341,59.7079 70.5,58.5 Z"/></g>
<g><path style="opacity:1" fill="#957b71" d="M 31.5,67.5 C 31.5172,65.4352 31.8505,63.4352 32.5,61.5C 34.2143,60.2616 36.2143,59.595 38.5,59.5C 40.0418,58.6993 41.7085,58.366 43.5,58.5C 43.5,59.5 43.5,60.5 43.5,61.5C 38.6332,61.9333 34.6332,63.9333 31.5,67.5 Z"/></g>
<g><path style="opacity:1" fill="#c9a995" d="M 93.5,67.5 C 92.9915,74.4489 92.9915,81.4489 93.5,88.5C 92.8423,89.3984 92.1757,90.3984 91.5,91.5C 90.5832,90.8728 89.5832,90.5394 88.5,90.5C 89.1079,89.2003 89.7745,87.8669 90.5,86.5C 89.2007,83.988 88.2007,81.3213 87.5,78.5C 88.4476,73.5649 88.781,68.5649 88.5,63.5C 86.1667,63.5 83.8333,63.5 81.5,63.5C 84.2088,62.332 85.7088,60.6654 86,58.5C 87.4728,58.9031 88.8061,59.5697 90,60.5C 91.2107,62.9215 92.3774,65.2548 93.5,67.5 Z"/></g>
<g><path style="opacity:1" fill="#424f20" d="M 162.5,25.5 C 162.56,35.8496 162.226,46.1829 161.5,56.5C 161.5,56.8333 161.5,57.1667 161.5,57.5C 160.883,57.6107 160.383,57.944 160,58.5C 159.501,63.4889 159.334,68.4889 159.5,73.5C 157.95,75.3002 156.95,77.4668 156.5,80C 157.056,80.3826 157.389,80.8826 157.5,81.5C 157.158,82.3382 156.492,82.6716 155.5,82.5C 154.199,78.0574 153.532,73.3907 153.5,68.5C 152.178,68.33 151.011,68.6634 150,69.5C 147.531,67.1678 147.031,64.6678 148.5,62C 153.697,61.5548 154.697,59.3882 151.5,55.5C 150.27,53.7028 149.604,51.7028 149.5,49.5C 152.833,49.5 156.167,49.5 159.5,49.5C 159.66,47.8008 159.494,46.1341 159,44.5C 157.028,43.6948 155.528,42.3615 154.5,40.5C 152.556,39.8108 150.556,39.3108 148.5,39C 145.374,36.2758 142.374,34.1091 139.5,32.5C 141.174,28.4955 144.174,26.8289 148.5,27.5C 151.491,30.3888 155.158,31.7221 159.5,31.5C 159.025,28.6874 160.025,26.6874 162.5,25.5 Z"/></g>
<g><path style="opacity:1" fill="#465423" d="M 143.5,49.5 C 143.5,51.5 143.5,53.5 143.5,55.5C 143.5,56.8333 143.5,58.1667 143.5,59.5C 141.176,59.6615 139.509,60.8282 138.5,63C 140.689,63.677 141.022,64.8437 139.5,66.5C 141.662,68.4425 143.995,69.1092 146.5,68.5C 147.476,71.497 147.31,74.497 146,77.5C 143.482,75.9722 141.315,76.3055 139.5,78.5C 140.032,80.7411 141.365,82.2411 143.5,83C 142.207,83.49 140.873,83.6567 139.5,83.5C 137.724,83.2062 135.724,83.0395 133.5,83C 133.833,82 134.167,81 134.5,80C 135.448,79.5172 136.448,79.3505 137.5,79.5C 137.466,76.8015 138.133,74.3015 139.5,72C 137.699,71.6827 137.366,71.016 138.5,70C 137.421,69.044 136.255,68.2106 135,67.5C 132.731,67.7259 130.231,68.0592 127.5,68.5C 127.5,69.8333 127.5,71.1667 127.5,72.5C 124.904,71.7347 122.237,71.4013 119.5,71.5C 118.918,69.002 118.918,66.6687 119.5,64.5C 122.054,63.612 124.721,63.2786 127.5,63.5C 133.14,63.9248 135.973,61.2581 136,55.5C 138.874,54.4678 140.374,52.4678 140.5,49.5C 141.5,49.5 142.5,49.5 143.5,49.5 Z"/></g>
<g><path style="opacity:1" fill="#655d3e" d="M 106.5,48.5 C 107.026,50.2303 108.026,51.5637 109.5,52.5C 109.557,53.609 109.89,54.609 110.5,55.5C 110.062,57.126 109.728,58.7927 109.5,60.5C 110.204,62.5351 110.871,64.5351 111.5,66.5C 110.833,70.1667 110.167,73.8333 109.5,77.5C 109.81,74.2869 109.477,71.2869 108.5,68.5C 108.5,64.8333 108.5,61.1667 108.5,57.5C 109.244,54.0504 107.91,52.3838 104.5,52.5C 104.5,52.1667 104.5,51.8333 104.5,51.5C 105.167,50.5 105.833,49.5 106.5,48.5 Z"/></g>
<g><path style="opacity:1" fill="#757f45" d="M 21.5,63.5 C 21.8333,63.5 22.1667,63.5 22.5,63.5C 22.8333,63.5 23.1667,63.5 23.5,63.5C 25.0972,65.8478 26.0972,68.5145 26.5,71.5C 25.5028,71.4701 24.8361,71.9701 24.5,73C 25.3195,74.8003 25.9862,76.6336 26.5,78.5C 26.1583,79.3382 25.4916,79.6716 24.5,79.5C 24.1667,79.5 23.8333,79.5 23.5,79.5C 21.7359,74.3561 21.0692,69.0228 21.5,63.5 Z"/></g>
<g><path style="opacity:1" fill="#5c6f3b" d="M 161.5,57.5 C 161.183,60.5719 161.516,63.5719 162.5,66.5C 164.075,65.5435 165.742,64.8769 167.5,64.5C 167.5,68.1667 167.5,71.8333 167.5,75.5C 164.302,76.0356 161.635,75.369 159.5,73.5C 159.334,68.4889 159.501,63.4889 160,58.5C 160.383,57.944 160.883,57.6107 161.5,57.5 Z"/></g>
<g><path style="opacity:1" fill="#b79b8d" d="M 104.5,52.5 C 107.91,52.3838 109.244,54.0504 108.5,57.5C 107.683,59.9686 107.183,62.6353 107,65.5C 106.51,64.2068 106.343,62.8734 106.5,61.5C 105.5,61.5 104.5,61.5 103.5,61.5C 103.244,63.9372 102.577,66.2706 101.5,68.5C 102.333,70.1667 103.167,71.8333 104,73.5C 105.356,72.6198 106.856,72.2865 108.5,72.5C 108.5,71.1667 108.5,69.8333 108.5,68.5C 109.477,71.2869 109.81,74.2869 109.5,77.5C 108.549,78.9187 108.216,80.5853 108.5,82.5C 106.528,84.3185 104.195,85.3185 101.5,85.5C 100.327,77.2582 99.6607,68.9249 99.5,60.5C 100.68,57.4604 102.347,54.7937 104.5,52.5 Z"/></g>
<g><path style="opacity:1" fill="#dab6aa" d="M 108.5,57.5 C 108.5,61.1667 108.5,64.8333 108.5,68.5C 108.5,69.8333 108.5,71.1667 108.5,72.5C 106.856,72.2865 105.356,72.6198 104,73.5C 103.167,71.8333 102.333,70.1667 101.5,68.5C 102.577,66.2706 103.244,63.9372 103.5,61.5C 104.5,61.5 105.5,61.5 106.5,61.5C 106.343,62.8734 106.51,64.2068 107,65.5C 107.183,62.6353 107.683,59.9686 108.5,57.5 Z"/></g>
<g><path style="opacity:1" fill="#485429" d="M 110.5,55.5 C 111.451,56.9187 111.784,58.5853 111.5,60.5C 113.527,60.3379 115.527,60.5045 117.5,61C 118.823,61.8159 119.489,62.9826 119.5,64.5C 118.918,66.6687 118.918,69.002 119.5,71.5C 122.237,71.4013 124.904,71.7347 127.5,72.5C 127.5,77.1667 127.5,81.8333 127.5,86.5C 124.855,83.7847 123.189,84.4514 122.5,88.5C 124.691,94.644 125.691,100.977 125.5,107.5C 124.167,107.5 122.833,107.5 121.5,107.5C 121.891,103.199 120.557,99.532 117.5,96.5C 118.341,89.862 118.174,83.1953 117,76.5C 115.559,75.7402 114.059,75.0736 112.5,74.5C 111.52,71.9135 111.187,69.2469 111.5,66.5C 110.871,64.5351 110.204,62.5351 109.5,60.5C 109.728,58.7927 110.062,57.126 110.5,55.5 Z"/></g>
<g><path style="opacity:1" fill="#ba9a8c" d="M 41.5,57.5 C 45.1163,58.5235 48.6163,59.8569 52,61.5C 52.8214,64.5541 52.6548,67.5541 51.5,70.5C 49.736,68.7224 47.736,67.3891 45.5,66.5C 44.0813,65.5489 42.4147,65.2155 40.5,65.5C 40.5,66.8333 40.5,68.1667 40.5,69.5C 42.2915,69.634 43.9582,69.3007 45.5,68.5C 47.7583,68.7751 48.0916,69.7751 46.5,71.5C 45.3333,71.8333 44.1667,72.1667 43,72.5C 39.2201,72.4167 35.3867,72.0834 31.5,71.5C 31.5,70.1667 31.5,68.8333 31.5,67.5C 34.6332,63.9333 38.6332,61.9333 43.5,61.5C 43.5,60.5 43.5,59.5 43.5,58.5C 41.7085,58.366 40.0418,58.6993 38.5,59.5C 38.8212,57.9519 39.8212,57.2852 41.5,57.5 Z"/></g>
<g><path style="opacity:1" fill="#624541" d="M 45.5,66.5 C 45.5,67.1667 45.5,67.8333 45.5,68.5C 43.9582,69.3007 42.2915,69.634 40.5,69.5C 40.5,68.1667 40.5,66.8333 40.5,65.5C 42.4147,65.2155 44.0813,65.5489 45.5,66.5 Z"/></g>
<g><path style="opacity:1" fill="#718732" d="M 21.5,63.5 C 21.0692,69.0228 21.7359,74.3561 23.5,79.5C 21.8333,79.5 20.1667,79.5 18.5,79.5C 18.5449,82.0772 17.5449,84.0772 15.5,85.5C 13.1944,85.9926 10.861,86.3259 8.5,86.5C 8.23166,83.8806 8.565,81.3806 9.5,79C 7.2036,73.9435 5.2036,68.7768 3.5,63.5C 8.7388,64.0367 13.7388,63.37 18.5,61.5C 19.2652,62.6119 20.2652,63.2786 21.5,63.5 Z"/></g>
<g><path style="opacity:1" fill="#424929" d="M 139.5,83.5 C 139.167,84.1667 138.833,84.8333 138.5,85.5C 134.435,85.8973 131.435,87.8973 129.5,91.5C 128.833,91.8333 128.167,92.1667 127.5,92.5C 127.5,90.5 127.5,88.5 127.5,86.5C 127.5,81.8333 127.5,77.1667 127.5,72.5C 127.5,71.1667 127.5,69.8333 127.5,68.5C 130.231,68.0592 132.731,67.7259 135,67.5C 136.255,68.2106 137.421,69.044 138.5,70C 137.366,71.016 137.699,71.6827 139.5,72C 138.133,74.3015 137.466,76.8015 137.5,79.5C 136.448,79.3505 135.448,79.5172 134.5,80C 134.167,81 133.833,82 133.5,83C 135.724,83.0395 137.724,83.2062 139.5,83.5 Z"/></g>
<g><path style="opacity:1" fill="#637535" d="M 148.5,74.5 C 154.023,76.2515 155.023,79.5849 151.5,84.5C 150.264,85.2458 148.93,85.5792 147.5,85.5C 147.481,83.9397 147.148,82.4397 146.5,81C 148.003,79.0786 148.669,76.912 148.5,74.5 Z"/></g>
<g><path style="opacity:1" fill="#a38773" d="M 90.5,47.5 C 90.8333,47.5 91.1667,47.5 91.5,47.5C 91.8333,47.5 92.1667,47.5 92.5,47.5C 94.4528,52.6445 95.7861,57.9778 96.5,63.5C 96.6805,72.5281 96.3471,81.5281 95.5,90.5C 94.1667,90.5 93.5,89.8333 93.5,88.5C 92.9915,81.4489 92.9915,74.4489 93.5,67.5C 93.7567,64.7429 94.09,61.9096 94.5,59C 94.3749,57.3732 93.8749,55.8732 93,54.5C 92.6667,54.8333 92.3333,55.1667 92,55.5C 91.6049,52.7934 91.1049,50.1267 90.5,47.5 Z"/></g>
<g><path style="opacity:1" fill="#637651" d="M 159.5,73.5 C 161.635,75.369 164.302,76.0356 167.5,75.5C 167.5,76.8333 167.5,78.1667 167.5,79.5C 163.917,79.2319 160.584,79.8986 157.5,81.5C 157.389,80.8826 157.056,80.3826 156.5,80C 156.95,77.4668 157.95,75.3002 159.5,73.5 Z"/></g>
<g><path style="opacity:1" fill="#e1c6bb" d="M 68.5,66.5 C 73.9844,67.0654 79.3178,68.3988 84.5,70.5C 85.2964,75.2845 85.4631,79.9512 85,84.5C 84.1453,87.9326 82.312,89.2659 79.5,88.5C 75.6775,87.6641 72.0108,86.6641 68.5,85.5C 68.4225,79.2675 68.4225,72.9342 68.5,66.5 Z"/></g>
<g><path style="opacity:1" fill="#787453" d="M -0.5,73.5 C 1.01739,73.5106 2.18405,74.1772 3,75.5C 3.49899,78.5182 3.33233,81.5182 2.5,84.5C 3.96696,88.0318 4.63363,91.6984 4.5,95.5C 6.16667,95.5 7.83333,95.5 9.5,95.5C 9.5,97.5 9.5,99.5 9.5,101.5C 6.16667,101.5 2.83333,101.5 -0.5,101.5C -0.5,92.1667 -0.5,82.8333 -0.5,73.5 Z"/></g>
<g><path style="opacity:1" fill="#c7a393" d="M 65.5,52.5 C 66.7911,53.5417 66.7911,54.7083 65.5,56C 66.3081,56.3076 66.9747,56.8076 67.5,57.5C 67.4392,59.5608 67.4392,61.5608 67.5,63.5C 68.404,64.209 68.7373,65.209 68.5,66.5C 68.4225,72.9342 68.4225,79.2675 68.5,85.5C 68.44,84.9569 68.1067,84.6236 67.5,84.5C 66.7348,85.6119 65.7348,86.2786 64.5,86.5C 63.4168,86.5394 62.4168,86.8728 61.5,87.5C 60.7025,87.0431 60.3691,86.3764 60.5,85.5C 59.4287,74.9472 59.4287,64.2806 60.5,53.5C 62.2161,53.3713 63.8828,53.038 65.5,52.5 Z"/></g>
<g><path style="opacity:1" fill="#d5b9ab" d="M 71.5,62.5 C 71.8333,62.5 72.1667,62.5 72.5,62.5C 73.9461,63.9402 75.7794,64.6068 78,64.5C 79.3847,64.4857 80.5514,64.1524 81.5,63.5C 83.8333,63.5 86.1667,63.5 88.5,63.5C 88.781,68.5649 88.4476,73.5649 87.5,78.5C 88.2007,81.3213 89.2007,83.988 90.5,86.5C 89.7745,87.8669 89.1079,89.2003 88.5,90.5C 87.7784,90.0825 87.2784,89.4158 87,88.5C 86.6892,90.556 86.1892,92.556 85.5,94.5C 84.675,95.3857 83.675,95.719 82.5,95.5C 82.7845,93.5853 82.4511,91.9187 81.5,90.5C 80.5,90.1667 79.8333,89.5 79.5,88.5C 82.312,89.2659 84.1453,87.9326 85,84.5C 85.4631,79.9512 85.2964,75.2845 84.5,70.5C 79.3178,68.3988 73.9844,67.0654 68.5,66.5C 68.7373,65.209 68.404,64.209 67.5,63.5C 68.7085,60.4785 70.0418,60.1451 71.5,62.5 Z"/></g>
<g><path style="opacity:1" fill="#dcc3b5" d="M 41.5,57.5 C 42.209,56.596 43.209,56.2627 44.5,56.5C 47.1873,56.3359 49.854,56.5026 52.5,57C 53.428,57.3879 54.0946,58.0546 54.5,59C 53.7628,67.8545 54.0961,76.6878 55.5,85.5C 54.6236,85.3691 53.9569,85.7025 53.5,86.5C 54.3256,87.451 54.4922,88.451 54,89.5C 50.8333,92 48,94.8333 45.5,98C 43.324,98.1629 41.4907,98.9963 40,100.5C 39.0853,99.6721 38.4186,98.6721 38,97.5C 37.6174,98.056 37.1174,98.3893 36.5,98.5C 35.2313,94.5919 33.5647,90.9252 31.5,87.5C 31.5987,84.7628 31.2653,82.0961 30.5,79.5C 31.4731,77.0521 31.8064,74.3854 31.5,71.5C 35.3867,72.0834 39.2201,72.4167 43,72.5C 44.1667,72.1667 45.3333,71.8333 46.5,71.5C 48.0916,69.7751 47.7583,68.7751 45.5,68.5C 45.5,67.8333 45.5,67.1667 45.5,66.5C 47.736,67.3891 49.736,68.7224 51.5,70.5C 52.6548,67.5541 52.8214,64.5541 52,61.5C 48.6163,59.8569 45.1163,58.5235 41.5,57.5 Z"/></g>
<g><path style="opacity:1" fill="#e7d3c6" d="M 47.5,73.5 C 50.488,73.1547 51.8213,74.488 51.5,77.5C 51.8213,80.512 50.488,81.8453 47.5,81.5C 47.6641,84.1873 47.4974,86.854 47,89.5C 46.5,91.3333 45.3333,92.5 43.5,93C 44.1667,93.6667 44.8333,94.3333 45.5,95C 43.5,95.6667 41.5,95.6667 39.5,95C 40.5171,93.9505 40.6838,92.7839 40,91.5C 39.6667,91.8333 39.3333,92.1667 39,92.5C 37.7978,86.8837 35.6312,81.717 32.5,77C 32.8333,76.1667 33.1667,75.3333 33.5,74.5C 34.1667,75.5 34.8333,76.5 35.5,77.5C 39.6136,76.1473 43.6136,74.8139 47.5,73.5 Z"/></g>
<g><path style="opacity:1" fill="#525c32" d="M 111.5,66.5 C 111.187,69.2469 111.52,71.9135 112.5,74.5C 114.059,75.0736 115.559,75.7402 117,76.5C 118.174,83.1953 118.341,89.862 117.5,96.5C 120.557,99.532 121.891,103.199 121.5,107.5C 122.833,107.5 124.167,107.5 125.5,107.5C 125.691,100.977 124.691,94.644 122.5,88.5C 123.189,84.4514 124.855,83.7847 127.5,86.5C 127.5,88.5 127.5,90.5 127.5,92.5C 127.5,98.8333 127.5,105.167 127.5,111.5C 125.833,111.5 124.167,111.5 122.5,111.5C 122.264,109.027 120.931,107.36 118.5,106.5C 115.701,105.996 113.201,104.996 111,103.5C 110.617,104.056 110.117,104.389 109.5,104.5C 108.114,100.727 106.448,97.0606 104.5,93.5C 105.565,89.709 106.899,86.0423 108.5,82.5C 108.216,80.5853 108.549,78.9187 109.5,77.5C 110.167,73.8333 110.833,70.1667 111.5,66.5 Z"/></g>
<g><path style="opacity:1" fill="#828c4c" d="M -0.5,56.5 C 0.5,56.5 1.5,56.5 2.5,56.5C 2.68155,58.5914 2.34822,60.5914 1.5,62.5C 1.95689,63.2975 2.62356,63.6309 3.5,63.5C 5.2036,68.7768 7.2036,73.9435 9.5,79C 8.565,81.3806 8.23166,83.8806 8.5,86.5C 10.861,86.3259 13.1944,85.9926 15.5,85.5C 15.5,86.8333 15.5,88.1667 15.5,89.5C 13.8212,89.2852 12.8212,89.9519 12.5,91.5C 11.5,92.8333 10.5,94.1667 9.5,95.5C 7.83333,95.5 6.16667,95.5 4.5,95.5C 4.63363,91.6984 3.96696,88.0318 2.5,84.5C 3.33233,81.5182 3.49899,78.5182 3,75.5C 2.18405,74.1772 1.01739,73.5106 -0.5,73.5C -0.5,67.8333 -0.5,62.1667 -0.5,56.5 Z"/></g>
<g><path style="opacity:1" fill="#ac958a" d="M 68.5,85.5 C 72.0108,86.6641 75.6775,87.6641 79.5,88.5C 79.8333,89.5 80.5,90.1667 81.5,90.5C 81.5,91.8333 81.5,93.1667 81.5,94.5C 78.6421,94.0283 76.6421,95.0283 75.5,97.5C 73.7211,95.6565 71.3878,94.9898 68.5,95.5C 70.2922,94.6909 72.2922,94.1909 74.5,94C 70.3868,92.2977 66.2201,92.131 62,93.5C 59.9908,92.5179 59.4908,91.1846 60.5,89.5C 61.1924,90.0253 61.6924,90.6919 62,91.5C 62.3661,89.5483 63.1995,87.8816 64.5,86.5C 65.7348,86.2786 66.7348,85.6119 67.5,84.5C 68.1067,84.6236 68.44,84.9569 68.5,85.5 Z"/></g>
<g><path style="opacity:1" fill="#f2f3f4" d="M 167.5,79.5 C 167.5,82.8333 167.5,86.1667 167.5,89.5C 163.559,88.5303 160.059,89.5303 157,92.5C 155.82,98.9143 155.32,105.248 155.5,111.5C 156.833,111.5 158.167,111.5 159.5,111.5C 159.5,113.167 159.5,114.833 159.5,116.5C 157.708,116.634 156.042,116.301 154.5,115.5C 154.611,114.883 154.944,114.383 155.5,114C 152.743,113.49 151.409,111.823 151.5,109C 151.106,101.444 151.772,93.6109 153.5,85.5C 154.167,84.5 154.833,83.5 155.5,82.5C 156.492,82.6716 157.158,82.3382 157.5,81.5C 160.584,79.8986 163.917,79.2319 167.5,79.5 Z"/></g>
<g><path style="opacity:1" fill="#80855b" d="M 23.5,79.5 C 23.8333,79.5 24.1667,79.5 24.5,79.5C 25.6414,81.4513 25.6414,83.4513 24.5,85.5C 23.5943,86.9649 22.261,87.9649 20.5,88.5C 19.5258,90.7427 19.1924,93.076 19.5,95.5C 18.1667,95.5 16.8333,95.5 15.5,95.5C 15.7852,93.712 15.4519,92.0453 14.5,90.5C 13.8165,90.8627 13.1499,91.1961 12.5,91.5C 12.8212,89.9519 13.8212,89.2852 15.5,89.5C 15.5,88.1667 15.5,86.8333 15.5,85.5C 17.5449,84.0772 18.5449,82.0772 18.5,79.5C 20.1667,79.5 21.8333,79.5 23.5,79.5 Z"/></g>
<g><path style="opacity:1" fill="#615347" d="M 99.5,60.5 C 99.6607,68.9249 100.327,77.2582 101.5,85.5C 101.167,89.5 100.833,93.5 100.5,97.5C 98.5443,101.809 96.5443,106.142 94.5,110.5C 91.8288,114.35 89.3288,118.35 87,122.5C 85.2196,123.639 83.3863,124.639 81.5,125.5C 80.7611,125.631 80.0944,125.464 79.5,125C 79.4043,122.21 79.7376,119.377 80.5,116.5C 80.5,115.5 80.5,114.5 80.5,113.5C 83.2624,111.673 86.0957,110.673 89,110.5C 89.1859,106.551 90.8526,103.551 94,101.5C 95.1989,98.2744 95.6989,94.941 95.5,91.5C 95.5,91.1667 95.5,90.8333 95.5,90.5C 96.3471,81.5281 96.6805,72.5281 96.5,63.5C 97.8999,62.9002 98.8999,61.9002 99.5,60.5 Z"/></g>
<g><path style="opacity:1" fill="#c1aa9e" d="M 55.5,85.5 C 57.1667,85.5 58.8333,85.5 60.5,85.5C 60.3691,86.3764 60.7025,87.0431 61.5,87.5C 62.4168,86.8728 63.4168,86.5394 64.5,86.5C 63.1995,87.8816 62.3661,89.5483 62,91.5C 61.6924,90.6919 61.1924,90.0253 60.5,89.5C 59.4908,91.1846 59.9908,92.5179 62,93.5C 66.2201,92.131 70.3868,92.2977 74.5,94C 72.2922,94.1909 70.2922,94.6909 68.5,95.5C 64.1667,95.5 59.8333,95.5 55.5,95.5C 55.7148,97.1788 55.0481,98.1788 53.5,98.5C 51.4482,99.0527 51.1148,100.053 52.5,101.5C 52.2641,104.609 52.5975,107.609 53.5,110.5C 51.8031,108.695 50.9698,106.361 51,103.5C 50.51,104.793 50.3433,106.127 50.5,107.5C 47.4124,107.803 45.7458,106.47 45.5,103.5C 44.5,103.5 43.5,103.5 42.5,103.5C 43.0965,105.398 43.0965,107.065 42.5,108.5C 39.4957,105.834 37.4957,102.501 36.5,98.5C 37.1174,98.3893 37.6174,98.056 38,97.5C 38.4186,98.6721 39.0853,99.6721 40,100.5C 41.4907,98.9963 43.324,98.1629 45.5,98C 48,94.8333 50.8333,92 54,89.5C 54.4922,88.451 54.3256,87.451 53.5,86.5C 53.9569,85.7025 54.6236,85.3691 55.5,85.5 Z"/></g>
<g><path style="opacity:1" fill="#94867b" d="M 31.5,87.5 C 33.5647,90.9252 35.2313,94.5919 36.5,98.5C 37.4957,102.501 39.4957,105.834 42.5,108.5C 42.5,108.833 42.5,109.167 42.5,109.5C 41.6618,109.842 41.3284,110.508 41.5,111.5C 41.1667,111.5 40.8333,111.5 40.5,111.5C 40.6716,110.508 40.3382,109.842 39.5,109.5C 39.2969,107.956 38.6302,106.622 37.5,105.5C 34.6908,104.2 32.0241,104.2 29.5,105.5C 29.1667,105.5 28.8333,105.5 28.5,105.5C 30.7171,103.92 33.3837,102.92 36.5,102.5C 35.3717,101.738 34.2051,101.071 33,100.5C 31.7101,96.2695 31.2101,91.9362 31.5,87.5 Z"/></g>
<g><path style="opacity:1" fill="#eaece7" d="M 167.5,89.5 C 167.5,95.8333 167.5,102.167 167.5,108.5C 165.716,107.426 164.549,105.76 164,103.5C 161.867,106.792 162.034,109.958 164.5,113C 163.224,116.808 160.558,118.308 156.5,117.5C 156.286,119.144 156.62,120.644 157.5,122C 159.644,123.146 161.477,124.646 163,126.5C 164.44,127.148 165.94,127.481 167.5,127.5C 167.5,129.5 167.5,131.5 167.5,133.5C 164.779,133.037 162.112,132.371 159.5,131.5C 158.167,130.833 156.833,130.167 155.5,129.5C 160.694,129.058 160.694,128.058 155.5,126.5C 153.531,123.802 151.865,121.635 150.5,120C 151.121,117.859 152.454,116.359 154.5,115.5C 156.042,116.301 157.708,116.634 159.5,116.5C 159.5,114.833 159.5,113.167 159.5,111.5C 158.167,111.5 156.833,111.5 155.5,111.5C 155.32,105.248 155.82,98.9143 157,92.5C 160.059,89.5303 163.559,88.5303 167.5,89.5 Z"/></g>
<g><path style="opacity:1" fill="#4f4f34" d="M 108.5,82.5 C 106.899,86.0423 105.565,89.709 104.5,93.5C 106.448,97.0606 108.114,100.727 109.5,104.5C 107.641,104.112 105.641,104.112 103.5,104.5C 103.66,102.801 103.494,101.134 103,99.5C 102.583,98.244 101.75,97.5774 100.5,97.5C 100.833,93.5 101.167,89.5 101.5,85.5C 104.195,85.3185 106.528,84.3185 108.5,82.5 Z"/></g>
<g><path style="opacity:1" fill="#717059" d="M 30.5,79.5 C 31.2653,82.0961 31.5987,84.7628 31.5,87.5C 31.2101,91.9362 31.7101,96.2695 33,100.5C 34.2051,101.071 35.3717,101.738 36.5,102.5C 33.3837,102.92 30.7171,103.92 28.5,105.5C 26.9582,106.301 25.2915,106.634 23.5,106.5C 23.7683,103.881 23.435,101.381 22.5,99C 23.9446,94.9641 24.9446,90.7974 25.5,86.5C 25.3764,85.8933 25.0431,85.56 24.5,85.5C 25.6414,83.4513 25.6414,81.4513 24.5,79.5C 25.4916,79.6716 26.1583,79.3382 26.5,78.5C 29.1156,83.9678 29.949,83.6344 29,77.5C 29.2784,78.4158 29.7784,79.0825 30.5,79.5 Z"/></g>
<g><path style="opacity:1" fill="#c7b59f" d="M 138.5,85.5 C 142.962,85.423 147.295,86.0897 151.5,87.5C 151.498,91.8741 150.498,95.8741 148.5,99.5C 148.768,97.901 148.434,96.5676 147.5,95.5C 147.209,94.3509 146.376,93.6842 145,93.5C 142.367,94.0894 141.2,95.756 141.5,98.5C 140.167,98.5 138.833,98.5 137.5,98.5C 139.257,95.0407 141.924,92.374 145.5,90.5C 136.669,84.7808 131.335,87.1141 129.5,97.5C 130.297,100.572 130.297,103.739 129.5,107C 129.871,110.772 131.204,113.938 133.5,116.5C 134.488,117.795 135.488,119.128 136.5,120.5C 135.504,120.586 134.671,120.252 134,119.5C 133.51,120.793 133.343,122.127 133.5,123.5C 132.833,123.5 132.5,123.167 132.5,122.5C 132.785,120.712 132.452,119.045 131.5,117.5C 130.145,116.812 129.145,115.812 128.5,114.5C 128.233,106.778 128.566,99.111 129.5,91.5C 131.435,87.8973 134.435,85.8973 138.5,85.5 Z"/></g>
<g><path style="opacity:1" fill="#f1e4dd" d="M 137.5,98.5 C 136.833,98.5 136.167,98.5 135.5,98.5C 133.435,98.4828 131.435,98.1495 129.5,97.5C 131.335,87.1141 136.669,84.7808 145.5,90.5C 141.924,92.374 139.257,95.0407 137.5,98.5 Z"/></g>
<g><path style="opacity:1" fill="#b17f7f" d="M 68.5,95.5 C 71.3878,94.9898 73.7211,95.6565 75.5,97.5C 75.5,97.8333 75.5,98.1667 75.5,98.5C 73.772,99.379 71.9386,100.046 70,100.5C 64.1432,99.3687 58.3099,99.202 52.5,100C 53.056,99.6174 53.3893,99.1174 53.5,98.5C 55.0481,98.1788 55.7148,97.1788 55.5,95.5C 59.8333,95.5 64.1667,95.5 68.5,95.5 Z"/></g>
<g><path style="opacity:1" fill="#c89f9c" d="M 53.5,98.5 C 53.3893,99.1174 53.056,99.6174 52.5,100C 58.3099,99.202 64.1432,99.3687 70,100.5C 71.9386,100.046 73.772,99.379 75.5,98.5C 75.9885,102.93 73.9885,105.263 69.5,105.5C 69.0296,104.307 68.0296,103.64 66.5,103.5C 63.7695,103.389 61.7695,104.389 60.5,106.5C 59.596,105.791 59.2627,104.791 59.5,103.5C 57.0706,103.116 54.7373,102.449 52.5,101.5C 51.1148,100.053 51.4482,99.0527 53.5,98.5 Z"/></g>
<g><path style="opacity:1" fill="#88836d" d="M 24.5,85.5 C 25.0431,85.56 25.3764,85.8933 25.5,86.5C 24.9446,90.7974 23.9446,94.9641 22.5,99C 23.435,101.381 23.7683,103.881 23.5,106.5C 25.2915,106.634 26.9582,106.301 28.5,105.5C 28.8333,105.5 29.1667,105.5 29.5,105.5C 28.4097,106.857 27.0764,107.857 25.5,108.5C 23.326,108.75 21.6594,109.75 20.5,111.5C 18.8181,107.053 16.1514,106.386 12.5,109.5C 12.1583,108.662 11.4916,108.328 10.5,108.5C 10.5,106.833 10.5,105.167 10.5,103.5C 7.61456,103.194 4.9479,103.527 2.5,104.5C 1.5,104.5 0.5,104.5 -0.5,104.5C -0.5,103.5 -0.5,102.5 -0.5,101.5C 2.83333,101.5 6.16667,101.5 9.5,101.5C 9.5,99.5 9.5,97.5 9.5,95.5C 10.5,94.1667 11.5,92.8333 12.5,91.5C 13.1499,91.1961 13.8165,90.8627 14.5,90.5C 15.4519,92.0453 15.7852,93.712 15.5,95.5C 16.8333,95.5 18.1667,95.5 19.5,95.5C 19.1924,93.076 19.5258,90.7427 20.5,88.5C 22.261,87.9649 23.5943,86.9649 24.5,85.5 Z"/></g>
<g><path style="opacity:1" fill="#ccb3a7" d="M 88.5,90.5 C 88.1057,92.7734 88.1057,94.9401 88.5,97C 87.0953,98.2692 85.4286,98.7692 83.5,98.5C 81.8162,101.216 80.6496,104.216 80,107.5C 75.0386,109.38 71.5386,112.714 69.5,117.5C 67.0799,117.708 64.7466,117.374 62.5,116.5C 61.5713,115.311 61.238,113.978 61.5,112.5C 58.4669,112.868 55.8002,112.202 53.5,110.5C 52.5975,107.609 52.2641,104.609 52.5,101.5C 54.7373,102.449 57.0706,103.116 59.5,103.5C 59.2627,104.791 59.596,105.791 60.5,106.5C 63.9412,110.665 66.9412,110.331 69.5,105.5C 73.9885,105.263 75.9885,102.93 75.5,98.5C 75.5,98.1667 75.5,97.8333 75.5,97.5C 76.6421,95.0283 78.6421,94.0283 81.5,94.5C 81.5,93.1667 81.5,91.8333 81.5,90.5C 82.4511,91.9187 82.7845,93.5853 82.5,95.5C 83.675,95.719 84.675,95.3857 85.5,94.5C 86.1892,92.556 86.6892,90.556 87,88.5C 87.2784,89.4158 87.7784,90.0825 88.5,90.5 Z"/></g>
<g><path style="opacity:1" fill="#ab978b" d="M 93.5,88.5 C 93.5,89.8333 94.1667,90.5 95.5,90.5C 95.5,90.8333 95.5,91.1667 95.5,91.5C 94.4248,94.2393 92.4248,95.906 89.5,96.5C 88.7871,99.2371 88.7871,101.904 89.5,104.5C 88.273,105.59 87.4396,106.924 87,108.5C 85.5993,106.808 83.7659,106.141 81.5,106.5C 81.552,108.903 81.2186,111.236 80.5,113.5C 80.5,114.5 80.5,115.5 80.5,116.5C 78.8389,113.839 77.1723,113.839 75.5,116.5C 73.604,117.466 71.604,117.799 69.5,117.5C 71.5386,112.714 75.0386,109.38 80,107.5C 80.6496,104.216 81.8162,101.216 83.5,98.5C 85.4286,98.7692 87.0953,98.2692 88.5,97C 88.1057,94.9401 88.1057,92.7734 88.5,90.5C 89.5832,90.5394 90.5832,90.8728 91.5,91.5C 92.1757,90.3984 92.8423,89.3984 93.5,88.5 Z"/></g>
<g><path style="opacity:1" fill="#b28c75" d="M 147.5,95.5 C 146.766,100.076 145.766,104.576 144.5,109C 139.441,111.863 136.608,110.363 136,104.5C 135.617,105.056 135.117,105.389 134.5,105.5C 134.993,103.194 135.326,100.861 135.5,98.5C 136.167,98.5 136.833,98.5 137.5,98.5C 138.833,98.5 140.167,98.5 141.5,98.5C 141.2,95.756 142.367,94.0894 145,93.5C 146.376,93.6842 147.209,94.3509 147.5,95.5 Z"/></g>
<g><path style="opacity:1" fill="#b492ab" d="M 10.5,108.5 C 5.94504,110.673 3.27837,109.34 2.5,104.5C 4.9479,103.527 7.61456,103.194 10.5,103.5C 10.5,105.167 10.5,106.833 10.5,108.5 Z"/></g>
<g><path style="opacity:1" fill="#95816d" d="M 100.5,97.5 C 101.75,97.5774 102.583,98.244 103,99.5C 103.494,101.134 103.66,102.801 103.5,104.5C 104.932,106.647 106.765,106.98 109,105.5C 109.375,108 110.208,110.333 111.5,112.5C 111.376,113.107 111.043,113.44 110.5,113.5C 109.833,113.5 109.5,113.833 109.5,114.5C 107.526,112.572 106.026,110.239 105,107.5C 104.517,108.448 104.351,109.448 104.5,110.5C 104.649,111.552 104.483,112.552 104,113.5C 102.333,111.167 100.667,108.833 99,106.5C 97.6288,108.041 96.1288,109.375 94.5,110.5C 96.5443,106.142 98.5443,101.809 100.5,97.5 Z"/></g>
<g><path style="opacity:1" fill="#927c76" d="M 69.5,105.5 C 66.9412,110.331 63.9412,110.665 60.5,106.5C 61.7695,104.389 63.7695,103.389 66.5,103.5C 68.0296,103.64 69.0296,104.307 69.5,105.5 Z"/></g>
<g><path style="opacity:1" fill="#907c70" d="M 95.5,91.5 C 95.6989,94.941 95.1989,98.2744 94,101.5C 90.8526,103.551 89.1859,106.551 89,110.5C 86.0957,110.673 83.2624,111.673 80.5,113.5C 81.2186,111.236 81.552,108.903 81.5,106.5C 83.7659,106.141 85.5993,106.808 87,108.5C 87.4396,106.924 88.273,105.59 89.5,104.5C 88.7871,101.904 88.7871,99.2371 89.5,96.5C 92.4248,95.906 94.4248,94.2393 95.5,91.5 Z"/></g>
<g><path style="opacity:1" fill="#ecefeb" d="M 153.5,85.5 C 151.772,93.6109 151.106,101.444 151.5,109C 151.409,111.823 152.743,113.49 155.5,114C 154.944,114.383 154.611,114.883 154.5,115.5C 152.454,116.359 151.121,117.859 150.5,120C 151.865,121.635 153.531,123.802 155.5,126.5C 160.694,128.058 160.694,129.058 155.5,129.5C 151.988,129.076 148.655,128.076 145.5,126.5C 146.193,117.381 147.193,108.381 148.5,99.5C 150.498,95.8741 151.498,91.8741 151.5,87.5C 151.833,86.5 152.5,85.8333 153.5,85.5 Z"/></g>
<g><path style="opacity:1" fill="#634b5d" d="M -0.5,104.5 C 0.5,104.5 1.5,104.5 2.5,104.5C 3.27837,109.34 5.94504,110.673 10.5,108.5C 10.5,109.5 10.5,110.5 10.5,111.5C 7.5,111.5 4.5,111.5 1.5,111.5C 0.833333,111.5 0.166667,111.5 -0.5,111.5C -0.5,109.167 -0.5,106.833 -0.5,104.5 Z"/></g>
<g><path style="opacity:1" fill="#e0c5be" d="M 129.5,97.5 C 131.435,98.1495 133.435,98.4828 135.5,98.5C 135.326,100.861 134.993,103.194 134.5,105.5C 133.518,108.962 133.185,112.629 133.5,116.5C 131.204,113.938 129.871,110.772 129.5,107C 130.297,103.739 130.297,100.572 129.5,97.5 Z"/></g>
<g><path style="opacity:1" fill="#8f9d67" d="M 20.5,111.5 C 19.8058,116.805 19.4724,122.138 19.5,127.5C 18.1667,127.5 16.8333,127.5 15.5,127.5C 15.5,125.5 15.5,123.5 15.5,121.5C 15.5,118.167 15.5,114.833 15.5,111.5C 13.8212,111.715 12.8212,111.048 12.5,109.5C 16.1514,106.386 18.8181,107.053 20.5,111.5 Z"/></g>
<g><path style="opacity:1" fill="#9d7f70" d="M 147.5,95.5 C 148.434,96.5676 148.768,97.901 148.5,99.5C 147.193,108.381 146.193,117.381 145.5,126.5C 142.67,126.037 140.003,125.371 137.5,124.5C 138.239,124.631 138.906,124.464 139.5,124C 138.177,123.184 137.511,122.017 137.5,120.5C 137.167,120.5 136.833,120.5 136.5,120.5C 135.488,119.128 134.488,117.795 133.5,116.5C 133.185,112.629 133.518,108.962 134.5,105.5C 135.117,105.389 135.617,105.056 136,104.5C 136.608,110.363 139.441,111.863 144.5,109C 145.766,104.576 146.766,100.076 147.5,95.5 Z"/></g>
<g><path style="opacity:1" fill="#73634f" d="M 109.5,104.5 C 110.117,104.389 110.617,104.056 111,103.5C 113.201,104.996 115.701,105.996 118.5,106.5C 120.931,107.36 122.264,109.027 122.5,111.5C 121.448,113.256 119.781,113.923 117.5,113.5C 117.5,114.833 117.5,116.167 117.5,117.5C 120.833,117.5 124.167,117.5 127.5,117.5C 127.5,118.833 127.5,120.167 127.5,121.5C 124.193,121.538 121.026,120.872 118,119.5C 115.553,117.369 113.053,115.369 110.5,113.5C 111.043,113.44 111.376,113.107 111.5,112.5C 110.208,110.333 109.375,108 109,105.5C 106.765,106.98 104.932,106.647 103.5,104.5C 105.641,104.112 107.641,104.112 109.5,104.5 Z"/></g>
<g><path style="opacity:1" fill="#887c61" d="M 129.5,91.5 C 128.566,99.111 128.233,106.778 128.5,114.5C 127.596,115.209 127.263,116.209 127.5,117.5C 124.167,117.5 120.833,117.5 117.5,117.5C 117.5,116.167 117.5,114.833 117.5,113.5C 119.781,113.923 121.448,113.256 122.5,111.5C 124.167,111.5 125.833,111.5 127.5,111.5C 127.5,105.167 127.5,98.8333 127.5,92.5C 128.167,92.1667 128.833,91.8333 129.5,91.5 Z"/></g>
<g><path style="opacity:1" fill="#949091" d="M -0.5,111.5 C 0.166667,111.5 0.833333,111.5 1.5,111.5C 2.39764,113.627 4.06431,114.794 6.5,115C 7.25244,115.671 7.58577,116.504 7.5,117.5C 7.16667,117.5 6.83333,117.5 6.5,117.5C 4.54409,115.852 2.21076,115.185 -0.5,115.5C -0.5,114.167 -0.5,112.833 -0.5,111.5 Z"/></g>
<g><path style="opacity:1" fill="#a99689" d="M 53.5,110.5 C 55.8002,112.202 58.4669,112.868 61.5,112.5C 61.238,113.978 61.5713,115.311 62.5,116.5C 64.7466,117.374 67.0799,117.708 69.5,117.5C 67.7816,118.224 65.9483,118.891 64,119.5C 60.9243,118.712 57.7577,118.212 54.5,118C 52.3181,115.988 49.6514,114.988 46.5,115C 44.5359,113.549 43.2026,111.716 42.5,109.5C 42.5,109.167 42.5,108.833 42.5,108.5C 43.0965,107.065 43.0965,105.398 42.5,103.5C 43.5,103.5 44.5,103.5 45.5,103.5C 45.7458,106.47 47.4124,107.803 50.5,107.5C 50.3433,106.127 50.51,104.793 51,103.5C 50.9698,106.361 51.8031,108.695 53.5,110.5 Z"/></g>
<g><path style="opacity:1" fill="#5e5d51" d="M 10.5,108.5 C 11.4916,108.328 12.1583,108.662 12.5,109.5C 12.8212,111.048 13.8212,111.715 15.5,111.5C 15.5,114.833 15.5,118.167 15.5,121.5C 13.1417,121.747 11.1417,121.081 9.5,119.5C 8.5,119.167 7.83333,118.5 7.5,117.5C 7.58577,116.504 7.25244,115.671 6.5,115C 4.06431,114.794 2.39764,113.627 1.5,111.5C 4.5,111.5 7.5,111.5 10.5,111.5C 10.5,110.5 10.5,109.5 10.5,108.5 Z"/></g>
<g><path style="opacity:1" fill="#f7f7f8" d="M -0.5,115.5 C 2.21076,115.185 4.54409,115.852 6.5,117.5C 7.51832,121.287 7.51832,125.12 6.5,129C 6.62915,130.981 7.29582,132.647 8.5,134C 7.74756,134.671 7.41423,135.504 7.5,136.5C 4.9239,137.488 2.25724,138.488 -0.5,139.5C -0.5,131.5 -0.5,123.5 -0.5,115.5 Z"/></g>
<g><path style="opacity:1" fill="#d4d7da" d="M 39.5,109.5 C 38.3778,110.947 36.8778,111.947 35,112.5C 34.5172,113.448 34.3505,114.448 34.5,115.5C 31.3314,115.662 29.3314,117.328 28.5,120.5C 27.3112,121.429 25.9778,121.762 24.5,121.5C 22.9977,117.022 23.331,112.688 25.5,108.5C 27.0764,107.857 28.4097,106.857 29.5,105.5C 32.0241,104.2 34.6908,104.2 37.5,105.5C 38.6302,106.622 39.2969,107.956 39.5,109.5 Z"/></g>
<g><path style="opacity:1" fill="#7d6f65" d="M 42.5,109.5 C 43.2026,111.716 44.5359,113.549 46.5,115C 49.6514,114.988 52.3181,115.988 54.5,118C 57.7577,118.212 60.9243,118.712 64,119.5C 65.9483,118.891 67.7816,118.224 69.5,117.5C 71.604,117.799 73.604,117.466 75.5,116.5C 77.1723,113.839 78.8389,113.839 80.5,116.5C 79.7376,119.377 79.4043,122.21 79.5,125C 80.0944,125.464 80.7611,125.631 81.5,125.5C 80.0497,127.383 78.0497,128.383 75.5,128.5C 71.524,129.164 67.524,129.497 63.5,129.5C 56.7409,127.615 51.0742,123.948 46.5,118.5C 45.5307,120.617 45.864,122.617 47.5,124.5C 46.0222,124.762 44.6888,124.429 43.5,123.5C 44.6225,121.518 44.6225,119.518 43.5,117.5C 42.2702,115.703 41.6036,113.703 41.5,111.5C 41.3284,110.508 41.6618,109.842 42.5,109.5 Z"/></g>
<g><path style="opacity:1" fill="#cecbc3" d="M 109.5,114.5 C 111.106,117.986 112.106,121.653 112.5,125.5C 111.751,123.03 110.251,121.03 108,119.5C 107.768,120.737 107.268,121.737 106.5,122.5C 106.802,119.941 106.468,117.607 105.5,115.5C 105.784,113.585 105.451,111.919 104.5,110.5C 104.351,109.448 104.517,108.448 105,107.5C 106.026,110.239 107.526,112.572 109.5,114.5 Z"/></g>
<g><path style="opacity:1" fill="#7d7978" d="M 128.5,114.5 C 129.145,115.812 130.145,116.812 131.5,117.5C 132.452,119.045 132.785,120.712 132.5,122.5C 130.833,122.5 129.167,122.5 127.5,122.5C 127.5,122.167 127.5,121.833 127.5,121.5C 127.5,120.167 127.5,118.833 127.5,117.5C 127.263,116.209 127.596,115.209 128.5,114.5 Z"/></g>
<g><path style="opacity:1" fill="#78634f" d="M 137.5,120.5 C 137.5,119.167 137.5,117.833 137.5,116.5C 139.5,115.833 141.5,115.167 143.5,114.5C 143.281,113.325 143.614,112.325 144.5,111.5C 145.833,115.5 145.833,119.5 144.5,123.5C 142.338,121.98 140.005,120.98 137.5,120.5 Z"/></g>
<g><path style="opacity:1" fill="#d8e0db" d="M 136.5,120.5 C 136.833,120.5 137.167,120.5 137.5,120.5C 137.511,122.017 138.177,123.184 139.5,124C 138.906,124.464 138.239,124.631 137.5,124.5C 136.167,124.167 134.833,123.833 133.5,123.5C 133.343,122.127 133.51,120.793 134,119.5C 134.671,120.252 135.504,120.586 136.5,120.5 Z"/></g>
<g><path style="opacity:1" fill="#a4a7ac" d="M 39.5,109.5 C 40.3382,109.842 40.6716,110.508 40.5,111.5C 38.6612,115.687 35.9945,119.353 32.5,122.5C 31.6906,124.071 31.3573,125.738 31.5,127.5C 29.1055,128.015 26.7722,128.681 24.5,129.5C 24.5,126.833 24.5,124.167 24.5,121.5C 25.9778,121.762 27.3112,121.429 28.5,120.5C 29.3314,117.328 31.3314,115.662 34.5,115.5C 34.3505,114.448 34.5172,113.448 35,112.5C 36.8778,111.947 38.3778,110.947 39.5,109.5 Z"/></g>
<g><path style="opacity:1" fill="#63696e" d="M 40.5,111.5 C 40.8333,111.5 41.1667,111.5 41.5,111.5C 41.6036,113.703 42.2702,115.703 43.5,117.5C 40.6995,119.686 39.3662,122.686 39.5,126.5C 36.7628,126.401 34.0961,126.735 31.5,127.5C 31.3573,125.738 31.6906,124.071 32.5,122.5C 35.9945,119.353 38.6612,115.687 40.5,111.5 Z"/></g>
<g><path style="opacity:1" fill="#e3dfec" d="M 6.5,117.5 C 6.83333,117.5 7.16667,117.5 7.5,117.5C 7.83333,118.5 8.5,119.167 9.5,119.5C 11.0435,121.928 12.0435,124.594 12.5,127.5C 13.5,127.5 14.5,127.5 15.5,127.5C 15.5,129.5 15.5,131.5 15.5,133.5C 12.9239,134.488 10.2572,135.488 7.5,136.5C 7.41423,135.504 7.74756,134.671 8.5,134C 7.29582,132.647 6.62915,130.981 6.5,129C 7.51832,125.12 7.51832,121.287 6.5,117.5 Z"/></g>
<g><path style="opacity:1" fill="#dbdad2" d="M 167.5,108.5 C 167.5,114.833 167.5,121.167 167.5,127.5C 165.94,127.481 164.44,127.148 163,126.5C 161.477,124.646 159.644,123.146 157.5,122C 156.62,120.644 156.286,119.144 156.5,117.5C 160.558,118.308 163.224,116.808 164.5,113C 162.034,109.958 161.867,106.792 164,103.5C 164.549,105.76 165.716,107.426 167.5,108.5 Z"/></g>
<g><path style="opacity:1" fill="#bbaeaa" d="M 9.5,119.5 C 11.1417,121.081 13.1417,121.747 15.5,121.5C 15.5,123.5 15.5,125.5 15.5,127.5C 14.5,127.5 13.5,127.5 12.5,127.5C 12.0435,124.594 11.0435,121.928 9.5,119.5 Z"/></g>
<g><path style="opacity:1" fill="#ae998b" d="M 104.5,110.5 C 105.451,111.919 105.784,113.585 105.5,115.5C 105.248,119.327 103.915,122.66 101.5,125.5C 100.694,124.003 100.028,122.336 99.5,120.5C 100.855,116.865 99.688,114.198 96,112.5C 95.6667,115.5 95.3333,118.5 95,121.5C 92.1769,123.145 90.3436,125.479 89.5,128.5C 80.7155,130.065 72.0489,130.398 63.5,129.5C 67.524,129.497 71.524,129.164 75.5,128.5C 78.0497,128.383 80.0497,127.383 81.5,125.5C 83.3863,124.639 85.2196,123.639 87,122.5C 89.3288,118.35 91.8288,114.35 94.5,110.5C 96.1288,109.375 97.6288,108.041 99,106.5C 100.667,108.833 102.333,111.167 104,113.5C 104.483,112.552 104.649,111.552 104.5,110.5 Z"/></g>
<g><path style="opacity:1" fill="#2a2f30" d="M 110.5,113.5 C 113.053,115.369 115.553,117.369 118,119.5C 121.026,120.872 124.193,121.538 127.5,121.5C 127.5,121.833 127.5,122.167 127.5,122.5C 127.238,123.978 127.571,125.311 128.5,126.5C 129.695,128.297 131.362,129.297 133.5,129.5C 133.357,131.262 133.691,132.929 134.5,134.5C 132.604,135.466 130.604,135.799 128.5,135.5C 128.911,138.276 128.078,138.943 126,137.5C 123.6,138.044 121.267,138.711 119,139.5C 118.562,136.624 117.562,133.957 116,131.5C 115.722,132.416 115.222,133.082 114.5,133.5C 114.037,130.779 113.371,128.112 112.5,125.5C 112.106,121.653 111.106,117.986 109.5,114.5C 109.5,113.833 109.833,113.5 110.5,113.5 Z"/></g>
<g><path style="opacity:1" fill="#c5c7b7" d="M 25.5,108.5 C 23.331,112.688 22.9977,117.022 24.5,121.5C 24.5,124.167 24.5,126.833 24.5,129.5C 21.768,130.866 19.1013,132.199 16.5,133.5C 16.1667,133.5 15.8333,133.5 15.5,133.5C 15.5,131.5 15.5,129.5 15.5,127.5C 16.8333,127.5 18.1667,127.5 19.5,127.5C 19.4724,122.138 19.8058,116.805 20.5,111.5C 21.6594,109.75 23.326,108.75 25.5,108.5 Z"/></g>
<g><path style="opacity:1" fill="#c5afa1" d="M 101.5,125.5 C 99.8847,128.45 97.8847,131.116 95.5,133.5C 91.4947,136.507 87.4947,139.507 83.5,142.5C 82.6236,142.631 81.9569,142.298 81.5,141.5C 82.2634,140.281 83.2634,139.281 84.5,138.5C 83.6086,137.41 82.6086,137.41 81.5,138.5C 79.9954,135.869 79.3287,136.203 79.5,139.5C 76.5941,139.084 73.7607,138.418 71,137.5C 69.4385,137.603 67.9385,137.937 66.5,138.5C 64.9246,137.544 63.258,136.877 61.5,136.5C 57.8886,134.683 54.5553,132.35 51.5,129.5C 50.713,127.896 49.3797,127.229 47.5,127.5C 47.5,126.5 47.5,125.5 47.5,124.5C 45.864,122.617 45.5307,120.617 46.5,118.5C 51.0742,123.948 56.7409,127.615 63.5,129.5C 72.0489,130.398 80.7155,130.065 89.5,128.5C 90.3436,125.479 92.1769,123.145 95,121.5C 95.3333,118.5 95.6667,115.5 96,112.5C 99.688,114.198 100.855,116.865 99.5,120.5C 100.028,122.336 100.694,124.003 101.5,125.5 Z"/></g>
<g><path style="opacity:1" fill="#333a3c" d="M 127.5,122.5 C 129.167,122.5 130.833,122.5 132.5,122.5C 132.5,123.167 132.833,123.5 133.5,123.5C 134.833,123.833 136.167,124.167 137.5,124.5C 140.003,125.371 142.67,126.037 145.5,126.5C 148.655,128.076 151.988,129.076 155.5,129.5C 156.833,130.167 158.167,130.833 159.5,131.5C 156.673,132.901 154.006,132.567 151.5,130.5C 148.972,131.498 148.972,132.331 151.5,133C 150.833,133.333 150.167,133.667 149.5,134C 150.833,134.333 152.167,134.667 153.5,135C 152.552,135.483 151.552,135.649 150.5,135.5C 150.5,136.5 150.5,137.5 150.5,138.5C 148.167,138.5 145.833,138.5 143.5,138.5C 142.399,137.402 141.066,137.235 139.5,138C 140.591,140.064 140.758,142.231 140,144.5C 139.02,146.059 138.187,147.726 137.5,149.5C 133.562,148.433 132.896,149.433 135.5,152.5C 134.273,153.59 133.44,154.924 133,156.5C 132.717,153.258 131.883,152.924 130.5,155.5C 129.391,154.41 128.391,154.41 127.5,155.5C 128.325,156.386 129.325,156.719 130.5,156.5C 130.24,160.424 129.24,164.091 127.5,167.5C 123.833,167.5 120.167,167.5 116.5,167.5C 115.782,158.518 115.448,149.518 115.5,140.5C 115.552,138.097 115.219,135.764 114.5,133.5C 115.222,133.082 115.722,132.416 116,131.5C 117.562,133.957 118.562,136.624 119,139.5C 121.267,138.711 123.6,138.044 126,137.5C 128.078,138.943 128.911,138.276 128.5,135.5C 130.604,135.799 132.604,135.466 134.5,134.5C 133.691,132.929 133.357,131.262 133.5,129.5C 131.362,129.297 129.695,128.297 128.5,126.5C 127.571,125.311 127.238,123.978 127.5,122.5 Z"/></g>
<g><path style="opacity:1" fill="#2c3134" d="M 159.5,131.5 C 162.112,132.371 164.779,133.037 167.5,133.5C 167.5,140.5 167.5,147.5 167.5,154.5C 164.96,153.113 163.293,150.946 162.5,148C 157.954,147.19 157.62,145.857 161.5,144C 159.833,143.667 158.167,143.333 156.5,143C 155.667,140.833 154.167,139.333 152,138.5C 149.619,139.435 147.119,139.768 144.5,139.5C 144.762,140.978 144.429,142.311 143.5,143.5C 142.334,141.833 142.334,140.166 143.5,138.5C 145.833,138.5 148.167,138.5 150.5,138.5C 150.5,137.5 150.5,136.5 150.5,135.5C 151.552,135.649 152.552,135.483 153.5,135C 152.167,134.667 150.833,134.333 149.5,134C 150.167,133.667 150.833,133.333 151.5,133C 148.972,132.331 148.972,131.498 151.5,130.5C 154.006,132.567 156.673,132.901 159.5,131.5 Z"/></g>
<g><path style="opacity:1" fill="#363b3e" d="M 47.5,127.5 C 48.3059,140.817 48.6392,154.15 48.5,167.5C 47.8333,167.5 47.1667,167.5 46.5,167.5C 46.6665,158.161 46.4998,148.827 46,139.5C 45.586,139.043 45.086,138.709 44.5,138.5C 40.1041,141.696 35.4375,144.363 30.5,146.5C 29.391,146.443 28.391,146.11 27.5,145.5C 26.0378,144.199 24.7044,142.699 23.5,141C 27.7201,134.888 33.3867,130.721 40.5,128.5C 42.7427,127.526 45.076,127.192 47.5,127.5 Z"/></g>
<g><path style="opacity:1" fill="#d6c3ba" d="M 61.5,136.5 C 63.258,136.877 64.9246,137.544 66.5,138.5C 67.9385,137.937 69.4385,137.603 71,137.5C 73.7607,138.418 76.5941,139.084 79.5,139.5C 79.3287,136.203 79.9954,135.869 81.5,138.5C 82.6086,137.41 83.6086,137.41 84.5,138.5C 83.2634,139.281 82.2634,140.281 81.5,141.5C 81.9569,142.298 82.6236,142.631 83.5,142.5C 80.0381,143.482 76.3714,143.815 72.5,143.5C 68.322,141.914 64.6554,139.581 61.5,136.5 Z"/></g>
<g><path style="opacity:1" fill="#e7e8ed" d="M 112.5,125.5 C 113.371,128.112 114.037,130.779 114.5,133.5C 115.219,135.764 115.552,138.097 115.5,140.5C 114.618,146.086 113.451,151.752 112,157.5C 111.517,156.552 111.351,155.552 111.5,154.5C 109.801,154.34 108.134,154.506 106.5,155C 104.75,157.018 103.416,159.185 102.5,161.5C 101.518,162.141 100.518,162.807 99.5,163.5C 98.3735,161.731 98.8735,160.397 101,159.5C 101.653,155.184 102.82,151.017 104.5,147C 103.803,142.637 103.469,138.304 103.5,134C 103.93,132.566 104.764,131.399 106,130.5C 106.042,127.704 106.209,125.037 106.5,122.5C 107.268,121.737 107.768,120.737 108,119.5C 110.251,121.03 111.751,123.03 112.5,125.5 Z"/></g>
<g><path style="opacity:1" fill="#3a3d42" d="M 15.5,133.5 C 15.8333,133.5 16.1667,133.5 16.5,133.5C 18.1376,134.657 19.8043,135.824 21.5,137C 19.4547,137.51 17.6213,138.343 16,139.5C 15.5034,141.81 15.3367,144.143 15.5,146.5C 16.791,146.263 17.791,146.596 18.5,147.5C 14.6646,148.562 11.1646,150.229 8,152.5C 7.58605,152.043 7.08605,151.709 6.5,151.5C 4.51279,153.327 2.17946,154.327 -0.5,154.5C -0.5,149.5 -0.5,144.5 -0.5,139.5C 2.25724,138.488 4.9239,137.488 7.5,136.5C 10.2572,135.488 12.9239,134.488 15.5,133.5 Z"/></g>
<g><path style="opacity:1" fill="#f8f9fa" d="M 51.5,129.5 C 54.5553,132.35 57.8886,134.683 61.5,136.5C 64.6554,139.581 68.322,141.914 72.5,143.5C 69.8433,146.657 67.01,149.657 64,152.5C 63.3083,153.437 63.475,154.103 64.5,154.5C 64.6716,155.492 64.3382,156.158 63.5,156.5C 61.3543,158.775 59.6876,161.442 58.5,164.5C 57.5,163.5 56.5,162.5 55.5,161.5C 56.2418,157.058 56.2418,152.724 55.5,148.5C 54.8089,142.391 53.1422,136.557 50.5,131C 50.5699,130.235 50.9033,129.735 51.5,129.5 Z"/></g>
<g><path style="opacity:1" fill="#efeff2" d="M 105.5,115.5 C 106.468,117.607 106.802,119.941 106.5,122.5C 106.209,125.037 106.042,127.704 106,130.5C 104.764,131.399 103.93,132.566 103.5,134C 103.469,138.304 103.803,142.637 104.5,147C 102.82,151.017 101.653,155.184 101,159.5C 98.8735,160.397 98.3735,161.731 99.5,163.5C 100.518,162.807 101.518,162.141 102.5,161.5C 102.281,162.675 102.614,163.675 103.5,164.5C 105.78,165.136 107.78,166.136 109.5,167.5C 101.833,167.5 94.1667,167.5 86.5,167.5C 88.845,163.472 91.1783,159.472 93.5,155.5C 95.3792,154.659 97.3792,154.325 99.5,154.5C 100.167,148.167 100.833,141.833 101.5,135.5C 99.3146,135.296 97.3146,134.63 95.5,133.5C 97.8847,131.116 99.8847,128.45 101.5,125.5C 103.915,122.66 105.248,119.327 105.5,115.5 Z"/></g>
<g><path style="opacity:1" fill="#3e4445" d="M 43.5,117.5 C 44.6225,119.518 44.6225,121.518 43.5,123.5C 44.6888,124.429 46.0222,124.762 47.5,124.5C 47.5,125.5 47.5,126.5 47.5,127.5C 45.076,127.192 42.7427,127.526 40.5,128.5C 33.3867,130.721 27.7201,134.888 23.5,141C 24.7044,142.699 26.0378,144.199 27.5,145.5C 24.546,146.271 21.546,146.938 18.5,147.5C 17.791,146.596 16.791,146.263 15.5,146.5C 15.3367,144.143 15.5034,141.81 16,139.5C 17.6213,138.343 19.4547,137.51 21.5,137C 19.8043,135.824 18.1376,134.657 16.5,133.5C 19.1013,132.199 21.768,130.866 24.5,129.5C 26.7722,128.681 29.1055,128.015 31.5,127.5C 34.0961,126.735 36.7628,126.401 39.5,126.5C 39.3662,122.686 40.6995,119.686 43.5,117.5 Z"/></g>
<g><path style="opacity:1" fill="#31363b" d="M 143.5,138.5 C 142.334,140.166 142.334,141.833 143.5,143.5C 144.429,142.311 144.762,140.978 144.5,139.5C 147.119,139.768 149.619,139.435 152,138.5C 154.167,139.333 155.667,140.833 156.5,143C 158.167,143.333 159.833,143.667 161.5,144C 157.62,145.857 157.954,147.19 162.5,148C 163.293,150.946 164.96,153.113 167.5,154.5C 167.5,158.833 167.5,163.167 167.5,167.5C 167.167,167.5 166.833,167.5 166.5,167.5C 167.669,161.838 165.669,157.838 160.5,155.5C 159.098,155.865 158.098,156.699 157.5,158C 158.367,161.105 158.701,164.272 158.5,167.5C 154.833,167.5 151.167,167.5 147.5,167.5C 146.686,162.881 146.353,158.214 146.5,153.5C 144.692,153.509 143.025,153.009 141.5,152C 142.888,151.111 142.722,150.611 141,150.5C 139.739,150.759 138.739,151.426 138,152.5C 137.071,157.579 135.904,162.579 134.5,167.5C 132.167,167.5 129.833,167.5 127.5,167.5C 129.24,164.091 130.24,160.424 130.5,156.5C 129.325,156.719 128.325,156.386 127.5,155.5C 128.391,154.41 129.391,154.41 130.5,155.5C 131.883,152.924 132.717,153.258 133,156.5C 133.44,154.924 134.273,153.59 135.5,152.5C 132.896,149.433 133.562,148.433 137.5,149.5C 138.187,147.726 139.02,146.059 140,144.5C 140.758,142.231 140.591,140.064 139.5,138C 141.066,137.235 142.399,137.402 143.5,138.5 Z"/></g>
<g><path style="opacity:1" fill="#41454a" d="M 27.5,145.5 C 28.391,146.11 29.391,146.443 30.5,146.5C 30.5,147.5 30.5,148.5 30.5,149.5C 35.5912,150.636 36.5912,153.303 33.5,157.5C 32.0653,156.176 31.0653,154.51 30.5,152.5C 29.2322,151.572 27.8989,151.405 26.5,152C 27.4407,157.1 27.4407,162.267 26.5,167.5C 17.5,167.5 8.5,167.5 -0.5,167.5C -0.5,163.167 -0.5,158.833 -0.5,154.5C 2.17946,154.327 4.51279,153.327 6.5,151.5C 7.08605,151.709 7.58605,152.043 8,152.5C 11.1646,150.229 14.6646,148.562 18.5,147.5C 21.546,146.938 24.546,146.271 27.5,145.5 Z"/></g>
<g><path style="opacity:1" fill="#474c52" d="M 46.5,167.5 C 39.8333,167.5 33.1667,167.5 26.5,167.5C 27.4407,162.267 27.4407,157.1 26.5,152C 27.8989,151.405 29.2322,151.572 30.5,152.5C 31.0653,154.51 32.0653,156.176 33.5,157.5C 36.5912,153.303 35.5912,150.636 30.5,149.5C 30.5,148.5 30.5,147.5 30.5,146.5C 35.4375,144.363 40.1041,141.696 44.5,138.5C 45.086,138.709 45.586,139.043 46,139.5C 46.4998,148.827 46.6665,158.161 46.5,167.5 Z"/></g>
<g><path style="opacity:1" fill="#f0f1f3" d="M 95.5,133.5 C 97.3146,134.63 99.3146,135.296 101.5,135.5C 100.833,141.833 100.167,148.167 99.5,154.5C 97.3792,154.325 95.3792,154.659 93.5,155.5C 92.3787,152.953 90.712,151.953 88.5,152.5C 81.7025,154.546 74.7025,155.046 67.5,154C 66.2805,152.205 65.2805,152.372 64.5,154.5C 63.475,154.103 63.3083,153.437 64,152.5C 67.01,149.657 69.8433,146.657 72.5,143.5C 76.3714,143.815 80.0381,143.482 83.5,142.5C 87.4947,139.507 91.4947,136.507 95.5,133.5 Z"/></g>
<g><path style="opacity:1" fill="#4a4f54" d="M 166.5,167.5 C 163.833,167.5 161.167,167.5 158.5,167.5C 158.701,164.272 158.367,161.105 157.5,158C 158.098,156.699 159.098,155.865 160.5,155.5C 165.669,157.838 167.669,161.838 166.5,167.5 Z"/></g>
<g><path style="opacity:1" fill="#393c44" d="M 88.5,152.5 C 88.6495,153.552 88.4828,154.552 88,155.5C 84.4787,158.533 81.9787,162.199 80.5,166.5C 78.901,166.232 77.5676,166.566 76.5,167.5C 73.8333,167.5 71.1667,167.5 68.5,167.5C 66.0245,164.215 64.3579,160.548 63.5,156.5C 64.3382,156.158 64.6716,155.492 64.5,154.5C 65.2805,152.372 66.2805,152.205 67.5,154C 74.7025,155.046 81.7025,154.546 88.5,152.5 Z"/></g>
<g><path style="opacity:1" fill="#434951" d="M 147.5,167.5 C 143.167,167.5 138.833,167.5 134.5,167.5C 135.904,162.579 137.071,157.579 138,152.5C 138.739,151.426 139.739,150.759 141,150.5C 142.722,150.611 142.888,151.111 141.5,152C 143.025,153.009 144.692,153.509 146.5,153.5C 146.353,158.214 146.686,162.881 147.5,167.5 Z"/></g>
<g><path style="opacity:1" fill="#f2f2f7" d="M 115.5,140.5 C 115.448,149.518 115.782,158.518 116.5,167.5C 114.167,167.5 111.833,167.5 109.5,167.5C 107.78,166.136 105.78,165.136 103.5,164.5C 102.614,163.675 102.281,162.675 102.5,161.5C 103.416,159.185 104.75,157.018 106.5,155C 108.134,154.506 109.801,154.34 111.5,154.5C 111.351,155.552 111.517,156.552 112,157.5C 113.451,151.752 114.618,146.086 115.5,140.5 Z"/></g>
<g><path style="opacity:1" fill="#eaecf3" d="M 47.5,127.5 C 49.3797,127.229 50.713,127.896 51.5,129.5C 50.9033,129.735 50.5699,130.235 50.5,131C 53.1422,136.557 54.8089,142.391 55.5,148.5C 56.2418,152.724 56.2418,157.058 55.5,161.5C 56.5,162.5 57.5,163.5 58.5,164.5C 59.6876,161.442 61.3543,158.775 63.5,156.5C 64.3579,160.548 66.0245,164.215 68.5,167.5C 61.8333,167.5 55.1667,167.5 48.5,167.5C 48.6392,154.15 48.3059,140.817 47.5,127.5 Z"/></g>
<g><path style="opacity:1" fill="#262b32" d="M 93.5,155.5 C 91.1783,159.472 88.845,163.472 86.5,167.5C 83.1667,167.5 79.8333,167.5 76.5,167.5C 77.5676,166.566 78.901,166.232 80.5,166.5C 81.9787,162.199 84.4787,158.533 88,155.5C 88.4828,154.552 88.6495,153.552 88.5,152.5C 90.712,151.953 92.3787,152.953 93.5,155.5 Z"/></g>
</svg>
