<?xml version="1.0" encoding="UTF-8"?>
<!DOCTYPE svg PUBLIC "-//W3C//DTD SVG 1.1//EN" "http://www.w3.org/Graphics/SVG/1.1/DTD/svg11.dtd">
<svg xmlns="http://www.w3.org/2000/svg" version="1.1" width="1015px" height="226px" style="shape-rendering:geometricPrecision; text-rendering:geometricPrecision; image-rendering:optimizeQuality; fill-rule:evenodd; clip-rule:evenodd" xmlns:xlink="http://www.w3.org/1999/xlink">
<g><path style="opacity:0.251" fill="#b7baca" d="M 151.5,33.5 C 157.079,31.5587 162.079,32.5587 166.5,36.5C 166.5,37.1667 166.833,37.5 167.5,37.5C 167.5,38.1667 167.5,38.8333 167.5,39.5C 163.258,34.7167 157.924,32.7167 151.5,33.5 Z"/></g>
<g><path style="opacity:0.322" fill="#b6bccf" d="M 312.5,33.5 C 318.128,31.5872 323.294,32.5872 328,36.5C 328.791,37.745 329.291,39.0783 329.5,40.5C 328.833,40.1667 328.167,39.8333 327.5,39.5C 327.084,37.2475 325.751,35.7475 323.5,35C 319.94,33.7633 316.273,33.2633 312.5,33.5 Z"/></g>
<g><path style="opacity:0.005" fill="#fefffe" d="M 166.5,36.5 C 167.189,35.2264 168.023,35.2264 169,36.5C 170.935,40.3606 170.768,44.0272 168.5,47.5C 168.5,45.5 168.5,43.5 168.5,41.5C 169.833,41.1667 169.833,40.8333 168.5,40.5C 168.5,39.8333 168.167,39.5 167.5,39.5C 167.5,38.8333 167.5,38.1667 167.5,37.5C 166.833,37.5 166.5,37.1667 166.5,36.5 Z"/></g>
<g><path style="opacity:0.478" fill="#959ab8" d="M 151.5,33.5 C 149.055,35.9295 147.055,38.5962 145.5,41.5C 145.5,40.5 145.5,39.5 145.5,38.5C 146.911,36.086 148.911,34.4194 151.5,33.5 Z"/></g>
<g><path style="opacity:1" fill="#27346d" d="M 151.5,33.5 C 157.924,32.7167 163.258,34.7167 167.5,39.5C 168.445,45.2356 167.111,50.2356 163.5,54.5C 158.833,55.8333 154.167,55.8333 149.5,54.5C 148.248,52.9991 147.248,51.3325 146.5,49.5C 145.781,47.2362 145.448,44.9029 145.5,42.5C 145.5,42.1667 145.5,41.8333 145.5,41.5C 147.055,38.5962 149.055,35.9295 151.5,33.5 Z"/></g>
<g><path style="opacity:1" fill="#26346d" d="M 327.5,39.5 C 328.167,39.8333 328.833,40.1667 329.5,40.5C 329.5,40.8333 329.5,41.1667 329.5,41.5C 329.774,46.6119 328.108,50.9453 324.5,54.5C 323.833,54.5 323.167,54.5 322.5,54.5C 319.482,54.6646 316.482,54.498 313.5,54C 306.183,46.0445 307.183,39.5445 316.5,34.5C 320.83,34.8334 324.496,36.5001 327.5,39.5 Z"/></g>
<g><path style="opacity:1" fill="#333e68" d="M 312.5,33.5 C 316.273,33.2633 319.94,33.7633 323.5,35C 325.751,35.7475 327.084,37.2475 327.5,39.5C 324.496,36.5001 320.83,34.8334 316.5,34.5C 307.183,39.5445 306.183,46.0445 313.5,54C 316.482,54.498 319.482,54.6646 322.5,54.5C 319.375,55.4794 316.042,55.8128 312.5,55.5C 310.471,53.1415 308.471,50.8082 306.5,48.5C 305.774,42.3327 307.774,37.3327 312.5,33.5 Z"/></g>
<g><path style="opacity:1" fill="#24326d" d="M 554.5,40.5 C 554.5,82.5 554.5,124.5 554.5,166.5C 548.5,166.5 542.5,166.5 536.5,166.5C 536.5,124.5 536.5,82.5 536.5,40.5C 542.5,40.5 548.5,40.5 554.5,40.5 Z"/></g>
<g><path style="opacity:1" fill="#24326d" d="M 955.5,112.5 C 956.909,114.552 958.575,117.052 960.5,120C 958.493,123.551 955.66,124.717 952,123.5C 952.811,125.791 951.977,127.625 949.5,129C 950.667,130.167 951.833,131.333 953,132.5C 953.21,130.942 953.71,129.609 954.5,128.5C 954.5,141.5 954.5,154.5 954.5,167.5C 948.5,167.5 942.5,167.5 936.5,167.5C 936.5,125.167 936.5,82.8333 936.5,40.5C 942.5,40.5 948.5,40.5 954.5,40.5C 954.169,64.6725 954.502,88.6725 955.5,112.5 Z"/></g>
<g><path style="opacity:0.514" fill="#80879f" d="M 145.5,42.5 C 145.448,44.9029 145.781,47.2362 146.5,49.5C 145.833,49.1667 145.167,48.8333 144.5,48.5C 144.205,46.2646 144.539,44.2646 145.5,42.5 Z"/></g>
<g><path style="opacity:0.31" fill="#b4b8d1" d="M 312.5,33.5 C 307.774,37.3327 305.774,42.3327 306.5,48.5C 305.226,44.9258 305.393,41.2591 307,37.5C 308.451,35.5359 310.284,34.2026 312.5,33.5 Z"/></g>
<g><path style="opacity:0.082" fill="#c9d0e3" d="M 329.5,41.5 C 330.94,45.265 330.44,48.9317 328,52.5C 327.184,53.8228 326.017,54.4894 324.5,54.5C 328.108,50.9453 329.774,46.6119 329.5,41.5 Z"/></g>
<g><path style="opacity:0.102" fill="#cfe1ec" d="M 79.5,46.5 C 76.8333,46.5 74.1667,46.5 71.5,46.5C 54.8333,45.1667 38.1667,45.1667 21.5,46.5C 20.8333,84.1667 20.1667,121.833 19.5,159.5C 19.3333,121.499 19.5,83.4985 20,45.5C 37.7597,44.3416 55.593,44.175 73.5,45C 75.7078,45.1909 77.7078,45.6909 79.5,46.5 Z"/></g>
<g><path style="opacity:0.039" fill="#d7dfe6" d="M 145.5,38.5 C 145.5,39.5 145.5,40.5 145.5,41.5C 145.5,41.8333 145.5,42.1667 145.5,42.5C 144.539,44.2646 144.205,46.2646 144.5,48.5C 143.135,45.041 143.469,41.7076 145.5,38.5 Z"/></g>
<g><path style="opacity:0.897" fill="#343e6c" d="M 554.5,40.5 C 554.833,40.5 555.167,40.5 555.5,40.5C 555.5,82.8333 555.5,125.167 555.5,167.5C 549.167,167.5 542.833,167.5 536.5,167.5C 536.5,167.167 536.5,166.833 536.5,166.5C 542.5,166.5 548.5,166.5 554.5,166.5C 554.5,124.5 554.5,82.5 554.5,40.5 Z"/></g>
<g><path style="opacity:0.58" fill="#6d739c" d="M 555.5,39.5 C 555.5,39.8333 555.5,40.1667 555.5,40.5C 555.167,40.5 554.833,40.5 554.5,40.5C 548.5,40.5 542.5,40.5 536.5,40.5C 536.5,82.5 536.5,124.5 536.5,166.5C 536.5,166.833 536.5,167.167 536.5,167.5C 536.167,167.5 535.833,167.5 535.5,167.5C 535.5,124.833 535.5,82.1667 535.5,39.5C 542.167,39.5 548.833,39.5 555.5,39.5 Z"/></g>
<g><path style="opacity:0.373" fill="#b6bbc9" d="M 555.5,39.5 C 555.833,39.5 556.167,39.5 556.5,39.5C 556.833,82.8264 556.833,126.16 556.5,169.5C 549.313,169.825 542.313,169.491 535.5,168.5C 535.5,168.167 535.5,167.833 535.5,167.5C 535.833,167.5 536.167,167.5 536.5,167.5C 542.833,167.5 549.167,167.5 555.5,167.5C 555.5,125.167 555.5,82.8333 555.5,40.5C 555.5,40.1667 555.5,39.8333 555.5,39.5 Z"/></g>
<g><path style="opacity:0.737" fill="#7b83a3" d="M 623.5,44.5 C 630.687,44.1755 637.687,44.5088 644.5,45.5C 632.961,44.7839 621.628,45.7839 610.5,48.5C 614.378,45.9871 618.711,44.6538 623.5,44.5 Z"/></g>
<g><path style="opacity:1" fill="#26336d" d="M 644.5,45.5 C 657.333,47.2529 668.666,52.2529 678.5,60.5C 680.794,64.1274 683.46,67.4607 686.5,70.5C 686.229,72.3797 686.896,73.713 688.5,74.5C 688.5,75.5 688.5,76.5 688.5,77.5C 688.575,80.2062 688.908,82.8728 689.5,85.5C 683.833,85.5 678.167,85.5 672.5,85.5C 671.657,80.6621 668.991,77.3287 664.5,75.5C 663.738,73.7376 662.404,72.7376 660.5,72.5C 659.833,71.5 659.167,70.5 658.5,69.5C 657.71,68.2058 656.71,67.0391 655.5,66C 653.026,65.8871 651.026,64.8871 649.5,63C 646.183,62.5017 642.85,62.335 639.5,62.5C 624.083,61.2111 612.083,66.8778 603.5,79.5C 601.149,82.8683 599.316,86.535 598,90.5C 596.801,93.7256 596.301,97.059 596.5,100.5C 596.167,100.5 595.833,100.5 595.5,100.5C 596.19,96.0748 595.19,92.2415 592.5,89C 593.167,87 593.833,85 594.5,83C 595.121,80.5017 594.455,78.1684 592.5,76C 593.218,73.5393 593.885,71.0393 594.5,68.5C 593.726,67.2888 592.893,67.2888 592,68.5C 590.487,74.5237 588.153,80.1904 585,85.5C 584.289,83.1009 584.456,80.7676 585.5,78.5C 584.192,77.3744 582.858,77.3744 581.5,78.5C 581.5,77.8333 581.5,77.1667 581.5,76.5C 585.192,71.1487 588.859,65.8154 592.5,60.5C 595.427,59.2427 597.761,57.2427 599.5,54.5C 603.335,52.7505 607.001,50.7505 610.5,48.5C 621.628,45.7839 632.961,44.7839 644.5,45.5 Z"/></g>
<g><path style="opacity:1" fill="#2c386c" d="M 71.5,46.5 C 70.1667,46.5 68.8333,46.5 67.5,46.5C 54.6656,48.0837 42.6656,48.4171 31.5,47.5C 29.5,47.5 27.5,47.5 25.5,47.5C 25,195.498 24.1666,195.498 23,47.5C 22.5,87.1653 22.3333,126.832 22.5,166.5C 38.1667,166.5 53.8333,166.5 69.5,166.5C 71.8333,166.5 74.1667,166.5 76.5,166.5C 75.0813,167.451 73.4147,167.784 71.5,167.5C 54.8333,167.5 38.1667,167.5 21.5,167.5C 21.5,127.167 21.5,86.8333 21.5,46.5C 38.1667,45.1667 54.8333,45.1667 71.5,46.5 Z"/></g>
<g><path style="opacity:1" fill="#24326e" d="M 31.5,47.5 C 32.3666,79.4914 32.6999,111.491 32.5,143.5C 31.1513,146.045 31.4847,148.545 33.5,151C 32.6057,152.396 31.9391,153.896 31.5,155.5C 31.8178,156.647 32.4844,157.481 33.5,158C 31.8446,159.444 31.178,161.278 31.5,163.5C 42.1719,163.333 52.8385,163.5 63.5,164C 65.6115,164.845 67.6115,165.678 69.5,166.5C 53.8333,166.5 38.1667,166.5 22.5,166.5C 22.3333,126.832 22.5,87.1653 23,47.5C 24.1666,195.498 25,195.498 25.5,47.5C 27.5,47.5 29.5,47.5 31.5,47.5 Z"/></g>
<g><path style="opacity:1" fill="#25336e" d="M 67.5,46.5 C 67.6107,47.1174 67.944,47.6174 68.5,48C 72.5,48.3333 76.5,48.6667 80.5,49C 79.4757,50.3671 79.9757,51.2005 82,51.5C 83.3006,51.0398 84.634,50.7065 86,50.5C 89.5588,52.5201 93.3922,53.8534 97.5,54.5C 97.264,56.9732 95.9307,58.6399 93.5,59.5C 95.5378,60.7541 97.2044,62.4208 98.5,64.5C 95.4232,68.3297 92.4232,68.1631 89.5,64C 89.8333,63.6667 90.1667,63.3333 90.5,63C 89.2341,62.6905 88.0674,62.1905 87,61.5C 85.9887,62.3366 84.8221,62.67 83.5,62.5C 83.5,63.5 83.5,64.5 83.5,65.5C 80.8333,65.5 78.1667,65.5 75.5,65.5C 73.3792,65.6747 71.3792,65.3414 69.5,64.5C 68.4324,63.5655 67.099,63.2322 65.5,63.5C 57.0161,62.507 48.3494,62.1736 39.5,62.5C 39.8312,89.6718 39.4979,116.672 38.5,143.5C 37.5309,145.663 36.6976,147.996 36,150.5C 35.2567,147.808 34.09,145.475 32.5,143.5C 32.6999,111.491 32.3666,79.4914 31.5,47.5C 42.6656,48.4171 54.6656,48.0837 67.5,46.5 Z"/></g>
<g><path style="opacity:0.157" fill="#aab0ca" d="M 306.5,48.5 C 308.471,50.8082 310.471,53.1415 312.5,55.5C 309.054,54.3882 307.054,52.0548 306.5,48.5 Z"/></g>
<g><path style="opacity:0.165" fill="#b9c0d5" d="M 610.5,48.5 C 607.001,50.7505 603.335,52.7505 599.5,54.5C 602.4,51.2145 606.067,49.2145 610.5,48.5 Z"/></g>
<g><path style="opacity:0.02" fill="#c6cadf" d="M 102.5,54.5 C 103.189,55.7736 104.023,55.7736 105,54.5C 106.584,58.4195 109.25,61.4195 113,63.5C 113.464,64.0944 113.631,64.7611 113.5,65.5C 108.661,61.4992 103.661,57.6659 98.5,54C 92.2362,51.0318 85.9029,48.5318 79.5,46.5C 80.8221,46.67 81.9887,46.3366 83,45.5C 86.1638,47.6825 89.6638,49.3492 93.5,50.5C 94.1667,50.1667 94.8333,49.8333 95.5,49.5C 96.6956,49.8457 96.6956,50.3457 95.5,51C 96.7604,52.113 97.927,52.2797 99,51.5C 99.4224,53.4257 100.589,54.4257 102.5,54.5 Z"/></g>
<g><path style="opacity:0.005" fill="#fefffe" d="M 378.5,50.5 C 379.043,50.56 379.376,50.8933 379.5,51.5C 378.883,56.2994 378.216,60.966 377.5,65.5C 377.5,60.8333 377.5,56.1667 377.5,51.5C 378.167,51.5 378.5,51.1667 378.5,50.5 Z"/></g>
<g><path style="opacity:0.137" fill="#b4b8cd" d="M 167.5,39.5 C 168.167,39.5 168.5,39.8333 168.5,40.5C 168.5,40.8333 168.5,41.1667 168.5,41.5C 168.5,43.5 168.5,45.5 168.5,47.5C 168.392,49.7834 167.559,51.7834 166,53.5C 165.329,54.2524 164.496,54.5858 163.5,54.5C 167.111,50.2356 168.445,45.2356 167.5,39.5 Z"/></g>
<g><path style="opacity:1" fill="#25326c" d="M 376.5,72.5 C 383.648,73.4916 390.981,73.825 398.5,73.5C 398.5,78.5 398.5,83.5 398.5,88.5C 390.981,88.175 383.648,88.5084 376.5,89.5C 375.338,106.995 375.171,124.662 376,142.5C 376.232,143.737 376.732,144.737 377.5,145.5C 378.167,145.833 378.833,146.167 379.5,146.5C 380.129,148.997 381.796,150.33 384.5,150.5C 388.97,151.486 393.637,151.819 398.5,151.5C 398.5,156.5 398.5,161.5 398.5,166.5C 392.491,166.666 386.491,166.499 380.5,166C 376.769,163.901 372.769,162.734 368.5,162.5C 368.5,161.5 368.5,160.5 368.5,159.5C 366.856,159.714 365.356,159.38 364,158.5C 361.171,153.537 359.004,148.537 357.5,143.5C 356.503,125.674 356.17,107.674 356.5,89.5C 352.366,88.5151 348.032,88.1818 343.5,88.5C 343.5,83.5 343.5,78.5 343.5,73.5C 348.032,73.8182 352.366,73.4849 356.5,72.5C 356.5,72.1667 356.5,71.8333 356.5,71.5C 357.492,64.3524 357.825,57.0191 357.5,49.5C 363.5,49.5 369.5,49.5 375.5,49.5C 375.175,57.3516 375.508,65.0182 376.5,72.5 Z"/></g>
<g><path style="opacity:0.282" fill="#b8bed3" d="M 623.5,44.5 C 641.521,41.1383 658.188,44.6383 673.5,55C 675.373,56.7038 677.04,58.5372 678.5,60.5C 668.666,52.2529 657.333,47.2529 644.5,45.5C 637.687,44.5088 630.687,44.1755 623.5,44.5 Z"/></g>
<g><path style="opacity:0.267" fill="#c4c8d8" d="M 144.5,48.5 C 145.167,48.8333 145.833,49.1667 146.5,49.5C 147.248,51.3325 148.248,52.9991 149.5,54.5C 146.438,53.7322 144.772,51.7322 144.5,48.5 Z"/></g>
<g><path style="opacity:0.004" fill="#fefffe" d="M 102.5,53.5 C 103.833,54.1667 103.833,54.1667 102.5,53.5 Z"/></g>
<g><path style="opacity:0.133" fill="#bcc2d4" d="M 975.5,88.5 C 973.833,91.1667 972.167,93.8333 970.5,96.5C 965.822,101.179 961.489,106.179 957.5,111.5C 955.51,87.8566 954.843,63.8566 955.5,39.5C 948.833,39.5 942.167,39.5 935.5,39.5C 935.168,82.3366 935.501,125.003 936.5,167.5C 942.5,167.5 948.5,167.5 954.5,167.5C 954.833,167.5 955.167,167.5 955.5,167.5C 949.021,168.491 942.354,168.824 935.5,168.5C 934.335,125.002 934.169,81.3353 935,37.5C 935.333,37.1667 935.667,36.8333 936,36.5C 942.548,38.438 949.382,39.1046 956.5,38.5C 956.445,62.1131 956.611,85.7797 957,109.5C 962.689,101.984 968.855,94.9842 975.5,88.5 Z"/></g>
<g><path style="opacity:0.553" fill="#a8abc6" d="M 149.5,54.5 C 154.167,55.8333 158.833,55.8333 163.5,54.5C 161.625,56.2394 159.292,57.2394 156.5,57.5C 153.708,57.2394 151.375,56.2394 149.5,54.5 Z"/></g>
<g><path style="opacity:0.302" fill="#aeb4c9" d="M 322.5,54.5 C 323.167,54.5 323.833,54.5 324.5,54.5C 320.76,57.9816 316.76,58.3149 312.5,55.5C 316.042,55.8128 319.375,55.4794 322.5,54.5 Z"/></g>
<g><path style="opacity:0.779" fill="#4c547f" d="M 957.5,111.5 C 957.158,112.338 956.492,112.672 955.5,112.5C 954.502,88.6725 954.169,64.6725 954.5,40.5C 948.5,40.5 942.5,40.5 936.5,40.5C 936.5,82.8333 936.5,125.167 936.5,167.5C 935.501,125.003 935.168,82.3366 935.5,39.5C 942.167,39.5 948.833,39.5 955.5,39.5C 954.843,63.8566 955.51,87.8566 957.5,111.5 Z"/></g>
<g><path style="opacity:0.518" fill="#979cb9" d="M 599.5,54.5 C 597.761,57.2427 595.427,59.2427 592.5,60.5C 594.239,57.7573 596.573,55.7573 599.5,54.5 Z"/></g>
<g><path style="opacity:0.969" fill="#38416d" d="M 639.5,62.5 C 642.85,62.335 646.183,62.5017 649.5,63C 651.026,64.8871 653.026,65.8871 655.5,66C 656.71,67.0391 657.71,68.2058 658.5,69.5C 657.833,69.5 657.167,69.5 656.5,69.5C 655.313,67.0246 653.313,66.0246 650.5,66.5C 649.01,64.7202 647.01,64.0535 644.5,64.5C 642.833,63.8333 641.167,63.1667 639.5,62.5 Z"/></g>
<g><path style="opacity:0.51" fill="#949cb2" d="M 21.5,46.5 C 21.5,86.8333 21.5,127.167 21.5,167.5C 38.1667,167.5 54.8333,167.5 71.5,167.5C 71.5,167.833 71.5,168.167 71.5,168.5C 54.544,169.638 37.544,169.805 20.5,169C 19.5495,165.943 19.2161,162.777 19.5,159.5C 20.1667,121.833 20.8333,84.1667 21.5,46.5 Z"/></g>
<g><path style="opacity:0.106" fill="#c6c9dc" d="M 65.5,63.5 C 67.099,63.2322 68.4324,63.5655 69.5,64.5C 60.1607,64.3335 50.8274,64.5002 41.5,65C 42.7279,66.4902 42.7279,67.9902 41.5,69.5C 41.1667,69.5 40.8333,69.5 40.5,69.5C 40.5,67.5 40.5,65.5 40.5,63.5C 48.8333,63.5 57.1667,63.5 65.5,63.5 Z"/></g>
<g><path style="opacity:0.89" fill="#39416c" d="M 65.5,63.5 C 57.1667,63.5 48.8333,63.5 40.5,63.5C 40.5,65.5 40.5,67.5 40.5,69.5C 40.5,96.5 40.5,123.5 40.5,150.5C 50.3478,150.827 60.0144,150.494 69.5,149.5C 73.1932,148.94 76.8598,148.273 80.5,147.5C 78.1682,149.096 75.5015,150.262 72.5,151C 61.5,151.667 50.5,151.667 39.5,151C 38.565,148.619 38.2317,146.119 38.5,143.5C 39.4979,116.672 39.8312,89.6718 39.5,62.5C 48.3494,62.1736 57.0161,62.507 65.5,63.5 Z"/></g>
<g><path style="opacity:0.647" fill="#a0a7c1" d="M 644.5,64.5 C 647.01,64.0535 649.01,64.7202 650.5,66.5C 648.302,66.1249 646.302,65.4582 644.5,64.5 Z"/></g>
<g><path style="opacity:0.005" fill="#dbddea" d="M 113.5,65.5 C 114.458,65.9528 115.292,66.6195 116,67.5C 116.333,67.1667 116.667,66.8333 117,66.5C 117.49,67.7932 117.657,69.1266 117.5,70.5C 115.413,69.4154 114.08,67.7488 113.5,65.5 Z"/></g>
<g><path style="opacity:0.153" fill="#aeb2c6" d="M 650.5,66.5 C 653.313,66.0246 655.313,67.0246 656.5,69.5C 654.181,69.0075 652.181,68.0075 650.5,66.5 Z"/></g>
<g><path style="opacity:0.098" fill="#b7bad8" d="M 79.5,66.5 C 82.8515,66.53 85.5182,67.8633 87.5,70.5C 84.5152,69.6743 81.8485,68.341 79.5,66.5 Z"/></g>
<g><path style="opacity:0.369" fill="#b3b8ce" d="M 592.5,60.5 C 588.859,65.8154 585.192,71.1487 581.5,76.5C 581.491,74.6916 581.991,73.0249 583,71.5C 585.392,68.772 587.392,65.772 589,62.5C 590.113,61.695 591.279,61.0283 592.5,60.5 Z"/></g>
<g><path style="opacity:0.004" fill="#fefffe" d="M 262.5,69.5 C 263.833,70.1667 263.833,70.1667 262.5,69.5 Z"/></g>
<g><path style="opacity:0.004" fill="#fefffe" d="M 306.5,71.5 C 305.475,71.1034 305.308,70.4368 306,69.5C 306.464,70.0944 306.631,70.7611 306.5,71.5 Z"/></g>
<g><path style="opacity:0.098" fill="#cdd1e3" d="M 678.5,60.5 C 682.269,62.9374 684.936,66.2708 686.5,70.5C 683.46,67.4607 680.794,64.1274 678.5,60.5 Z"/></g>
<g><path style="opacity:0.133" fill="#c0c5d8" d="M 248.5,74.5 C 250.869,75.69 252.869,77.3567 254.5,79.5C 249.651,76.9097 244.651,74.5764 239.5,72.5C 238.5,72.5 237.5,72.5 236.5,72.5C 231.025,71.5111 225.358,71.1778 219.5,71.5C 225.369,70.7953 231.369,70.1286 237.5,69.5C 238.696,69.8457 238.696,70.3457 237.5,71C 241.422,71.4744 245.088,72.641 248.5,74.5 Z"/></g>
<g><path style="opacity:0.129" fill="#cad2e1" d="M 476.5,75.5 C 467.201,71.9232 457.534,70.5899 447.5,71.5C 453.369,70.7953 459.369,70.1286 465.5,69.5C 469.449,71.1359 473.115,73.1359 476.5,75.5 Z"/></g>
<g><path style="opacity:0.239" fill="#c6c9dc" d="M 656.5,69.5 C 657.167,69.5 657.833,69.5 658.5,69.5C 659.167,70.5 659.833,71.5 660.5,72.5C 658.596,72.2624 657.262,71.2624 656.5,69.5 Z"/></g>
<g><path style="opacity:0.206" fill="#bbbfd4" d="M 378.5,50.5 C 377.833,50.5 377.5,50.8333 377.5,51.5C 377.5,56.1667 377.5,60.8333 377.5,65.5C 377.593,67.4046 377.926,69.2379 378.5,71C 384.833,71.6667 391.167,71.6667 397.5,71C 398.833,69 400.167,69 401.5,71C 400.594,72.6995 400.261,74.5328 400.5,76.5C 400.5,78.1667 400.5,79.8333 400.5,81.5C 400.194,84.3854 400.527,87.0521 401.5,89.5C 401.631,90.3764 401.298,91.0431 400.5,91.5C 393.224,90.5345 385.891,90.2012 378.5,90.5C 377.503,107.325 377.17,124.325 377.5,141.5C 376.503,124.341 376.17,107.008 376.5,89.5C 384.167,89.5 391.833,89.5 399.5,89.5C 399.5,83.8333 399.5,78.1667 399.5,72.5C 391.833,72.5 384.167,72.5 376.5,72.5C 376.5,64.5 376.5,56.5 376.5,48.5C 369.833,48.5 363.167,48.5 356.5,48.5C 356.5,56.1667 356.5,63.8333 356.5,71.5C 356.5,71.8333 356.5,72.1667 356.5,72.5C 351.833,72.5 347.167,72.5 342.5,72.5C 342.5,78.1667 342.5,83.8333 342.5,89.5C 347.167,89.5 351.833,89.5 356.5,89.5C 356.17,107.674 356.503,125.674 357.5,143.5C 358.042,149.234 359.709,154.567 362.5,159.5C 358.528,155.787 356.362,151.12 356,145.5C 355.5,127.17 355.333,108.836 355.5,90.5C 350.833,90.5 346.167,90.5 341.5,90.5C 341.5,84.1667 341.5,77.8333 341.5,71.5C 346.167,71.5 350.833,71.5 355.5,71.5C 355.5,63.5 355.5,55.5 355.5,47.5C 362.558,47.797 369.558,47.4637 376.5,46.5C 377.705,47.5769 378.372,48.9102 378.5,50.5 Z"/></g>
<g><path style="opacity:0.802" fill="#464e73" d="M 376.5,72.5 C 375.508,65.0182 375.175,57.3516 375.5,49.5C 369.5,49.5 363.5,49.5 357.5,49.5C 357.825,57.0191 357.492,64.3524 356.5,71.5C 356.5,63.8333 356.5,56.1667 356.5,48.5C 363.167,48.5 369.833,48.5 376.5,48.5C 376.5,56.5 376.5,64.5 376.5,72.5 Z"/></g>
<g><path style="opacity:0.196" fill="#bbc2d5" d="M 745.5,71.5 C 756.968,69.5905 768.302,70.5905 779.5,74.5C 782.939,76.3936 786.272,78.5603 789.5,81C 792.118,83.1057 794.118,85.6057 795.5,88.5C 787.249,79.2074 776.916,73.874 764.5,72.5C 758.355,71.5098 752.022,71.1765 745.5,71.5 Z"/></g>
<g><path style="opacity:0.094" fill="#bdc2d6" d="M 909.5,91.5 C 906.919,88.3118 903.919,85.6451 900.5,83.5C 895.366,78.0471 889.032,74.5471 881.5,73C 871.866,71.253 862.199,71.0863 852.5,72.5C 874.225,67.0791 892.059,71.4124 906,85.5C 907.421,87.4048 908.588,89.4048 909.5,91.5 Z"/></g>
<g><path style="opacity:0.206" fill="#bbc0d4" d="M 1014.5,71.5 C 1014.5,72.1667 1014.5,72.8333 1014.5,73.5C 1013.78,74.5511 1012.78,75.2178 1011.5,75.5C 1011.8,74.8501 1012.14,74.1835 1012.5,73.5C 1004.34,72.1796 996.343,72.1796 988.5,73.5C 987.752,75.3325 986.752,76.9991 985.5,78.5C 983.291,80.5351 981.291,82.8684 979.5,85.5C 978.167,86.5 976.833,87.5 975.5,88.5C 979.771,81.6429 984.771,75.3096 990.5,69.5C 998.296,71.424 1006.3,72.0906 1014.5,71.5 Z"/></g>
<g><path style="opacity:0.314" fill="#bdc1d7" d="M 218.5,71.5 C 217.5,72.1667 216.5,72.8333 215.5,73.5C 213.167,74.1667 210.833,74.8333 208.5,75.5C 211.192,72.8193 214.525,71.4859 218.5,71.5 Z"/></g>
<g><path style="opacity:0.875" fill="#515880" d="M 218.5,71.5 C 218.833,71.5 219.167,71.5 219.5,71.5C 225.358,71.1778 231.025,71.5111 236.5,72.5C 229.465,72.3257 222.465,72.6591 215.5,73.5C 216.5,72.8333 217.5,72.1667 218.5,71.5 Z"/></g>
<g><path style="opacity:0.141" fill="#bac0d6" d="M 447.5,71.5 C 447.5,71.8333 447.5,72.1667 447.5,72.5C 445.901,72.2322 444.568,72.5655 443.5,73.5C 441.167,74.1667 438.833,74.8333 436.5,75.5C 439.569,72.8101 443.236,71.4767 447.5,71.5 Z"/></g>
<g><path style="opacity:0.027" fill="#d7daef" d="M 686.5,70.5 C 688.762,71.3449 689.429,72.6783 688.5,74.5C 686.896,73.713 686.229,72.3797 686.5,70.5 Z"/></g>
<g><path style="opacity:0.793" fill="#4a5375" d="M 988.5,73.5 C 996.343,72.1796 1004.34,72.1796 1012.5,73.5C 1012.14,74.1835 1011.8,74.8501 1011.5,75.5C 1010.83,75.8333 1010.17,76.1667 1009.5,76.5C 1009.5,75.5 1009.5,74.5 1009.5,73.5C 1002.5,73.5 995.5,73.5 988.5,73.5 Z"/></g>
<g><path style="opacity:0.004" fill="#fefffe" d="M 248.5,74.5 C 248.897,73.475 249.563,73.3083 250.5,74C 249.906,74.4643 249.239,74.631 248.5,74.5 Z"/></g>
<g><path style="opacity:0.004" fill="#fefffe" d="M 400.5,81.5 C 400.5,79.8333 400.5,78.1667 400.5,76.5C 401.268,75.7375 401.768,74.7375 402,73.5C 402.433,76.4194 401.933,79.086 400.5,81.5 Z"/></g>
<g><path style="opacity:1" fill="#3a4372" d="M 447.5,72.5 C 447.5,72.1667 447.5,71.8333 447.5,71.5C 457.534,70.5899 467.201,71.9232 476.5,75.5C 477.492,75.3284 478.158,75.6618 478.5,76.5C 478.833,77.1667 479.167,77.8333 479.5,78.5C 476.309,77.1037 472.976,76.1037 469.5,75.5C 467.407,75.4858 465.574,76.1524 464,77.5C 463.506,75.8659 463.34,74.1992 463.5,72.5C 458.167,72.5 452.833,72.5 447.5,72.5 Z"/></g>
<g><path style="opacity:0.004" fill="#fefffe" d="M 731.5,73.5 C 732.833,74.1667 732.833,74.1667 731.5,73.5 Z"/></g>
<g><path style="opacity:0.216" fill="#c7cee1" d="M 740.5,72.5 C 738.739,73.3127 737.072,74.3127 735.5,75.5C 734.833,75.5 734.167,75.5 733.5,75.5C 735.176,73.1663 737.509,72.1663 740.5,72.5 Z"/></g>
<g><path style="opacity:0.006" fill="#fefffe" d="M 779.5,74.5 C 779.897,73.475 780.563,73.3083 781.5,74C 780.906,74.4643 780.239,74.631 779.5,74.5 Z"/></g>
<g><path style="opacity:0.004" fill="#fefffe" d="M 844.5,74.5 C 843.833,73.1667 843.833,73.1667 844.5,74.5 Z"/></g>
<g><path style="opacity:0.475" fill="#a3afc6" d="M 852.5,72.5 C 850.316,74.5848 847.649,75.5848 844.5,75.5C 844.5,75.1667 844.5,74.8333 844.5,74.5C 847.006,73.2504 849.673,72.5838 852.5,72.5 Z"/></g>
<g><path style="opacity:1" fill="#27346d" d="M 900.5,83.5 C 898.857,83.4802 897.524,84.1468 896.5,85.5C 895.158,83.9951 893.492,83.3285 891.5,83.5C 892.652,87.0638 893.986,90.5638 895.5,94C 895.167,94.8333 894.833,95.6667 894.5,96.5C 893.476,95.1468 892.143,94.4802 890.5,94.5C 890.5,95.5 890.5,96.5 890.5,97.5C 892.167,97.5 893.833,97.5 895.5,97.5C 895.442,105.1 896.776,112.433 899.5,119.5C 898.275,124.558 896.609,129.224 894.5,133.5C 896.729,125.545 896.895,117.545 895,109.5C 894.478,106.719 893.311,104.385 891.5,102.5C 890.55,98.5865 888.217,95.9198 884.5,94.5C 884.027,93.0937 883.027,92.427 881.5,92.5C 880.508,92.6716 879.842,92.3382 879.5,91.5C 865.463,85.1361 853.63,88.1361 844,100.5C 839.75,109.023 838.416,118.023 840,127.5C 840.505,130.865 841.672,133.865 843.5,136.5C 843.833,137.833 844.167,139.167 844.5,140.5C 844.714,142.144 844.38,143.644 843.5,145C 840.294,145.89 837.294,145.557 834.5,144C 835.022,143.439 835.355,142.772 835.5,142C 834.248,139.057 833.248,136.057 832.5,133C 832.833,132.667 833.167,132.333 833.5,132C 832.24,130.887 831.073,130.72 830,131.5C 829.831,125.141 829.331,118.807 828.5,112.5C 827.506,117.456 827.173,122.456 827.5,127.5C 826.5,127.5 825.5,127.5 824.5,127.5C 824.973,130.697 825.639,133.863 826.5,137C 826.37,138.059 825.87,138.892 825,139.5C 823.961,138.29 822.794,137.29 821.5,136.5C 821.5,136.167 821.5,135.833 821.5,135.5C 820.782,126.518 820.448,117.518 820.5,108.5C 821.167,105.167 821.833,101.833 822.5,98.5C 824.568,94.7053 826.901,91.0386 829.5,87.5C 831.833,85.8333 833.833,83.8333 835.5,81.5C 838.709,79.7349 841.709,77.7349 844.5,75.5C 847.649,75.5848 850.316,74.5848 852.5,72.5C 862.199,71.0863 871.866,71.253 881.5,73C 889.032,74.5471 895.366,78.0471 900.5,83.5 Z"/></g>
<g><path style="opacity:0.004" fill="#fefffe" d="M 329.5,74.5 C 330.573,75.2506 330.74,76.2506 330,77.5C 329.517,76.552 329.351,75.552 329.5,74.5 Z"/></g>
<g><path style="opacity:0.859" fill="#434c75" d="M 376.5,72.5 C 384.167,72.5 391.833,72.5 399.5,72.5C 399.5,78.1667 399.5,83.8333 399.5,89.5C 391.833,89.5 384.167,89.5 376.5,89.5C 383.648,88.5084 390.981,88.175 398.5,88.5C 398.5,83.5 398.5,78.5 398.5,73.5C 390.981,73.825 383.648,73.4916 376.5,72.5 Z"/></g>
<g><path style="opacity:0.967" fill="#4d547c" d="M 745.5,71.5 C 752.022,71.1765 758.355,71.5098 764.5,72.5C 759.156,72.334 753.823,72.5006 748.5,73C 744.297,74.5691 739.964,75.4024 735.5,75.5C 737.072,74.3127 738.739,73.3127 740.5,72.5C 741.919,71.5489 743.585,71.2155 745.5,71.5 Z"/></g>
<g><path style="opacity:0.31" fill="#9ea4c0" d="M 40.5,69.5 C 40.8333,69.5 41.1667,69.5 41.5,69.5C 41.5,95.8333 41.5,122.167 41.5,148.5C 42.5,148.5 43.5,148.5 44.5,148.5C 52.6499,149.493 60.9832,149.826 69.5,149.5C 60.0144,150.494 50.3478,150.827 40.5,150.5C 40.5,123.5 40.5,96.5 40.5,69.5 Z"/></g>
<g><path style="opacity:0.024" fill="#d1d2f7" d="M 284.5,172.5 C 284.832,138.996 284.498,105.662 283.5,72.5C 277.167,72.5 270.833,72.5 264.5,72.5C 263.673,77.9851 263.173,83.6518 263,89.5C 262.617,88.944 262.117,88.6107 261.5,88.5C 260.662,88.1583 260.328,87.4916 260.5,86.5C 261.117,86.6107 261.617,86.944 262,87.5C 262.372,81.5928 262.538,75.9262 262.5,70.5C 265.649,71.1651 268.982,71.4984 272.5,71.5C 276.965,71.2901 281.298,70.6234 285.5,69.5C 285.832,104.004 285.498,138.337 284.5,172.5 Z"/></g>
<g><path style="opacity:1" fill="#24326c" d="M 308.5,73.5 C 314.5,73.5 320.5,73.5 326.5,73.5C 326.5,104.5 326.5,135.5 326.5,166.5C 320.5,166.5 314.5,166.5 308.5,166.5C 308.5,135.5 308.5,104.5 308.5,73.5 Z"/></g>
<g><path style="opacity:0.067" fill="#b4b8d1" d="M 639.5,62.5 C 641.167,63.1667 642.833,63.8333 644.5,64.5C 629.114,61.4981 616.447,65.8315 606.5,77.5C 605.778,78.5511 604.778,79.2178 603.5,79.5C 612.083,66.8778 624.083,61.2111 639.5,62.5 Z"/></g>
<g><path style="opacity:0.133" fill="#abb2c9" d="M 660.5,72.5 C 662.404,72.7376 663.738,73.7376 664.5,75.5C 664.5,75.8333 664.5,76.1667 664.5,76.5C 662.5,75.8333 661.167,74.5 660.5,72.5 Z"/></g>
<g><path style="opacity:0.094" fill="#c3c9dc" d="M 733.5,75.5 C 731.819,77.0075 729.819,78.0075 727.5,78.5C 728.911,76.461 730.911,75.461 733.5,75.5 Z"/></g>
<g><path style="opacity:0.004" fill="#fefffe" d="M 840.5,76.5 C 839.833,75.1667 839.833,75.1667 840.5,76.5 Z"/></g>
<g><path style="opacity:1" fill="#28346d" d="M 67.5,46.5 C 68.8333,46.5 70.1667,46.5 71.5,46.5C 74.1667,46.5 76.8333,46.5 79.5,46.5C 85.9029,48.5318 92.2362,51.0318 98.5,54C 103.661,57.6659 108.661,61.4992 113.5,65.5C 114.08,67.7488 115.413,69.4154 117.5,70.5C 129.467,94.4454 129.467,118.445 117.5,142.5C 112.131,148.87 106.131,154.537 99.5,159.5C 99.1667,159.5 98.8333,159.5 98.5,159.5C 98.238,158.022 98.5713,156.689 99.5,155.5C 101.724,154.919 102.557,153.586 102,151.5C 101.333,152.167 100.667,152.833 100,153.5C 97.6956,151.569 95.8622,149.236 94.5,146.5C 93.2643,145.643 91.931,144.977 90.5,144.5C 87.9717,146.874 84.9717,147.874 81.5,147.5C 85.6039,145.275 89.6039,142.775 93.5,140C 95.1412,138.871 96.1412,137.371 96.5,135.5C 99.1639,133.516 100.831,130.849 101.5,127.5C 104.527,123.065 105.861,118.065 105.5,112.5C 106.833,107.5 106.833,102.5 105.5,97.5C 104.625,85.9845 99.2921,77.3178 89.5,71.5C 88.5084,71.6716 87.8417,71.3382 87.5,70.5C 85.5182,67.8633 82.8515,66.53 79.5,66.5C 77.901,66.7678 76.5676,66.4345 75.5,65.5C 78.1667,65.5 80.8333,65.5 83.5,65.5C 83.5,64.5 83.5,63.5 83.5,62.5C 84.8221,62.67 85.9887,62.3366 87,61.5C 88.0674,62.1905 89.2341,62.6905 90.5,63C 90.1667,63.3333 89.8333,63.6667 89.5,64C 92.4232,68.1631 95.4232,68.3297 98.5,64.5C 97.2044,62.4208 95.5378,60.7541 93.5,59.5C 95.9307,58.6399 97.264,56.9732 97.5,54.5C 93.3922,53.8534 89.5588,52.5201 86,50.5C 84.634,50.7065 83.3006,51.0398 82,51.5C 79.9757,51.2005 79.4757,50.3671 80.5,49C 76.5,48.6667 72.5,48.3333 68.5,48C 67.944,47.6174 67.6107,47.1174 67.5,46.5 Z"/></g>
<g><path style="opacity:0.004" fill="#ccdceb" d="M 688.5,74.5 C 690.727,76.2287 691.727,78.562 691.5,81.5C 690.5,80.1667 689.5,78.8333 688.5,77.5C 688.5,76.5 688.5,75.5 688.5,74.5 Z"/></g>
<g><path style="opacity:0.153" fill="#bdc2da" d="M 844.5,75.5 C 841.709,77.7349 838.709,79.7349 835.5,81.5C 836.812,79.5212 838.479,77.8545 840.5,76.5C 841.833,76.1667 843.167,75.8333 844.5,75.5 Z"/></g>
<g><path style="opacity:1" fill="#25336d" d="M 236.5,72.5 C 237.5,72.5 238.5,72.5 239.5,72.5C 245.003,75.4244 250.003,79.0911 254.5,83.5C 252.892,84.3184 251.225,84.9851 249.5,85.5C 248.289,86.2739 248.289,87.1072 249.5,88C 252.287,90.1136 254.954,89.947 257.5,87.5C 258.647,87.8178 259.481,88.4844 260,89.5C 260.821,92.5541 260.655,95.5541 259.5,98.5C 257.869,96.9412 257.036,94.9412 257,92.5C 253.35,93.1671 250.183,92.0004 247.5,89C 246.207,88.51 244.873,88.3433 243.5,88.5C 237.974,88.1786 232.64,88.5119 227.5,89.5C 224.728,89.7587 222.395,90.7587 220.5,92.5C 214.513,94.9883 210.347,99.3216 208,105.5C 206.921,108.063 206.421,110.729 206.5,113.5C 205.167,118.167 205.167,122.833 206.5,127.5C 206.5,127.833 206.5,128.167 206.5,128.5C 206.366,130.292 206.699,131.958 207.5,133.5C 207.5,135.833 207.5,138.167 207.5,140.5C 211.068,140.759 212.401,142.759 211.5,146.5C 216.517,148.957 221.85,150.79 227.5,152C 231.689,152.812 235.689,152.645 239.5,151.5C 245.274,151.842 250.441,152.509 255,153.5C 253.752,154.969 253.419,156.635 254,158.5C 253.586,158.043 253.086,157.709 252.5,157.5C 250.556,158.189 248.556,158.689 246.5,159C 248.037,160.11 248.703,161.61 248.5,163.5C 245.756,163.752 243.256,163.085 241,161.5C 238.869,162.814 236.703,163.981 234.5,165C 235.833,165.333 237.167,165.667 238.5,166C 231.89,167.441 225.224,167.774 218.5,167C 215.486,163.966 211.819,162.799 207.5,163.5C 206.101,162.11 204.434,161.11 202.5,160.5C 200.203,158.706 198.037,156.706 196,154.5C 193.125,149.405 190.292,144.405 187.5,139.5C 185.948,129.569 185.282,119.569 185.5,109.5C 187.074,106.093 188.074,102.427 188.5,98.5C 191.247,95.2774 193.247,91.6107 194.5,87.5C 198.897,83.0963 203.564,79.0963 208.5,75.5C 210.833,74.8333 213.167,74.1667 215.5,73.5C 222.465,72.6591 229.465,72.3257 236.5,72.5 Z"/></g>
<g><path style="opacity:1" fill="#27346d" d="M 239.5,72.5 C 244.651,74.5764 249.651,76.9097 254.5,79.5C 255.757,82.4274 257.757,84.7607 260.5,86.5C 260.328,87.4916 260.662,88.1583 261.5,88.5C 261.795,90.4233 262.628,92.0899 264,93.5C 264.483,92.552 264.649,91.552 264.5,90.5C 265.478,90.189 266.145,89.5223 266.5,88.5C 265.17,84.4601 265.337,80.4601 267,76.5C 268.356,75.6198 269.856,75.2865 271.5,75.5C 273.193,77.7664 275.36,78.0997 278,76.5C 279,77.5 280,78.5 281,79.5C 281.806,111.485 281.64,143.151 280.5,174.5C 279.5,142.84 279.167,111.174 279.5,79.5C 278.167,79.5 276.833,79.5 275.5,79.5C 275.333,111.168 275.5,142.835 276,174.5C 277.158,174.998 277.991,175.831 278.5,177C 277.29,180.174 277.29,183.341 278.5,186.5C 279.518,185.807 280.518,185.141 281.5,184.5C 278.492,196.175 271.492,204.509 260.5,209.5C 255.76,210.53 251.093,211.697 246.5,213C 240.175,213.5 233.842,213.666 227.5,213.5C 225.833,213.5 224.167,213.5 222.5,213.5C 219.018,211.938 215.352,210.605 211.5,209.5C 209.847,209.34 208.514,208.674 207.5,207.5C 204.204,203.702 200.704,200.036 197,196.5C 194.597,192.365 192.763,188.032 191.5,183.5C 191.5,182.5 191.5,181.5 191.5,180.5C 197.509,180.334 203.509,180.501 209.5,181C 210.085,182.302 210.751,183.469 211.5,184.5C 212.167,184.833 212.833,185.167 213.5,185.5C 213.427,187.027 214.094,188.027 215.5,188.5C 215.5,190.5 216.5,191.5 218.5,191.5C 219.343,193.173 220.676,194.34 222.5,195C 230.722,197.889 239.055,198.222 247.5,196C 249.76,195.451 251.426,194.284 252.5,192.5C 257.299,190.362 260.299,186.695 261.5,181.5C 263.068,179.189 263.902,176.522 264,173.5C 264.832,164.814 264.665,156.147 263.5,147.5C 262.295,148.577 261.628,149.91 261.5,151.5C 261.5,151.833 261.5,152.167 261.5,152.5C 258.077,157.257 253.744,160.924 248.5,163.5C 248.703,161.61 248.037,160.11 246.5,159C 248.556,158.689 250.556,158.189 252.5,157.5C 253.086,157.709 253.586,158.043 254,158.5C 253.419,156.635 253.752,154.969 255,153.5C 250.441,152.509 245.274,151.842 239.5,151.5C 239.5,151.167 239.5,150.833 239.5,150.5C 243.964,151.091 247.631,149.758 250.5,146.5C 252.749,145.92 254.415,144.587 255.5,142.5C 257.822,141.198 259.155,139.198 259.5,136.5C 261.104,135.713 261.771,134.38 261.5,132.5C 262.268,131.737 262.768,130.737 263,129.5C 263.667,122.833 263.667,116.167 263,109.5C 262.4,107.09 261.234,105.09 259.5,103.5C 258.232,99.2329 255.565,96.2329 251.5,94.5C 251.027,93.0937 250.027,92.427 248.5,92.5C 247.328,90.461 245.662,89.1276 243.5,88.5C 244.873,88.3433 246.207,88.51 247.5,89C 250.183,92.0004 253.35,93.1671 257,92.5C 257.036,94.9412 257.869,96.9412 259.5,98.5C 260.655,95.5541 260.821,92.5541 260,89.5C 259.481,88.4844 258.647,87.8178 257.5,87.5C 254.954,89.947 252.287,90.1136 249.5,88C 248.289,87.1072 248.289,86.2739 249.5,85.5C 251.225,84.9851 252.892,84.3184 254.5,83.5C 250.003,79.0911 245.003,75.4244 239.5,72.5 Z"/></g>
<g><path style="opacity:1" fill="#24336d" d="M 447.5,72.5 C 452.833,72.5 458.167,72.5 463.5,72.5C 463.34,74.1992 463.506,75.8659 464,77.5C 465.574,76.1524 467.407,75.4858 469.5,75.5C 472.976,76.1037 476.309,77.1037 479.5,78.5C 480.391,79.1098 481.391,79.4431 482.5,79.5C 483.167,80.8333 484.167,81.8333 485.5,82.5C 487.912,85.438 489.745,88.7713 491,92.5C 491.69,93.7383 492.19,93.7383 492.5,92.5C 493.167,86.9861 493.833,81.3195 494.5,75.5C 499.77,74.5488 505.103,74.2154 510.5,74.5C 510.5,105.167 510.5,135.833 510.5,166.5C 505.125,166.828 499.792,166.495 494.5,165.5C 493.876,160.035 493.21,154.702 492.5,149.5C 492.649,148.448 492.483,147.448 492,146.5C 489.882,151.094 487.048,155.094 483.5,158.5C 481.836,157.051 481.002,155.051 481,152.5C 480.667,152.833 480.333,153.167 480,153.5C 479.097,152.299 477.931,151.465 476.5,151C 477.966,150.365 479.3,149.531 480.5,148.5C 481.85,149.95 483.516,150.617 485.5,150.5C 484.833,148.5 484.167,146.5 483.5,144.5C 485.929,144.884 488.263,145.551 490.5,146.5C 490.5,145.5 490.5,144.5 490.5,143.5C 489.167,143.5 487.833,143.5 486.5,143.5C 486.5,142.5 486.5,141.5 486.5,140.5C 489.955,136.134 491.622,131.134 491.5,125.5C 492.161,123.866 492.494,122.033 492.5,120C 492.64,116.85 491.973,114.017 490.5,111.5C 490.5,109.833 490.5,108.167 490.5,106.5C 490.5,105.167 490.5,103.833 490.5,102.5C 491.5,102.5 492.5,102.5 493.5,102.5C 493.5,101.167 493.5,99.8333 493.5,98.5C 491.516,98.3832 489.85,99.0499 488.5,100.5C 487.346,97.9274 485.68,95.7608 483.5,94C 486.373,91.6293 486.039,89.7959 482.5,88.5C 481.833,89.5 481.167,90.5 480.5,91.5C 469.798,86.9292 458.798,86.2625 447.5,89.5C 446.873,90.4168 446.539,91.4168 446.5,92.5C 444.549,92.2267 443.049,92.8934 442,94.5C 441.25,93.8742 440.416,93.3742 439.5,93C 440.647,91.7189 440.313,91.3856 438.5,92C 437.736,94.0693 437.236,96.236 437,98.5C 435.605,99.8146 434.605,99.4812 434,97.5C 433.667,97.8333 433.333,98.1667 433,98.5C 432.077,97.2412 431.243,95.9079 430.5,94.5C 428.775,95.0149 427.108,95.6816 425.5,96.5C 423.701,101.688 422.368,101.688 421.5,96.5C 421.622,94.2088 422.455,92.2088 424,90.5C 426.667,94.5 429.333,94.5 432,90.5C 432.15,87.5792 431.65,84.7459 430.5,82C 435.548,80.0927 439.882,77.2593 443.5,73.5C 444.568,72.5655 445.901,72.2322 447.5,72.5 Z"/></g>
<g><path style="opacity:0.016" fill="#b4bad8" d="M 478.5,76.5 C 480.404,76.7376 481.738,77.7376 482.5,79.5C 481.391,79.4431 480.391,79.1098 479.5,78.5C 479.167,77.8333 478.833,77.1667 478.5,76.5 Z"/></g>
<g><path style="opacity:1" fill="#24326d" d="M 595.5,100.5 C 595.334,107.508 595.5,114.508 596,121.5C 597.899,125.621 598.732,129.954 598.5,134.5C 602.191,134.631 604.191,136.631 604.5,140.5C 606.071,141.309 607.738,141.643 609.5,141.5C 609.728,146.559 612.395,148.892 617.5,148.5C 615.526,149.915 614.193,151.415 613.5,153C 615.577,153.192 617.577,153.692 619.5,154.5C 616.687,155.229 614.687,156.396 613.5,158C 614.167,158.333 614.833,158.667 615.5,159C 620.731,158.25 626.064,157.75 631.5,157.5C 635.521,157.135 639.188,157.968 642.5,160C 640.674,160.292 638.841,160.125 637,159.5C 635.674,159.755 634.674,160.422 634,161.5C 632,158.833 630,158.833 628,161.5C 627.333,158.833 626.667,158.833 626,161.5C 625.667,161.167 625.333,160.833 625,160.5C 620.586,161.697 616.086,162.197 611.5,162C 612.833,160.16 612.666,159.66 611,160.5C 607.849,158.948 607.682,157.115 610.5,155C 609.093,153.548 607.593,153.715 606,155.5C 605.51,156.793 605.343,158.127 605.5,159.5C 602.5,159.833 601.167,158.5 601.5,155.5C 598.208,155.88 595.875,154.547 594.5,151.5C 593.583,150.873 592.583,150.539 591.5,150.5C 590.167,149.5 588.833,148.5 587.5,147.5C 582.37,138.774 579.037,129.441 577.5,119.5C 577.62,115.958 577.286,112.458 576.5,109C 576.484,106.695 577.484,105.028 579.5,104C 579.677,100.29 579.344,96.4569 578.5,92.5C 579.593,89.2306 580.259,85.8973 580.5,82.5C 580.833,81.1667 581.167,79.8333 581.5,78.5C 582.858,77.3744 584.192,77.3744 585.5,78.5C 584.456,80.7676 584.289,83.1009 585,85.5C 588.153,80.1904 590.487,74.5237 592,68.5C 592.893,67.2888 593.726,67.2888 594.5,68.5C 593.885,71.0393 593.218,73.5393 592.5,76C 594.455,78.1684 595.121,80.5017 594.5,83C 593.833,85 593.167,87 592.5,89C 595.19,92.2415 596.19,96.0748 595.5,100.5 Z"/></g>
<g><path style="opacity:1" fill="#28356b" d="M 988.5,73.5 C 995.5,73.5 1002.5,73.5 1009.5,73.5C 1009.5,74.5 1009.5,75.5 1009.5,76.5C 1008.83,77.5 1008.17,78.5 1007.5,79.5C 1000.51,87.4594 993.51,95.4594 986.5,103.5C 984.413,104.585 983.08,106.251 982.5,108.5C 981.167,109.167 980.167,110.167 979.5,111.5C 978.833,111.833 978.167,112.167 977.5,112.5C 977.302,110.425 977.135,108.425 977,106.5C 978.356,107.38 979.856,107.714 981.5,107.5C 981.5,106.167 981.5,104.833 981.5,103.5C 979.856,103.286 978.356,103.62 977,104.5C 977.557,102.159 977.39,99.8261 976.5,97.5C 975.914,97.7093 975.414,98.0426 975,98.5C 973.67,97.4178 972.17,96.7512 970.5,96.5C 972.167,93.8333 973.833,91.1667 975.5,88.5C 976.833,87.5 978.167,86.5 979.5,85.5C 979.5,86.8333 979.5,88.1667 979.5,89.5C 980.833,89.5 982.167,89.5 983.5,89.5C 983.034,91.2012 983.034,92.7012 983.5,94C 982.692,94.3076 982.025,94.8076 981.5,95.5C 982.836,97.2402 984.17,98.9068 985.5,100.5C 986.648,98.8513 987.981,97.3513 989.5,96C 989.043,95.586 988.709,95.086 988.5,94.5C 989.866,91.3075 990.699,87.9742 991,84.5C 993.556,83.7809 994.723,82.1142 994.5,79.5C 992.61,79.2965 991.11,79.9632 990,81.5C 989.342,79.892 989.842,78.7253 991.5,78C 996.823,77.5006 1002.16,77.334 1007.5,77.5C 1007.5,76.5 1007.5,75.5 1007.5,74.5C 1001.49,74.3338 995.491,74.5005 989.5,75C 988.897,77.0714 987.564,78.2381 985.5,78.5C 986.752,76.9991 987.752,75.3325 988.5,73.5 Z"/></g>
<g><path style="opacity:0.651" fill="#586082" d="M 356.5,72.5 C 352.366,73.4849 348.032,73.8182 343.5,73.5C 343.5,78.5 343.5,83.5 343.5,88.5C 348.032,88.1818 352.366,88.5151 356.5,89.5C 351.833,89.5 347.167,89.5 342.5,89.5C 342.5,83.8333 342.5,78.1667 342.5,72.5C 347.167,72.5 351.833,72.5 356.5,72.5 Z"/></g>
<g><path style="opacity:0.871" fill="#656b91" d="M 436.5,75.5 C 435.461,77.5311 433.795,78.8645 431.5,79.5C 431.833,78.8333 432.167,78.1667 432.5,77.5C 433.514,76.3263 434.847,75.6596 436.5,75.5 Z"/></g>
<g><path style="opacity:1" fill="#26336d" d="M 764.5,72.5 C 776.916,73.874 787.249,79.2074 795.5,88.5C 795.738,90.4044 796.738,91.7377 798.5,92.5C 798.66,94.153 799.326,95.4863 800.5,96.5C 800.402,98.5529 801.069,100.22 802.5,101.5C 803.051,104.807 803.384,108.14 803.5,111.5C 803.666,117.842 803.5,124.175 803,130.5C 801.633,134.858 800.467,139.191 799.5,143.5C 791.654,158.99 778.987,167.323 761.5,168.5C 755.491,168.666 749.491,168.499 743.5,168C 739.562,166.526 735.562,165.359 731.5,164.5C 730.508,164.672 729.842,164.338 729.5,163.5C 729.027,162.094 728.027,161.427 726.5,161.5C 723.167,157.5 719.5,153.833 715.5,150.5C 711.355,143.399 709.022,135.732 708.5,127.5C 708.317,120.132 708.65,112.799 709.5,105.5C 710.15,103.565 710.483,101.565 710.5,99.5C 710.5,99.1667 710.5,98.8333 710.5,98.5C 713.221,95.106 715.554,91.4394 717.5,87.5C 721.252,84.9587 724.585,81.9587 727.5,78.5C 729.819,78.0075 731.819,77.0075 733.5,75.5C 734.167,75.5 734.833,75.5 735.5,75.5C 739.964,75.4024 744.297,74.5691 748.5,73C 753.823,72.5006 759.156,72.334 764.5,72.5 Z M 769.5,92.5 C 769.842,93.3382 770.508,93.6716 771.5,93.5C 773.5,96.1667 775.833,98.5 778.5,100.5C 786.457,116.735 784.79,131.735 773.5,145.5C 771.973,145.427 770.973,146.094 770.5,147.5C 756.275,153.191 743.941,150.525 733.5,139.5C 733.008,137.181 732.008,135.181 730.5,133.5C 726.802,118.313 730.136,104.98 740.5,93.5C 741.787,94.5285 742.954,94.1952 744,92.5C 752.511,88.5444 761.011,88.5444 769.5,92.5 Z"/></g>
<g><path style="opacity:0.85" fill="#4b5176" d="M 166.5,72.5 C 166.5,104.167 166.5,135.833 166.5,167.5C 166.167,167.5 165.833,167.5 165.5,167.5C 165.5,136.167 165.5,104.833 165.5,73.5C 163.833,73.5 162.167,73.5 160.5,73.5C 156.167,73.5 151.833,73.5 147.5,73.5C 147.5,102.5 147.5,131.5 147.5,160.5C 147.5,162.833 147.5,165.167 147.5,167.5C 146.502,136.004 146.168,104.338 146.5,72.5C 153.167,72.5 159.833,72.5 166.5,72.5 Z"/></g>
<g><path style="opacity:1" fill="#24326d" d="M 160.5,73.5 C 161.688,74.3636 162.855,75.3636 164,76.5C 164.167,90.3333 164.333,104.167 164.5,118C 164.491,132.222 163.824,146.222 162.5,160C 165.579,163.844 164.579,165.844 159.5,166C 155.848,166.499 152.182,166.665 148.5,166.5C 148.795,164.265 148.461,162.265 147.5,160.5C 147.5,131.5 147.5,102.5 147.5,73.5C 151.833,73.5 156.167,73.5 160.5,73.5 Z"/></g>
<g><path style="opacity:0.963" fill="#283262" d="M 160.5,73.5 C 162.167,73.5 163.833,73.5 165.5,73.5C 165.5,104.833 165.5,136.167 165.5,167.5C 159.5,167.5 153.5,167.5 147.5,167.5C 147.5,165.167 147.5,162.833 147.5,160.5C 148.461,162.265 148.795,164.265 148.5,166.5C 152.182,166.665 155.848,166.499 159.5,166C 164.579,165.844 165.579,163.844 162.5,160C 163.824,146.222 164.491,132.222 164.5,118C 164.333,104.167 164.167,90.3333 164,76.5C 162.855,75.3636 161.688,74.3636 160.5,73.5 Z"/></g>
<g><path style="opacity:1" fill="#24326f" d="M 281.5,183.5 C 281.5,183.833 281.5,184.167 281.5,184.5C 280.518,185.141 279.518,185.807 278.5,186.5C 277.29,183.341 277.29,180.174 278.5,177C 277.991,175.831 277.158,174.998 276,174.5C 275.5,142.835 275.333,111.168 275.5,79.5C 276.833,79.5 278.167,79.5 279.5,79.5C 279.167,111.174 279.5,142.84 280.5,174.5C 281.64,143.151 281.806,111.485 281,79.5C 280,78.5 279,77.5 278,76.5C 275.36,78.0997 273.193,77.7664 271.5,75.5C 274.962,74.5184 278.629,74.185 282.5,74.5C 282.78,110.847 282.447,147.181 281.5,183.5 Z"/></g>
<g><path style="opacity:0.004" fill="#dce1e8" d="M 482.5,79.5 C 484.5,79.5 485.5,80.5 485.5,82.5C 484.167,81.8333 483.167,80.8333 482.5,79.5 Z"/></g>
<g><path style="opacity:0.27" fill="#9ea4bd" d="M 512.5,71.5 C 512.832,103.671 512.498,135.671 511.5,167.5C 511.5,135.833 511.5,104.167 511.5,72.5C 505.167,72.5 498.833,72.5 492.5,72.5C 492.5,79.1667 492.5,85.8333 492.5,92.5C 492.19,93.7383 491.69,93.7383 491,92.5C 489.745,88.7713 487.912,85.438 485.5,82.5C 486.794,83.2899 487.961,84.2899 489,85.5C 489.414,85.0426 489.914,84.7093 490.5,84.5C 491.053,79.6891 491.886,75.0224 493,70.5C 499.661,71.411 506.161,71.7443 512.5,71.5 Z"/></g>
<g><path style="opacity:0.944" fill="#2b3664" d="M 511.5,167.5 C 505.167,167.5 498.833,167.5 492.5,167.5C 492.5,161.5 492.5,155.5 492.5,149.5C 493.21,154.702 493.876,160.035 494.5,165.5C 499.792,166.495 505.125,166.828 510.5,166.5C 510.5,135.833 510.5,105.167 510.5,74.5C 505.103,74.2154 499.77,74.5488 494.5,75.5C 493.833,81.3195 493.167,86.9861 492.5,92.5C 492.5,85.8333 492.5,79.1667 492.5,72.5C 498.833,72.5 505.167,72.5 511.5,72.5C 511.5,104.167 511.5,135.833 511.5,167.5 Z"/></g>
<g><path style="opacity:0.059" fill="#e4e5ee" d="M 512.5,71.5 C 513.918,76.7658 514.585,82.2658 514.5,88C 514.282,114.844 513.782,141.678 513,168.5C 505.735,169.827 498.568,169.827 491.5,168.5C 498.354,168.824 505.021,168.491 511.5,167.5C 512.498,135.671 512.832,103.671 512.5,71.5 Z"/></g>
<g><path style="opacity:0.82" fill="#8085aa" d="M 581.5,76.5 C 581.5,77.1667 581.5,77.8333 581.5,78.5C 581.167,79.8333 580.833,81.1667 580.5,82.5C 580.167,82.5 579.833,82.5 579.5,82.5C 579.5,81.8333 579.5,81.1667 579.5,80.5C 579.66,78.847 580.326,77.5137 581.5,76.5 Z"/></g>
<g><path style="opacity:0.58" fill="#9fa6c2" d="M 254.5,79.5 C 257.243,81.2393 259.243,83.5726 260.5,86.5C 257.757,84.7607 255.757,82.4274 254.5,79.5 Z"/></g>
<g><path style="opacity:0.621" fill="#6c7397" d="M 307.5,72.5 C 307.833,72.5 308.167,72.5 308.5,72.5C 308.5,72.8333 308.5,73.1667 308.5,73.5C 308.5,104.5 308.5,135.5 308.5,166.5C 314.645,167.49 320.978,167.823 327.5,167.5C 327.5,167.833 327.5,168.167 327.5,168.5C 320.833,168.5 314.167,168.5 307.5,168.5C 307.5,136.5 307.5,104.5 307.5,72.5 Z"/></g>
<g><path style="opacity:0.059" fill="#dbdced" d="M 556.5,39.5 C 556.167,39.5 555.833,39.5 555.5,39.5C 548.833,39.5 542.167,39.5 535.5,39.5C 535.5,82.1667 535.5,124.833 535.5,167.5C 535.5,167.833 535.5,168.167 535.5,168.5C 534.831,125.098 534.164,81.5977 533.5,38C 535.35,35.9672 536.016,35.9672 535.5,38C 542.679,38.1715 549.679,38.6715 556.5,39.5 Z"/></g>
<g><path style="opacity:0.004" fill="#ececf6" d="M 1011.5,75.5 C 1011.51,77.3084 1011.01,78.9751 1010,80.5C 1009.67,80.1667 1009.33,79.8333 1009,79.5C 1008.69,82.3092 1007.19,83.9759 1004.5,84.5C 1005.92,83.078 1006.92,81.4113 1007.5,79.5C 1008.17,78.5 1008.83,77.5 1009.5,76.5C 1010.17,76.1667 1010.83,75.8333 1011.5,75.5 Z"/></g>
<g><path style="opacity:0.44" fill="#8b92b7" d="M 264.5,72.5 C 264.5,78.5 264.5,84.5 264.5,90.5C 264.649,91.552 264.483,92.552 264,93.5C 262.628,92.0899 261.795,90.4233 261.5,88.5C 262.117,88.6107 262.617,88.944 263,89.5C 263.173,83.6518 263.673,77.9851 264.5,72.5 Z"/></g>
<g><path style="opacity:0.522" fill="#a6aac6" d="M 208.5,75.5 C 203.564,79.0963 198.897,83.0963 194.5,87.5C 197.619,81.7163 202.285,77.7163 208.5,75.5 Z"/></g>
<g><path style="opacity:0.004" fill="#fefffe" d="M 401.5,89.5 C 401.338,87.4727 401.505,85.4727 402,83.5C 402.789,85.7116 402.622,87.7116 401.5,89.5 Z"/></g>
<g><path style="opacity:0.282" fill="#afb3d1" d="M 727.5,78.5 C 724.585,81.9587 721.252,84.9587 717.5,87.5C 717.859,85.629 718.859,84.129 720.5,83C 722.734,81.2502 725.068,79.7502 727.5,78.5 Z"/></g>
<g><path style="opacity:0.027" fill="#e1e3ec" d="M 691.5,81.5 C 694.438,83.9739 694.771,86.6406 692.5,89.5C 691.537,89.0302 691.537,88.3635 692.5,87.5C 692.737,86.209 692.404,85.209 691.5,84.5C 691.5,83.5 691.5,82.5 691.5,81.5 Z"/></g>
<g><path style="opacity:1" fill="#25326e" d="M 979.5,85.5 C 981.291,82.8684 983.291,80.5351 985.5,78.5C 987.564,78.2381 988.897,77.0714 989.5,75C 995.491,74.5005 1001.49,74.3338 1007.5,74.5C 1007.5,75.5 1007.5,76.5 1007.5,77.5C 1002.16,77.334 996.823,77.5006 991.5,78C 989.842,78.7253 989.342,79.892 990,81.5C 991.11,79.9632 992.61,79.2965 994.5,79.5C 994.723,82.1142 993.556,83.7809 991,84.5C 990.699,87.9742 989.866,91.3075 988.5,94.5C 988.709,95.086 989.043,95.586 989.5,96C 987.981,97.3513 986.648,98.8513 985.5,100.5C 984.17,98.9068 982.836,97.2402 981.5,95.5C 982.025,94.8076 982.692,94.3076 983.5,94C 983.034,92.7012 983.034,91.2012 983.5,89.5C 982.167,89.5 980.833,89.5 979.5,89.5C 979.5,88.1667 979.5,86.8333 979.5,85.5 Z"/></g>
<g><path style="opacity:0.231" fill="#bfc3d5" d="M 579.5,80.5 C 579.5,81.1667 579.5,81.8333 579.5,82.5C 578.367,85.5565 577.367,88.5565 576.5,91.5C 576.126,87.3526 577.126,83.6859 579.5,80.5 Z"/></g>
<g><path style="opacity:0.921" fill="#303967" d="M 664.5,76.5 C 664.5,76.1667 664.5,75.8333 664.5,75.5C 668.991,77.3287 671.657,80.6621 672.5,85.5C 678.167,85.5 683.833,85.5 689.5,85.5C 688.908,82.8728 688.575,80.2062 688.5,77.5C 689.5,78.8333 690.5,80.1667 691.5,81.5C 691.5,82.5 691.5,83.5 691.5,84.5C 688.572,85.8197 685.239,86.4864 681.5,86.5C 678.167,86.3333 674.833,86.1667 671.5,86C 669.689,82.369 667.356,79.2024 664.5,76.5 Z"/></g>
<g><path style="opacity:0.361" fill="#aeb3cf" d="M 835.5,81.5 C 833.833,83.8333 831.833,85.8333 829.5,87.5C 830.5,84.5 832.5,82.5 835.5,81.5 Z"/></g>
<g><path style="opacity:0.129" fill="#b9c0d2" d="M 89.5,71.5 C 99.2921,77.3178 104.625,85.9845 105.5,97.5C 105.784,99.4147 105.451,101.081 104.5,102.5C 104.057,89.9472 99.0567,79.6138 89.5,71.5 Z"/></g>
<g><path style="opacity:0.399" fill="#9aa1be" d="M 664.5,76.5 C 667.356,79.2024 669.689,82.369 671.5,86C 674.833,86.1667 678.167,86.3333 681.5,86.5C 685.239,86.4864 688.572,85.8197 691.5,84.5C 692.404,85.209 692.737,86.209 692.5,87.5C 685.159,87.6663 677.826,87.4997 670.5,87C 668.097,83.6894 666.097,80.1894 664.5,76.5 Z"/></g>
<g><path style="opacity:0.882" fill="#7a81a1" d="M 227.5,89.5 C 232.64,88.5119 237.974,88.1786 243.5,88.5C 245.662,89.1276 247.328,90.461 248.5,92.5C 247.209,92.7373 246.209,92.404 245.5,91.5C 243.162,89.9605 240.495,89.2938 237.5,89.5C 235.5,89.5 233.5,89.5 231.5,89.5C 230.167,89.5 228.833,89.5 227.5,89.5 Z"/></g>
<g><path style="opacity:0.078" fill="#d6dfe9" d="M 146.5,168.5 C 153.354,168.824 160.021,168.491 166.5,167.5C 166.5,135.833 166.5,104.167 166.5,72.5C 166.158,71.6618 165.492,71.3284 164.5,71.5C 164.5,70.5 164.5,69.5 164.5,68.5C 166.359,68.4609 167.692,69.2942 168.5,71C 167.833,103.834 167.5,136.667 167.5,169.5C 160.313,169.825 153.313,169.491 146.5,168.5 Z"/></g>
<g><path style="opacity:0.133" fill="#d4d7e5" d="M 237.5,89.5 C 240.495,89.2938 243.162,89.9605 245.5,91.5C 242.572,91.4349 239.905,90.7682 237.5,89.5 Z"/></g>
<g><path style="opacity:0.004" fill="#fefffe" d="M 712.5,89.5 C 713.833,90.1667 713.833,90.1667 712.5,89.5 Z"/></g>
<g><path style="opacity:0.173" fill="#bac3d6" d="M 328.5,168.5 C 328.167,168.5 327.833,168.5 327.5,168.5C 327.5,168.167 327.5,167.833 327.5,167.5C 327.5,135.833 327.5,104.167 327.5,72.5C 321.167,72.5 314.833,72.5 308.5,72.5C 308.167,72.5 307.833,72.5 307.5,72.5C 307.5,72.1667 307.5,71.8333 307.5,71.5C 314.544,71.4252 321.377,71.4252 328,71.5C 328.5,103.832 328.667,136.165 328.5,168.5 Z"/></g>
<g><path style="opacity:0.008" fill="#f9fafc" d="M 378.5,90.5 C 378.176,109.005 378.51,127.671 379.5,146.5C 378.833,146.167 378.167,145.833 377.5,145.5C 377.5,144.167 377.5,142.833 377.5,141.5C 377.17,124.325 377.503,107.325 378.5,90.5 Z"/></g>
<g><path style="opacity:0.031" fill="#bbc0d9" d="M 769.5,92.5 C 761.011,88.5444 752.511,88.5444 744,92.5C 742.954,94.1952 741.787,94.5285 740.5,93.5C 740.833,92.8333 741.167,92.1667 741.5,91.5C 749.254,88.1133 757.254,87.6133 765.5,90C 767.32,90.2004 768.653,91.0337 769.5,92.5 Z"/></g>
<g><path style="opacity:1" fill="#363e6d" d="M 778.5,98.5 C 776.427,96.4202 774.093,94.7536 771.5,93.5C 770.508,93.6716 769.842,93.3382 769.5,92.5C 768.653,91.0337 767.32,90.2004 765.5,90C 757.254,87.6133 749.254,88.1133 741.5,91.5C 741.937,89.9256 742.937,88.7589 744.5,88C 750.452,86.6705 756.452,86.3372 762.5,87C 766.276,88.8817 770.276,90.215 774.5,91C 776.285,93.3444 777.618,95.8444 778.5,98.5 Z"/></g>
<g><path style="opacity:0.282" fill="#b8bbd2" d="M 795.5,88.5 C 797.262,89.2623 798.262,90.5956 798.5,92.5C 796.738,91.7377 795.738,90.4044 795.5,88.5 Z"/></g>
<g><path style="opacity:0.078" fill="#bcc3db" d="M 227.5,89.5 C 228.833,89.5 230.167,89.5 231.5,89.5C 228.063,90.9448 224.397,91.9448 220.5,92.5C 222.395,90.7587 224.728,89.7587 227.5,89.5 Z"/></g>
<g><path style="opacity:0.18" fill="#b6bbd1" d="M 829.5,87.5 C 826.901,91.0386 824.568,94.7053 822.5,98.5C 823.077,93.6719 825.41,90.0052 829.5,87.5 Z"/></g>
<g><path style="opacity:0.161" fill="#c8cde0" d="M 248.5,92.5 C 250.027,92.427 251.027,93.0937 251.5,94.5C 249.973,94.573 248.973,93.9063 248.5,92.5 Z"/></g>
<g><path style="opacity:0.02" fill="#bdc2d9" d="M 476.5,92.5 C 464.621,87.7219 453.621,89.2219 443.5,97C 441.768,98.9719 440.435,101.139 439.5,103.5C 438.833,103.5 438.167,103.5 437.5,103.5C 439.402,98.9315 442.402,95.2648 446.5,92.5C 454.74,88.2565 463.407,87.4232 472.5,90C 474.066,90.6082 475.4,91.4415 476.5,92.5 Z"/></g>
<g><path style="opacity:0.165" fill="#c6cce0" d="M 881.5,92.5 C 883.027,92.427 884.027,93.0937 884.5,94.5C 882.973,94.573 881.973,93.9063 881.5,92.5 Z"/></g>
<g><path style="opacity:0.737" fill="#9298b1" d="M 194.5,87.5 C 193.247,91.6107 191.247,95.2774 188.5,98.5C 189.214,94.0666 191.214,90.4 194.5,87.5 Z"/></g>
<g><path style="opacity:0.941" fill="#2a3463" d="M 264.5,72.5 C 270.833,72.5 277.167,72.5 283.5,72.5C 283.667,107.502 283.5,142.502 283,177.5C 282.809,179.708 282.309,181.708 281.5,183.5C 282.447,147.181 282.78,110.847 282.5,74.5C 278.629,74.185 274.962,74.5184 271.5,75.5C 269.856,75.2865 268.356,75.6198 267,76.5C 265.337,80.4601 265.17,84.4601 266.5,88.5C 266.145,89.5223 265.478,90.189 264.5,90.5C 264.5,84.5 264.5,78.5 264.5,72.5 Z"/></g>
<g><path style="opacity:0.082" fill="#d1d9e5" d="M 306.5,71.5 C 306.833,71.5 307.167,71.5 307.5,71.5C 307.5,71.8333 307.5,72.1667 307.5,72.5C 307.5,104.5 307.5,136.5 307.5,168.5C 314.167,168.5 320.833,168.5 327.5,168.5C 327.833,168.5 328.167,168.5 328.5,168.5C 321.352,169.492 314.019,169.825 306.5,169.5C 306.5,136.833 306.5,104.167 306.5,71.5 Z"/></g>
<g><path style="opacity:0.043" fill="#d2dde8" d="M 798.5,92.5 C 800.104,93.287 800.771,94.6203 800.5,96.5C 799.326,95.4863 798.66,94.153 798.5,92.5 Z"/></g>
<g><path style="opacity:0.439" fill="#b0b9d1" d="M 884.5,94.5 C 888.217,95.9198 890.55,98.5865 891.5,102.5C 889.177,99.8739 886.843,97.2072 884.5,94.5 Z"/></g>
<g><path style="opacity:0.024" fill="#c7cce8" d="M 909.5,91.5 C 911.873,93.5792 913.206,96.2459 913.5,99.5C 911.659,97.1515 910.326,94.4848 909.5,91.5 Z"/></g>
<g><path style="opacity:1" fill="#27346d" d="M 443.5,73.5 C 439.882,77.2593 435.548,80.0927 430.5,82C 431.65,84.7459 432.15,87.5792 432,90.5C 429.333,94.5 426.667,94.5 424,90.5C 422.455,92.2088 421.622,94.2088 421.5,96.5C 422.368,101.688 423.701,101.688 425.5,96.5C 427.108,95.6816 428.775,95.0149 430.5,94.5C 431.243,95.9079 432.077,97.2412 433,98.5C 433.333,98.1667 433.667,97.8333 434,97.5C 434.605,99.4812 435.605,99.8146 437,98.5C 437.236,96.236 437.736,94.0693 438.5,92C 440.313,91.3856 440.647,91.7189 439.5,93C 440.416,93.3742 441.25,93.8742 442,94.5C 443.049,92.8934 444.549,92.2267 446.5,92.5C 442.402,95.2648 439.402,98.9315 437.5,103.5C 435.723,106.505 434.723,109.838 434.5,113.5C 433.167,117.5 433.167,121.5 434.5,125.5C 434.476,129.787 435.81,133.453 438.5,136.5C 441.338,144.67 447.005,149.67 455.5,151.5C 463.457,152.009 471.457,153.175 479.5,155C 480.833,155.667 480.833,156.333 479.5,157C 476.832,157.567 474.166,158.067 471.5,158.5C 471.5,159.5 471.5,160.5 471.5,161.5C 472.552,161.351 473.552,161.517 474.5,162C 472.972,163.361 471.305,164.528 469.5,165.5C 468.174,164.01 466.674,162.676 465,161.5C 464.097,162.701 462.931,163.535 461.5,164C 462.5,164.833 463.5,165.667 464.5,166.5C 457.162,167.685 449.829,167.685 442.5,166.5C 441.167,166.5 439.833,166.5 438.5,166.5C 438.027,165.094 437.027,164.427 435.5,164.5C 434.508,164.672 433.842,164.338 433.5,163.5C 432.738,161.738 431.404,160.738 429.5,160.5C 416.671,146.769 411.338,130.435 413.5,111.5C 415.277,108.495 416.277,105.162 416.5,101.5C 419.132,92.5377 424.132,85.2043 431.5,79.5C 433.795,78.8645 435.461,77.5311 436.5,75.5C 438.833,74.8333 441.167,74.1667 443.5,73.5 Z"/></g>
<g><path style="opacity:0.153" fill="#b9bdd3" d="M 717.5,87.5 C 715.554,91.4394 713.221,95.106 710.5,98.5C 711.657,94.0243 713.99,90.3577 717.5,87.5 Z"/></g>
<g><path style="opacity:0.286" fill="#b4bbcf" d="M 771.5,93.5 C 774.093,94.7536 776.427,96.4202 778.5,98.5C 778.5,99.1667 778.5,99.8333 778.5,100.5C 775.833,98.5 773.5,96.1667 771.5,93.5 Z"/></g>
<g><path style="opacity:1" fill="#26346d" d="M 900.5,83.5 C 903.919,85.6451 906.919,88.3118 909.5,91.5C 910.326,94.4848 911.659,97.1515 913.5,99.5C 916.491,111.356 917.158,123.356 915.5,135.5C 913.926,137.102 913.259,139.102 913.5,141.5C 911.108,144.598 908.942,147.931 907,151.5C 905.629,153.041 904.129,154.375 902.5,155.5C 900.833,155.5 899.167,155.5 897.5,155.5C 897.5,156.833 897.5,158.167 897.5,159.5C 893.392,160.147 889.559,161.48 886,163.5C 883.283,162.261 880.449,161.427 877.5,161C 879.196,158.018 881.863,156.684 885.5,157C 888.482,156.104 891.149,154.604 893.5,152.5C 893,152.167 892.5,151.833 892,151.5C 889.349,153.164 886.516,153.664 883.5,153C 886.146,150.368 888.146,146.868 889.5,142.5C 891.42,139.661 893.087,136.661 894.5,133.5C 896.609,129.224 898.275,124.558 899.5,119.5C 896.776,112.433 895.442,105.1 895.5,97.5C 893.833,97.5 892.167,97.5 890.5,97.5C 890.5,96.5 890.5,95.5 890.5,94.5C 892.143,94.4802 893.476,95.1468 894.5,96.5C 894.833,95.6667 895.167,94.8333 895.5,94C 893.986,90.5638 892.652,87.0638 891.5,83.5C 893.492,83.3285 895.158,83.9951 896.5,85.5C 897.524,84.1468 898.857,83.4802 900.5,83.5 Z"/></g>
<g><path style="opacity:0.282" fill="#c0c3d9" d="M 251.5,94.5 C 255.565,96.2329 258.232,99.2329 259.5,103.5C 256.862,100.526 254.195,97.5256 251.5,94.5 Z"/></g>
<g><path style="opacity:0.785" fill="#475076" d="M 376.5,89.5 C 376.17,107.008 376.503,124.341 377.5,141.5C 377.5,142.833 377.5,144.167 377.5,145.5C 376.732,144.737 376.232,143.737 376,142.5C 375.171,124.662 375.338,106.995 376.5,89.5 Z"/></g>
<g><path style="opacity:0.235" fill="#afbdd2" d="M 478.5,93.5 C 482.167,95.1667 484.833,97.8333 486.5,101.5C 483.5,99.1667 480.833,96.5 478.5,93.5 Z"/></g>
<g><path style="opacity:0.86" fill="#383f6c" d="M 308.5,73.5 C 308.5,73.1667 308.5,72.8333 308.5,72.5C 314.833,72.5 321.167,72.5 327.5,72.5C 327.5,104.167 327.5,135.833 327.5,167.5C 320.978,167.823 314.645,167.49 308.5,166.5C 314.5,166.5 320.5,166.5 326.5,166.5C 326.5,135.5 326.5,104.5 326.5,73.5C 320.5,73.5 314.5,73.5 308.5,73.5 Z"/></g>
<g><path style="opacity:0.988" fill="#303a6b" d="M 490.5,106.5 C 489.872,104.338 488.539,102.672 486.5,101.5C 484.833,97.8333 482.167,95.1667 478.5,93.5C 477.508,93.6716 476.842,93.3382 476.5,92.5C 475.4,91.4415 474.066,90.6082 472.5,90C 463.407,87.4232 454.74,88.2565 446.5,92.5C 446.539,91.4168 446.873,90.4168 447.5,89.5C 458.798,86.2625 469.798,86.9292 480.5,91.5C 481.167,90.5 481.833,89.5 482.5,88.5C 486.039,89.7959 486.373,91.6293 483.5,94C 485.68,95.7608 487.346,97.9274 488.5,100.5C 489.85,99.0499 491.516,98.3832 493.5,98.5C 493.5,99.8333 493.5,101.167 493.5,102.5C 492.5,102.5 491.5,102.5 490.5,102.5C 490.5,103.833 490.5,105.167 490.5,106.5 Z"/></g>
<g><path style="opacity:0.525" fill="#afb5cb" d="M 432.5,77.5 C 432.167,78.1667 431.833,78.8333 431.5,79.5C 424.132,85.2043 419.132,92.5377 416.5,101.5C 415.833,102.5 415.167,103.5 414.5,104.5C 416.562,92.7894 422.562,83.7894 432.5,77.5 Z"/></g>
<g><path style="opacity:0.994" fill="#303a69" d="M 579.5,82.5 C 579.833,82.5 580.167,82.5 580.5,82.5C 580.259,85.8973 579.593,89.2306 578.5,92.5C 579.344,96.4569 579.677,100.29 579.5,104C 577.484,105.028 576.484,106.695 576.5,109C 577.286,112.458 577.62,115.958 577.5,119.5C 576.833,117.167 576.167,114.833 575.5,112.5C 575.713,105.826 576.046,99.1593 576.5,92.5C 576.5,92.1667 576.5,91.8333 576.5,91.5C 577.367,88.5565 578.367,85.5565 579.5,82.5 Z"/></g>
<g><path style="opacity:0.102" fill="#bfc3d7" d="M 1007.5,79.5 C 1006.92,81.4113 1005.92,83.078 1004.5,84.5C 999.147,91.1826 993.48,97.5159 987.5,103.5C 987.167,103.5 986.833,103.5 986.5,103.5C 993.51,95.4594 1000.51,87.4594 1007.5,79.5 Z"/></g>
<g><path style="opacity:0.09" fill="#bdcedf" d="M 800.5,96.5 C 801.931,97.7804 802.598,99.4471 802.5,101.5C 801.069,100.22 800.402,98.5529 800.5,96.5 Z"/></g>
<g><path style="opacity:0.651" fill="#9fa5bd" d="M 188.5,98.5 C 188.074,102.427 187.074,106.093 185.5,109.5C 185.517,105.466 186.517,101.799 188.5,98.5 Z"/></g>
<g><path style="opacity:0.259" fill="#acb0ca" d="M 164.5,71.5 C 165.492,71.3284 166.158,71.6618 166.5,72.5C 159.833,72.5 153.167,72.5 146.5,72.5C 146.168,104.338 146.502,136.004 147.5,167.5C 153.5,167.5 159.5,167.5 165.5,167.5C 165.833,167.5 166.167,167.5 166.5,167.5C 160.021,168.491 153.354,168.824 146.5,168.5C 145.502,136.338 145.168,104.004 145.5,71.5C 151.833,71.5 158.167,71.5 164.5,71.5 Z"/></g>
<g><path style="opacity:0.161" fill="#cdd1df" d="M 740.5,93.5 C 730.136,104.98 726.802,118.313 730.5,133.5C 729.251,130.913 728.251,128.246 727.5,125.5C 726.082,115.597 728.249,106.597 734,98.5C 735.777,96.2101 737.944,94.5434 740.5,93.5 Z"/></g>
<g><path style="opacity:0.043" fill="#c9cede" d="M 220.5,92.5 C 212.25,98.6626 207.917,106.996 207.5,117.5C 206.566,116.432 206.232,115.099 206.5,113.5C 206.421,110.729 206.921,108.063 208,105.5C 210.347,99.3216 214.513,94.9883 220.5,92.5 Z"/></g>
<g><path style="opacity:0.005" fill="#fbfcfd" d="M 437.5,103.5 C 438.167,103.5 438.833,103.5 439.5,103.5C 438.671,106.815 437.838,110.148 437,113.5C 436.617,112.944 436.117,112.611 435.5,112.5C 436.578,109.598 437.244,106.598 437.5,103.5 Z"/></g>
<g><path style="opacity:0.208" fill="#b0b3d1" d="M 486.5,101.5 C 488.539,102.672 489.872,104.338 490.5,106.5C 490.5,108.167 490.5,109.833 490.5,111.5C 488.991,108.322 487.658,104.989 486.5,101.5 Z"/></g>
<g><path style="opacity:0.306" fill="#bdc2d8" d="M 879.5,91.5 C 858.134,85.9288 845.301,93.9288 841,115.5C 840.333,119.167 840.333,122.833 841,126.5C 842.15,129.768 842.984,133.101 843.5,136.5C 841.672,133.865 840.505,130.865 840,127.5C 838.416,118.023 839.75,109.023 844,100.5C 853.63,88.1361 865.463,85.1361 879.5,91.5 Z"/></g>
<g><path style="opacity:0.008" fill="#f1f1f8" d="M 986.5,103.5 C 986.833,103.5 987.167,103.5 987.5,103.5C 986.005,107.673 983.338,111.006 979.5,113.5C 979.5,112.833 979.5,112.167 979.5,111.5C 980.167,110.167 981.167,109.167 982.5,108.5C 984.587,107.415 985.92,105.749 986.5,103.5 Z"/></g>
<g><path style="opacity:0.051" fill="#caccdf" d="M 576.5,92.5 C 576.046,99.1593 575.713,105.826 575.5,112.5C 575.5,113.833 575.5,115.167 575.5,116.5C 574.835,113.518 574.502,110.352 574.5,107C 574.344,101.91 575.01,97.0771 576.5,92.5 Z"/></g>
<g><path style="opacity:0.416" fill="#a4aac4" d="M 710.5,99.5 C 710.483,101.565 710.15,103.565 709.5,105.5C 708.833,106.5 708.167,107.5 707.5,108.5C 707.528,105.084 708.528,102.084 710.5,99.5 Z"/></g>
<g><path style="opacity:0.12" fill="#ccd1e1" d="M 117.5,70.5 C 118.718,71.7311 120.051,72.8978 121.5,74C 121.167,74.3333 120.833,74.6667 120.5,75C 122.114,76.0702 123.448,77.5702 124.5,79.5C 124.167,80.1667 123.833,80.8333 123.5,81.5C 125.546,89.3167 127.546,97.1501 129.5,105C 127.754,112.944 126.087,120.944 124.5,129C 124.833,129.333 125.167,129.667 125.5,130C 123.014,133.137 121.181,136.637 120,140.5C 119.292,141.381 118.458,142.047 117.5,142.5C 129.467,118.445 129.467,94.4454 117.5,70.5 Z"/></g>
<g><path style="opacity:0.349" fill="#aaaecb" d="M 105.5,97.5 C 106.833,102.5 106.833,107.5 105.5,112.5C 105.672,111.508 105.338,110.842 104.5,110.5C 104.5,107.833 104.5,105.167 104.5,102.5C 105.451,101.081 105.784,99.4147 105.5,97.5 Z"/></g>
<g><path style="opacity:0.173" fill="#b2b8cf" d="M 802.5,101.5 C 804.498,105.126 805.498,109.126 805.5,113.5C 805.818,118.032 805.485,122.366 804.5,126.5C 804.821,121.305 804.487,116.305 803.5,111.5C 803.384,108.14 803.051,104.807 802.5,101.5 Z"/></g>
<g><path style="opacity:0.129" fill="#aaafca" d="M 986.5,103.5 C 985.92,105.749 984.587,107.415 982.5,108.5C 983.08,106.251 984.413,104.585 986.5,103.5 Z"/></g>
<g><path style="opacity:0.749" fill="#7a80a0" d="M 416.5,101.5 C 416.277,105.162 415.277,108.495 413.5,111.5C 413.198,108.941 413.532,106.607 414.5,104.5C 415.167,103.5 415.833,102.5 416.5,101.5 Z"/></g>
<g><path style="opacity:0.006" fill="#eaebf3" d="M 979.5,113.5 C 978.626,116.077 977.626,118.577 976.5,121C 976.954,122.939 977.621,124.772 978.5,126.5C 975.985,124.818 973.985,122.652 972.5,120C 972.978,118.358 973.978,117.191 975.5,116.5C 976.833,115.5 978.167,114.5 979.5,113.5 Z"/></g>
<g><path style="opacity:0.118" fill="#c7cade" d="M 259.5,103.5 C 261.234,105.09 262.4,107.09 263,109.5C 263.667,116.167 263.667,122.833 263,129.5C 262.768,130.737 262.268,131.737 261.5,132.5C 263.243,122.577 262.577,112.91 259.5,103.5 Z"/></g>
<g><path style="opacity:0.098" fill="#acafc8" d="M 979.5,111.5 C 979.5,112.167 979.5,112.833 979.5,113.5C 978.167,114.5 976.833,115.5 975.5,116.5C 975.733,114.938 976.4,113.605 977.5,112.5C 978.167,112.167 978.833,111.833 979.5,111.5 Z"/></g>
<g><path style="opacity:0.031" fill="#c8d5e1" d="M 437.5,103.5 C 437.244,106.598 436.578,109.598 435.5,112.5C 435.5,115.5 435.5,118.5 435.5,121.5C 434.527,119.052 434.194,116.385 434.5,113.5C 434.723,109.838 435.723,106.505 437.5,103.5 Z"/></g>
<g><path style="opacity:0.29" fill="#aeb6c9" d="M 707.5,108.5 C 707.177,115.022 707.51,121.355 708.5,127.5C 709.022,135.732 711.355,143.399 715.5,150.5C 711.091,145.004 708.258,138.671 707,131.5C 706.178,123.655 706.344,115.989 707.5,108.5 Z"/></g>
<g><path style="opacity:0.249" fill="#a7aec9" d="M 778.5,100.5 C 781.362,103.557 783.195,107.224 784,111.5C 786.121,123.237 783.788,133.904 777,143.5C 775.887,144.305 774.721,144.972 773.5,145.5C 784.79,131.735 786.457,116.735 778.5,100.5 Z"/></g>
<g><path style="opacity:0.345" fill="#919ab3" d="M 206.5,113.5 C 206.232,115.099 206.566,116.432 207.5,117.5C 207.167,118.833 206.833,120.167 206.5,121.5C 206.5,123.5 206.5,125.5 206.5,127.5C 205.167,122.833 205.167,118.167 206.5,113.5 Z"/></g>
<g><path style="opacity:0.944" fill="#363f6c" d="M 820.5,108.5 C 820.448,117.518 820.782,126.518 821.5,135.5C 820.025,130.243 819.358,124.743 819.5,119C 819.501,115.317 819.835,111.817 820.5,108.5 Z"/></g>
<g><path style="opacity:0.004" fill="#fefffe" d="M 17.5,119.5 C 18.6497,124.316 18.8163,129.316 18,134.5C 17.5007,129.511 17.3341,124.511 17.5,119.5 Z"/></g>
<g><path style="opacity:0.235" fill="#bdc3d6" d="M 185.5,109.5 C 185.282,119.569 185.948,129.569 187.5,139.5C 186.224,137.438 185.39,135.104 185,132.5C 184.178,124.655 184.344,116.989 185.5,109.5 Z"/></g>
<g><path style="opacity:0.267" fill="#a8acca" d="M 490.5,111.5 C 491.973,114.017 492.64,116.85 492.5,120C 492.494,122.033 492.161,123.866 491.5,125.5C 491.5,124.167 491.5,122.833 491.5,121.5C 490.793,118.214 490.46,114.881 490.5,111.5 Z"/></g>
<g><path style="opacity:0.871" fill="#4a537c" d="M 709.5,105.5 C 708.65,112.799 708.317,120.132 708.5,127.5C 707.51,121.355 707.177,115.022 707.5,108.5C 708.167,107.5 708.833,106.5 709.5,105.5 Z"/></g>
<g><path style="opacity:0.173" fill="#bec3d7" d="M 913.5,99.5 C 915.328,102.135 916.495,105.135 917,108.5C 917.667,116.167 917.667,123.833 917,131.5C 916.79,133.058 916.29,134.391 915.5,135.5C 917.158,123.356 916.491,111.356 913.5,99.5 Z"/></g>
<g><path style="opacity:0.373" fill="#8992af" d="M 434.5,113.5 C 434.194,116.385 434.527,119.052 435.5,121.5C 435.5,121.833 435.5,122.167 435.5,122.5C 434.596,123.209 434.263,124.209 434.5,125.5C 433.167,121.5 433.167,117.5 434.5,113.5 Z"/></g>
<g><path style="opacity:0.153" fill="#bac1d4" d="M 104.5,110.5 C 105.338,110.842 105.672,111.508 105.5,112.5C 105.861,118.065 104.527,123.065 101.5,127.5C 103.61,122.054 104.61,116.388 104.5,110.5 Z"/></g>
<g><path style="opacity:0.005" fill="#e7eaf2" d="M 435.5,122.5 C 435.343,123.873 435.51,125.207 436,126.5C 436.333,125.833 436.667,125.167 437,124.5C 437.392,128.528 437.892,132.528 438.5,136.5C 435.81,133.453 434.476,129.787 434.5,125.5C 434.263,124.209 434.596,123.209 435.5,122.5 Z"/></g>
<g><path style="opacity:0.004" fill="#f0f1f8" d="M 206.5,121.5 C 207.635,124.338 208.635,127.338 209.5,130.5C 209.376,131.107 209.043,131.44 208.5,131.5C 208.068,130.29 207.401,129.29 206.5,128.5C 206.5,128.167 206.5,127.833 206.5,127.5C 206.5,125.5 206.5,123.5 206.5,121.5 Z"/></g>
<g><path style="opacity:0.674" fill="#737a94" d="M 671.5,127.5 C 678.313,126.509 685.313,126.175 692.5,126.5C 693.678,128.338 693.345,130.005 691.5,131.5C 691.5,130.167 691.5,128.833 691.5,127.5C 684.833,127.5 678.167,127.5 671.5,127.5 Z"/></g>
<g><path style="opacity:0.106" fill="#c7cedf" d="M 606.5,77.5 C 606.938,77.4346 607.272,77.6012 607.5,78C 600.533,85.9526 597.2,95.286 597.5,106C 599.343,139.349 616.676,153.182 649.5,147.5C 648.486,148.674 647.153,149.34 645.5,149.5C 632.003,152.926 620.003,150.259 609.5,141.5C 598.606,130.016 594.273,116.349 596.5,100.5C 596.301,97.059 596.801,93.7256 598,90.5C 599.316,86.535 601.149,82.8683 603.5,79.5C 604.778,79.2178 605.778,78.5511 606.5,77.5 Z"/></g>
<g><path style="opacity:0.075" fill="#cdd0e2" d="M 101.5,127.5 C 100.831,130.849 99.1639,133.516 96.5,135.5C 97.6693,132.489 99.336,129.822 101.5,127.5 Z"/></g>
<g><path style="opacity:0.224" fill="#b5bad2" d="M 575.5,112.5 C 576.167,114.833 576.833,117.167 577.5,119.5C 579.037,129.441 582.37,138.774 587.5,147.5C 584.358,144.698 582.025,141.365 580.5,137.5C 577.446,130.85 575.779,123.85 575.5,116.5C 575.5,115.167 575.5,113.833 575.5,112.5 Z"/></g>
<g><path style="opacity:1" fill="#3a4271" d="M 595.5,100.5 C 595.833,100.5 596.167,100.5 596.5,100.5C 594.273,116.349 598.606,130.016 609.5,141.5C 607.738,141.643 606.071,141.309 604.5,140.5C 604.191,136.631 602.191,134.631 598.5,134.5C 598.732,129.954 597.899,125.621 596,121.5C 595.5,114.508 595.334,107.508 595.5,100.5 Z"/></g>
<g><path style="opacity:0.169" fill="#c5c8da" d="M 691.5,131.5 C 691.741,133.898 691.074,135.898 689.5,137.5C 689.259,135.102 689.926,133.102 691.5,131.5 Z"/></g>
<g><path style="opacity:0.971" fill="#444a76" d="M 803.5,111.5 C 804.487,116.305 804.821,121.305 804.5,126.5C 803.816,131.9 802.816,137.233 801.5,142.5C 800.833,142.833 800.167,143.167 799.5,143.5C 800.467,139.191 801.633,134.858 803,130.5C 803.5,124.175 803.666,117.842 803.5,111.5 Z"/></g>
<g><path style="opacity:0.02" fill="#b6bad7" d="M 959.5,131.5 C 961.914,132.911 963.581,134.911 964.5,137.5C 962.14,136.135 960.473,134.135 959.5,131.5 Z"/></g>
<g><path style="opacity:0.09" fill="#b2b9d2" d="M 891.5,102.5 C 893.311,104.385 894.478,106.719 895,109.5C 896.895,117.545 896.729,125.545 894.5,133.5C 893.087,136.661 891.42,139.661 889.5,142.5C 887.026,145.31 884.026,147.31 880.5,148.5C 892.768,139.211 897.268,126.878 894,111.5C 892.855,108.568 892.022,105.568 891.5,102.5 Z"/></g>
<g><path style="opacity:0.125" fill="#c2c9e4" d="M 730.5,133.5 C 732.008,135.181 733.008,137.181 733.5,139.5C 731.461,138.089 730.461,136.089 730.5,133.5 Z"/></g>
<g><path style="opacity:0.051" fill="#dbdeeb" d="M 805.5,113.5 C 807.291,123.558 805.957,133.224 801.5,142.5C 802.816,137.233 803.816,131.9 804.5,126.5C 805.485,122.366 805.818,118.032 805.5,113.5 Z"/></g>
<g><path style="opacity:0.098" fill="#b5bdd4" d="M 978.5,126.5 C 984.107,131.075 988.774,136.409 992.5,142.5C 986.893,137.925 982.226,132.591 978.5,126.5 Z"/></g>
<g><path style="opacity:0.149" fill="#c4c8e1" d="M 261.5,132.5 C 261.771,134.38 261.104,135.713 259.5,136.5C 259.66,134.847 260.326,133.514 261.5,132.5 Z"/></g>
<g><path style="opacity:0.122" fill="#b7bdd9" d="M 491.5,121.5 C 491.5,122.833 491.5,124.167 491.5,125.5C 491.622,131.134 489.955,136.134 486.5,140.5C 485.5,141.167 484.5,141.833 483.5,142.5C 488.158,136.185 490.824,129.185 491.5,121.5 Z"/></g>
<g><path style="opacity:0.118" fill="#bbc1da" d="M 206.5,128.5 C 207.401,129.29 208.068,130.29 208.5,131.5C 209.84,134.529 211.173,137.529 212.5,140.5C 210.086,138.66 208.419,136.327 207.5,133.5C 206.699,131.958 206.366,130.292 206.5,128.5 Z"/></g>
<g><path style="opacity:0.376" fill="#bfc3db" d="M 692.5,126.5 C 685.313,126.175 678.313,126.509 671.5,127.5C 668.23,135.103 662.897,140.77 655.5,144.5C 662.149,139.683 667.149,133.517 670.5,126C 678.012,125.178 685.345,125.345 692.5,126.5 Z"/></g>
<g><path style="opacity:0.239" fill="#c5cadb" d="M 259.5,136.5 C 259.155,139.198 257.822,141.198 255.5,142.5C 256.34,140.147 257.674,138.147 259.5,136.5 Z"/></g>
<g><path style="opacity:0.004" fill="#fefffe" d="M 580.5,137.5 C 580.631,138.239 580.464,138.906 580,139.5C 579.308,138.563 579.475,137.897 580.5,137.5 Z"/></g>
<g><path style="opacity:1" fill="#27346d" d="M 970.5,96.5 C 972.17,96.7512 973.67,97.4178 975,98.5C 975.414,98.0426 975.914,97.7093 976.5,97.5C 977.39,99.8261 977.557,102.159 977,104.5C 978.356,103.62 979.856,103.286 981.5,103.5C 981.5,104.833 981.5,106.167 981.5,107.5C 979.856,107.714 978.356,107.38 977,106.5C 977.135,108.425 977.302,110.425 977.5,112.5C 976.4,113.605 975.733,114.938 975.5,116.5C 973.978,117.191 972.978,118.358 972.5,120C 973.985,122.652 975.985,124.818 978.5,126.5C 982.226,132.591 986.893,137.925 992.5,142.5C 995.123,146.791 998.456,150.457 1002.5,153.5C 1003.76,156.427 1005.76,158.761 1008.5,160.5C 1008.83,161.5 1009.5,162.167 1010.5,162.5C 1010.86,164.371 1011.86,165.871 1013.5,167C 1005.5,167.667 997.5,167.667 989.5,167C 988.468,165.373 987.134,164.207 985.5,163.5C 984.92,161.251 983.587,159.585 981.5,158.5C 980.581,155.911 978.914,153.911 976.5,152.5C 975.92,150.251 974.587,148.585 972.5,147.5C 971.92,145.251 970.587,143.585 968.5,142.5C 967.92,140.251 966.587,138.585 964.5,137.5C 963.581,134.911 961.914,132.911 959.5,131.5C 959.267,129.938 958.6,128.605 957.5,127.5C 956.053,126.115 955.053,126.448 954.5,128.5C 953.71,129.609 953.21,130.942 953,132.5C 951.833,131.333 950.667,130.167 949.5,129C 951.977,127.625 952.811,125.791 952,123.5C 955.66,124.717 958.493,123.551 960.5,120C 958.575,117.052 956.909,114.552 955.5,112.5C 956.492,112.672 957.158,112.338 957.5,111.5C 961.489,106.179 965.822,101.179 970.5,96.5 Z"/></g>
<g><path style="opacity:0.184" fill="#c5ccdc" d="M 915.5,135.5 C 915.405,137.786 914.738,139.786 913.5,141.5C 913.259,139.102 913.926,137.102 915.5,135.5 Z"/></g>
<g><path style="opacity:0.004" fill="#fefffe" d="M 962.5,138.5 C 963.833,139.167 963.833,139.167 962.5,138.5 Z"/></g>
<g><path style="opacity:0.027" fill="#b3b8d4" d="M 964.5,137.5 C 966.587,138.585 967.92,140.251 968.5,142.5C 966.413,141.415 965.08,139.749 964.5,137.5 Z"/></g>
<g><path style="opacity:0.259" fill="#bdc2d9" d="M 413.5,111.5 C 411.338,130.435 416.671,146.769 429.5,160.5C 425.901,158.737 423.068,156.07 421,152.5C 413.521,139.62 411.021,125.953 413.5,111.5 Z"/></g>
<g><path style="opacity:0.278" fill="#bec4d6" d="M 822.5,98.5 C 821.833,101.833 821.167,105.167 820.5,108.5C 819.835,111.817 819.501,115.317 819.5,119C 819.358,124.743 820.025,130.243 821.5,135.5C 821.5,135.833 821.5,136.167 821.5,136.5C 823.657,142.971 826.657,148.971 830.5,154.5C 824.893,148.965 821.06,142.298 819,134.5C 817.06,125.163 817.06,115.83 819,106.5C 819.705,103.524 820.871,100.858 822.5,98.5 Z"/></g>
<g><path style="opacity:0.043" fill="#bbc0d5" d="M 438.5,136.5 C 443.795,145.905 451.962,150.572 463,150.5C 467.189,149.91 471.356,149.244 475.5,148.5C 473.723,149.6 471.723,150.434 469.5,151C 464.845,151.499 460.179,151.666 455.5,151.5C 447.005,149.67 441.338,144.67 438.5,136.5 Z"/></g>
<g><path style="opacity:1" fill="#27336d" d="M 671.5,127.5 C 678.167,127.5 684.833,127.5 691.5,127.5C 691.5,128.833 691.5,130.167 691.5,131.5C 689.926,133.102 689.259,135.102 689.5,137.5C 684.787,144.392 679.454,150.892 673.5,157C 669.268,159.275 665.268,161.775 661.5,164.5C 645.662,168.938 629.662,169.604 613.5,166.5C 609.849,164.008 605.849,162.008 601.5,160.5C 601.027,159.094 600.027,158.427 598.5,158.5C 596.167,155.833 593.833,153.167 591.5,150.5C 592.583,150.539 593.583,150.873 594.5,151.5C 595.875,154.547 598.208,155.88 601.5,155.5C 601.167,158.5 602.5,159.833 605.5,159.5C 605.343,158.127 605.51,156.793 606,155.5C 607.593,153.715 609.093,153.548 610.5,155C 607.682,157.115 607.849,158.948 611,160.5C 612.666,159.66 612.833,160.16 611.5,162C 616.086,162.197 620.586,161.697 625,160.5C 625.333,160.833 625.667,161.167 626,161.5C 626.667,158.833 627.333,158.833 628,161.5C 630,158.833 632,158.833 634,161.5C 634.674,160.422 635.674,159.755 637,159.5C 638.841,160.125 640.674,160.292 642.5,160C 639.188,157.968 635.521,157.135 631.5,157.5C 626.064,157.75 620.731,158.25 615.5,159C 614.833,158.667 614.167,158.333 613.5,158C 614.687,156.396 616.687,155.229 619.5,154.5C 617.577,153.692 615.577,153.192 613.5,153C 614.193,151.415 615.526,149.915 617.5,148.5C 622.447,150.962 627.78,151.962 633.5,151.5C 636.833,151.333 640.167,151.167 643.5,151C 644.416,150.722 645.082,150.222 645.5,149.5C 647.153,149.34 648.486,148.674 649.5,147.5C 652.089,147.539 654.089,146.539 655.5,144.5C 662.897,140.77 668.23,135.103 671.5,127.5 Z"/></g>
<g><path style="opacity:0.169" fill="#c0c4d5" d="M 733.5,139.5 C 743.941,150.525 756.275,153.191 770.5,147.5C 770.53,148.497 770.03,149.164 769,149.5C 760.888,151.643 752.721,151.976 744.5,150.5C 739.839,147.839 736.173,144.173 733.5,139.5 Z"/></g>
<g><path style="opacity:1" fill="#24336c" d="M 32.5,143.5 C 34.09,145.475 35.2567,147.808 36,150.5C 36.6976,147.996 37.5309,145.663 38.5,143.5C 38.2317,146.119 38.565,148.619 39.5,151C 50.5,151.667 61.5,151.667 72.5,151C 75.5015,150.262 78.1682,149.096 80.5,147.5C 80.8333,147.5 81.1667,147.5 81.5,147.5C 84.9717,147.874 87.9717,146.874 90.5,144.5C 91.931,144.977 93.2643,145.643 94.5,146.5C 95.8622,149.236 97.6956,151.569 100,153.5C 100.667,152.833 101.333,152.167 102,151.5C 102.557,153.586 101.724,154.919 99.5,155.5C 98.5713,156.689 98.238,158.022 98.5,159.5C 91.5776,163.029 84.2443,165.363 76.5,166.5C 74.1667,166.5 71.8333,166.5 69.5,166.5C 67.6115,165.678 65.6115,164.845 63.5,164C 52.8385,163.5 42.1719,163.333 31.5,163.5C 31.178,161.278 31.8446,159.444 33.5,158C 32.4844,157.481 31.8178,156.647 31.5,155.5C 31.9391,153.896 32.6057,152.396 33.5,151C 31.4847,148.545 31.1513,146.045 32.5,143.5 Z"/></g>
<g><path style="opacity:0.145" fill="#b9bdda" d="M 96.5,135.5 C 96.1412,137.371 95.1412,138.871 93.5,140C 89.6039,142.775 85.6039,145.275 81.5,147.5C 81.1667,147.5 80.8333,147.5 80.5,147.5C 76.8598,148.273 73.1932,148.94 69.5,149.5C 60.9832,149.826 52.6499,149.493 44.5,148.5C 55.2221,148.875 65.8888,148.375 76.5,147C 84.2624,144.956 90.9291,141.122 96.5,135.5 Z"/></g>
<g><path style="opacity:0.137" fill="#c7ccdd" d="M 483.5,142.5 C 481.687,145.647 479.02,147.647 475.5,148.5C 477.878,146.122 480.545,144.122 483.5,142.5 Z"/></g>
<g><path style="opacity:1" fill="#27346c" d="M 844.5,140.5 C 852.287,150.078 862.287,153.578 874.5,151C 876.974,150.963 878.974,150.13 880.5,148.5C 884.026,147.31 887.026,145.31 889.5,142.5C 888.146,146.868 886.146,150.368 883.5,153C 886.516,153.664 889.349,153.164 892,151.5C 892.5,151.833 893,152.167 893.5,152.5C 891.149,154.604 888.482,156.104 885.5,157C 881.863,156.684 879.196,158.018 877.5,161C 880.449,161.427 883.283,162.261 886,163.5C 889.559,161.48 893.392,160.147 897.5,159.5C 897.5,158.167 897.5,156.833 897.5,155.5C 899.167,155.5 900.833,155.5 902.5,155.5C 901.375,157.129 900.041,158.629 898.5,160C 894.408,161.703 890.741,163.869 887.5,166.5C 882.85,167.26 878.183,167.926 873.5,168.5C 864.732,168.865 856.065,168.199 847.5,166.5C 846.713,164.896 845.38,164.229 843.5,164.5C 840.175,162.169 836.842,159.836 833.5,157.5C 832.833,156.167 831.833,155.167 830.5,154.5C 826.657,148.971 823.657,142.971 821.5,136.5C 822.794,137.29 823.961,138.29 825,139.5C 825.87,138.892 826.37,138.059 826.5,137C 825.639,133.863 824.973,130.697 824.5,127.5C 825.5,127.5 826.5,127.5 827.5,127.5C 827.173,122.456 827.506,117.456 828.5,112.5C 829.331,118.807 829.831,125.141 830,131.5C 831.073,130.72 832.24,130.887 833.5,132C 833.167,132.333 832.833,132.667 832.5,133C 833.248,136.057 834.248,139.057 835.5,142C 835.355,142.772 835.022,143.439 834.5,144C 837.294,145.557 840.294,145.89 843.5,145C 844.38,143.644 844.714,142.144 844.5,140.5 Z"/></g>
<g><path style="opacity:0.759" fill="#4f5883" d="M 957.5,127.5 C 955.519,140.458 954.852,153.791 955.5,167.5C 955.167,167.5 954.833,167.5 954.5,167.5C 954.5,154.5 954.5,141.5 954.5,128.5C 955.053,126.448 956.053,126.115 957.5,127.5 Z"/></g>
<g><path style="opacity:0.282" fill="#c0c5d8" d="M 212.5,140.5 C 219.79,148.155 228.79,151.489 239.5,150.5C 239.5,150.833 239.5,151.167 239.5,151.5C 231.68,152.236 224.347,150.736 217.5,147C 215.21,145.223 213.543,143.056 212.5,140.5 Z"/></g>
<g><path style="opacity:0.043" fill="#cbd5e1" d="M 255.5,142.5 C 254.415,144.587 252.749,145.92 250.5,146.5C 251.539,144.469 253.205,143.136 255.5,142.5 Z"/></g>
<g><path style="opacity:0.204" fill="#c9cdda" d="M 957.5,127.5 C 958.6,128.605 959.267,129.938 959.5,131.5C 958.542,131.047 957.708,130.381 957,129.5C 956.342,131.108 956.842,132.275 958.5,133C 957.376,133.839 956.709,135.006 956.5,136.5C 956.706,147.482 956.706,158.482 956.5,169.5C 949.313,169.825 942.313,169.491 935.5,168.5C 942.354,168.824 949.021,168.491 955.5,167.5C 954.852,153.791 955.519,140.458 957.5,127.5 Z"/></g>
<g><path style="opacity:0.118" fill="#bdc2da" d="M 117.5,142.5 C 114.216,147.623 110.716,152.623 107,157.5C 106.586,157.043 106.086,156.709 105.5,156.5C 103.757,158.038 101.757,159.038 99.5,159.5C 106.131,154.537 112.131,148.87 117.5,142.5 Z"/></g>
<g><path style="opacity:1" fill="#36406d" d="M 207.5,133.5 C 208.419,136.327 210.086,138.66 212.5,140.5C 213.543,143.056 215.21,145.223 217.5,147C 224.347,150.736 231.68,152.236 239.5,151.5C 235.689,152.645 231.689,152.812 227.5,152C 221.85,150.79 216.517,148.957 211.5,146.5C 212.401,142.759 211.068,140.759 207.5,140.5C 207.5,138.167 207.5,135.833 207.5,133.5 Z"/></g>
<g><path style="opacity:0.004" fill="#fefffe" d="M 621.5,145.5 C 622.833,146.167 622.833,146.167 621.5,145.5 Z"/></g>
<g><path style="opacity:0.125" fill="#cacde2" d="M 655.5,144.5 C 654.089,146.539 652.089,147.539 649.5,147.5C 651.181,145.992 653.181,144.992 655.5,144.5 Z"/></g>
<g><path style="opacity:0.99" fill="#373f6d" d="M 609.5,141.5 C 620.003,150.259 632.003,152.926 645.5,149.5C 645.082,150.222 644.416,150.722 643.5,151C 640.167,151.167 636.833,151.333 633.5,151.5C 627.78,151.962 622.447,150.962 617.5,148.5C 612.395,148.892 609.728,146.559 609.5,141.5 Z"/></g>
<g><path style="opacity:0.384" fill="#b4b7d0" d="M 773.5,145.5 C 773.027,146.906 772.027,147.573 770.5,147.5C 770.973,146.094 771.973,145.427 773.5,145.5 Z"/></g>
<g><path style="opacity:0.129" fill="#b9bfd4" d="M 968.5,142.5 C 970.587,143.585 971.92,145.251 972.5,147.5C 970.413,146.415 969.08,144.749 968.5,142.5 Z"/></g>
<g><path style="opacity:0.035" fill="#c7cbe0" d="M 992.5,142.5 C 994.017,142.511 995.184,143.177 996,144.5C 998.41,147.397 1000.58,150.397 1002.5,153.5C 998.456,150.457 995.123,146.791 992.5,142.5 Z"/></g>
<g><path style="opacity:0.153" fill="#bbc2d5" d="M 843.5,136.5 C 852.697,149.493 865.031,153.493 880.5,148.5C 878.974,150.13 876.974,150.963 874.5,151C 862.287,153.578 852.287,150.078 844.5,140.5C 844.167,139.167 843.833,137.833 843.5,136.5 Z"/></g>
<g><path style="opacity:0.055" fill="#cacde0" d="M 250.5,146.5 C 247.631,149.758 243.964,151.091 239.5,150.5C 243.081,149.193 246.747,147.859 250.5,146.5 Z"/></g>
<g><path style="opacity:0.976" fill="#313b6a" d="M 727.5,125.5 C 728.251,128.246 729.251,130.913 730.5,133.5C 730.461,136.089 731.461,138.089 733.5,139.5C 736.173,144.173 739.839,147.839 744.5,150.5C 738.112,148.683 732.945,145.017 729,139.5C 727.621,134.964 727.121,130.297 727.5,125.5 Z"/></g>
<g><path style="opacity:0.024" fill="#c0c3dc" d="M 972.5,147.5 C 974.587,148.585 975.92,150.251 976.5,152.5C 974.413,151.415 973.08,149.749 972.5,147.5 Z"/></g>
<g><path style="opacity:0.18" fill="#bdc2d3" d="M 187.5,139.5 C 190.292,144.405 193.125,149.405 196,154.5C 198.037,156.706 200.203,158.706 202.5,160.5C 202.833,161.167 203.167,161.833 203.5,162.5C 195.048,157.041 189.715,149.374 187.5,139.5 Z"/></g>
<g><path style="opacity:0.075" fill="#b8c1d4" d="M 587.5,147.5 C 588.833,148.5 590.167,149.5 591.5,150.5C 593.833,153.167 596.167,155.833 598.5,158.5C 593.833,155.833 590.167,152.167 587.5,147.5 Z"/></g>
<g><path style="opacity:0.008" fill="#e9fafd" d="M 262.5,156.5 C 262.768,154.901 262.434,153.568 261.5,152.5C 261.5,152.167 261.5,151.833 261.5,151.5C 262.117,151.389 262.617,151.056 263,150.5C 263.789,152.712 263.622,154.712 262.5,156.5 Z"/></g>
<g><path style="opacity:0.024" fill="#b8bbd5" d="M 715.5,150.5 C 719.5,153.833 723.167,157.5 726.5,161.5C 721.833,158.833 718.167,155.167 715.5,150.5 Z"/></g>
<g><path style="opacity:0.352" fill="#c0c3d6" d="M 379.5,146.5 C 381.359,147.594 383.359,148.427 385.5,149C 390.5,149.333 395.5,149.667 400.5,150C 401.475,155.741 401.808,161.575 401.5,167.5C 400.833,167.5 400.167,167.5 399.5,167.5C 399.5,161.833 399.5,156.167 399.5,150.5C 394.5,150.5 389.5,150.5 384.5,150.5C 381.796,150.33 380.129,148.997 379.5,146.5 Z"/></g>
<g><path style="opacity:0.137" fill="#c0c7da" d="M 801.5,142.5 C 801.011,145.467 799.845,148.133 798,150.5C 785.7,165.907 769.867,172.24 750.5,169.5C 754.371,169.815 758.038,169.482 761.5,168.5C 778.987,167.323 791.654,158.99 799.5,143.5C 800.167,143.167 800.833,142.833 801.5,142.5 Z"/></g>
<g><path style="opacity:0.031" fill="#bcc0d8" d="M 976.5,152.5 C 978.914,153.911 980.581,155.911 981.5,158.5C 979.086,157.089 977.419,155.089 976.5,152.5 Z"/></g>
<g><path style="opacity:0.416" fill="#b3bccf" d="M 1002.5,153.5 C 1005.24,155.239 1007.24,157.573 1008.5,160.5C 1005.76,158.761 1003.76,156.427 1002.5,153.5 Z"/></g>
<g><path style="opacity:0.008" fill="#dcdfeb" d="M 830.5,154.5 C 831.833,155.167 832.833,156.167 833.5,157.5C 831.5,157.5 830.5,156.5 830.5,154.5 Z"/></g>
<g><path style="opacity:0.02" fill="#c4c9e0" d="M 689.5,137.5 C 685.552,148.281 678.552,156.448 668.5,162C 666.35,163.411 664.016,164.245 661.5,164.5C 665.268,161.775 669.268,159.275 673.5,157C 679.454,150.892 684.787,144.392 689.5,137.5 Z"/></g>
<g><path style="opacity:0.443" fill="#a0adca" d="M 261.5,181.5 C 262.332,173.195 262.665,164.862 262.5,156.5C 263.622,154.712 263.789,152.712 263,150.5C 262.617,151.056 262.117,151.389 261.5,151.5C 261.628,149.91 262.295,148.577 263.5,147.5C 264.665,156.147 264.832,164.814 264,173.5C 263.902,176.522 263.068,179.189 261.5,181.5 Z"/></g>
<g><path style="opacity:1" fill="#2c376b" d="M 486.5,140.5 C 486.5,141.5 486.5,142.5 486.5,143.5C 487.833,143.5 489.167,143.5 490.5,143.5C 490.5,144.5 490.5,145.5 490.5,146.5C 488.263,145.551 485.929,144.884 483.5,144.5C 484.167,146.5 484.833,148.5 485.5,150.5C 483.516,150.617 481.85,149.95 480.5,148.5C 479.3,149.531 477.966,150.365 476.5,151C 477.931,151.465 479.097,152.299 480,153.5C 480.333,153.167 480.667,152.833 481,152.5C 481.002,155.051 481.836,157.051 483.5,158.5C 481.5,160.5 479.5,162.5 477.5,164.5C 468.218,168.077 458.551,169.411 448.5,168.5C 446.214,168.405 444.214,167.738 442.5,166.5C 449.829,167.685 457.162,167.685 464.5,166.5C 463.5,165.667 462.5,164.833 461.5,164C 462.931,163.535 464.097,162.701 465,161.5C 466.674,162.676 468.174,164.01 469.5,165.5C 471.305,164.528 472.972,163.361 474.5,162C 473.552,161.517 472.552,161.351 471.5,161.5C 471.5,160.5 471.5,159.5 471.5,158.5C 474.166,158.067 476.832,157.567 479.5,157C 480.833,156.333 480.833,155.667 479.5,155C 471.457,153.175 463.457,152.009 455.5,151.5C 460.179,151.666 464.845,151.499 469.5,151C 471.723,150.434 473.723,149.6 475.5,148.5C 479.02,147.647 481.687,145.647 483.5,142.5C 484.5,141.833 485.5,141.167 486.5,140.5 Z"/></g>
<g><path style="opacity:0.267" fill="#a9aec9" d="M 492.5,149.5 C 492.5,155.5 492.5,161.5 492.5,167.5C 498.833,167.5 505.167,167.5 511.5,167.5C 505.021,168.491 498.354,168.824 491.5,168.5C 491.666,162.824 491.499,157.157 491,151.5C 488.137,155.688 485.303,159.854 482.5,164C 480.866,164.494 479.199,164.66 477.5,164.5C 479.5,162.5 481.5,160.5 483.5,158.5C 487.048,155.094 489.882,151.094 492,146.5C 492.483,147.448 492.649,148.448 492.5,149.5 Z"/></g>
<g><path style="opacity:0.224" fill="#b8bed7" d="M 598.5,158.5 C 600.027,158.427 601.027,159.094 601.5,160.5C 599.973,160.573 598.973,159.906 598.5,158.5 Z"/></g>
<g><path style="opacity:0.341" fill="#b4b9d4" d="M 833.5,157.5 C 836.842,159.836 840.175,162.169 843.5,164.5C 839.108,163.641 835.775,161.307 833.5,157.5 Z"/></g>
<g><path style="opacity:0.024" fill="#b5b9d7" d="M 981.5,158.5 C 983.587,159.585 984.92,161.251 985.5,163.5C 983.413,162.415 982.08,160.749 981.5,158.5 Z"/></g>
<g><path style="opacity:0.851" fill="#6c7494" d="M 202.5,160.5 C 204.434,161.11 206.101,162.11 207.5,163.5C 206.833,163.5 206.167,163.5 205.5,163.5C 204.508,163.672 203.842,163.338 203.5,162.5C 203.167,161.833 202.833,161.167 202.5,160.5 Z"/></g>
<g><path style="opacity:0.004" fill="#dee1ed" d="M 362.5,159.5 C 363.833,160.167 364.833,161.167 365.5,162.5C 363.5,162.5 362.5,161.5 362.5,159.5 Z"/></g>
<g><path style="opacity:0.004" fill="#e0e4ec" d="M 1008.5,160.5 C 1009.83,160.5 1010.5,161.167 1010.5,162.5C 1009.5,162.167 1008.83,161.5 1008.5,160.5 Z"/></g>
<g><path style="opacity:0.345" fill="#acafca" d="M 429.5,160.5 C 431.404,160.738 432.738,161.738 433.5,163.5C 431.596,163.262 430.262,162.262 429.5,160.5 Z"/></g>
<g><path style="opacity:0.004" fill="#fefffe" d="M 488.5,161.5 C 489.598,162.601 489.765,163.934 489,165.5C 488.51,164.207 488.343,162.873 488.5,161.5 Z"/></g>
<g><path style="opacity:0.161" fill="#b4bcd3" d="M 601.5,160.5 C 605.849,162.008 609.849,164.008 613.5,166.5C 608.914,165.54 604.914,163.54 601.5,160.5 Z"/></g>
<g><path style="opacity:0.039" fill="#c1c7d9" d="M 913.5,141.5 C 909.222,154.321 900.555,162.655 887.5,166.5C 890.741,163.869 894.408,161.703 898.5,160C 900.041,158.629 901.375,157.129 902.5,155.5C 904.129,154.375 905.629,153.041 907,151.5C 908.942,147.931 911.108,144.598 913.5,141.5 Z"/></g>
<g><path style="opacity:0.106" fill="#c7cbdf" d="M 261.5,152.5 C 261.005,154.482 260.505,156.482 260,158.5C 257.005,159.116 254.672,161.116 253,164.5C 252.667,164.167 252.333,163.833 252,163.5C 247.4,167.65 241.566,169.65 234.5,169.5C 234.5,169.167 234.5,168.833 234.5,168.5C 239.836,168.39 244.503,166.724 248.5,163.5C 253.744,160.924 258.077,157.257 261.5,152.5 Z"/></g>
<g><path style="opacity:0.992" fill="#38416e" d="M 357.5,143.5 C 359.004,148.537 361.171,153.537 364,158.5C 365.356,159.38 366.856,159.714 368.5,159.5C 368.5,160.5 368.5,161.5 368.5,162.5C 372.769,162.734 376.769,163.901 380.5,166C 386.491,166.499 392.491,166.666 398.5,166.5C 398.5,161.5 398.5,156.5 398.5,151.5C 393.637,151.819 388.97,151.486 384.5,150.5C 389.5,150.5 394.5,150.5 399.5,150.5C 399.5,156.167 399.5,161.833 399.5,167.5C 391.826,167.666 384.159,167.5 376.5,167C 374.091,165.293 371.425,164.46 368.5,164.5C 368.027,163.094 367.027,162.427 365.5,162.5C 364.833,161.167 363.833,160.167 362.5,159.5C 359.709,154.567 358.042,149.234 357.5,143.5 Z"/></g>
<g><path style="opacity:0.11" fill="#ced5e1" d="M 726.5,161.5 C 728.027,161.427 729.027,162.094 729.5,163.5C 727.973,163.573 726.973,162.906 726.5,161.5 Z"/></g>
<g><path style="opacity:0.125" fill="#b8cbe3" d="M 365.5,162.5 C 367.027,162.427 368.027,163.094 368.5,164.5C 366.973,164.573 365.973,163.906 365.5,162.5 Z"/></g>
<g><path style="opacity:0.114" fill="#c7d0e2" d="M 205.5,163.5 C 206.167,163.5 206.833,163.5 207.5,163.5C 207.833,164.167 208.167,164.833 208.5,165.5C 206.973,165.573 205.973,164.906 205.5,163.5 Z"/></g>
<g><path style="opacity:0.11" fill="#ccd1e1" d="M 435.5,164.5 C 437.027,164.427 438.027,165.094 438.5,166.5C 436.973,166.573 435.973,165.906 435.5,164.5 Z"/></g>
<g><path style="opacity:0.145" fill="#c6c6e7" d="M 843.5,164.5 C 845.38,164.229 846.713,164.896 847.5,166.5C 845.847,166.34 844.514,165.674 843.5,164.5 Z"/></g>
<g><path style="opacity:0.141" fill="#bcc1d4" d="M 98.5,159.5 C 98.8333,159.5 99.1667,159.5 99.5,159.5C 91.1878,165.253 81.8545,168.253 71.5,168.5C 71.5,168.167 71.5,167.833 71.5,167.5C 73.4147,167.784 75.0813,167.451 76.5,166.5C 84.2443,165.363 91.5776,163.029 98.5,159.5 Z"/></g>
<g><path style="opacity:0.435" fill="#bbc1d3" d="M 438.5,166.5 C 439.833,166.5 441.167,166.5 442.5,166.5C 444.214,167.738 446.214,168.405 448.5,168.5C 448.5,168.833 448.5,169.167 448.5,169.5C 444.838,169.277 441.505,168.277 438.5,166.5 Z"/></g>
<g><path style="opacity:0.404" fill="#aeb5ca" d="M 847.5,166.5 C 856.065,168.199 864.732,168.865 873.5,168.5C 873.5,168.833 873.5,169.167 873.5,169.5C 864.596,170.944 855.93,169.944 847.5,166.5 Z"/></g>
<g><path style="opacity:0.337" fill="#aeb4c8" d="M 208.5,165.5 C 211.647,165.737 214.647,166.57 217.5,168C 223.157,168.499 228.824,168.666 234.5,168.5C 234.5,168.833 234.5,169.167 234.5,169.5C 225.334,171.048 216.668,169.715 208.5,165.5 Z"/></g>
<g><path style="opacity:0.958" fill="#303969" d="M 248.5,163.5 C 244.503,166.724 239.836,168.39 234.5,168.5C 228.824,168.666 223.157,168.499 217.5,168C 214.647,166.57 211.647,165.737 208.5,165.5C 208.167,164.833 207.833,164.167 207.5,163.5C 211.819,162.799 215.486,163.966 218.5,167C 225.224,167.774 231.89,167.441 238.5,166C 237.167,165.667 235.833,165.333 234.5,165C 236.703,163.981 238.869,162.814 241,161.5C 243.256,163.085 245.756,163.752 248.5,163.5 Z"/></g>
<g><path style="opacity:0.192" fill="#a2a9bf" d="M 368.5,164.5 C 371.425,164.46 374.091,165.293 376.5,167C 384.159,167.5 391.826,167.666 399.5,167.5C 394.5,168.167 389.5,168.833 384.5,169.5C 378.602,169.308 373.268,167.641 368.5,164.5 Z"/></g>
<g><path style="opacity:0.22" fill="#a3a7c3" d="M 731.5,164.5 C 735.562,165.359 739.562,166.526 743.5,168C 749.491,168.499 755.491,168.666 761.5,168.5C 758.038,169.482 754.371,169.815 750.5,169.5C 743.53,169.842 737.196,168.175 731.5,164.5 Z"/></g>
<g><path style="opacity:0.471" fill="#a6aabd" d="M 1010.5,162.5 C 1011.83,163.5 1013.17,164.5 1014.5,165.5C 1014.5,166.833 1014.5,168.167 1014.5,169.5C 1006.16,169.666 997.827,169.5 989.5,169C 987.561,167.568 986.228,165.735 985.5,163.5C 987.134,164.207 988.468,165.373 989.5,167C 997.5,167.667 1005.5,167.667 1013.5,167C 1011.86,165.871 1010.86,164.371 1010.5,162.5 Z"/></g>
<g><path style="opacity:0.03" fill="#dedede" d="M 399.5,167.5 C 400.167,167.5 400.833,167.5 401.5,167.5C 396.265,169.45 390.598,170.117 384.5,169.5C 389.5,168.833 394.5,168.167 399.5,167.5 Z"/></g>
<g><path style="opacity:0.212" fill="#b2b8cf" d="M 477.5,164.5 C 475.11,167.028 472.11,168.528 468.5,169C 461.848,170.652 455.181,170.818 448.5,169.5C 448.5,169.167 448.5,168.833 448.5,168.5C 458.551,169.411 468.218,168.077 477.5,164.5 Z"/></g>
<g><path style="opacity:0.497" fill="#afb7ce" d="M 661.5,164.5 C 659.402,165.935 657.069,167.102 654.5,168C 643.21,170.496 631.877,170.83 620.5,169C 617.896,168.61 615.562,167.776 613.5,166.5C 629.662,169.604 645.662,168.938 661.5,164.5 Z"/></g>
<g><path style="opacity:0.118" fill="#babfd4" d="M 887.5,166.5 C 883.274,168.956 878.607,169.956 873.5,169.5C 873.5,169.167 873.5,168.833 873.5,168.5C 878.183,167.926 882.85,167.26 887.5,166.5 Z"/></g>
<g><path style="opacity:0.004" fill="#fefffe" d="M 213.5,182.5 C 213.167,182.5 212.833,182.5 212.5,182.5C 212.737,181.209 212.404,180.209 211.5,179.5C 211.5,178.833 211.167,178.5 210.5,178.5C 210.167,178.5 209.833,178.5 209.5,178.5C 208.048,177.698 206.382,177.198 204.5,177C 209.977,174.74 212.977,176.573 213.5,182.5 Z"/></g>
<g><path style="opacity:0.004" fill="#fefffe" d="M 189.5,176.5 C 190.833,177.167 190.833,177.167 189.5,176.5 Z"/></g>
<g><path style="opacity:0.816" fill="#50567e" d="M 210.5,179.5 C 210.833,179.5 211.167,179.5 211.5,179.5C 211.5,180.5 211.5,181.5 211.5,182.5C 211.5,183.167 211.5,183.833 211.5,184.5C 210.751,183.469 210.085,182.302 209.5,181C 203.509,180.501 197.509,180.334 191.5,180.5C 191.5,181.5 191.5,182.5 191.5,183.5C 190.566,182.432 190.232,181.099 190.5,179.5C 197.167,179.5 203.833,179.5 210.5,179.5 Z"/></g>
<g><path style="opacity:0.004" fill="#fefffe" d="M 213.5,182.5 C 214.833,183.167 214.833,183.167 213.5,182.5 Z"/></g>
<g><path style="opacity:0.098" fill="#ced2e1" d="M 211.5,182.5 C 211.833,182.5 212.167,182.5 212.5,182.5C 212.5,183.167 212.833,183.5 213.5,183.5C 213.5,184.167 213.5,184.833 213.5,185.5C 212.833,185.167 212.167,184.833 211.5,184.5C 211.5,183.833 211.5,183.167 211.5,182.5 Z"/></g>
<g><path style="opacity:0.004" fill="#fefffe" d="M 215.5,185.5 C 216.833,186.167 216.833,186.167 215.5,185.5 Z"/></g>
<g><path style="opacity:0.133" fill="#ced2e7" d="M 213.5,185.5 C 214.167,185.833 214.833,186.167 215.5,186.5C 215.5,187.167 215.5,187.833 215.5,188.5C 214.094,188.027 213.427,187.027 213.5,185.5 Z"/></g>
<g><path style="opacity:0.271" fill="#c1c5d6" d="M 261.5,181.5 C 260.299,186.695 257.299,190.362 252.5,192.5C 255.908,189.099 258.908,185.432 261.5,181.5 Z"/></g>
<g><path style="opacity:0.494" fill="#a3a8be" d="M 215.5,188.5 C 216.833,189.167 217.833,190.167 218.5,191.5C 216.5,191.5 215.5,190.5 215.5,188.5 Z"/></g>
<g><path style="opacity:0.004" fill="#fefffe" d="M 219.5,189.5 C 220.833,190.167 220.833,190.167 219.5,189.5 Z"/></g>
<g><path style="opacity:0.229" fill="#a8b1cb" d="M 218.5,191.5 C 229.662,197.74 240.996,198.074 252.5,192.5C 251.426,194.284 249.76,195.451 247.5,196C 239.055,198.222 230.722,197.889 222.5,195C 220.676,194.34 219.343,193.173 218.5,191.5 Z"/></g>
<g><path style="opacity:0.051" fill="#b3b8cd" d="M 189.5,177.5 C 195.979,178.491 202.646,178.824 209.5,178.5C 209.833,178.5 210.167,178.5 210.5,178.5C 210.5,178.833 210.5,179.167 210.5,179.5C 203.833,179.5 197.167,179.5 190.5,179.5C 190.232,181.099 190.566,182.432 191.5,183.5C 192.763,188.032 194.597,192.365 197,196.5C 200.704,200.036 204.204,203.702 207.5,207.5C 203.263,204.772 199.429,201.439 196,197.5C 192.59,191.604 189.756,185.438 187.5,179C 188.044,178.283 188.711,177.783 189.5,177.5 Z"/></g>
<g><path style="opacity:0.075" fill="#afb5cb" d="M 283.5,72.5 C 284.498,105.662 284.832,138.996 284.5,172.5C 284.532,191.748 275.532,205.248 257.5,213C 255.866,213.494 254.199,213.66 252.5,213.5C 255.167,212.167 257.833,210.833 260.5,209.5C 271.492,204.509 278.492,196.175 281.5,184.5C 281.5,184.167 281.5,183.833 281.5,183.5C 282.309,181.708 282.809,179.708 283,177.5C 283.5,142.502 283.667,107.502 283.5,72.5 Z"/></g>
<g><path style="opacity:0.18" fill="#b7bbd0" d="M 211.5,209.5 C 215.352,210.605 219.018,211.938 222.5,213.5C 218.236,213.523 214.569,212.19 211.5,209.5 Z"/></g>
<g><path style="opacity:0.925" fill="#384169" d="M 260.5,209.5 C 257.833,210.833 255.167,212.167 252.5,213.5C 244.014,214.682 235.681,214.682 227.5,213.5C 233.842,213.666 240.175,213.5 246.5,213C 251.093,211.697 255.76,210.53 260.5,209.5 Z"/></g>
<g><path style="opacity:0.373" fill="#afb6cd" d="M 222.5,213.5 C 224.167,213.5 225.833,213.5 227.5,213.5C 235.681,214.682 244.014,214.682 252.5,213.5C 247.767,215.046 242.767,215.713 237.5,215.5C 232.233,215.713 227.233,215.046 222.5,213.5 Z"/></g>
</svg>
