<?xml version="1.0" encoding="UTF-8"?>
<!DOCTYPE svg PUBLIC "-//W3C//DTD SVG 1.1//EN" "http://www.w3.org/Graphics/SVG/1.1/DTD/svg11.dtd">
<svg xmlns="http://www.w3.org/2000/svg" version="1.1" width="250px" height="244px" style="shape-rendering:geometricPrecision; text-rendering:geometricPrecision; image-rendering:optimizeQuality; fill-rule:evenodd; clip-rule:evenodd" xmlns:xlink="http://www.w3.org/1999/xlink">
<g><path style="opacity:1" fill="#ef497f" d="M 95.5,-0.5 C 113.167,-0.5 130.833,-0.5 148.5,-0.5C 148.196,0.14987 147.863,0.816537 147.5,1.5C 154.285,3.57701 161.285,4.91034 168.5,5.5C 170.515,6.92381 172.848,7.59047 175.5,7.5C 178.484,9.6588 181.817,11.3255 185.5,12.5C 187.629,14.9501 190.296,16.6167 193.5,17.5C 194.167,18.8333 195.167,19.8333 196.5,20.5C 197.3,22.7409 198.966,23.7409 201.5,23.5C 201.833,23.5 202.167,23.5 202.5,23.5C 202.66,25.153 203.326,26.4863 204.5,27.5C 206.574,30.6206 208.908,33.6206 211.5,36.5C 209.599,37.935 209.266,39.6017 210.5,41.5C 211.327,39.838 212.493,38.5046 214,37.5C 215.039,38.7101 216.206,39.7101 217.5,40.5C 219.167,41.8333 220.833,43.1667 222.5,44.5C 222.738,46.4044 223.738,47.7377 225.5,48.5C 225.427,50.0269 226.094,51.0269 227.5,51.5C 227.5,52.1667 227.5,52.8333 227.5,53.5C 228.39,55.7819 228.556,58.1152 228,60.5C 226.39,60.1304 224.89,60.7971 223.5,62.5C 222.537,65.2833 221.37,67.95 220,70.5C 221.392,76.6633 219.726,81.9966 215,86.5C 214.904,82.8006 215.404,79.1339 216.5,75.5C 215.367,68.7026 211.367,65.7026 204.5,66.5C 204.33,65.1779 204.663,64.0113 205.5,63C 204.285,60.9045 203.451,61.0712 203,63.5C 202.506,61.8659 202.34,60.1992 202.5,58.5C 201.167,58.5 199.833,58.5 198.5,58.5C 198.383,56.5165 199.05,54.8498 200.5,53.5C 199.965,51.7295 199.131,51.3961 198,52.5C 197.784,50.6161 197.117,48.9494 196,47.5C 194.632,48.9931 194.465,50.4931 195.5,52C 194.207,52.49 192.873,52.6567 191.5,52.5C 189.427,50.4202 187.093,48.7536 184.5,47.5C 183.738,45.7376 182.404,44.7376 180.5,44.5C 180.027,43.0937 179.027,42.427 177.5,42.5C 175.516,39.8361 172.849,38.1695 169.5,37.5C 169.218,36.2223 168.551,35.2223 167.5,34.5C 167.196,33.8501 166.863,33.1835 166.5,32.5C 159.026,30.5639 151.692,28.2306 144.5,25.5C 127.981,23.8206 111.648,24.3206 95.5,27C 94.244,27.4169 93.5774,28.2502 93.5,29.5C 93.5,30.1667 93.1667,30.5 92.5,30.5C 88.3408,31.7416 84.0074,32.575 79.5,33C 79.8333,33.3333 80.1667,33.6667 80.5,34C 77.74,34.6741 75.0733,35.5075 72.5,36.5C 72.5,37.5 72.5,38.5 72.5,39.5C 70.1305,39.1489 67.7972,38.9822 65.5,39C 66.9733,39.7096 67.6399,40.8762 67.5,42.5C 65.8333,42.5 64.1667,42.5 62.5,42.5C 62.5,44.1667 62.5,45.8333 62.5,47.5C 58.1024,50.8947 54.4357,54.8947 51.5,59.5C 49.2254,60.1112 47.5588,61.4446 46.5,63.5C 45.4168,63.5394 44.4168,63.8728 43.5,64.5C 39.7812,70.6042 36.6146,76.9375 34,83.5C 33.6667,82.8333 33.3333,82.1667 33,81.5C 32.502,84.4816 32.3354,87.4816 32.5,90.5C 30.8829,91.5893 30.0496,93.256 30,95.5C 28.9054,100.78 28.4054,106.113 28.5,111.5C 27.1836,114.087 26.517,117.087 26.5,120.5C 26.6449,126.89 27.3116,133.224 28.5,139.5C 28.3961,141.709 28.0628,143.876 27.5,146C 29.9257,150.36 32.5924,154.527 35.5,158.5C 36.1447,160.826 37.478,162.493 39.5,163.5C 39.1568,165.483 39.8235,166.817 41.5,167.5C 41.5,168.167 41.5,168.833 41.5,169.5C 42.1103,171.434 43.1103,173.101 44.5,174.5C 45.5,175.167 46.5,175.833 47.5,176.5C 47.427,178.027 48.0937,179.027 49.5,179.5C 49.7329,181.062 50.3995,182.395 51.5,183.5C 53.4273,186.767 55.7606,189.767 58.5,192.5C 56.4085,194.807 54.2418,194.474 52,191.5C 51.5,192.5 51,193.5 50.5,194.5C 54.4321,196.762 57.7655,199.762 60.5,203.5C 58.8767,204.476 57.5433,203.976 56.5,202C 54.1902,201.503 51.8568,201.337 49.5,201.5C 50.3143,197.491 48.8143,194.824 45,193.5C 44.5,193.833 44,194.167 43.5,194.5C 45.1713,196.51 45.838,198.843 45.5,201.5C 43.712,201.785 42.0453,201.452 40.5,200.5C 37.7362,195.595 34.0696,194.595 29.5,197.5C 28.5832,196.873 27.5832,196.539 26.5,196.5C 25.8333,196.5 25.1667,196.5 24.5,196.5C 24.5,196.167 24.5,195.833 24.5,195.5C 24.1667,194.167 23.8333,192.833 23.5,191.5C 21.9496,189.067 21.6163,186.567 22.5,184C 21.6242,181.854 20.2909,180.021 18.5,178.5C 17.8076,179.025 17.3076,179.692 17,180.5C 15.4715,176.983 14.4715,173.317 14,169.5C 12.9887,170.337 11.8221,170.67 10.5,170.5C 10.2041,168.597 9.53747,166.93 8.5,165.5C 8.5528,161.068 7.88613,156.734 6.5,152.5C 7.12378,148.808 7.45712,145.141 7.5,141.5C 7.85165,139.076 6.85165,137.576 4.5,137C 6.16882,133.114 5.66882,129.614 3,126.5C 2.33333,119.5 2.33333,112.5 3,105.5C 3.33333,105.833 3.66667,106.167 4,106.5C 5.42935,97.4367 7.09602,88.4367 9,79.5C 9.48278,80.448 9.64945,81.448 9.5,82.5C 13.8138,82.2279 14.3138,80.8945 11,78.5C 10.8333,77.5 10.6667,76.5 10.5,75.5C 11.2043,73.4649 11.871,71.4649 12.5,69.5C 13.5,69.5 14.5,69.5 15.5,69.5C 16.4407,64.4126 17.7741,59.4126 19.5,54.5C 19.8333,53.5 20.5,52.8333 21.5,52.5C 26.016,51.1139 29.1827,52.7806 31,57.5C 30.8471,54.8262 30.3471,52.1595 29.5,49.5C 28.325,49.719 27.325,49.3857 26.5,48.5C 27.6688,44.8235 29.8355,41.8235 33,39.5C 33.2189,40.938 33.7189,42.2713 34.5,43.5C 35.7199,43.1131 36.3865,42.2798 36.5,41C 35.1068,39.6992 34.6068,38.1992 35,36.5C 38.035,33.1298 41.3683,30.1298 45,27.5C 45.658,29.108 45.158,30.2747 43.5,31C 44.354,32.0217 45.354,32.8551 46.5,33.5C 46.7382,30.3609 47.2382,27.3609 48,24.5C 50.8437,22.841 53.3437,20.841 55.5,18.5C 56.1667,17.5 56.8333,16.5 57.5,15.5C 59.0269,15.573 60.0269,14.9063 60.5,13.5C 72.1051,8.52549 83.7717,3.85883 95.5,-0.5 Z"/></g>
<g><path style="opacity:0.259" fill="#f7c0d1" d="M 153.5,-0.5 C 154.5,-0.5 155.5,-0.5 156.5,-0.5C 157.5,0.166667 158.5,0.833333 159.5,1.5C 157.102,1.74061 155.102,1.07394 153.5,-0.5 Z"/></g>
<g><path style="opacity:1" fill="#e45d87" d="M 148.5,-0.5 C 150.167,-0.5 151.833,-0.5 153.5,-0.5C 155.102,1.07394 157.102,1.74061 159.5,1.5C 162.084,3.47249 165.084,4.47249 168.5,4.5C 168.5,4.83333 168.5,5.16667 168.5,5.5C 161.285,4.91034 154.285,3.57701 147.5,1.5C 147.863,0.816537 148.196,0.14987 148.5,-0.5 Z"/></g>
<g><path style="opacity:0.349" fill="#f5b9cc" d="M 159.5,1.5 C 162.854,1.74747 165.854,2.74747 168.5,4.5C 165.084,4.47249 162.084,3.47249 159.5,1.5 Z"/></g>
<g><path style="opacity:0.714" fill="#eda1b9" d="M 168.5,4.5 C 171.241,4.70732 173.574,5.70732 175.5,7.5C 172.848,7.59047 170.515,6.92381 168.5,5.5C 168.5,5.16667 168.5,4.83333 168.5,4.5 Z"/></g>
<g><path style="opacity:0.651" fill="#f0aac1" d="M 91.5,-0.5 C 92.8333,-0.5 94.1667,-0.5 95.5,-0.5C 83.7717,3.85883 72.1051,8.52549 60.5,13.5C 63.1019,11.1904 66.1019,9.35706 69.5,8C 76.7475,4.64503 84.0808,1.8117 91.5,-0.5 Z"/></g>
<g><path style="opacity:0.349" fill="#f4bdd4" d="M 175.5,7.5 C 179.42,8.12663 182.753,9.7933 185.5,12.5C 181.817,11.3255 178.484,9.6588 175.5,7.5 Z"/></g>
<g><path style="opacity:0.396" fill="#f7b1c7" d="M 60.5,13.5 C 60.0269,14.9063 59.0269,15.573 57.5,15.5C 57.9731,14.0937 58.9731,13.427 60.5,13.5 Z"/></g>
<g><path style="opacity:0.435" fill="#f8b7ca" d="M 185.5,12.5 C 188.704,13.3833 191.371,15.0499 193.5,17.5C 190.296,16.6167 187.629,14.9501 185.5,12.5 Z"/></g>
<g><path style="opacity:0.016" fill="#f3bcd9" d="M 193.5,17.5 C 195.853,18.3403 197.853,19.6736 199.5,21.5C 198.391,21.4431 197.391,21.1098 196.5,20.5C 195.167,19.8333 194.167,18.8333 193.5,17.5 Z"/></g>
<g><path style="opacity:0.447" fill="#efacc2" d="M 57.5,15.5 C 56.8333,16.5 56.1667,17.5 55.5,18.5C 52.8333,19.8333 50.1667,21.1667 47.5,22.5C 50.2749,19.3954 53.6082,17.0621 57.5,15.5 Z"/></g>
<g><path style="opacity:1" fill="#e37c9d" d="M 196.5,20.5 C 197.391,21.1098 198.391,21.4431 199.5,21.5C 200.5,21.8333 201.167,22.5 201.5,23.5C 198.966,23.7409 197.3,22.7409 196.5,20.5 Z"/></g>
<g><path style="opacity:1" fill="#e3618a" d="M 167.5,34.5 C 166.167,34.5 164.833,34.5 163.5,34.5C 158.043,31.1255 152.043,29.1255 145.5,28.5C 143.379,28.6747 141.379,28.3414 139.5,27.5C 134.431,25.9429 129.098,25.2762 123.5,25.5C 117.902,25.2762 112.569,25.9429 107.5,27.5C 102.699,27.3498 98.0327,28.0165 93.5,29.5C 93.5774,28.2502 94.244,27.4169 95.5,27C 111.648,24.3206 127.981,23.8206 144.5,25.5C 151.692,28.2306 159.026,30.5639 166.5,32.5C 166.863,33.1835 167.196,33.8501 167.5,34.5 Z"/></g>
<g><path style="opacity:0.498" fill="#f1b7cb" d="M 139.5,27.5 C 128.833,26.1667 118.167,26.1667 107.5,27.5C 112.569,25.9429 117.902,25.2762 123.5,25.5C 129.098,25.2762 134.431,25.9429 139.5,27.5 Z"/></g>
<g><path style="opacity:0.561" fill="#f29fb8" d="M 202.5,23.5 C 204.5,24.8333 206.167,26.5 207.5,28.5C 206.391,28.4431 205.391,28.1098 204.5,27.5C 203.326,26.4863 202.66,25.153 202.5,23.5 Z"/></g>
<g><path style="opacity:0.145" fill="#f4bacc" d="M 107.5,27.5 C 102.606,28.819 97.6059,30.1523 92.5,31.5C 92.5,31.1667 92.5,30.8333 92.5,30.5C 93.1667,30.5 93.5,30.1667 93.5,29.5C 98.0327,28.0165 102.699,27.3498 107.5,27.5 Z"/></g>
<g><path style="opacity:0.455" fill="#f4bdce" d="M 145.5,28.5 C 152.043,29.1255 158.043,31.1255 163.5,34.5C 157.353,32.6732 151.353,30.6732 145.5,28.5 Z"/></g>
<g><path style="opacity:0.271" fill="#f3c7d5" d="M 92.5,31.5 C 91.0697,32.5375 89.403,33.2041 87.5,33.5C 88.6354,31.7868 90.302,31.1201 92.5,31.5 Z"/></g>
<g><path style="opacity:0.333" fill="#f8c6d4" d="M 208.5,28.5 C 212.234,31.2311 215.234,34.5644 217.5,38.5C 213.72,35.7278 210.72,32.3945 208.5,28.5 Z"/></g>
<g><path style="opacity:0.325" fill="#f5b4c9" d="M 47.5,22.5 C 39.8333,29.5 32.5,36.8333 25.5,44.5C 31.1667,35.5 38.5,28.1667 47.5,22.5 Z"/></g>
<g><path style="opacity:0.906" fill="#ef95b2" d="M 163.5,34.5 C 164.833,34.5 166.167,34.5 167.5,34.5C 168.551,35.2223 169.218,36.2223 169.5,37.5C 167.181,37.0075 165.181,36.0075 163.5,34.5 Z"/></g>
<g><path style="opacity:0.212" fill="#f4b3c7" d="M 86.5,33.5 C 81.6665,36.4176 76.6665,39.0843 71.5,41.5C 71.8333,40.8333 72.1667,40.1667 72.5,39.5C 76.9104,36.963 81.5771,34.963 86.5,33.5 Z"/></g>
<g><path style="opacity:1" fill="#e25884" d="M 92.5,30.5 C 92.5,30.8333 92.5,31.1667 92.5,31.5C 90.302,31.1201 88.6354,31.7868 87.5,33.5C 87.1667,33.5 86.8333,33.5 86.5,33.5C 81.5771,34.963 76.9104,36.963 72.5,39.5C 72.5,38.5 72.5,37.5 72.5,36.5C 75.0733,35.5075 77.74,34.6741 80.5,34C 80.1667,33.6667 79.8333,33.3333 79.5,33C 84.0074,32.575 88.3408,31.7416 92.5,30.5 Z"/></g>
<g><path style="opacity:1" fill="#e45884" d="M 204.5,27.5 C 205.391,28.1098 206.391,28.4431 207.5,28.5C 207.833,28.5 208.167,28.5 208.5,28.5C 210.72,32.3945 213.72,35.7278 217.5,38.5C 217.5,39.1667 217.5,39.8333 217.5,40.5C 216.206,39.7101 215.039,38.7101 214,37.5C 212.493,38.5046 211.327,39.838 210.5,41.5C 209.266,39.6017 209.599,37.935 211.5,36.5C 208.908,33.6206 206.574,30.6206 204.5,27.5 Z"/></g>
<g><path style="opacity:0.055" fill="#f7b7d2" d="M 169.5,37.5 C 172.849,38.1695 175.516,39.8361 177.5,42.5C 174.489,41.3307 171.822,39.664 169.5,37.5 Z"/></g>
<g><path style="opacity:0.416" fill="#edb3c7" d="M 217.5,38.5 C 219.914,39.9108 221.581,41.9108 222.5,44.5C 220.833,43.1667 219.167,41.8333 217.5,40.5C 217.5,39.8333 217.5,39.1667 217.5,38.5 Z"/></g>
<g><path style="opacity:1" fill="#e45684" d="M 72.5,39.5 C 72.1667,40.1667 71.8333,40.8333 71.5,41.5C 68.1092,42.5293 65.4426,44.5293 63.5,47.5C 63.1667,47.5 62.8333,47.5 62.5,47.5C 62.5,45.8333 62.5,44.1667 62.5,42.5C 64.1667,42.5 65.8333,42.5 67.5,42.5C 67.6399,40.8762 66.9733,39.7096 65.5,39C 67.7972,38.9822 70.1305,39.1489 72.5,39.5 Z"/></g>
<g><path style="opacity:0.075" fill="#fabdd5" d="M 71.5,41.5 C 69.1997,43.984 66.5331,45.984 63.5,47.5C 65.4426,44.5293 68.1092,42.5293 71.5,41.5 Z"/></g>
<g><path style="opacity:0.239" fill="#f5b6c7" d="M 177.5,42.5 C 179.027,42.427 180.027,43.0937 180.5,44.5C 178.973,44.573 177.973,43.9063 177.5,42.5 Z"/></g>
<g><path style="opacity:0.349" fill="#f6b4ca" d="M 180.5,44.5 C 182.404,44.7376 183.738,45.7376 184.5,47.5C 182.596,47.2624 181.262,46.2624 180.5,44.5 Z"/></g>
<g><path style="opacity:0.427" fill="#edaec1" d="M 25.5,44.5 C 24.1667,47.1667 22.8333,49.8333 21.5,52.5C 20.5,52.8333 19.8333,53.5 19.5,54.5C 18.8333,54.8333 18.1667,55.1667 17.5,55.5C 19.4354,51.2934 22.1021,47.6267 25.5,44.5 Z"/></g>
<g><path style="opacity:0.322" fill="#f8c0cf" d="M 222.5,44.5 C 224.262,45.2623 225.262,46.5956 225.5,48.5C 223.738,47.7377 222.738,46.4044 222.5,44.5 Z"/></g>
<g><path style="opacity:0.659" fill="#f4aec5" d="M 184.5,47.5 C 187.093,48.7536 189.427,50.4202 191.5,52.5C 193.58,54.5732 195.246,56.9066 196.5,59.5C 192.167,55.8333 188.167,51.8333 184.5,47.5 Z"/></g>
<g><path style="opacity:1" fill="#e65080" d="M 55.5,18.5 C 53.3437,20.841 50.8437,22.841 48,24.5C 47.2382,27.3609 46.7382,30.3609 46.5,33.5C 45.354,32.8551 44.354,32.0217 43.5,31C 45.158,30.2747 45.658,29.108 45,27.5C 41.3683,30.1298 38.035,33.1298 35,36.5C 34.6068,38.1992 35.1068,39.6992 36.5,41C 36.3865,42.2798 35.7199,43.1131 34.5,43.5C 33.7189,42.2713 33.2189,40.938 33,39.5C 29.8355,41.8235 27.6688,44.8235 26.5,48.5C 27.325,49.3857 28.325,49.719 29.5,49.5C 30.3471,52.1595 30.8471,54.8262 31,57.5C 29.1827,52.7806 26.016,51.1139 21.5,52.5C 22.8333,49.8333 24.1667,47.1667 25.5,44.5C 32.5,36.8333 39.8333,29.5 47.5,22.5C 50.1667,21.1667 52.8333,19.8333 55.5,18.5 Z"/></g>
<g><path style="opacity:0.298" fill="#f5b1c6" d="M 225.5,48.5 C 226.906,48.9731 227.573,49.9731 227.5,51.5C 226.094,51.0269 225.427,50.0269 225.5,48.5 Z"/></g>
<g><path style="opacity:0.255" fill="#f4b4ca" d="M 227.5,51.5 C 228.906,51.9731 229.573,52.9731 229.5,54.5C 228.833,54.1667 228.167,53.8333 227.5,53.5C 227.5,52.8333 227.5,52.1667 227.5,51.5 Z"/></g>
<g><path style="opacity:0.035" fill="#f8bcd0" d="M 62.5,47.5 C 62.8333,47.5 63.1667,47.5 63.5,47.5C 59.8333,51.8333 55.8333,55.8333 51.5,59.5C 54.4357,54.8947 58.1024,50.8947 62.5,47.5 Z"/></g>
<g><path style="opacity:0.196" fill="#f4c3d2" d="M 229.5,54.5 C 230.906,54.9731 231.573,55.9731 231.5,57.5C 230.833,57.1667 230.167,56.8333 229.5,56.5C 229.5,55.8333 229.5,55.1667 229.5,54.5 Z"/></g>
<g><path style="opacity:0.937" fill="#e795ae" d="M 17.5,55.5 C 17.8432,57.4832 17.1765,58.8166 15.5,59.5C 15.6596,57.847 16.3263,56.5137 17.5,55.5 Z"/></g>
<g><path style="opacity:0.89" fill="#e27e9d" d="M 229.5,56.5 C 230.167,56.8333 230.833,57.1667 231.5,57.5C 232.338,57.8417 232.672,58.5084 232.5,59.5C 232.5,60.1667 232.5,60.8333 232.5,61.5C 231.11,60.1007 230.11,58.4341 229.5,56.5 Z"/></g>
<g><path style="opacity:0.376" fill="#f6b3c3" d="M 196.5,59.5 C 198.446,60.0347 199.446,61.368 199.5,63.5C 198.026,62.5637 197.026,61.2303 196.5,59.5 Z"/></g>
<g><path style="opacity:0.133" fill="#facad9" d="M 232.5,59.5 C 234.25,60.6594 235.25,62.326 235.5,64.5C 234.272,63.6935 233.272,62.6935 232.5,61.5C 232.5,60.8333 232.5,60.1667 232.5,59.5 Z"/></g>
<g><path style="opacity:1" fill="#ee4a7f" d="M 227.5,53.5 C 228.167,53.8333 228.833,54.1667 229.5,54.5C 229.5,55.1667 229.5,55.8333 229.5,56.5C 230.11,58.4341 231.11,60.1007 232.5,61.5C 233.272,62.6935 234.272,63.6935 235.5,64.5C 236.695,69.8797 238.695,74.8797 241.5,79.5C 241.69,82.855 242.69,85.855 244.5,88.5C 244.704,91.5176 245.037,94.5176 245.5,97.5C 247.281,113.349 246.781,129.016 244,144.5C 243.667,144.167 243.333,143.833 243,143.5C 242.529,148.844 242.029,154.178 241.5,159.5C 241.5,160.167 241.167,160.5 240.5,160.5C 238.955,161.23 238.122,162.563 238,164.5C 237.257,162.355 236.424,162.189 235.5,164C 235.994,165.462 236.327,166.962 236.5,168.5C 235.522,170.777 234.855,173.11 234.5,175.5C 233.325,175.281 232.325,175.614 231.5,176.5C 229.622,180.466 227.955,184.466 226.5,188.5C 223.343,194.134 219.677,199.467 215.5,204.5C 214.094,204.973 213.427,205.973 213.5,207.5C 210.865,208.473 208.865,210.14 207.5,212.5C 202.278,215.38 197.612,219.047 193.5,223.5C 188.86,225.82 184.193,228.153 179.5,230.5C 176.544,231.485 173.544,232.485 170.5,233.5C 170.137,234.183 169.804,234.85 169.5,235.5C 167.883,236.038 166.216,236.371 164.5,236.5C 160.835,237.219 157.168,238.052 153.5,239C 152.944,239.383 152.611,239.883 152.5,240.5C 148.58,240.935 144.913,241.935 141.5,243.5C 131.5,243.5 121.5,243.5 111.5,243.5C 104.542,240.596 97.2082,238.929 89.5,238.5C 88.1667,238.5 86.8333,238.5 85.5,238.5C 82.1996,236.358 78.533,235.025 74.5,234.5C 72.0734,232.442 69.4068,230.609 66.5,229C 64.6547,227.872 62.6547,227.372 60.5,227.5C 60.0269,226.094 59.0269,225.427 57.5,225.5C 57.0269,224.094 56.0269,223.427 54.5,223.5C 54.0269,222.094 53.0269,221.427 51.5,221.5C 50.7377,219.738 49.4044,218.738 47.5,218.5C 46.4154,216.413 44.7488,215.08 42.5,214.5C 42.5,212.5 41.5,211.5 39.5,211.5C 34.7932,206.795 30.4599,201.795 26.5,196.5C 27.5832,196.539 28.5832,196.873 29.5,197.5C 34.0696,194.595 37.7362,195.595 40.5,200.5C 42.0453,201.452 43.712,201.785 45.5,201.5C 45.838,198.843 45.1713,196.51 43.5,194.5C 44,194.167 44.5,193.833 45,193.5C 48.8143,194.824 50.3143,197.491 49.5,201.5C 51.8568,201.337 54.1902,201.503 56.5,202C 57.5433,203.976 58.8767,204.476 60.5,203.5C 57.7655,199.762 54.4321,196.762 50.5,194.5C 51,193.5 51.5,192.5 52,191.5C 54.2418,194.474 56.4085,194.807 58.5,192.5C 59.6049,193.6 60.9382,194.267 62.5,194.5C 65.3661,196.432 68.3661,198.099 71.5,199.5C 73.153,199.66 74.4863,200.326 75.5,201.5C 76.985,204.083 79.3183,205.416 82.5,205.5C 85.0125,207.926 88.0125,209.592 91.5,210.5C 92.7373,212.097 94.404,213.263 96.5,214C 111.956,217.095 127.29,217.261 142.5,214.5C 143.71,214.068 144.71,213.401 145.5,212.5C 146.919,211.549 148.585,211.216 150.5,211.5C 154.358,211.23 157.691,209.897 160.5,207.5C 162.698,207.88 164.365,207.213 165.5,205.5C 167.38,205.771 168.713,205.104 169.5,203.5C 185.021,195.646 197.355,184.312 206.5,169.5C 209.343,165.147 211.677,160.48 213.5,155.5C 214.5,155.5 215.5,155.5 216.5,155.5C 218.452,147.623 219.785,138.289 220.5,127.5C 220.928,116.728 220.095,106.062 218,95.5C 217.564,92.6021 216.397,90.2688 214.5,88.5C 213.974,86.7697 212.974,85.4363 211.5,84.5C 209.796,76.0801 205.796,69.0801 199.5,63.5C 199.446,61.368 198.446,60.0347 196.5,59.5C 195.246,56.9066 193.58,54.5732 191.5,52.5C 192.873,52.6567 194.207,52.49 195.5,52C 194.465,50.4931 194.632,48.9931 196,47.5C 197.117,48.9494 197.784,50.6161 198,52.5C 199.131,51.3961 199.965,51.7295 200.5,53.5C 199.05,54.8498 198.383,56.5165 198.5,58.5C 199.833,58.5 201.167,58.5 202.5,58.5C 202.34,60.1992 202.506,61.8659 203,63.5C 203.451,61.0712 204.285,60.9045 205.5,63C 204.663,64.0113 204.33,65.1779 204.5,66.5C 211.367,65.7026 215.367,68.7026 216.5,75.5C 215.404,79.1339 214.904,82.8006 215,86.5C 219.726,81.9966 221.392,76.6633 220,70.5C 221.37,67.95 222.537,65.2833 223.5,62.5C 224.89,60.7971 226.39,60.1304 228,60.5C 228.556,58.1152 228.39,55.7819 227.5,53.5 Z"/></g>
<g><path style="opacity:0.82" fill="#efa5bd" d="M 15.5,59.5 C 11.1442,70.2042 6.81083,80.8708 2.5,91.5C 4.66431,79.8535 8.99764,69.1868 15.5,59.5 Z"/></g>
<g><path style="opacity:0.031" fill="#f3b1c7" d="M 51.5,59.5 C 49.0659,63.3817 46.3993,67.0484 43.5,70.5C 44.0115,67.9785 45.0115,65.6451 46.5,63.5C 47.5588,61.4446 49.2254,60.1112 51.5,59.5 Z"/></g>
<g><path style="opacity:0.784" fill="#f2b0c3" d="M 235.5,64.5 C 238.657,68.957 240.657,73.957 241.5,79.5C 238.695,74.8797 236.695,69.8797 235.5,64.5 Z"/></g>
<g><path style="opacity:1" fill="#e35684" d="M 46.5,63.5 C 45.0115,65.6451 44.0115,67.9785 43.5,70.5C 38.7523,74.7137 36.0856,80.047 35.5,86.5C 34.1429,87.5903 33.1429,88.9236 32.5,90.5C 32.3354,87.4816 32.502,84.4816 33,81.5C 33.3333,82.1667 33.6667,82.8333 34,83.5C 36.6146,76.9375 39.7812,70.6042 43.5,64.5C 44.4168,63.8728 45.4168,63.5394 46.5,63.5 Z"/></g>
<g><path style="opacity:0.451" fill="#f3b0c5" d="M 199.5,63.5 C 205.796,69.0801 209.796,76.0801 211.5,84.5C 208.288,77.079 204.288,70.079 199.5,63.5 Z"/></g>
<g><path style="opacity:0.212" fill="#f4b7cc" d="M 43.5,70.5 C 40.8139,75.8721 38.1473,81.2054 35.5,86.5C 36.0856,80.047 38.7523,74.7137 43.5,70.5 Z"/></g>
<g><path style="opacity:0.471" fill="#efaec0" d="M 241.5,79.5 C 243.472,82.0836 244.472,85.0836 244.5,88.5C 242.69,85.855 241.69,82.855 241.5,79.5 Z"/></g>
<g><path style="opacity:0.337" fill="#f4bccd" d="M 35.5,86.5 C 33.1027,94.5124 31.1027,102.512 29.5,110.5C 29.8508,103.729 30.8508,97.0624 32.5,90.5C 33.1429,88.9236 34.1429,87.5903 35.5,86.5 Z"/></g>
<g><path style="opacity:0.247" fill="#f4bece" d="M 211.5,84.5 C 212.974,85.4363 213.974,86.7697 214.5,88.5C 214.993,90.8056 215.326,93.139 215.5,95.5C 214.026,91.9738 212.693,88.3071 211.5,84.5 Z"/></g>
<g><path style="opacity:0.471" fill="#f8b8c8" d="M 244.5,88.5 C 245.913,91.2186 246.58,94.2186 246.5,97.5C 246.167,97.5 245.833,97.5 245.5,97.5C 245.037,94.5176 244.704,91.5176 244.5,88.5 Z"/></g>
<g><path style="opacity:0.898" fill="#df6b8f" d="M 32.5,90.5 C 30.8508,97.0624 29.8508,103.729 29.5,110.5C 29.5,110.833 29.5,111.167 29.5,111.5C 29.1667,111.5 28.8333,111.5 28.5,111.5C 28.4054,106.113 28.9054,100.78 30,95.5C 30.0496,93.256 30.8829,91.5893 32.5,90.5 Z"/></g>
<g><path style="opacity:0.953" fill="#de658b" d="M 214.5,88.5 C 216.397,90.2688 217.564,92.6021 218,95.5C 220.095,106.062 220.928,116.728 220.5,127.5C 220.167,127.5 219.833,127.5 219.5,127.5C 219.822,121.642 219.489,115.975 218.5,110.5C 218.631,105.152 217.631,100.152 215.5,95.5C 215.326,93.139 214.993,90.8056 214.5,88.5 Z"/></g>
<g><path style="opacity:0.961" fill="#ec83a4" d="M 2.5,91.5 C 1.97541,101.34 1.30874,111.174 0.5,121C 1.02016,128.528 1.68682,136.028 2.5,143.5C 1.90283,139.733 0.902826,136.066 -0.5,132.5C -0.5,122.833 -0.5,113.167 -0.5,103.5C 0.17669,99.4295 1.17669,95.4295 2.5,91.5 Z"/></g>
<g><path style="opacity:0.118" fill="#fac6d3" d="M 215.5,95.5 C 217.631,100.152 218.631,105.152 218.5,110.5C 217.139,105.696 216.139,100.696 215.5,95.5 Z"/></g>
<g><path style="opacity:0.141" fill="#f2b6c8" d="M 218.5,110.5 C 219.489,115.975 219.822,121.642 219.5,127.5C 218.885,133.189 218.052,138.856 217,144.5C 216.617,145.056 216.117,145.389 215.5,145.5C 217.932,133.969 218.932,122.302 218.5,110.5 Z"/></g>
<g><path style="opacity:0.443" fill="#f1b5c8" d="M 247.5,103.5 C 248.167,106.5 248.833,109.5 249.5,112.5C 249.5,117.833 249.5,123.167 249.5,128.5C 248.718,133.537 247.718,138.537 246.5,143.5C 247.333,130.185 247.666,116.851 247.5,103.5 Z"/></g>
<g><path style="opacity:0.149" fill="#f7bcd1" d="M 28.5,111.5 C 28.8333,111.5 29.1667,111.5 29.5,111.5C 29.0681,123.302 30.0681,134.969 32.5,146.5C 30.8113,142.097 29.6446,137.431 29,132.5C 28.5004,125.508 28.3337,118.508 28.5,111.5 Z"/></g>
<g><path style="opacity:1" fill="#e94e80" d="M 19.5,54.5 C 17.7741,59.4126 16.4407,64.4126 15.5,69.5C 14.5,69.5 13.5,69.5 12.5,69.5C 11.871,71.4649 11.2043,73.4649 10.5,75.5C 10.6667,76.5 10.8333,77.5 11,78.5C 14.3138,80.8945 13.8138,82.2279 9.5,82.5C 9.64945,81.448 9.48278,80.448 9,79.5C 7.09602,88.4367 5.42935,97.4367 4,106.5C 3.66667,106.167 3.33333,105.833 3,105.5C 2.33333,112.5 2.33333,119.5 3,126.5C 5.66882,129.614 6.16882,133.114 4.5,137C 6.85165,137.576 7.85165,139.076 7.5,141.5C 7.45712,145.141 7.12378,148.808 6.5,152.5C 7.88613,156.734 8.5528,161.068 8.5,165.5C 8.16667,165.5 7.83333,165.5 7.5,165.5C 7.26848,161.058 5.93515,157.058 3.5,153.5C 3.38413,150.14 3.0508,146.807 2.5,143.5C 1.68682,136.028 1.02016,128.528 0.5,121C 1.30874,111.174 1.97541,101.34 2.5,91.5C 6.81083,80.8708 11.1442,70.2042 15.5,59.5C 17.1765,58.8166 17.8432,57.4832 17.5,55.5C 18.1667,55.1667 18.8333,54.8333 19.5,54.5 Z"/></g>
<g><path style="opacity:1" fill="#e26089" d="M 245.5,97.5 C 245.833,97.5 246.167,97.5 246.5,97.5C 247.461,99.2646 247.795,101.265 247.5,103.5C 247.666,116.851 247.333,130.185 246.5,143.5C 244.11,148.455 242.776,153.788 242.5,159.5C 242.167,159.5 241.833,159.5 241.5,159.5C 242.029,154.178 242.529,148.844 243,143.5C 243.333,143.833 243.667,144.167 244,144.5C 246.781,129.016 247.281,113.349 245.5,97.5 Z"/></g>
<g><path style="opacity:0.38" fill="#f5b4cc" d="M -0.5,132.5 C 0.902826,136.066 1.90283,139.733 2.5,143.5C 3.0508,146.807 3.38413,150.14 3.5,153.5C 1.53446,148.305 0.201128,142.971 -0.5,137.5C -0.5,135.833 -0.5,134.167 -0.5,132.5 Z"/></g>
<g><path style="opacity:1" fill="#e45582" d="M 219.5,127.5 C 219.833,127.5 220.167,127.5 220.5,127.5C 219.785,138.289 218.452,147.623 216.5,155.5C 215.5,155.5 214.5,155.5 213.5,155.5C 213.5,154.5 213.5,153.5 213.5,152.5C 213.5,152.167 213.5,151.833 213.5,151.5C 215.074,149.898 215.741,147.898 215.5,145.5C 216.117,145.389 216.617,145.056 217,144.5C 218.052,138.856 218.885,133.189 219.5,127.5 Z"/></g>
<g><path style="opacity:1" fill="#e45684" d="M 28.5,111.5 C 28.3337,118.508 28.5004,125.508 29,132.5C 29.6446,137.431 30.8113,142.097 32.5,146.5C 32.3455,149.716 33.3455,152.383 35.5,154.5C 35.5,155.833 35.5,157.167 35.5,158.5C 32.5924,154.527 29.9257,150.36 27.5,146C 28.0628,143.876 28.3961,141.709 28.5,139.5C 27.3116,133.224 26.6449,126.89 26.5,120.5C 26.517,117.087 27.1836,114.087 28.5,111.5 Z"/></g>
<g><path style="opacity:0.408" fill="#f8bacf" d="M 215.5,145.5 C 215.741,147.898 215.074,149.898 213.5,151.5C 213.595,149.214 214.262,147.214 215.5,145.5 Z"/></g>
<g><path style="opacity:0.584" fill="#f6aec4" d="M 32.5,146.5 C 33.871,148.936 34.871,151.603 35.5,154.5C 33.3455,152.383 32.3455,149.716 32.5,146.5 Z"/></g>
<g><path style="opacity:0.588" fill="#f5b0cc" d="M 3.5,153.5 C 5.93515,157.058 7.26848,161.058 7.5,165.5C 5.59468,161.784 4.26135,157.784 3.5,153.5 Z"/></g>
<g><path style="opacity:0.275" fill="#f6b3ca" d="M 246.5,143.5 C 246.293,149.225 244.96,154.559 242.5,159.5C 242.776,153.788 244.11,148.455 246.5,143.5 Z"/></g>
<g><path style="opacity:0.604" fill="#eca7be" d="M 35.5,154.5 C 37.0697,157.314 38.4031,160.314 39.5,163.5C 37.478,162.493 36.1447,160.826 35.5,158.5C 35.5,157.167 35.5,155.833 35.5,154.5 Z"/></g>
<g><path style="opacity:0.831" fill="#eb94af" d="M 213.5,152.5 C 213.5,153.5 213.5,154.5 213.5,155.5C 211.677,160.48 209.343,165.147 206.5,169.5C 206.5,168.833 206.5,168.167 206.5,167.5C 208.597,162.311 210.93,157.311 213.5,152.5 Z"/></g>
<g><path style="opacity:1" fill="#e55a86" d="M 240.5,160.5 C 240.326,162.861 239.993,165.194 239.5,167.5C 238.069,168.78 237.402,170.447 237.5,172.5C 236.1,173.1 235.1,174.1 234.5,175.5C 234.855,173.11 235.522,170.777 236.5,168.5C 236.327,166.962 235.994,165.462 235.5,164C 236.424,162.189 237.257,162.355 238,164.5C 238.122,162.563 238.955,161.23 240.5,160.5 Z"/></g>
<g><path style="opacity:0.145" fill="#fabfd2" d="M 241.5,159.5 C 241.833,159.5 242.167,159.5 242.5,159.5C 242.267,162.542 241.267,165.208 239.5,167.5C 239.993,165.194 240.326,162.861 240.5,160.5C 241.167,160.5 241.5,160.167 241.5,159.5 Z"/></g>
<g><path style="opacity:0.867" fill="#ec9db4" d="M 39.5,163.5 C 40.6737,164.514 41.3404,165.847 41.5,167.5C 39.8235,166.817 39.1568,165.483 39.5,163.5 Z"/></g>
<g><path style="opacity:1" fill="#e55482" d="M 23.5,191.5 C 22.8333,191.5 22.1667,191.5 21.5,191.5C 20.6167,188.296 18.9501,185.629 16.5,183.5C 14.7712,179.042 12.7712,174.709 10.5,170.5C 11.8221,170.67 12.9887,170.337 14,169.5C 14.4715,173.317 15.4715,176.983 17,180.5C 17.3076,179.692 17.8076,179.025 18.5,178.5C 20.2909,180.021 21.6242,181.854 22.5,184C 21.6163,186.567 21.9496,189.067 23.5,191.5 Z"/></g>
<g><path style="opacity:0.141" fill="#f9cddc" d="M 41.5,167.5 C 42.9063,167.973 43.573,168.973 43.5,170.5C 42.8333,170.167 42.1667,169.833 41.5,169.5C 41.5,168.833 41.5,168.167 41.5,167.5 Z"/></g>
<g><path style="opacity:0.933" fill="#e381a0" d="M 41.5,169.5 C 42.1667,169.833 42.8333,170.167 43.5,170.5C 44.3382,170.842 44.6716,171.508 44.5,172.5C 44.5,173.167 44.5,173.833 44.5,174.5C 43.1103,173.101 42.1103,171.434 41.5,169.5 Z"/></g>
<g><path style="opacity:0.141" fill="#f9d2db" d="M 239.5,167.5 C 239.598,169.553 238.931,171.22 237.5,172.5C 237.402,170.447 238.069,168.78 239.5,167.5 Z"/></g>
<g><path style="opacity:0.239" fill="#f6aec6" d="M 7.5,165.5 C 7.83333,165.5 8.16667,165.5 8.5,165.5C 9.53747,166.93 10.2041,168.597 10.5,170.5C 12.7712,174.709 14.7712,179.042 16.5,183.5C 12.4651,178.097 9.4651,172.097 7.5,165.5 Z"/></g>
<g><path style="opacity:0.298" fill="#f6c3d3" d="M 44.5,172.5 C 46.2624,173.262 47.2624,174.596 47.5,176.5C 46.5,175.833 45.5,175.167 44.5,174.5C 44.5,173.833 44.5,173.167 44.5,172.5 Z"/></g>
<g><path style="opacity:1" fill="#e25683" d="M 234.5,175.5 C 232.582,180.343 229.916,184.677 226.5,188.5C 227.955,184.466 229.622,180.466 231.5,176.5C 232.325,175.614 233.325,175.281 234.5,175.5 Z"/></g>
<g><path style="opacity:0.255" fill="#f4bccc" d="M 47.5,176.5 C 48.9063,176.973 49.573,177.973 49.5,179.5C 48.0937,179.027 47.427,178.027 47.5,176.5 Z"/></g>
<g><path style="opacity:0.2" fill="#f5b3c9" d="M 237.5,172.5 C 232.486,184.544 225.486,195.211 216.5,204.5C 216.167,204.5 215.833,204.5 215.5,204.5C 219.677,199.467 223.343,194.134 226.5,188.5C 229.916,184.677 232.582,180.343 234.5,175.5C 235.1,174.1 236.1,173.1 237.5,172.5 Z"/></g>
<g><path style="opacity:1" fill="#dc5f87" d="M 51.5,183.5 C 55.5,186.833 59.1667,190.5 62.5,194.5C 60.9382,194.267 59.6049,193.6 58.5,192.5C 55.7606,189.767 53.4273,186.767 51.5,183.5 Z"/></g>
<g><path style="opacity:0.208" fill="#f7bdd0" d="M 16.5,183.5 C 18.9501,185.629 20.6167,188.296 21.5,191.5C 19.0499,189.371 17.3833,186.704 16.5,183.5 Z"/></g>
<g><path style="opacity:0.459" fill="#efacc1" d="M 21.5,191.5 C 22.1667,191.5 22.8333,191.5 23.5,191.5C 23.8333,192.833 24.1667,194.167 24.5,195.5C 23.0256,194.564 22.0256,193.23 21.5,191.5 Z"/></g>
<g><path style="opacity:0.239" fill="#f4b4ca" d="M 206.5,167.5 C 206.5,168.167 206.5,168.833 206.5,169.5C 197.355,184.312 185.021,195.646 169.5,203.5C 184.455,194.212 196.788,182.212 206.5,167.5 Z"/></g>
<g><path style="opacity:0.071" fill="#f3b4c8" d="M 49.5,179.5 C 56.56,186.564 63.8933,193.231 71.5,199.5C 68.3661,198.099 65.3661,196.432 62.5,194.5C 59.1667,190.5 55.5,186.833 51.5,183.5C 50.3995,182.395 49.7329,181.062 49.5,179.5 Z"/></g>
<g><path style="opacity:0.631" fill="#f2afc2" d="M 75.5,201.5 C 78.0316,202.596 80.3649,203.929 82.5,205.5C 79.3183,205.416 76.985,204.083 75.5,201.5 Z"/></g>
<g><path style="opacity:0.208" fill="#f6becf" d="M 169.5,203.5 C 168.713,205.104 167.38,205.771 165.5,205.5C 166.514,204.326 167.847,203.66 169.5,203.5 Z"/></g>
<g><path style="opacity:0.012" fill="#fae8ed" d="M 215.5,204.5 C 215.833,204.5 216.167,204.5 216.5,204.5C 215.833,205.833 214.833,206.833 213.5,207.5C 213.427,205.973 214.094,204.973 215.5,204.5 Z"/></g>
<g><path style="opacity:0.024" fill="#f7bfd1" d="M 24.5,196.5 C 25.1667,196.5 25.8333,196.5 26.5,196.5C 30.4599,201.795 34.7932,206.795 39.5,211.5C 33.5212,207.521 28.5212,202.521 24.5,196.5 Z"/></g>
<g><path style="opacity:0.22" fill="#f4b2c2" d="M 82.5,205.5 C 87.6802,207.264 92.6802,209.264 97.5,211.5C 95.3792,211.675 93.3792,211.341 91.5,210.5C 88.0125,209.592 85.0125,207.926 82.5,205.5 Z"/></g>
<g><path style="opacity:0.565" fill="#f2b8cc" d="M 165.5,205.5 C 164.365,207.213 162.698,207.88 160.5,207.5C 161.93,206.463 163.597,205.796 165.5,205.5 Z"/></g>
<g><path style="opacity:0.016" fill="#f8bfd9" d="M 213.5,207.5 C 212.109,209.89 210.109,211.557 207.5,212.5C 208.865,210.14 210.865,208.473 213.5,207.5 Z"/></g>
<g><path style="opacity:0.427" fill="#f4b5ca" d="M 160.5,207.5 C 157.691,209.897 154.358,211.23 150.5,211.5C 153.518,209.6 156.851,208.267 160.5,207.5 Z"/></g>
<g><path style="opacity:0.835" fill="#e8a2b9" d="M 39.5,211.5 C 41.5,211.5 42.5,212.5 42.5,214.5C 40.8564,214.19 39.8564,213.19 39.5,211.5 Z"/></g>
<g><path style="opacity:0.149" fill="#f9c6d6" d="M 97.5,211.5 C 101.04,211.753 104.373,212.419 107.5,213.5C 103.84,213.841 100.507,213.175 97.5,211.5 Z"/></g>
<g><path style="opacity:0.616" fill="#efa7c1" d="M 207.5,212.5 C 204.957,215.78 201.957,218.613 198.5,221C 196.922,222.094 195.255,222.928 193.5,223.5C 197.612,219.047 202.278,215.38 207.5,212.5 Z"/></g>
<g><path style="opacity:0.304" fill="#f0b5ca" d="M 145.5,212.5 C 144.71,213.401 143.71,214.068 142.5,214.5C 131.181,215.461 119.848,215.628 108.5,215C 107.944,214.617 107.611,214.117 107.5,213.5C 120.217,214.989 132.883,214.655 145.5,212.5 Z"/></g>
<g><path style="opacity:0.455" fill="#f1adc8" d="M 42.5,214.5 C 44.7488,215.08 46.4154,216.413 47.5,218.5C 45.2512,217.92 43.5846,216.587 42.5,214.5 Z"/></g>
<g><path style="opacity:0.795" fill="#e1678f" d="M 91.5,210.5 C 93.3792,211.341 95.3792,211.675 97.5,211.5C 100.507,213.175 103.84,213.841 107.5,213.5C 107.611,214.117 107.944,214.617 108.5,215C 119.848,215.628 131.181,215.461 142.5,214.5C 127.29,217.261 111.956,217.095 96.5,214C 94.404,213.263 92.7373,212.097 91.5,210.5 Z"/></g>
<g><path style="opacity:0.404" fill="#eeadc5" d="M 47.5,218.5 C 49.4044,218.738 50.7377,219.738 51.5,221.5C 49.5956,221.262 48.2623,220.262 47.5,218.5 Z"/></g>
<g><path style="opacity:0.29" fill="#f4b0c1" d="M 51.5,221.5 C 53.0269,221.427 54.0269,222.094 54.5,223.5C 52.9731,223.573 51.9731,222.906 51.5,221.5 Z"/></g>
<g><path style="opacity:0.318" fill="#f9acc8" d="M 54.5,223.5 C 56.0269,223.427 57.0269,224.094 57.5,225.5C 55.9731,225.573 54.9731,224.906 54.5,223.5 Z"/></g>
<g><path style="opacity:0.18" fill="#f6b4d3" d="M 57.5,225.5 C 59.0269,225.427 60.0269,226.094 60.5,227.5C 58.9731,227.573 57.9731,226.906 57.5,225.5 Z"/></g>
<g><path style="opacity:0.173" fill="#f4b7c8" d="M 193.5,223.5 C 188.779,227.529 183.446,230.529 177.5,232.5C 178.167,231.833 178.833,231.167 179.5,230.5C 184.193,228.153 188.86,225.82 193.5,223.5 Z"/></g>
<g><path style="opacity:0.796" fill="#eda1b9" d="M 60.5,227.5 C 62.6547,227.372 64.6547,227.872 66.5,229C 69.4068,230.609 72.0734,232.442 74.5,234.5C 69.2361,233.201 64.5694,230.868 60.5,227.5 Z"/></g>
<g><path style="opacity:1" fill="#e26d92" d="M 179.5,230.5 C 178.833,231.167 178.167,231.833 177.5,232.5C 177.158,233.338 176.492,233.672 175.5,233.5C 173.62,233.229 172.287,233.896 171.5,235.5C 170.833,235.5 170.167,235.5 169.5,235.5C 169.804,234.85 170.137,234.183 170.5,233.5C 173.544,232.485 176.544,231.485 179.5,230.5 Z"/></g>
<g><path style="opacity:0.051" fill="#f5c0cd" d="M 175.5,233.5 C 174.486,234.674 173.153,235.34 171.5,235.5C 172.287,233.896 173.62,233.229 175.5,233.5 Z"/></g>
<g><path style="opacity:0.647" fill="#efa2bb" d="M 74.5,234.5 C 78.533,235.025 82.1996,236.358 85.5,238.5C 81.4632,237.935 77.7966,236.601 74.5,234.5 Z"/></g>
<g><path style="opacity:0.192" fill="#f3b6c9" d="M 169.5,235.5 C 170.167,235.5 170.833,235.5 171.5,235.5C 168.785,237.072 165.785,238.072 162.5,238.5C 163.167,237.833 163.833,237.167 164.5,236.5C 166.216,236.371 167.883,236.038 169.5,235.5 Z"/></g>
<g><path style="opacity:1" fill="#e65e8a" d="M 89.5,238.5 C 97.2082,238.929 104.542,240.596 111.5,243.5C 109.833,243.5 108.167,243.5 106.5,243.5C 103.155,241.783 99.4885,241.116 95.5,241.5C 93.5,240.5 91.5,239.5 89.5,238.5 Z"/></g>
<g><path style="opacity:0.98" fill="#df688f" d="M 164.5,236.5 C 163.833,237.167 163.167,237.833 162.5,238.5C 161.791,239.404 160.791,239.737 159.5,239.5C 157.097,239.448 154.764,239.781 152.5,240.5C 152.611,239.883 152.944,239.383 153.5,239C 157.168,238.052 160.835,237.219 164.5,236.5 Z"/></g>
<g><path style="opacity:0.565" fill="#f5abc1" d="M 85.5,238.5 C 86.8333,238.5 88.1667,238.5 89.5,238.5C 91.5,239.5 93.5,240.5 95.5,241.5C 91.8379,241.277 88.5046,240.277 85.5,238.5 Z"/></g>
<g><path style="opacity:0.235" fill="#f4adc6" d="M 95.5,241.5 C 99.4885,241.116 103.155,241.783 106.5,243.5C 104.833,243.5 103.167,243.5 101.5,243.5C 99.5,242.833 97.5,242.167 95.5,241.5 Z"/></g>
<g><path style="opacity:0.094" fill="#f6b3cb" d="M 159.5,239.5 C 155.293,241.301 150.96,242.634 146.5,243.5C 144.833,243.5 143.167,243.5 141.5,243.5C 144.913,241.935 148.58,240.935 152.5,240.5C 154.764,239.781 157.097,239.448 159.5,239.5 Z"/></g>
</svg>
