<?xml version="1.0" encoding="UTF-8"?>
<!DOCTYPE svg PUBLIC "-//W3C//DTD SVG 1.1//EN" "http://www.w3.org/Graphics/SVG/1.1/DTD/svg11.dtd">
<svg xmlns="http://www.w3.org/2000/svg" version="1.1" width="75px" height="51px" style="shape-rendering:geometricPrecision; text-rendering:geometricPrecision; image-rendering:optimizeQuality; fill-rule:evenodd; clip-rule:evenodd" xmlns:xlink="http://www.w3.org/1999/xlink">
<g><path style="opacity:0.247" fill="#aeaeae" d="M 16.5,7.5 C 19.6399,6.35916 22.9733,6.1925 26.5,7C 27.9423,7.37675 28.9423,8.21009 29.5,9.5C 25.3642,7.81656 21.0309,7.14989 16.5,7.5 Z"/></g>
<g><path style="opacity:0.463" fill="#a9a9a9" d="M 42.5,8.5 C 41.448,8.35055 40.448,8.51722 39.5,9C 40.2524,9.67076 40.5858,10.5041 40.5,11.5C 37.4922,9.65358 37.3255,7.98691 40,6.5C 40.9947,7.06594 41.828,7.73261 42.5,8.5 Z"/></g>
<g><path style="opacity:0.012" fill="#cbcbcb" d="M 29.5,9.5 C 30.8333,9.5 31.5,10.1667 31.5,11.5C 30.5,11.1667 29.8333,10.5 29.5,9.5 Z"/></g>
<g><path style="opacity:1" fill="#303030" d="M 16.5,7.5 C 21.0309,7.14989 25.3642,7.81656 29.5,9.5C 29.8333,10.5 30.5,11.1667 31.5,11.5C 33.2624,12.2623 34.2624,13.5956 34.5,15.5C 33.5416,15.0472 32.7083,14.3805 32,13.5C 31.5357,14.0944 31.369,14.7611 31.5,15.5C 31.1667,15.5 30.8333,15.5 30.5,15.5C 25.8692,9.45926 20.2025,8.29259 13.5,12C 11.4497,13.9651 9.78299,16.1318 8.5,18.5C 8.86932,16.0065 8.20266,15.3398 6.5,16.5C 8.23726,11.7644 11.5706,8.76437 16.5,7.5 Z"/></g>
<g><path style="opacity:0.993" fill="#232323" d="M 34.5,15.5 C 35.3382,15.8417 35.6716,16.5084 35.5,17.5C 35.5,20.1667 35.5,22.8333 35.5,25.5C 33.8333,25.5 32.1667,25.5 30.5,25.5C 25.1383,25.4724 19.8049,25.8058 14.5,26.5C 12.1667,26.5 9.83333,26.5 7.5,26.5C 7.27786,30.8424 8.61119,34.5091 11.5,37.5C 13.34,39.168 15.34,40.668 17.5,42C 11.1615,42.4979 7.16152,39.6646 5.5,33.5C 5.29619,30.4824 4.96286,27.4824 4.5,24.5C 4.11066,21.4467 4.77733,18.78 6.5,16.5C 8.20266,15.3398 8.86932,16.0065 8.5,18.5C 7.54885,19.9187 7.21552,21.5853 7.5,23.5C 11.5,23.5 15.5,23.5 19.5,23.5C 23.5,24.8333 27.5,24.8333 31.5,23.5C 32.5862,23.38 33.2528,22.7133 33.5,21.5C 33.0234,19.4035 32.3567,17.4035 31.5,15.5C 31.369,14.7611 31.5357,14.0944 32,13.5C 32.7083,14.3805 33.5416,15.0472 34.5,15.5 Z"/></g>
<g><path style="opacity:0.29" fill="#bebebe" d="M 30.5,15.5 C 30.8333,15.5 31.1667,15.5 31.5,15.5C 32.3567,17.4035 33.0234,19.4035 33.5,21.5C 33.2528,22.7133 32.5862,23.38 31.5,23.5C 31.8039,22.8501 32.1373,22.1835 32.5,21.5C 31.6279,19.5504 30.9612,17.5504 30.5,15.5 Z"/></g>
<g><path style="opacity:0.008" fill="#d1d1d1" d="M 44.5,16.5 C 45.9063,16.9731 46.573,17.9731 46.5,19.5C 45.0937,19.0269 44.427,18.0269 44.5,16.5 Z"/></g>
<g><path style="opacity:1" fill="#262626" d="M 57.5,21.5 C 55.4031,22.8786 55.0698,24.5453 56.5,26.5C 56.7376,28.4044 57.7376,29.7377 59.5,30.5C 59.7376,32.4044 60.7376,33.7377 62.5,34.5C 62.427,36.0269 63.0937,37.0269 64.5,37.5C 65.6006,38.8484 66.6006,40.3484 67.5,42C 63.978,41.68 61.3113,39.8467 59.5,36.5C 59.4456,34.368 58.4456,33.0347 56.5,32.5C 56.573,30.9731 55.9063,29.9731 54.5,29.5C 53.8333,29.5 53.5,29.1667 53.5,28.5C 52.3774,27.2426 51.7107,27.5759 51.5,29.5C 51.5,30.1667 51.1667,30.5 50.5,30.5C 49.0937,30.9731 48.427,31.9731 48.5,33.5C 48.5,34.1667 48.1667,34.5 47.5,34.5C 46.0937,34.9731 45.427,35.9731 45.5,37.5C 44.024,40.4989 41.6907,41.9989 38.5,42C 39.8181,39.1761 41.4848,36.6761 43.5,34.5C 45.2624,33.7377 46.2624,32.4044 46.5,30.5C 47.9063,30.0269 48.573,29.0269 48.5,27.5C 50.5195,26.4617 50.8528,25.1284 49.5,23.5C 49.573,21.9731 48.9063,20.9731 47.5,20.5C 46.8333,20.5 46.5,20.1667 46.5,19.5C 46.573,17.9731 45.9063,16.9731 44.5,16.5C 42.9373,15.0552 41.604,13.3885 40.5,11.5C 40.5858,10.5041 40.2524,9.67076 39.5,9C 40.448,8.51722 41.448,8.35055 42.5,8.5C 44.0627,9.94478 45.396,11.6115 46.5,13.5C 46.7376,15.4044 47.7376,16.7377 49.5,17.5C 51.3401,23.1485 53.3401,23.4819 55.5,18.5C 58.2768,13.7228 61.9435,10.0561 66.5,7.5C 64.3228,12.6809 61.3228,17.3476 57.5,21.5 Z"/></g>
<g><path style="opacity:0.62" fill="#9d9d9d" d="M 46.5,13.5 C 48.2624,14.2623 49.2624,15.5956 49.5,17.5C 47.7376,16.7377 46.7376,15.4044 46.5,13.5 Z"/></g>
<g><path style="opacity:0.4" fill="#b6b6b6" d="M 49.5,17.5 C 50.7942,18.2899 51.9609,19.2899 53,20.5C 53.7083,19.6195 54.5416,18.9528 55.5,18.5C 53.3401,23.4819 51.3401,23.1485 49.5,17.5 Z"/></g>
<g><path style="opacity:0.004" fill="#dbdbdb" d="M 47.5,20.5 C 48.9063,20.9731 49.573,21.9731 49.5,23.5C 48.0937,23.0269 47.427,22.0269 47.5,20.5 Z"/></g>
<g><path style="opacity:0.067" fill="#dcdcdc" d="M 8.5,18.5 C 8.5,19.8333 8.5,21.1667 8.5,22.5C 12.3714,22.185 16.0381,22.5184 19.5,23.5C 15.5,23.5 11.5,23.5 7.5,23.5C 7.21552,21.5853 7.54885,19.9187 8.5,18.5 Z"/></g>
<g><path style="opacity:0.518" fill="#8c8c8c" d="M 35.5,17.5 C 36.4767,20.2869 36.81,23.2869 36.5,26.5C 34.2646,26.7947 32.2646,26.4614 30.5,25.5C 32.1667,25.5 33.8333,25.5 35.5,25.5C 35.5,22.8333 35.5,20.1667 35.5,17.5 Z"/></g>
<g><path style="opacity:0.016" fill="#e1e1e1" d="M 57.5,21.5 C 56.962,23.1172 56.6287,24.7839 56.5,26.5C 55.0698,24.5453 55.4031,22.8786 57.5,21.5 Z"/></g>
<g><path style="opacity:0.235" fill="#d8d8d8" d="M 49.5,23.5 C 50.8528,25.1284 50.5195,26.4617 48.5,27.5C 48.8333,26.1667 49.1667,24.8333 49.5,23.5 Z"/></g>
<g><path style="opacity:0.071" fill="#d6d6d6" d="M 53.5,28.5 C 52.8333,28.8333 52.1667,29.1667 51.5,29.5C 51.7107,27.5759 52.3774,27.2426 53.5,28.5 Z"/></g>
<g><path style="opacity:0.843" fill="#b0b0b0" d="M 56.5,26.5 C 58.2624,27.2623 59.2624,28.5956 59.5,30.5C 57.7376,29.7377 56.7376,28.4044 56.5,26.5 Z"/></g>
<g><path style="opacity:0.4" fill="#b1b1b1" d="M 48.5,27.5 C 48.573,29.0269 47.9063,30.0269 46.5,30.5C 46.427,28.9731 47.0937,27.9731 48.5,27.5 Z"/></g>
<g><path style="opacity:0.016" fill="#e1e1e1" d="M 14.5,26.5 C 12.7354,27.4614 10.7354,27.7947 8.5,27.5C 9.0991,30.9631 10.0991,34.2964 11.5,37.5C 8.61119,34.5091 7.27786,30.8424 7.5,26.5C 9.83333,26.5 12.1667,26.5 14.5,26.5 Z"/></g>
<g><path style="opacity:0.004" fill="#d8d8d8" d="M 54.5,29.5 C 55.9063,29.9731 56.573,30.9731 56.5,32.5C 55.0937,32.0269 54.427,31.0269 54.5,29.5 Z"/></g>
<g><path style="opacity:0.286" fill="#c1c1c1" d="M 4.5,24.5 C 4.96286,27.4824 5.29619,30.4824 5.5,33.5C 3.71251,30.5911 3.37918,27.5911 4.5,24.5 Z"/></g>
<g><path style="opacity:0.012" fill="#cccccc" d="M 50.5,30.5 C 50.573,32.0269 49.9063,33.0269 48.5,33.5C 48.427,31.9731 49.0937,30.9731 50.5,30.5 Z"/></g>
<g><path style="opacity:0.893" fill="#1e1e1e" d="M 33.5,31.5 C 34.4972,31.4701 35.1639,31.9701 35.5,33C 34.9523,35.2701 33.7856,37.1034 32,38.5C 31.5,38.3333 31,38.1667 30.5,38C 31.7929,35.9481 32.7929,33.7814 33.5,31.5 Z"/></g>
<g><path style="opacity:0.608" fill="#989898" d="M 46.5,30.5 C 46.2624,32.4044 45.2624,33.7377 43.5,34.5C 43.7376,32.5956 44.7376,31.2623 46.5,30.5 Z"/></g>
<g><path style="opacity:1" fill="#adadad" d="M 59.5,30.5 C 61.2624,31.2623 62.2624,32.5956 62.5,34.5C 60.7376,33.7377 59.7376,32.4044 59.5,30.5 Z"/></g>
<g><path style="opacity:0.992" fill="#9f9f9f" d="M 56.5,32.5 C 58.4456,33.0347 59.4456,34.368 59.5,36.5C 58.0256,35.5637 57.0256,34.2303 56.5,32.5 Z"/></g>
<g><path style="opacity:0.024" fill="#c9c9c9" d="M 47.5,34.5 C 47.573,36.0269 46.9063,37.0269 45.5,37.5C 45.427,35.9731 46.0937,34.9731 47.5,34.5 Z"/></g>
<g><path style="opacity:1" fill="#9e9e9e" d="M 62.5,34.5 C 63.9063,34.9731 64.573,35.9731 64.5,37.5C 63.0937,37.0269 62.427,36.0269 62.5,34.5 Z"/></g>
<g><path style="opacity:0.325" fill="#000000" d="M 27.5,40.5 C 28.8333,41.1667 28.8333,41.1667 27.5,40.5 Z"/></g>
<g><path style="opacity:0.502" fill="#010201" d="M 23.5,42.5 C 24.2506,41.4265 25.2506,41.2599 26.5,42C 25.552,42.4828 24.552,42.6495 23.5,42.5 Z"/></g>
<g><path style="opacity:0.515" fill="#020202" d="M 23.5,42.5 C 22.0536,43.6129 20.3869,43.7796 18.5,43C 20.1341,42.5065 21.8008,42.3398 23.5,42.5 Z"/></g>
</svg>
