<?xml version="1.0" encoding="UTF-8"?>
<!DOCTYPE svg PUBLIC "-//W3C//DTD SVG 1.1//EN" "http://www.w3.org/Graphics/SVG/1.1/DTD/svg11.dtd">
<svg xmlns="http://www.w3.org/2000/svg" version="1.1" width="75px" height="51px" style="shape-rendering:geometricPrecision; text-rendering:geometricPrecision; image-rendering:optimizeQuality; fill-rule:evenodd; clip-rule:evenodd" xmlns:xlink="http://www.w3.org/1999/xlink">
<g><path style="opacity:1" fill="#fafafa" d="M -0.5,-0.5 C 24.5,-0.5 49.5,-0.5 74.5,-0.5C 74.5,16.5 74.5,33.5 74.5,50.5C 49.5,50.5 24.5,50.5 -0.5,50.5C -0.5,33.5 -0.5,16.5 -0.5,-0.5 Z"/></g>
<g><path style="opacity:1" fill="#1a1a1a" d="M 35.5,19.5 C 35.5,21.5 35.5,23.5 35.5,25.5C 25.985,25.1731 16.6517,25.5064 7.5,26.5C 8.40834,39.579 15.075,44.079 27.5,40C 30.5956,37.9713 32.2623,35.138 32.5,31.5C 33.5,31.5 34.5,31.5 35.5,31.5C 32.9273,41.1331 26.594,45.2997 16.5,44C 8.34289,40.652 4.34289,34.4853 4.5,25.5C 5.95577,10.2821 13.9558,4.78205 28.5,9C 32.3006,11.6141 34.634,15.1141 35.5,19.5 Z"/></g>
<g><path style="opacity:1" fill="#f5f5f5" d="M 16.5,9.5 C 27.0304,8.36982 32.6971,13.0365 33.5,23.5C 24.8333,23.5 16.1667,23.5 7.5,23.5C 7.99663,17.1625 10.9966,12.4958 16.5,9.5 Z"/></g>
<g><path style="opacity:1" fill="#1e1e1e" d="M 64.5,7.5 C 65.3764,7.36912 66.0431,7.70245 66.5,8.5C 62.7986,13.8578 59.1319,19.1912 55.5,24.5C 59.0724,30.7477 63.0724,36.7477 67.5,42.5C 66.9984,43.521 66.3317,43.6877 65.5,43C 61.5132,37.5158 57.1799,32.3491 52.5,27.5C 48.6209,32.757 44.6209,37.9237 40.5,43C 39.365,43.7494 38.365,43.5827 37.5,42.5C 42.2043,36.9168 46.5376,31.0835 50.5,25C 47.4307,19.4273 43.764,14.2606 39.5,9.5C 40.365,8.41728 41.365,8.25061 42.5,9C 46.3625,13.2286 49.8625,17.7286 53,22.5C 56.6659,17.3389 60.4992,12.3389 64.5,7.5 Z"/></g>
<g><path style="opacity:1" fill="#6f6f6f" d="M 35.5,19.5 C 36.4682,21.6074 36.8016,23.9407 36.5,26.5C 26.8333,26.5 17.1667,26.5 7.5,26.5C 16.6517,25.5064 25.985,25.1731 35.5,25.5C 35.5,23.5 35.5,21.5 35.5,19.5 Z"/></g>
</svg>
