<?xml version="1.0" encoding="UTF-8"?>
<!DOCTYPE svg PUBLIC "-//W3C//DTD SVG 1.1//EN" "http://www.w3.org/Graphics/SVG/1.1/DTD/svg11.dtd">
<svg xmlns="http://www.w3.org/2000/svg" version="1.1" width="522px" height="571px" style="shape-rendering:geometricPrecision; text-rendering:geometricPrecision; image-rendering:optimizeQuality; fill-rule:evenodd; clip-rule:evenodd" xmlns:xlink="http://www.w3.org/1999/xlink">
<g><path style="opacity:0.977" fill="#fefffe" d="M 258.5,-0.5 C 259.833,-0.5 261.167,-0.5 262.5,-0.5C 318.104,31.9734 373.77,64.4734 429.5,97C 395.167,97.6667 360.833,97.6667 326.5,97C 304.664,83.9143 282.664,71.081 260.5,58.5C 239.5,71.3333 218.5,84.1667 197.5,97C 161.833,97.6667 126.167,97.6667 90.5,97C 146.727,64.7258 202.727,32.2258 258.5,-0.5 Z"/></g>
<g><path style="opacity:0.981" fill="#fefffe" d="M -0.5,128.5 C -0.5,128.167 -0.5,127.833 -0.5,127.5C 50.8344,127.333 102.168,127.5 153.5,128C 214.5,234.333 275.5,340.667 336.5,447C 311.363,488.111 286.363,529.278 261.5,570.5C 261.167,570.5 260.833,570.5 260.5,570.5C 188.511,449.194 116.511,327.861 44.5,206.5C 65.1586,205.334 85.8253,205.167 106.5,206C 158,295.5 209.5,385 261,474.5C 265.833,465.5 270.667,456.5 275.5,447.5C 224.081,358.997 172.914,270.33 122,181.5C 91.2317,180.562 60.3984,180.395 29.5,181C 19.5993,163.356 9.59934,145.856 -0.5,128.5 Z"/></g>
<g><path style="opacity:0.987" fill="#fefffe" d="M 521.5,127.5 C 521.5,127.833 521.5,128.167 521.5,128.5C 511.734,145.857 502.068,163.357 492.5,181C 420.167,181.333 347.833,181.667 275.5,182C 280.5,190.333 285.5,198.667 290.5,207C 352.503,207.167 414.503,207.667 476.5,208.5C 435.197,279.782 393.53,350.782 351.5,421.5C 325.247,376.663 299.247,331.663 273.5,286.5C 294.5,285.167 315.5,285.167 336.5,286.5C 341.415,295.332 346.582,303.999 352,312.5C 362.167,295.5 372.333,278.5 382.5,261.5C 341.5,260.833 300.5,260.167 259.5,259.5C 233.581,215.998 207.915,172.331 182.5,128.5C 295.498,127.5 408.498,127.167 521.5,127.5 Z"/></g>
<g><path style="opacity:0.97" fill="#fefffe" d="M 17.5,224.5 C 19.0744,224.937 20.2411,225.937 21,227.5C 36.7474,255.33 52.7474,282.997 69,310.5C 69.1668,336.84 69.6668,363.173 70.5,389.5C 92.2446,401.454 113.745,413.787 135,426.5C 152.419,455.669 169.586,485.002 186.5,514.5C 186.167,514.833 185.833,515.167 185.5,515.5C 129.67,483.419 74.0029,451.086 18.5,418.5C 17.5,353.837 17.1667,289.17 17.5,224.5 Z"/></g>
<g><path style="opacity:0.98" fill="#fefffe" d="M 502.5,224.5 C 503.832,289.335 503.832,354.335 502.5,419.5C 466.167,440.667 429.833,461.833 393.5,483C 401.99,510.473 410.49,537.973 419,565.5C 419.781,566.944 419.614,568.277 418.5,569.5C 390.462,551.82 362.795,533.653 335.5,515C 351.614,485.938 368.114,457.105 385,428.5C 406.251,415.123 427.751,402.123 449.5,389.5C 450.333,363.84 450.833,338.173 451,312.5C 467.926,282.975 485.093,253.642 502.5,224.5 Z"/></g>
</svg>
