<?xml version="1.0" encoding="UTF-8"?>
<!DOCTYPE svg PUBLIC "-//W3C//DTD SVG 1.1//EN" "http://www.w3.org/Graphics/SVG/1.1/DTD/svg11.dtd">
<svg xmlns="http://www.w3.org/2000/svg" version="1.1" width="208px" height="36px" style="shape-rendering:geometricPrecision; text-rendering:geometricPrecision; image-rendering:optimizeQuality; fill-rule:evenodd; clip-rule:evenodd" xmlns:xlink="http://www.w3.org/1999/xlink">
<g><path style="opacity:0.998" fill="#cec6d8" d="M 10.5,10.5 C 10.5569,11.609 10.8902,12.609 11.5,13.5C 11.7845,15.4147 11.4511,17.0813 10.5,18.5C 10.7845,16.5853 10.4511,14.9187 9.5,13.5C 7.83333,12.1667 6.16667,12.1667 4.5,13.5C 4.16667,13.5 3.83333,13.5 3.5,13.5C 3.5,12.8333 3.16667,12.5 2.5,12.5C 3.01384,10.5613 4.34717,9.56132 6.5,9.5C 7.84918,9.84572 9.18252,10.179 10.5,10.5 Z"/></g>
<g><path style="opacity:0.959" fill="#eee4f6" d="M 78.5,14.5 C 77.8333,14.5 77.5,14.8333 77.5,15.5C 76.7281,14.3065 75.7281,13.3065 74.5,12.5C 73.0813,11.5489 71.4147,11.2155 69.5,11.5C 69.5,13.5 69.5,15.5 69.5,17.5C 68.5798,18.0674 68.2465,17.4008 68.5,15.5C 68.5,13.8333 68.5,12.1667 68.5,10.5C 70.8568,10.3367 73.1902,10.5034 75.5,11C 77.4257,11.4224 78.4257,12.5891 78.5,14.5 Z"/></g>
<g><path style="opacity:1" fill="#dac4e3" d="M 98.5,9.5 C 98.7373,10.791 98.404,11.791 97.5,12.5C 96.6618,12.1583 96.3284,11.4916 96.5,10.5C 96.8417,9.66175 97.5084,9.32842 98.5,9.5 Z"/></g>
<g><path style="opacity:0.69" fill="#fbfbfe" d="M 170.5,10.5 C 171.833,11.1667 171.833,11.1667 170.5,10.5 Z"/></g>
<g><path style="opacity:0.408" fill="#e1ccdd" d="M 81.5,10.5 C 84.0009,10.5109 84.1676,11.1776 82,12.5C 81.5357,11.9056 81.369,11.2389 81.5,10.5 Z"/></g>
<g><path style="opacity:0.635" fill="#3c255b" d="M 99.5,10.5 C 101.099,10.2322 102.432,10.5655 103.5,11.5C 102.167,12.1667 100.833,12.8333 99.5,13.5C 99.5,12.5 99.5,11.5 99.5,10.5 Z"/></g>
<g><path style="opacity:0.933" fill="#f1e5f7" d="M 133.5,10.5 C 133.5,11.1667 133.167,11.5 132.5,11.5C 131.167,11.8333 129.833,12.1667 128.5,12.5C 128.167,12.5 127.833,12.5 127.5,12.5C 128.99,10.7202 130.99,10.0535 133.5,10.5 Z"/></g>
<g><path style="opacity:0.984" fill="#d4c1d7" d="M 133.5,10.5 C 136.045,11.4376 136.545,12.7709 135,14.5C 133.955,13.6266 133.122,12.6266 132.5,11.5C 133.167,11.5 133.5,11.1667 133.5,10.5 Z"/></g>
<g><path style="opacity:0.267" fill="#42264b" d="M 10.5,10.5 C 11.9952,10.9887 13.3285,11.6554 14.5,12.5C 13.8333,12.5 13.5,12.8333 13.5,13.5C 13.1667,13.5 12.8333,13.5 12.5,13.5C 12.1667,13.5 11.8333,13.5 11.5,13.5C 10.8902,12.609 10.5569,11.609 10.5,10.5 Z"/></g>
<g><path style="opacity:0.482" fill="#2d1540" d="M 30.5,13.5 C 29.1667,13.5 27.8333,13.5 26.5,13.5C 25.5,13.5 24.5,13.5 23.5,13.5C 24.3121,12.0069 25.6455,11.3402 27.5,11.5C 29.0296,11.6399 30.0296,12.3065 30.5,13.5 Z"/></g>
<g><path style="opacity:0.329" fill="#2c1d53" d="M 96.5,10.5 C 96.3284,11.4916 96.6618,12.1583 97.5,12.5C 97.5,12.8333 97.5,13.1667 97.5,13.5C 96.5489,14.9187 96.2155,16.5853 96.5,18.5C 95.8333,17.5 95.1667,16.5 94.5,15.5C 94.6716,14.5084 94.3382,13.8417 93.5,13.5C 93.8564,11.8102 94.8564,10.8102 96.5,10.5 Z"/></g>
<g><path style="opacity:0.953" fill="#b8b7be" d="M 150.5,13.5 C 149.521,16.6248 149.187,19.9581 149.5,23.5C 148.662,23.1583 148.328,22.4916 148.5,21.5C 148.5,19.1667 148.5,16.8333 148.5,14.5C 148.5,13.1667 148.5,11.8333 148.5,10.5C 151.248,10.4017 151.914,11.4017 150.5,13.5 Z"/></g>
<g><path style="opacity:1" fill="#1f1a52" d="M 1.5,12.5 C 1.5,12.8333 1.5,13.1667 1.5,13.5C 0.538616,15.2646 0.205283,17.2646 0.5,19.5C 0.166667,19.5 -0.166667,19.5 -0.5,19.5C -0.5,16.8333 -0.5,14.1667 -0.5,11.5C 0.966513,8.74165 1.63318,9.07498 1.5,12.5 Z"/></g>
<g><path style="opacity:0.996" fill="#ebe9ef" d="M 1.5,12.5 C 1.83333,12.5 2.16667,12.5 2.5,12.5C 3.16667,12.5 3.5,12.8333 3.5,13.5C 3.16667,14.1667 2.83333,14.8333 2.5,15.5C 1.66175,15.1583 1.32842,14.4916 1.5,13.5C 1.5,13.1667 1.5,12.8333 1.5,12.5 Z"/></g>
<g><path style="opacity:0.847" fill="#efe9ef" d="M 40.5,13.5 C 40.5,14.1667 40.1667,14.5 39.5,14.5C 38.2719,15.3065 37.2719,16.3065 36.5,17.5C 35.6618,17.1583 35.3284,16.4916 35.5,15.5C 36.7804,14.0687 38.4471,13.4021 40.5,13.5 Z"/></g>
<g><path style="opacity:0.953" fill="#f5f9fd" d="M 43.5,14.5 C 43.6633,16.8568 43.4966,19.1902 43,21.5C 42.79,19.9419 42.29,18.6085 41.5,17.5C 41.5,17.1667 41.5,16.8333 41.5,16.5C 42.1098,15.609 42.4431,14.609 42.5,13.5C 43.0447,9.82837 43.3781,10.1617 43.5,14.5 Z"/></g>
<g><path style="opacity:0.841" fill="#e1c9e3" d="M 74.5,12.5 C 73.1667,12.5 71.8333,12.5 70.5,12.5C 70.5,14.1667 70.5,15.8333 70.5,17.5C 70.1667,17.5 69.8333,17.5 69.5,17.5C 69.5,15.5 69.5,13.5 69.5,11.5C 71.4147,11.2155 73.0813,11.5489 74.5,12.5 Z"/></g>
<g><path style="opacity:0.596" fill="#331937" d="M 98.5,9.5 C 99.1667,9.5 99.5,9.83333 99.5,10.5C 99.5,11.5 99.5,12.5 99.5,13.5C 99.5,14.1667 99.5,14.8333 99.5,15.5C 99.5,16.8333 99.5,18.1667 99.5,19.5C 99.5,20.1667 99.1667,20.5 98.5,20.5C 98.8016,17.9407 98.4682,15.6074 97.5,13.5C 97.5,13.1667 97.5,12.8333 97.5,12.5C 98.404,11.791 98.7373,10.791 98.5,9.5 Z"/></g>
<g><path style="opacity:1" fill="#ddd1dd" d="M 103.5,11.5 C 104.167,12.8333 104.833,14.1667 105.5,15.5C 103.744,16.5521 103.077,18.2188 103.5,20.5C 103.5,20.8333 103.5,21.1667 103.5,21.5C 102.833,19.5 102.167,17.5 101.5,15.5C 100.833,15.5 100.167,15.5 99.5,15.5C 99.5,14.8333 99.5,14.1667 99.5,13.5C 100.833,12.8333 102.167,12.1667 103.5,11.5 Z"/></g>
<g><path style="opacity:0.969" fill="#e6d7ec" d="M 109.5,13.5 C 111.099,13.2322 112.432,13.5655 113.5,14.5C 112.833,14.5 112.5,14.8333 112.5,15.5C 111.041,15.4326 109.708,15.7659 108.5,16.5C 108.167,16.5 107.833,16.5 107.5,16.5C 108.167,15.5 108.833,14.5 109.5,13.5 Z"/></g>
<g><path style="opacity:0.788" fill="#c7bbd3" d="M 117.5,10.5 C 118.8,12.223 119.467,14.3897 119.5,17C 119.167,19.1667 118.833,21.3333 118.5,23.5C 116.976,22.4729 116.309,20.9729 116.5,19C 117.031,16.1834 117.364,13.35 117.5,10.5 Z"/></g>
<g><path style="opacity:0.929" fill="#e6d8e9" d="M 127.5,12.5 C 127.833,12.5 128.167,12.5 128.5,12.5C 129.487,15.0858 131.487,16.4191 134.5,16.5C 134.5,16.8333 134.5,17.1667 134.5,17.5C 133.833,17.5 133.5,17.8333 133.5,18.5C 128.869,18.5441 126.869,16.5441 127.5,12.5 Z"/></g>
<g><path style="opacity:0.863" fill="#e7dada" d="M 141.5,13.5 C 142.5,13.5 143.5,13.5 144.5,13.5C 146.834,15.1757 147.834,17.509 147.5,20.5C 147.167,20.5 146.833,20.5 146.5,20.5C 146.167,20.5 145.833,20.5 145.5,20.5C 145.88,18.302 145.213,16.6354 143.5,15.5C 142.833,14.8333 142.167,14.1667 141.5,13.5 Z"/></g>
<g><path style="opacity:0.102" fill="#2c2042" d="M 144.5,13.5 C 145.959,13.4326 147.292,13.7659 148.5,14.5C 148.5,16.8333 148.5,19.1667 148.5,21.5C 147.833,21.5 147.5,21.1667 147.5,20.5C 147.834,17.509 146.834,15.1757 144.5,13.5 Z"/></g>
<g><path style="opacity:0.918" fill="#dfd7e8" d="M 168.5,14.5 C 167.209,14.2627 166.209,14.596 165.5,15.5C 165.167,15.5 164.833,15.5 164.5,15.5C 163.833,15.5 163.167,15.5 162.5,15.5C 163.382,13.9157 164.215,12.249 165,10.5C 166.032,12.0267 167.199,13.36 168.5,14.5 Z"/></g>
<g><path style="opacity:0.898" fill="#e7dcee" d="M 182.5,15.5 C 181.833,15.5 181.5,15.8333 181.5,16.5C 181.167,16.5 180.833,16.5 180.5,16.5C 179.167,15.1667 177.833,15.1667 176.5,16.5C 176.167,16.5 175.833,16.5 175.5,16.5C 175.167,16.5 174.833,16.5 174.5,16.5C 176.859,13.0242 179.526,12.6908 182.5,15.5 Z"/></g>
<g><path style="opacity:0.963" fill="#dbc8e0" d="M 192.5,14.5 C 191.662,14.8417 191.328,15.5084 191.5,16.5C 191.167,16.5 190.833,16.5 190.5,16.5C 190.158,15.6618 189.492,15.3284 188.5,15.5C 188.5,15.1667 188.5,14.8333 188.5,14.5C 189.833,13.1667 191.167,13.1667 192.5,14.5 Z"/></g>
<g><path style="opacity:0.769" fill="#2f1a4a" d="M 9.5,13.5 C 9.5,13.8333 9.5,14.1667 9.5,14.5C 8.83333,14.5 8.16667,14.5 7.5,14.5C 6.50838,14.3284 5.84171,14.6618 5.5,15.5C 5.16667,15.5 4.83333,15.5 4.5,15.5C 4.5,14.8333 4.5,14.1667 4.5,13.5C 6.16667,12.1667 7.83333,12.1667 9.5,13.5 Z"/></g>
<g><path style="opacity:0.345" fill="#502f54" d="M 22.5,13.5 C 22.8333,13.5 23.1667,13.5 23.5,13.5C 24.5,13.5 25.5,13.5 26.5,13.5C 25.8902,14.391 25.5569,15.391 25.5,16.5C 24.8826,16.3893 24.3826,16.056 24,15.5C 23.5026,18.146 23.3359,20.8127 23.5,23.5C 23.1667,23.5 22.8333,23.5 22.5,23.5C 22.5,20.1667 22.5,16.8333 22.5,13.5 Z"/></g>
<g><path style="opacity:1" fill="#dccee1" d="M 26.5,13.5 C 27.8333,13.5 29.1667,13.5 30.5,13.5C 31.8333,13.5 32.5,14.1667 32.5,15.5C 31.8333,16.1667 31.1667,16.8333 30.5,17.5C 30.5299,16.5028 30.0299,15.8361 29,15.5C 27.8615,15.9891 26.6948,16.3225 25.5,16.5C 25.5569,15.391 25.8902,14.391 26.5,13.5 Z"/></g>
<g><path style="opacity:0.878" fill="#c9c0dc" d="M 40.5,13.5 C 41.1667,13.5 41.8333,13.5 42.5,13.5C 42.4431,14.609 42.1098,15.609 41.5,16.5C 40.5,16.1667 39.8333,15.5 39.5,14.5C 40.1667,14.5 40.5,14.1667 40.5,13.5 Z"/></g>
<g><path style="opacity:0.922" fill="#e1d9df" d="M 46.5,13.5 C 48.288,13.2148 49.9547,13.5481 51.5,14.5C 51.0431,15.2975 50.3764,15.6309 49.5,15.5C 48.5318,17.6074 48.1984,19.9407 48.5,22.5C 47.8333,22.8333 47.1667,23.1667 46.5,23.5C 46.5,20.1667 46.5,16.8333 46.5,13.5 Z"/></g>
<g><path style="opacity:0.937" fill="#cfcadd" d="M 90.5,13.5 C 89.8333,14.1667 89.1667,14.8333 88.5,15.5C 87.8333,15.5 87.5,15.8333 87.5,16.5C 86.8333,17.8333 86.1667,19.1667 85.5,20.5C 83.9188,16.0199 85.5855,13.6865 90.5,13.5 Z"/></g>
<g><path style="opacity:0.902" fill="#ddd3ee" d="M 90.5,13.5 C 91.1667,13.8333 91.8333,14.1667 92.5,14.5C 92.5,15.1667 92.5,15.8333 92.5,16.5C 92.1667,16.5 91.8333,16.5 91.5,16.5C 90.791,15.596 89.791,15.2627 88.5,15.5C 89.1667,14.8333 89.8333,14.1667 90.5,13.5 Z"/></g>
<g><path style="opacity:0.925" fill="#a195bd" d="M 109.5,13.5 C 108.833,14.5 108.167,15.5 107.5,16.5C 107.167,16.5 106.833,16.5 106.5,16.5C 106.5,14.5 107.5,13.5 109.5,13.5 Z"/></g>
<g><path style="opacity:0.898" fill="#cac5da" d="M 141.5,13.5 C 142.167,14.1667 142.833,14.8333 143.5,15.5C 142.833,15.5 142.167,15.5 141.5,15.5C 140.833,15.5 140.5,15.8333 140.5,16.5C 140.167,16.5 139.833,16.5 139.5,16.5C 138.549,17.9187 138.216,19.5853 138.5,21.5C 137.549,20.0813 137.216,18.4147 137.5,16.5C 138.262,14.7376 139.596,13.7376 141.5,13.5 Z"/></g>
<g><path style="opacity:0.867" fill="#eae4fa" d="M 200.5,13.5 C 199.833,14.1667 199.167,14.8333 198.5,15.5C 197.662,15.8417 197.328,16.5084 197.5,17.5C 197.062,18.5063 196.396,18.5063 195.5,17.5C 195.746,14.5299 197.412,13.1966 200.5,13.5 Z"/></g>
<g><path style="opacity:0.941" fill="#cfb6cb" d="M 200.5,13.5 C 204.322,16.5057 203.655,17.1724 198.5,15.5C 199.167,14.8333 199.833,14.1667 200.5,13.5 Z"/></g>
<g><path style="opacity:0.231" fill="#2d1557" d="M 7.5,14.5 C 8.16667,14.5 8.83333,14.5 9.5,14.5C 9.5,15.8333 9.5,17.1667 9.5,18.5C 7.90097,18.7678 6.56764,18.4345 5.5,17.5C 7.04814,17.1788 7.71481,16.1788 7.5,14.5 Z"/></g>
<g><path style="opacity:0.643" fill="#f4e0f8" d="M 53.5,14.5 C 56.0009,14.5109 56.1676,15.1776 54,16.5C 53.5357,15.9056 53.369,15.2389 53.5,14.5 Z"/></g>
<g><path style="opacity:0.878" fill="#e4d8eb" d="M 60.5,16.5 C 59.8333,16.8333 59.1667,17.1667 58.5,17.5C 58.281,16.325 58.6143,15.325 59.5,14.5C 60.2975,14.9569 60.6309,15.6236 60.5,16.5 Z"/></g>
<g><path style="opacity:1" fill="#ead8f4" d="M 97.5,13.5 C 98.4682,15.6074 98.8016,17.9407 98.5,20.5C 98.719,21.675 98.3857,22.675 97.5,23.5C 96.5481,21.9547 96.2148,20.288 96.5,18.5C 96.2155,16.5853 96.5489,14.9187 97.5,13.5 Z"/></g>
<g><path style="opacity:0.812" fill="#a48a9b" d="M 168.5,14.5 C 167.631,16.717 167.298,19.0504 167.5,21.5C 165.692,20.0821 165.025,18.0821 165.5,15.5C 166.209,14.596 167.209,14.2627 168.5,14.5 Z"/></g>
<g><path style="opacity:0.957" fill="#ece1d6" d="M 185.5,13.5 C 186.609,13.5569 187.609,13.8902 188.5,14.5C 188.5,14.8333 188.5,15.1667 188.5,15.5C 188.098,18.4766 187.098,21.1433 185.5,23.5C 185.5,20.1667 185.5,16.8333 185.5,13.5 Z"/></g>
<g><path style="opacity:0.345" fill="#30244e" d="M 9.5,13.5 C 10.4511,14.9187 10.7845,16.5853 10.5,18.5C 10.2172,19.2891 9.71719,19.9558 9,20.5C 8.02278,19.2264 7.18944,19.2264 6.5,20.5C 6.5,21.1667 6.16667,21.5 5.5,21.5C 4.85048,19.5648 4.51715,17.5648 4.5,15.5C 4.83333,15.5 5.16667,15.5 5.5,15.5C 5.5,16.1667 5.5,16.8333 5.5,17.5C 6.56764,18.4345 7.90097,18.7678 9.5,18.5C 9.5,17.1667 9.5,15.8333 9.5,14.5C 9.5,14.1667 9.5,13.8333 9.5,13.5 Z"/></g>
<g><path style="opacity:1" fill="#2b2043" d="M 30.5,17.5 C 28.901,17.2322 27.5676,17.5655 26.5,18.5C 26.1667,18.5 25.8333,18.5 25.5,18.5C 25.5,17.8333 25.5,17.1667 25.5,16.5C 26.6948,16.3225 27.8615,15.9891 29,15.5C 30.0299,15.8361 30.5299,16.5028 30.5,17.5 Z"/></g>
<g><path style="opacity:0.931" fill="#ece2d7" d="M 78.5,14.5 C 79.8458,16.7918 79.5124,18.7918 77.5,20.5C 77.5,19.8333 77.5,19.1667 77.5,18.5C 77.5,17.5 77.5,16.5 77.5,15.5C 77.5,14.8333 77.8333,14.5 78.5,14.5 Z"/></g>
<g><path style="opacity:0.153" fill="#251744" d="M 112.5,15.5 C 112.672,16.4916 112.338,17.1583 111.5,17.5C 110.5,17.5 109.5,17.5 108.5,17.5C 108.5,17.1667 108.5,16.8333 108.5,16.5C 109.708,15.7659 111.041,15.4326 112.5,15.5 Z"/></g>
<g><path style="opacity:0.919" fill="#efe8df" d="M 150.5,13.5 C 150.318,15.5914 150.652,17.5914 151.5,19.5C 151.006,21.0255 150.339,22.3588 149.5,23.5C 149.187,19.9581 149.521,16.6248 150.5,13.5 Z"/></g>
<g><path style="opacity:0.949" fill="#e8dee9" d="M 192.5,14.5 C 193.797,16.6934 193.797,19.0268 192.5,21.5C 191.548,19.9547 191.215,18.288 191.5,16.5C 191.328,15.5084 191.662,14.8417 192.5,14.5 Z"/></g>
<g><path style="opacity:1" fill="#d0c8dc" d="M 1.5,13.5 C 1.32842,14.4916 1.66175,15.1583 2.5,15.5C 2.46095,18.089 3.46095,20.089 5.5,21.5C 6.16667,21.5 6.5,21.1667 6.5,20.5C 7.33825,20.8417 7.67158,21.5084 7.5,22.5C 6.20895,22.2627 5.20895,22.596 4.5,23.5C 3.83333,23.1667 3.16667,22.8333 2.5,22.5C 2.5,21.8333 2.16667,21.5 1.5,21.5C 1.67158,20.5084 1.33825,19.8417 0.5,19.5C 0.205283,17.2646 0.538616,15.2646 1.5,13.5 Z"/></g>
<g><path style="opacity:1" fill="#e3d2f7" d="M 14.5,13.5 C 15.8333,13.5 16.5,14.1667 16.5,15.5C 16.5,17.1667 16.5,18.8333 16.5,20.5C 15.6618,20.8417 15.3284,21.5084 15.5,22.5C 14.5233,19.7131 14.19,16.7131 14.5,13.5 Z"/></g>
<g><path style="opacity:0.212" fill="#282244" d="M 18.5,17.5 C 18.8417,16.6618 19.5084,16.3284 20.5,16.5C 20.9227,18.7812 20.256,20.4479 18.5,21.5C 19.3543,19.965 19.3543,18.6316 18.5,17.5 Z"/></g>
<g><path style="opacity:1" fill="#2c1b46" d="M 25.5,16.5 C 25.5,17.1667 25.5,17.8333 25.5,18.5C 24.2801,20.0496 24.2801,21.7163 25.5,23.5C 24.8333,23.5 24.1667,23.5 23.5,23.5C 23.3359,20.8127 23.5026,18.146 24,15.5C 24.3826,16.056 24.8826,16.3893 25.5,16.5 Z"/></g>
<g><path style="opacity:1" fill="#dfd9f2" d="M 26.5,18.5 C 27.5676,17.5655 28.901,17.2322 30.5,17.5C 30.5,17.8333 30.5,18.1667 30.5,18.5C 29.8333,18.5 29.5,18.8333 29.5,19.5C 29.1667,19.5 28.8333,19.5 28.5,19.5C 28.1583,18.6618 27.4916,18.3284 26.5,18.5 Z"/></g>
<g><path style="opacity:0.942" fill="#d8cde1" d="M 35.5,15.5 C 35.3284,16.4916 35.6618,17.1583 36.5,17.5C 36.8333,18.1667 37.1667,18.8333 37.5,19.5C 37.5,21.5 38.5,22.5 40.5,22.5C 40.5,22.8333 40.5,23.1667 40.5,23.5C 39.1667,23.5 37.8333,23.5 36.5,23.5C 34.8325,21.5214 34.1658,19.188 34.5,16.5C 34.5,15.8333 34.8333,15.5 35.5,15.5 Z"/></g>
<g><path style="opacity:0.839" fill="#dcc2d4" d="M 92.5,14.5 C 92.5,13.8333 92.8333,13.5 93.5,13.5C 94.3382,13.8417 94.6716,14.5084 94.5,15.5C 94.81,18.7131 94.4767,21.7131 93.5,24.5C 93.8128,20.9581 93.4794,17.6248 92.5,14.5 Z"/></g>
<g><path style="opacity:0.149" fill="#291959" d="M 99.5,15.5 C 100.167,15.5 100.833,15.5 101.5,15.5C 101.5,17.1667 101.5,18.8333 101.5,20.5C 100.833,20.1667 100.167,19.8333 99.5,19.5C 99.5,18.1667 99.5,16.8333 99.5,15.5 Z"/></g>
<g><path style="opacity:1" fill="#f0e7f6" d="M 101.5,15.5 C 102.167,17.5 102.833,19.5 103.5,21.5C 104.167,21.5 104.833,21.5 105.5,21.5C 105.53,22.4972 105.03,23.1639 104,23.5C 102.251,23.2517 101.418,22.2517 101.5,20.5C 101.5,18.8333 101.5,17.1667 101.5,15.5 Z"/></g>
<g><path style="opacity:0.145" fill="#2f1441" d="M 105.5,15.5 C 105.5,16.1667 105.833,16.5 106.5,16.5C 106.5,16.8333 106.5,17.1667 106.5,17.5C 105.167,18.1667 105.167,18.8333 106.5,19.5C 106.5,20.1667 106.5,20.8333 106.5,21.5C 106.167,21.5 105.833,21.5 105.5,21.5C 105.158,20.6618 104.492,20.3284 103.5,20.5C 103.077,18.2188 103.744,16.5521 105.5,15.5 Z"/></g>
<g><path style="opacity:0.988" fill="#c0c0d1" d="M 112.5,15.5 C 113.833,17.5 113.833,19.5 112.5,21.5C 112.672,20.5084 112.338,19.8417 111.5,19.5C 111.5,18.8333 111.5,18.1667 111.5,17.5C 112.338,17.1583 112.672,16.4916 112.5,15.5 Z"/></g>
<g><path style="opacity:1" fill="#e6daf2" d="M 164.5,15.5 C 164.833,15.5 165.167,15.5 165.5,15.5C 165.025,18.0821 165.692,20.0821 167.5,21.5C 168.751,22.472 168.418,23.1386 166.5,23.5C 165.287,23.2528 164.62,22.5862 164.5,21.5C 164.5,19.5 164.5,17.5 164.5,15.5 Z"/></g>
<g><path style="opacity:0.925" fill="#e3dddc" d="M 182.5,15.5 C 183.167,15.5 183.5,15.8333 183.5,16.5C 183.5,17.8333 183.5,19.1667 183.5,20.5C 182.833,20.1667 182.167,19.8333 181.5,19.5C 181.5,18.5 181.5,17.5 181.5,16.5C 181.5,15.8333 181.833,15.5 182.5,15.5 Z"/></g>
<g><path style="opacity:0.278" fill="#441f3a" d="M 3.5,13.5 C 3.83333,13.5 4.16667,13.5 4.5,13.5C 4.5,14.1667 4.5,14.8333 4.5,15.5C 4.51715,17.5648 4.85048,19.5648 5.5,21.5C 3.46095,20.089 2.46095,18.089 2.5,15.5C 2.83333,14.8333 3.16667,14.1667 3.5,13.5 Z"/></g>
<g><path style="opacity:0.075" fill="#30182e" d="M 16.5,15.5 C 17.1667,16.1667 17.8333,16.8333 18.5,17.5C 19.3543,18.6316 19.3543,19.965 18.5,21.5C 18.1667,21.5 17.8333,21.5 17.5,21.5C 16.8333,21.5 16.5,21.1667 16.5,20.5C 16.5,18.8333 16.5,17.1667 16.5,15.5 Z"/></g>
<g><path style="opacity:0.169" fill="#242045" d="M 33.5,16.5 C 33.8333,16.5 34.1667,16.5 34.5,16.5C 34.1658,19.188 34.8325,21.5214 36.5,23.5C 35.391,23.4431 34.391,23.1098 33.5,22.5C 33.5,20.5 33.5,18.5 33.5,16.5 Z"/></g>
<g><path style="opacity:0.788" fill="#c7c2d1" d="M 53.5,18.5 C 54.5676,17.5655 55.901,17.2322 57.5,17.5C 58.2778,18.1556 58.9444,18.9889 59.5,20C 59.4301,20.7648 59.0967,21.2648 58.5,21.5C 58.5,21.1667 58.5,20.8333 58.5,20.5C 58.5,19.8333 58.1667,19.5 57.5,19.5C 56.8333,19.5 56.1667,19.5 55.5,19.5C 55.1583,18.6618 54.4916,18.3284 53.5,18.5 Z"/></g>
<g><path style="opacity:0.306" fill="#607298" d="M 91.5,16.5 C 91.8333,16.5 92.1667,16.5 92.5,16.5C 92.9227,18.7812 92.256,20.4479 90.5,21.5C 91.3007,19.9582 91.634,18.2915 91.5,16.5 Z"/></g>
<g><path style="opacity:0.11" fill="#322d4e" d="M 106.5,17.5 C 107.167,17.5 107.833,17.5 108.5,17.5C 108.5,17.8333 108.5,18.1667 108.5,18.5C 107.833,18.8333 107.167,19.1667 106.5,19.5C 105.167,18.8333 105.167,18.1667 106.5,17.5 Z"/></g>
<g><path style="opacity:0.933" fill="#e4d3ef" d="M 108.5,18.5 C 108.5,18.1667 108.5,17.8333 108.5,17.5C 109.5,17.5 110.5,17.5 111.5,17.5C 111.5,18.1667 111.5,18.8333 111.5,19.5C 110.833,19.5 110.167,19.5 109.5,19.5C 109.5,18.8333 109.167,18.5 108.5,18.5 Z"/></g>
<g><path style="opacity:1" fill="#d2d4de" d="M 134.5,17.5 C 136.69,18.7476 137.023,20.4143 135.5,22.5C 134.508,22.6716 133.842,22.3382 133.5,21.5C 133.5,20.5 133.5,19.5 133.5,18.5C 133.5,17.8333 133.833,17.5 134.5,17.5 Z"/></g>
<g><path style="opacity:0.196" fill="#572439" d="M 139.5,16.5 C 139.833,16.5 140.167,16.5 140.5,16.5C 140.833,16.5 141.167,16.5 141.5,16.5C 141.5,17.1667 141.5,17.8333 141.5,18.5C 141.5,19.5 141.5,20.5 141.5,21.5C 139.787,20.3646 139.12,18.698 139.5,16.5 Z"/></g>
<g><path style="opacity:0.118" fill="#181866" d="M 143.5,17.5 C 144.404,18.209 144.737,19.209 144.5,20.5C 143.167,20.5 142.5,19.8333 142.5,18.5C 142.5,17.8333 142.833,17.5 143.5,17.5 Z"/></g>
<g><path style="opacity:0.957" fill="#5e5f87" d="M 141.5,16.5 C 141.5,16.1667 141.5,15.8333 141.5,15.5C 142.167,15.5 142.833,15.5 143.5,15.5C 145.213,16.6354 145.88,18.302 145.5,20.5C 145.167,20.5 144.833,20.5 144.5,20.5C 144.737,19.209 144.404,18.209 143.5,17.5C 143.158,16.6618 142.492,16.3284 141.5,16.5 Z"/></g>
<g><path style="opacity:0.969" fill="#c0c5d8" d="M 174.5,16.5 C 174.833,16.5 175.167,16.5 175.5,16.5C 175.768,18.099 175.434,19.4324 174.5,20.5C 173.167,19.1667 173.167,17.8333 174.5,16.5 Z"/></g>
<g><path style="opacity:0.106" fill="#3b3563" d="M 185.5,13.5 C 185.5,16.8333 185.5,20.1667 185.5,23.5C 184.167,23.5 182.833,23.5 181.5,23.5C 182.167,22.5 182.833,21.5 183.5,20.5C 183.5,19.1667 183.5,17.8333 183.5,16.5C 184.167,15.5 184.833,14.5 185.5,13.5 Z"/></g>
<g><path style="opacity:0.086" fill="#290d5e" d="M 190.5,16.5 C 190.657,17.8734 190.49,19.2068 190,20.5C 189.235,18.9343 189.402,17.6009 190.5,16.5 Z"/></g>
<g><path style="opacity:0.773" fill="#bbb2c7" d="M 195.5,17.5 C 196.396,18.5063 197.062,18.5063 197.5,17.5C 199.553,17.4021 201.22,18.0687 202.5,19.5C 201.662,19.8417 201.328,20.5084 201.5,21.5C 199.279,20.3616 197.279,19.0283 195.5,17.5 Z"/></g>
<g><path style="opacity:1" fill="#e8dff0" d="M 25.5,18.5 C 25.8333,18.5 26.1667,18.5 26.5,18.5C 27.4916,18.3284 28.1583,18.6618 28.5,19.5C 25.9845,20.8597 26.3178,21.8597 29.5,22.5C 29.5,22.8333 29.5,23.1667 29.5,23.5C 28.1667,23.5 26.8333,23.5 25.5,23.5C 24.2801,21.7163 24.2801,20.0496 25.5,18.5 Z"/></g>
<g><path style="opacity:0.059" fill="#271c59" d="M 41.5,18.5 C 41.7373,19.791 41.404,20.791 40.5,21.5C 39.8333,21.5 39.5,21.1667 39.5,20.5C 39.8333,19.5 40.5,18.8333 41.5,18.5 Z"/></g>
<g><path style="opacity:0.933" fill="#e7daf0" d="M 53.5,18.5 C 54.4916,18.3284 55.1583,18.6618 55.5,19.5C 54.8333,19.5 54.5,19.8333 54.5,20.5C 54.5,21.1667 54.8333,21.5 55.5,21.5C 55.5,21.8333 55.5,22.1667 55.5,22.5C 54.8333,22.5 54.5,22.8333 54.5,23.5C 54.1667,23.5 53.8333,23.5 53.5,23.5C 53.1667,22.8333 52.8333,22.1667 52.5,21.5C 52.2627,20.209 52.596,19.209 53.5,18.5 Z"/></g>
<g><path style="opacity:0.973" fill="#fef7f0" d="M 60.5,16.5 C 60.7989,18.604 60.4656,20.604 59.5,22.5C 58.8933,22.3764 58.56,22.0431 58.5,21.5C 59.0967,21.2648 59.4301,20.7648 59.5,20C 58.9444,18.9889 58.2778,18.1556 57.5,17.5C 57.8333,17.5 58.1667,17.5 58.5,17.5C 59.1667,17.1667 59.8333,16.8333 60.5,16.5 Z"/></g>
<g><path style="opacity:0.945" fill="#c9c2bf" d="M 81.5,13.5 C 82.7773,14.6936 83.4439,16.3603 83.5,18.5C 83.1667,20.1667 82.8333,21.8333 82.5,23.5C 81.914,23.2907 81.414,22.9574 81,22.5C 80.2642,19.408 80.4309,16.408 81.5,13.5 Z"/></g>
<g><path style="opacity:0.984" fill="#d6d0e1" d="M 108.5,18.5 C 109.167,18.5 109.5,18.8333 109.5,19.5C 108.957,19.56 108.624,19.8933 108.5,20.5C 109.689,21.4287 111.022,21.762 112.5,21.5C 112.833,22.1667 113.167,22.8333 113.5,23.5C 111.473,23.6621 109.473,23.4955 107.5,23C 106.944,22.6174 106.611,22.1174 106.5,21.5C 106.5,20.8333 106.5,20.1667 106.5,19.5C 107.167,19.1667 107.833,18.8333 108.5,18.5 Z"/></g>
<g><path style="opacity:0.951" fill="#eddcd2" d="M 112.5,15.5 C 112.5,14.8333 112.833,14.5 113.5,14.5C 114.117,14.6107 114.617,14.944 115,15.5C 115.167,16.8333 115.333,18.1667 115.5,19.5C 115.415,21.3328 114.748,22.6661 113.5,23.5C 113.167,22.8333 112.833,22.1667 112.5,21.5C 113.833,19.5 113.833,17.5 112.5,15.5 Z"/></g>
<g><path style="opacity:0.173" fill="#3f1d37" d="M 134.5,17.5 C 134.5,17.1667 134.5,16.8333 134.5,16.5C 135.5,16.5 136.5,16.5 137.5,16.5C 137.216,18.4147 137.549,20.0813 138.5,21.5C 138.5,21.8333 138.5,22.1667 138.5,22.5C 137.5,22.5 136.5,22.5 135.5,22.5C 137.023,20.4143 136.69,18.7476 134.5,17.5 Z"/></g>
<g><path style="opacity:0.255" fill="#2d1a59" d="M 159.5,17.5 C 159.5,18.5 159.5,19.5 159.5,20.5C 158.609,21.1098 157.609,21.4431 156.5,21.5C 156.088,19.0274 157.088,17.6941 159.5,17.5 Z"/></g>
<g><path style="opacity:0.976" fill="#f0e5e5" d="M 161.5,17.5 C 161.5,18.8333 161.5,20.1667 161.5,21.5C 161.5,22.8333 160.833,23.5 159.5,23.5C 159.5,22.5 159.5,21.5 159.5,20.5C 159.5,19.5 159.5,18.5 159.5,17.5C 159.737,13.7113 160.404,13.7113 161.5,17.5 Z"/></g>
<g><path style="opacity:0.114" fill="#2c1956" d="M 162.5,15.5 C 163.167,15.5 163.833,15.5 164.5,15.5C 164.5,17.5 164.5,19.5 164.5,21.5C 163.5,20.1667 162.5,20.1667 161.5,21.5C 161.5,20.1667 161.5,18.8333 161.5,17.5C 162.338,17.1583 162.672,16.4916 162.5,15.5 Z"/></g>
<g><path style="opacity:0.671" fill="#afacb4" d="M 171.5,13.5 C 172.479,16.6248 172.813,19.9581 172.5,23.5C 171.5,23.5 170.5,23.5 169.5,23.5C 169.06,19.8215 169.727,16.4882 171.5,13.5 Z"/></g>
<g><path style="opacity:0.976" fill="#ecddeb" d="M 11.5,13.5 C 11.8333,13.5 12.1667,13.5 12.5,13.5C 12.7489,17.4578 12.0823,21.1244 10.5,24.5C 10.5983,21.7524 9.59829,21.0857 7.5,22.5C 7.67158,21.5084 7.33825,20.8417 6.5,20.5C 7.18944,19.2264 8.02278,19.2264 9,20.5C 9.71719,19.9558 10.2172,19.2891 10.5,18.5C 11.4511,17.0813 11.7845,15.4147 11.5,13.5 Z"/></g>
<g><path style="opacity:0.333" fill="#433049" d="M 28.5,19.5 C 28.8333,19.5 29.1667,19.5 29.5,19.5C 30.625,20.3478 30.625,21.3478 29.5,22.5C 26.3178,21.8597 25.9845,20.8597 28.5,19.5 Z"/></g>
<g><path style="opacity:0.925" fill="#dfd1c5" d="M 32.5,15.5 C 33.1667,15.5 33.5,15.8333 33.5,16.5C 33.5,18.5 33.5,20.5 33.5,22.5C 33.1583,23.3382 32.4916,23.6716 31.5,23.5C 31.7845,21.5853 31.4511,19.9187 30.5,18.5C 30.5,18.1667 30.5,17.8333 30.5,17.5C 31.1667,16.8333 31.8333,16.1667 32.5,15.5 Z"/></g>
<g><path style="opacity:0.118" fill="#4b324b" d="M 37.5,19.5 C 38.1667,19.8333 38.8333,20.1667 39.5,20.5C 39.5,21.1667 39.8333,21.5 40.5,21.5C 40.5,21.8333 40.5,22.1667 40.5,22.5C 38.5,22.5 37.5,21.5 37.5,19.5 Z"/></g>
<g><path style="opacity:0.255" fill="#463448" d="M 46.5,13.5 C 46.5,16.8333 46.5,20.1667 46.5,23.5C 45.3478,24.625 44.3478,24.625 43.5,23.5C 44.4731,21.0521 44.8064,18.3854 44.5,15.5C 45.1667,14.8333 45.8333,14.1667 46.5,13.5 Z"/></g>
<g><path style="opacity:0.067" fill="#371234" d="M 49.5,15.5 C 49.7036,17.6854 50.3702,19.6854 51.5,21.5C 51.5,22.1667 51.5,22.8333 51.5,23.5C 50.5041,23.4142 49.6708,23.7476 49,24.5C 48.5357,23.9056 48.369,23.2389 48.5,22.5C 48.1984,19.9407 48.5318,17.6074 49.5,15.5 Z"/></g>
<g><path style="opacity:0.11" fill="#44324f" d="M 54.5,20.5 C 54.5,19.8333 54.8333,19.5 55.5,19.5C 56.1667,19.5 56.8333,19.5 57.5,19.5C 58.1667,19.5 58.5,19.8333 58.5,20.5C 58.5,20.8333 58.5,21.1667 58.5,21.5C 57.609,22.1098 56.609,22.4431 55.5,22.5C 55.5,22.1667 55.5,21.8333 55.5,21.5C 54.8333,21.5 54.5,21.1667 54.5,20.5 Z"/></g>
<g><path style="opacity:0.935" fill="#baa8cd" d="M 68.5,15.5 C 68.2465,17.4008 68.5798,18.0674 69.5,17.5C 69.8333,17.5 70.1667,17.5 70.5,17.5C 70.5,18.8333 70.5,20.1667 70.5,21.5C 71.8333,21.5 73.1667,21.5 74.5,21.5C 72.8333,22.1667 71.1667,22.8333 69.5,23.5C 67.9735,22.5081 67.3068,21.0081 67.5,19C 67.5143,17.6153 67.8476,16.4486 68.5,15.5 Z"/></g>
<g><path style="opacity:0.957" fill="#f2ebf8" d="M 77.5,18.5 C 77.5,19.1667 77.5,19.8333 77.5,20.5C 75.6086,23.1717 72.9419,24.1717 69.5,23.5C 71.1667,22.8333 72.8333,22.1667 74.5,21.5C 75.7281,20.6935 76.7281,19.6935 77.5,18.5 Z"/></g>
<g><path style="opacity:0.129" fill="#3a2b45" d="M 109.5,19.5 C 110.167,19.5 110.833,19.5 111.5,19.5C 112.338,19.8417 112.672,20.5084 112.5,21.5C 111.022,21.762 109.689,21.4287 108.5,20.5C 108.624,19.8933 108.957,19.56 109.5,19.5 Z"/></g>
<g><path style="opacity:0.075" fill="#31133e" d="M 141.5,18.5 C 141.833,18.5 142.167,18.5 142.5,18.5C 142.5,19.8333 143.167,20.5 144.5,20.5C 143.791,21.404 142.791,21.7373 141.5,21.5C 141.5,20.5 141.5,19.5 141.5,18.5 Z"/></g>
<g><path style="opacity:0.886" fill="#bbb8cf" d="M 156.5,21.5 C 157.167,22.1667 157.833,22.8333 158.5,23.5C 156.836,24.3062 155.169,23.9729 153.5,22.5C 152.425,19.562 152.259,16.562 153,13.5C 153.004,16.7916 154.17,19.4582 156.5,21.5 Z"/></g>
<g><path style="opacity:0.082" fill="#2a1c5b" d="M 180.5,16.5 C 180.833,16.5 181.167,16.5 181.5,16.5C 181.5,17.5 181.5,18.5 181.5,19.5C 181.167,20.1667 180.833,20.8333 180.5,21.5C 179.833,21.5 179.167,21.5 178.5,21.5C 179.942,20.1805 180.608,18.5138 180.5,16.5 Z"/></g>
<g><path style="opacity:1" fill="#331e5f" d="M -0.5,19.5 C -0.166667,19.5 0.166667,19.5 0.5,19.5C 1.33825,19.8417 1.67158,20.5084 1.5,21.5C 0.833333,21.8333 0.166667,22.1667 -0.5,22.5C -0.5,21.5 -0.5,20.5 -0.5,19.5 Z"/></g>
<g><path style="opacity:0.216" fill="#4e3145" d="M 12.5,13.5 C 12.8333,13.5 13.1667,13.5 13.5,13.5C 13.577,17.2148 13.2436,20.8815 12.5,24.5C 11.8333,25.8333 11.1667,25.8333 10.5,24.5C 12.0823,21.1244 12.7489,17.4578 12.5,13.5 Z"/></g>
<g><path style="opacity:0.971" fill="#f7ecfa" d="M 16.5,20.5 C 16.5,21.1667 16.8333,21.5 17.5,21.5C 18.1667,22.1667 18.8333,22.8333 19.5,23.5C 17.901,23.7678 16.5676,23.4345 15.5,22.5C 15.3284,21.5084 15.6618,20.8417 16.5,20.5 Z"/></g>
<g><path style="opacity:0.945" fill="#e6d8ed" d="M 22.5,13.5 C 22.5,16.8333 22.5,20.1667 22.5,23.5C 21.5,23.5 20.5,23.5 19.5,23.5C 18.8333,22.8333 18.1667,22.1667 17.5,21.5C 17.8333,21.5 18.1667,21.5 18.5,21.5C 20.256,20.4479 20.9227,18.7812 20.5,16.5C 20.2852,14.8212 20.9519,13.8212 22.5,13.5 Z"/></g>
<g><path style="opacity:0.955" fill="#c7bcc7" d="M 43.5,14.5 C 44.1667,14.5 44.5,14.8333 44.5,15.5C 44.8064,18.3854 44.4731,21.0521 43.5,23.5C 42.5,23.5 41.5,23.5 40.5,23.5C 40.5,23.1667 40.5,22.8333 40.5,22.5C 40.5,22.1667 40.5,21.8333 40.5,21.5C 41.404,20.791 41.7373,19.791 41.5,18.5C 41.5,18.1667 41.5,17.8333 41.5,17.5C 42.29,18.6085 42.79,19.9419 43,21.5C 43.4966,19.1902 43.6633,16.8568 43.5,14.5 Z"/></g>
<g><path style="opacity:0.929" fill="#c7c3d3" d="M 87.5,16.5 C 87.5,18.1667 87.5,19.8333 87.5,21.5C 87.8333,22.1667 88.1667,22.8333 88.5,23.5C 86.5,23.5 85.5,22.5 85.5,20.5C 86.1667,19.1667 86.8333,17.8333 87.5,16.5 Z"/></g>
<g><path style="opacity:0.973" fill="#d1bad6" d="M 129.5,21.5 C 128.833,21.5 128.5,21.8333 128.5,22.5C 126.535,22.0517 126.202,21.0517 127.5,19.5C 128.522,19.8555 129.189,20.5222 129.5,21.5 Z"/></g>
<g><path style="opacity:0.98" fill="#eadcf1" d="M 139.5,16.5 C 139.12,18.698 139.787,20.3646 141.5,21.5C 141.167,22.1667 140.833,22.8333 140.5,23.5C 139.833,23.1667 139.167,22.8333 138.5,22.5C 138.5,22.1667 138.5,21.8333 138.5,21.5C 138.216,19.5853 138.549,17.9187 139.5,16.5 Z"/></g>
<g><path style="opacity:0.969" fill="#e0d5e2" d="M 144.5,20.5 C 144.833,20.5 145.167,20.5 145.5,20.5C 145.833,20.5 146.167,20.5 146.5,20.5C 146.586,21.4959 146.252,22.3292 145.5,23C 143.866,23.4935 142.199,23.6602 140.5,23.5C 140.833,22.8333 141.167,22.1667 141.5,21.5C 142.791,21.7373 143.791,21.404 144.5,20.5 Z"/></g>
<g><path style="opacity:0.961" fill="#ccbcd9" d="M 159.5,20.5 C 159.5,21.5 159.5,22.5 159.5,23.5C 159.167,23.5 158.833,23.5 158.5,23.5C 157.833,22.8333 157.167,22.1667 156.5,21.5C 157.609,21.4431 158.609,21.1098 159.5,20.5 Z"/></g>
<g><path style="opacity:0.976" fill="#c6b4c8" d="M 175.5,16.5 C 175.833,16.5 176.167,16.5 176.5,16.5C 176.12,18.698 176.787,20.3646 178.5,21.5C 179.167,21.5 179.833,21.5 180.5,21.5C 180.5,21.8333 180.5,22.1667 180.5,22.5C 178.901,22.2322 177.568,22.5655 176.5,23.5C 175.094,23.0269 174.427,22.0269 174.5,20.5C 175.434,19.4324 175.768,18.099 175.5,16.5 Z"/></g>
<g><path style="opacity:0.353" fill="#b9b8dc" d="M 194.5,21.5 C 195.077,20.2267 195.743,20.2267 196.5,21.5C 196.03,22.463 195.363,22.463 194.5,21.5 Z"/></g>
<g><path style="opacity:0.91" fill="#e3d0d3" d="M 202.5,19.5 C 203.797,20.8488 203.63,22.1821 202,23.5C 201.536,22.9056 201.369,22.2389 201.5,21.5C 201.328,20.5084 201.662,19.8417 202.5,19.5 Z"/></g>
<g><path style="opacity:0.424" fill="#321952" d="M 1.5,21.5 C 2.16667,21.5 2.5,21.8333 2.5,22.5C 1.89459,24.4812 0.894586,24.8146 -0.5,23.5C -0.5,23.1667 -0.5,22.8333 -0.5,22.5C 0.166667,22.1667 0.833333,21.8333 1.5,21.5 Z"/></g>
<g><path style="opacity:0.996" fill="#fcf5fb" d="M 10.5,24.5 C 10.1667,24.5 9.83333,24.5 9.5,24.5C 8.08134,23.5489 6.41467,23.2155 4.5,23.5C 5.20895,22.596 6.20895,22.2627 7.5,22.5C 9.59829,21.0857 10.5983,21.7524 10.5,24.5 Z"/></g>
<g><path style="opacity:0.173" fill="#381f56" d="M 14.5,12.5 C 14.5,12.8333 14.5,13.1667 14.5,13.5C 14.19,16.7131 14.5233,19.7131 15.5,22.5C 16.5676,23.4345 17.901,23.7678 19.5,23.5C 20.5,23.5 21.5,23.5 22.5,23.5C 22.8333,23.5 23.1667,23.5 23.5,23.5C 24.1667,23.5 24.8333,23.5 25.5,23.5C 26.8333,23.5 28.1667,23.5 29.5,23.5C 30.1667,23.5 30.8333,23.5 31.5,23.5C 25.3554,24.4902 19.0221,24.8235 12.5,24.5C 13.2436,20.8815 13.577,17.2148 13.5,13.5C 13.5,12.8333 13.8333,12.5 14.5,12.5 Z"/></g>
<g><path style="opacity:0.91" fill="#c7c5d9" d="M 29.5,19.5 C 29.5,18.8333 29.8333,18.5 30.5,18.5C 31.4511,19.9187 31.7845,21.5853 31.5,23.5C 30.8333,23.5 30.1667,23.5 29.5,23.5C 29.5,23.1667 29.5,22.8333 29.5,22.5C 30.625,21.3478 30.625,20.3478 29.5,19.5 Z"/></g>
<g><path style="opacity:0.98" fill="#c3b0bd" d="M 60.5,16.5 C 61.4682,18.6074 61.8016,20.9407 61.5,23.5C 58.9591,24.1032 56.6257,24.1032 54.5,23.5C 54.5,22.8333 54.8333,22.5 55.5,22.5C 56.609,22.4431 57.609,22.1098 58.5,21.5C 58.56,22.0431 58.8933,22.3764 59.5,22.5C 60.4656,20.604 60.7989,18.604 60.5,16.5 Z"/></g>
<g><path style="opacity:0.851" fill="#e2ddee" d="M 92.5,14.5 C 93.4794,17.6248 93.8128,20.9581 93.5,24.5C 93.5,25.1667 93.1667,25.5 92.5,25.5C 92.1667,25.5 91.8333,25.5 91.5,25.5C 91.1788,23.9519 90.1788,23.2852 88.5,23.5C 88.1667,22.8333 87.8333,22.1667 87.5,21.5C 88.5,21.5 89.5,21.5 90.5,21.5C 92.256,20.4479 92.9227,18.7812 92.5,16.5C 92.5,15.8333 92.5,15.1667 92.5,14.5 Z"/></g>
<g><path style="opacity:0.984" fill="#cebfd3" d="M 129.5,21.5 C 130.833,21.5 132.167,21.5 133.5,21.5C 133.842,22.3382 134.508,22.6716 135.5,22.5C 134.469,23.2485 133.302,23.9152 132,24.5C 130.698,23.9152 129.531,23.2485 128.5,22.5C 128.5,21.8333 128.833,21.5 129.5,21.5 Z"/></g>
<g><path style="opacity:0.978" fill="#e5dcea" d="M 176.5,23.5 C 177.568,22.5655 178.901,22.2322 180.5,22.5C 180.5,22.8333 180.5,23.1667 180.5,23.5C 179.298,24.4054 177.964,24.4054 176.5,23.5 Z"/></g>
<g><path style="opacity:0.792" fill="#e3d3ea" d="M 181.5,19.5 C 182.167,19.8333 182.833,20.1667 183.5,20.5C 182.833,21.5 182.167,22.5 181.5,23.5C 181.167,23.5 180.833,23.5 180.5,23.5C 180.5,23.1667 180.5,22.8333 180.5,22.5C 180.5,22.1667 180.5,21.8333 180.5,21.5C 180.833,20.8333 181.167,20.1667 181.5,19.5 Z"/></g>
<g><path style="opacity:0.031" fill="#2b2348" d="M 51.5,21.5 C 51.8333,21.5 52.1667,21.5 52.5,21.5C 52.8333,22.1667 53.1667,22.8333 53.5,23.5C 52.8333,24.8333 52.1667,24.8333 51.5,23.5C 51.5,22.8333 51.5,22.1667 51.5,21.5 Z"/></g>
<g><path style="opacity:0.043" fill="#4a3661" d="M 4.5,23.5 C 6.41467,23.2155 8.08134,23.5489 9.5,24.5C 9.56544,24.9382 9.39877,25.2716 9,25.5C 7.37753,24.9011 5.87753,24.2344 4.5,23.5 Z"/></g>
<g><path style="opacity:0.447" fill="#efe3f6" d="M 88.5,26.5 C 88.5,26.8333 88.5,27.1667 88.5,27.5C 86.3548,27.0834 85.6882,26.0834 86.5,24.5C 87.5223,24.8555 88.189,25.5222 88.5,26.5 Z"/></g>
<g><path style="opacity:0.573" fill="#f5e3fa" d="M 91.5,25.5 C 91.8333,25.5 92.1667,25.5 92.5,25.5C 91.713,27.1042 90.3797,27.7709 88.5,27.5C 88.5,27.1667 88.5,26.8333 88.5,26.5C 89.391,25.8902 90.391,25.5569 91.5,25.5 Z"/></g>
</svg>
