<?xml version="1.0" encoding="UTF-8"?>
<!DOCTYPE svg PUBLIC "-//W3C//DTD SVG 1.1//EN" "http://www.w3.org/Graphics/SVG/1.1/DTD/svg11.dtd">
<svg xmlns="http://www.w3.org/2000/svg" version="1.1" width="225px" height="225px" style="shape-rendering:geometricPrecision; text-rendering:geometricPrecision; image-rendering:optimizeQuality; fill-rule:evenodd; clip-rule:evenodd" xmlns:xlink="http://www.w3.org/1999/xlink">
<g><path style="opacity:1" fill="#262626" d="M 220.5,119.5 C 218.866,120.207 217.532,121.373 216.5,123C 215.5,123.667 214.5,123.667 213.5,123C 216.962,118.776 217.129,114.609 214,110.5C 213.667,113.833 213.333,117.167 213,120.5C 212.207,116.577 212.374,112.744 213.5,109C 212.915,107.698 212.249,106.531 211.5,105.5C 210.942,104.21 209.942,103.377 208.5,103C 201.167,102.333 193.833,102.333 186.5,103C 186,103.5 185.5,104 185,104.5C 184.193,110.416 184.359,116.25 185.5,122C 192.719,123.429 200.053,123.929 207.5,123.5C 201.013,124.328 194.346,124.828 187.5,125C 189.795,125.984 189.461,126.817 186.5,127.5C 185.5,126.167 184.5,126.167 183.5,127.5C 182.281,126.737 181.281,125.737 180.5,124.5C 179.201,125.09 178.368,126.09 178,127.5C 177.517,126.552 177.351,125.552 177.5,124.5C 169.316,124.826 161.316,124.492 153.5,123.5C 161.167,123.5 168.833,123.5 176.5,123.5C 176.5,122.167 176.5,120.833 176.5,119.5C 170.5,119.5 164.5,119.5 158.5,119.5C 158.5,117.833 158.5,116.167 158.5,114.5C 162.167,114.5 165.833,114.5 169.5,114.5C 169.5,113.167 169.5,111.833 169.5,110.5C 165.833,110.5 162.167,110.5 158.5,110.5C 158.5,109.167 158.5,107.833 158.5,106.5C 164.5,106.5 170.5,106.5 176.5,106.5C 176.5,105.167 176.5,103.833 176.5,102.5C 168.833,102.5 161.167,102.5 153.5,102.5C 155.872,100.588 155.205,99.4217 151.5,99C 150.167,98.3333 150.167,97.6667 151.5,97C 149.074,97.0479 146.741,96.8812 144.5,96.5C 143.304,96.8457 143.304,97.3457 144.5,98C 145.448,98.4828 146.448,98.6495 147.5,98.5C 146.623,104.276 146.289,109.942 146.5,115.5C 146.046,118.224 147.046,120.057 149.5,121C 148.15,122.718 146.983,124.552 146,126.5C 145.508,125.451 145.674,124.451 146.5,123.5C 146.145,122.478 145.478,121.811 144.5,121.5C 144.5,115.167 144.5,108.833 144.5,102.5C 142.801,102.34 141.134,102.506 139.5,103C 135.631,106.534 132.131,110.367 129,114.5C 125.85,110.383 122.35,106.549 118.5,103C 116.866,102.506 115.199,102.34 113.5,102.5C 113.5,109.167 113.5,115.833 113.5,122.5C 112.512,117.36 112.179,112.026 112.5,106.5C 110.876,106.36 109.71,107.027 109,108.5C 108.184,107.177 107.017,106.511 105.5,106.5C 105.5,104.5 104.5,103.5 102.5,103.5C 95.3524,102.508 88.0191,102.175 80.5,102.5C 80.5,109.167 80.5,115.833 80.5,122.5C 79.6981,121.048 79.1981,119.382 79,117.5C 78.6667,118.167 78.3333,118.833 78,119.5C 76.1598,118.167 75.6598,118.334 76.5,120C 74.8445,122.197 73.6778,124.697 73,127.5C 70.276,126.224 67.276,125.558 64,125.5C 60.9136,125.522 57.9136,125.855 55,126.5C 53.3513,125.047 51.5179,124.047 49.5,123.5C 57.5,123.5 65.5,123.5 73.5,123.5C 73.5,121.833 73.5,120.167 73.5,118.5C 67.1667,118.5 60.8333,118.5 54.5,118.5C 54.5,117.167 54.5,115.833 54.5,114.5C 58.1667,114.5 61.8333,114.5 65.5,114.5C 65.5,113.167 65.5,111.833 65.5,110.5C 61.8333,110.5 58.1667,110.5 54.5,110.5C 54.5,109.167 54.5,107.833 54.5,106.5C 60.5,106.5 66.5,106.5 72.5,106.5C 72.5,105.5 72.5,104.5 72.5,103.5C 64.6841,102.508 56.6841,102.174 48.5,102.5C 48.5,109.167 48.5,115.833 48.5,122.5C 47.6739,117.684 47.1739,112.684 47,107.5C 44.6262,104.712 43.2929,105.046 43,108.5C 42.1618,109.999 41.3285,110.332 40.5,109.5C 41.4412,107.534 42.4412,105.534 43.5,103.5C 41.9255,102.369 40.2588,102.202 38.5,103C 35.376,107.414 32.376,111.914 29.5,116.5C 26.1691,112.508 23.3358,108.175 21,103.5C 18.8615,102.231 16.6948,102.231 14.5,103.5C 16.4446,106.393 18.1113,109.393 19.5,112.5C 16.3067,111.335 13.3067,109.669 10.5,107.5C 9.57131,108.689 9.23798,110.022 9.5,111.5C 8.5,111.5 7.5,111.5 6.5,111.5C 6.81946,116.363 6.48612,121.03 5.5,125.5C 1.71446,75.6486 21.7145,38.8152 65.5,15C 114.081,-4.93356 156.915,3.56644 194,40.5C 213.526,63.2435 222.359,89.5769 220.5,119.5 Z"/></g>
<g><path style="opacity:1" fill="#262626" d="M 153.5,102.5 C 152.167,109.5 152.167,116.5 153.5,123.5C 161.316,124.492 169.316,124.826 177.5,124.5C 177.351,125.552 177.517,126.552 178,127.5C 178.368,126.09 179.201,125.09 180.5,124.5C 181.281,125.737 182.281,126.737 183.5,127.5C 184.5,126.167 185.5,126.167 186.5,127.5C 189.461,126.817 189.795,125.984 187.5,125C 194.346,124.828 201.013,124.328 207.5,123.5C 208.721,122.972 209.887,122.305 211,121.5C 211.498,118.183 211.665,114.85 211.5,111.5C 206.833,111.5 202.167,111.5 197.5,111.5C 197.5,112.5 197.5,113.5 197.5,114.5C 200.5,114.5 203.5,114.5 206.5,114.5C 206.5,116.167 206.5,117.833 206.5,119.5C 200.833,119.5 195.167,119.5 189.5,119.5C 189.5,115.167 189.5,110.833 189.5,106.5C 196.947,106.24 204.281,106.906 211.5,108.5C 211.5,107.5 211.5,106.5 211.5,105.5C 212.249,106.531 212.915,107.698 213.5,109C 212.374,112.744 212.207,116.577 213,120.5C 213.333,117.167 213.667,113.833 214,110.5C 217.129,114.609 216.962,118.776 213.5,123C 214.5,123.667 215.5,123.667 216.5,123C 217.532,121.373 218.866,120.207 220.5,119.5C 216.422,164.825 193.422,196.325 151.5,214C 105.013,229.157 64.8464,219.324 31,184.5C 16.4924,167.479 7.99245,147.813 5.5,125.5C 6.48612,121.03 6.81946,116.363 6.5,111.5C 7.5,111.5 8.5,111.5 9.5,111.5C 9.23798,110.022 9.57131,108.689 10.5,107.5C 13.3067,109.669 16.3067,111.335 19.5,112.5C 22.1348,115.079 24.3015,118.079 26,121.5C 26.804,122.804 27.9707,123.471 29.5,123.5C 33.1642,118.842 36.8309,114.175 40.5,109.5C 41.3285,110.332 42.1618,109.999 43,108.5C 43.2929,105.046 44.6262,104.712 47,107.5C 47.1739,112.684 47.6739,117.684 48.5,122.5C 48.5,123.167 48.8333,123.5 49.5,123.5C 51.5179,124.047 53.3513,125.047 55,126.5C 57.9136,125.855 60.9136,125.522 64,125.5C 67.276,125.558 70.276,126.224 73,127.5C 73.6778,124.697 74.8445,122.197 76.5,120C 75.6598,118.334 76.1598,118.167 78,119.5C 78.3333,118.833 78.6667,118.167 79,117.5C 79.1981,119.382 79.6981,121.048 80.5,122.5C 82.2646,123.461 84.2646,123.795 86.5,123.5C 86.5,120.833 86.5,118.167 86.5,115.5C 88.1992,115.34 89.8659,115.506 91.5,116C 94.014,118.415 96.6806,120.581 99.5,122.5C 101.966,123.634 104.633,123.801 107.5,123C 106.956,122.283 106.289,121.783 105.5,121.5C 103.197,119.675 100.864,117.842 98.5,116C 100.556,115.689 102.556,115.189 104.5,114.5C 105.48,111.914 105.813,109.247 105.5,106.5C 107.017,106.511 108.184,107.177 109,108.5C 109.71,107.027 110.876,106.36 112.5,106.5C 112.179,112.026 112.512,117.36 113.5,122.5C 114.919,123.451 116.585,123.784 118.5,123.5C 118.334,119.154 118.501,114.821 119,110.5C 121.945,114.067 125.111,117.4 128.5,120.5C 132.452,117.258 135.952,113.592 139,109.5C 139.499,114.155 139.666,118.821 139.5,123.5C 141.781,123.923 143.448,123.256 144.5,121.5C 145.478,121.811 146.145,122.478 146.5,123.5C 145.674,124.451 145.508,125.451 146,126.5C 146.983,124.552 148.15,122.718 149.5,121C 147.046,120.057 146.046,118.224 146.5,115.5C 146.289,109.942 146.623,104.276 147.5,98.5C 146.448,98.6495 145.448,98.4828 144.5,98C 143.304,97.3457 143.304,96.8457 144.5,96.5C 146.741,96.8812 149.074,97.0479 151.5,97C 150.167,97.6667 150.167,98.3333 151.5,99C 155.205,99.4217 155.872,100.588 153.5,102.5 Z"/></g>
<g><path style="opacity:1" fill="#ececec" d="M 40.5,109.5 C 36.8309,114.175 33.1642,118.842 29.5,123.5C 27.9707,123.471 26.804,122.804 26,121.5C 24.3015,118.079 22.1348,115.079 19.5,112.5C 18.1113,109.393 16.4446,106.393 14.5,103.5C 16.6948,102.231 18.8615,102.231 21,103.5C 23.3358,108.175 26.1691,112.508 29.5,116.5C 32.376,111.914 35.376,107.414 38.5,103C 40.2588,102.202 41.9255,102.369 43.5,103.5C 42.4412,105.534 41.4412,107.534 40.5,109.5 Z"/></g>
<g><path style="opacity:1" fill="#f8f8f8" d="M 72.5,103.5 C 72.5,104.5 72.5,105.5 72.5,106.5C 66.5,106.5 60.5,106.5 54.5,106.5C 54.5,107.833 54.5,109.167 54.5,110.5C 58.1667,110.5 61.8333,110.5 65.5,110.5C 65.5,111.833 65.5,113.167 65.5,114.5C 61.8333,114.5 58.1667,114.5 54.5,114.5C 54.5,115.833 54.5,117.167 54.5,118.5C 60.31,119.49 66.31,119.823 72.5,119.5C 72.5,120.5 72.5,121.5 72.5,122.5C 64.8333,122.5 57.1667,122.5 49.5,122.5C 49.5,116.167 49.5,109.833 49.5,103.5C 57.1667,103.5 64.8333,103.5 72.5,103.5 Z"/></g>
<g><path style="opacity:1" fill="#f4f4f4" d="M 102.5,103.5 C 104.5,103.5 105.5,104.5 105.5,106.5C 105.813,109.247 105.48,111.914 104.5,114.5C 102.556,115.189 100.556,115.689 98.5,116C 100.864,117.842 103.197,119.675 105.5,121.5C 103.735,122.461 101.735,122.795 99.5,122.5C 96.6806,120.581 94.014,118.415 91.5,116C 89.8659,115.506 88.1992,115.34 86.5,115.5C 85.5318,117.607 85.1984,119.941 85.5,122.5C 84.1667,122.5 82.8333,122.5 81.5,122.5C 81.5,116.167 81.5,109.833 81.5,103.5C 88.5,103.5 95.5,103.5 102.5,103.5 Z"/></g>
<g><path style="opacity:1" fill="#f1f1f1" d="M 144.5,121.5 C 143.448,123.256 141.781,123.923 139.5,123.5C 139.666,118.821 139.499,114.155 139,109.5C 135.952,113.592 132.452,117.258 128.5,120.5C 125.111,117.4 121.945,114.067 119,110.5C 118.501,114.821 118.334,119.154 118.5,123.5C 116.585,123.784 114.919,123.451 113.5,122.5C 113.5,115.833 113.5,109.167 113.5,102.5C 115.199,102.34 116.866,102.506 118.5,103C 122.35,106.549 125.85,110.383 129,114.5C 132.131,110.367 135.631,106.534 139.5,103C 141.134,102.506 142.801,102.34 144.5,102.5C 144.5,108.833 144.5,115.167 144.5,121.5 Z"/></g>
<g><path style="opacity:1" fill="#eaeaea" d="M 153.5,102.5 C 161.167,102.5 168.833,102.5 176.5,102.5C 176.5,103.833 176.5,105.167 176.5,106.5C 170.5,106.5 164.5,106.5 158.5,106.5C 158.5,107.833 158.5,109.167 158.5,110.5C 162.167,110.5 165.833,110.5 169.5,110.5C 169.5,111.833 169.5,113.167 169.5,114.5C 165.833,114.5 162.167,114.5 158.5,114.5C 158.5,116.167 158.5,117.833 158.5,119.5C 164.5,119.5 170.5,119.5 176.5,119.5C 176.5,120.833 176.5,122.167 176.5,123.5C 168.833,123.5 161.167,123.5 153.5,123.5C 152.167,116.5 152.167,109.5 153.5,102.5 Z"/></g>
<g><path style="opacity:1" fill="#efefef" d="M 211.5,105.5 C 211.5,106.5 211.5,107.5 211.5,108.5C 204.281,106.906 196.947,106.24 189.5,106.5C 189.5,110.833 189.5,115.167 189.5,119.5C 195.167,119.5 200.833,119.5 206.5,119.5C 206.5,117.833 206.5,116.167 206.5,114.5C 203.5,114.5 200.5,114.5 197.5,114.5C 197.5,113.5 197.5,112.5 197.5,111.5C 202.167,111.5 206.833,111.5 211.5,111.5C 211.665,114.85 211.498,118.183 211,121.5C 209.887,122.305 208.721,122.972 207.5,123.5C 200.053,123.929 192.719,123.429 185.5,122C 184.359,116.25 184.193,110.416 185,104.5C 185.5,104 186,103.5 186.5,103C 193.833,102.333 201.167,102.333 208.5,103C 209.942,103.377 210.942,104.21 211.5,105.5 Z"/></g>
<g><path style="opacity:1" fill="#bfbfbf" d="M 102.5,103.5 C 95.5,103.5 88.5,103.5 81.5,103.5C 81.5,109.833 81.5,116.167 81.5,122.5C 82.8333,122.5 84.1667,122.5 85.5,122.5C 85.1984,119.941 85.5318,117.607 86.5,115.5C 86.5,118.167 86.5,120.833 86.5,123.5C 84.2646,123.795 82.2646,123.461 80.5,122.5C 80.5,115.833 80.5,109.167 80.5,102.5C 88.0191,102.175 95.3524,102.508 102.5,103.5 Z"/></g>
<g><path style="opacity:1" fill="#1e1e1e" d="M 86.5,106.5 C 91.1667,106.5 95.8333,106.5 100.5,106.5C 100.5,108.167 100.5,109.833 100.5,111.5C 95.8333,111.5 91.1667,111.5 86.5,111.5C 86.5,109.833 86.5,108.167 86.5,106.5 Z"/></g>
<g><path style="opacity:1" fill="#adadad" d="M 72.5,103.5 C 64.8333,103.5 57.1667,103.5 49.5,103.5C 49.5,109.833 49.5,116.167 49.5,122.5C 49.1667,122.5 48.8333,122.5 48.5,122.5C 48.5,115.833 48.5,109.167 48.5,102.5C 56.6841,102.174 64.6841,102.508 72.5,103.5 Z"/></g>
<g><path style="opacity:1" fill="#7b7b7b" d="M 54.5,118.5 C 60.8333,118.5 67.1667,118.5 73.5,118.5C 73.5,120.167 73.5,121.833 73.5,123.5C 65.5,123.5 57.5,123.5 49.5,123.5C 48.8333,123.5 48.5,123.167 48.5,122.5C 48.8333,122.5 49.1667,122.5 49.5,122.5C 57.1667,122.5 64.8333,122.5 72.5,122.5C 72.5,121.5 72.5,120.5 72.5,119.5C 66.31,119.823 60.31,119.49 54.5,118.5 Z"/></g>
<g><path style="opacity:1" fill="#8e8e8e" d="M 105.5,121.5 C 106.289,121.783 106.956,122.283 107.5,123C 104.633,123.801 101.966,123.634 99.5,122.5C 101.735,122.795 103.735,122.461 105.5,121.5 Z"/></g>
</svg>
