<?xml version="1.0" encoding="UTF-8"?>
<!DOCTYPE svg PUBLIC "-//W3C//DTD SVG 1.1//EN" "http://www.w3.org/Graphics/SVG/1.1/DTD/svg11.dtd">
<svg xmlns="http://www.w3.org/2000/svg" version="1.1" width="206px" height="49px" style="shape-rendering:geometricPrecision; text-rendering:geometricPrecision; image-rendering:optimizeQuality; fill-rule:evenodd; clip-rule:evenodd" xmlns:xlink="http://www.w3.org/1999/xlink">
<g><path style="opacity:0.711" fill="#9d9d9d" d="M 199.5,14.5 C 190.779,14.2246 182.113,14.5579 173.5,15.5C 173.611,14.8826 173.944,14.3826 174.5,14C 183.01,13.1768 191.344,13.3434 199.5,14.5 Z"/></g>
<g><path style="opacity:0.997" fill="#f7f7f7" d="M 61.5,17.5 C 55.5,17.5 49.5,17.5 43.5,17.5C 43.2322,19.099 43.5655,20.4324 44.5,21.5C 46.5,21.5 48.5,21.5 50.5,21.5C 51.5,21.5 52.5,21.5 53.5,21.5C 53.8333,21.5 54.1667,21.5 54.5,21.5C 54.5,22.8333 54.5,24.1667 54.5,25.5C 50.6286,25.185 46.9619,25.5184 43.5,26.5C 43.5,27.5 43.5,28.5 43.5,29.5C 49.31,30.4896 55.31,30.8229 61.5,30.5C 61.5,31.5 61.5,32.5 61.5,33.5C 53.8333,33.5 46.1667,33.5 38.5,33.5C 38.5,27.1667 38.5,20.8333 38.5,14.5C 46.1667,14.5 53.8333,14.5 61.5,14.5C 61.5,15.5 61.5,16.5 61.5,17.5 Z"/></g>
<g><path style="opacity:0.999" fill="#e3e3e3" d="M 90.5,26.5 C 87.1469,26.3453 86.8136,27.0119 89.5,28.5C 90.1667,28.8333 90.8333,29.1667 91.5,29.5C 91.8417,30.3382 92.5084,30.6716 93.5,30.5C 94.2899,31.7942 95.2899,32.9609 96.5,34C 93.8333,34.6667 91.1667,34.6667 88.5,34C 84.9754,29.9496 80.642,27.4496 75.5,26.5C 74.5318,28.6074 74.1984,30.9407 74.5,33.5C 72.8333,33.5 71.1667,33.5 69.5,33.5C 69.5,26.8333 69.5,20.1667 69.5,13.5C 77.5559,13.1981 85.5559,13.5315 93.5,14.5C 96.128,18.299 96.128,22.1323 93.5,26C 92.552,26.4828 91.552,26.6495 90.5,26.5 Z M 88.5,17.5 C 88.4431,18.609 88.1098,19.609 87.5,20.5C 88.3382,20.8417 88.6716,21.5084 88.5,22.5C 84.1667,22.5 79.8333,22.5 75.5,22.5C 75.2865,20.8561 75.6198,19.3561 76.5,18C 80.4862,17.5012 84.4862,17.3345 88.5,17.5 Z"/></g>
<g><path style="opacity:0.999" fill="#e1e1e1" d="M 133.5,32.5 C 132.081,33.4511 130.415,33.7845 128.5,33.5C 128.666,29.1539 128.499,24.8206 128,20.5C 127.283,21.0442 126.783,21.7109 126.5,22.5C 123.854,25.8123 120.854,28.8123 117.5,31.5C 113.813,28.6469 110.647,25.3135 108,21.5C 107.501,25.8206 107.334,30.1539 107.5,34.5C 105.833,34.5 104.167,34.5 102.5,34.5C 102.5,27.5 102.5,20.5 102.5,13.5C 104.604,13.2011 106.604,13.5344 108.5,14.5C 111.484,17.9846 114.651,21.318 118,24.5C 121.536,21.2988 124.703,17.7988 127.5,14C 129.81,13.5034 132.143,13.3367 134.5,13.5C 134.791,19.923 134.458,26.2564 133.5,32.5 Z"/></g>
<g><path style="opacity:0.997" fill="#efefef" d="M 148.5,18.5 C 147.596,19.209 147.263,20.209 147.5,21.5C 148.833,21.5 150.167,21.5 151.5,21.5C 152.5,21.5 153.5,21.5 154.5,21.5C 155.833,21.5 157.167,21.5 158.5,21.5C 158.5,22.8333 158.5,24.1667 158.5,25.5C 154.629,25.185 150.962,25.5184 147.5,26.5C 147.5,27.5 147.5,28.5 147.5,29.5C 153.31,30.4896 159.31,30.8229 165.5,30.5C 165.5,31.5 165.5,32.5 165.5,33.5C 157.5,33.5 149.5,33.5 141.5,33.5C 141.5,26.8333 141.5,20.1667 141.5,13.5C 149.5,13.5 157.5,13.5 165.5,13.5C 165.5,14.8333 165.5,16.1667 165.5,17.5C 159.642,17.1778 153.975,17.5111 148.5,18.5 Z"/></g>
<g><path style="opacity:0.988" fill="#dddddd" d="M 8.5,23.5 C 7.88972,21.5659 6.88972,19.8993 5.5,18.5C 6.96337,14.8204 9.2967,13.9871 12.5,16C 12.1667,16.3333 11.8333,16.6667 11.5,17C 13.4791,20.4717 15.8125,23.6383 18.5,26.5C 21.7467,22.3409 24.7467,18.0076 27.5,13.5C 29.5752,12.2385 31.5752,12.4052 33.5,14C 29.4157,20.8372 25.0823,27.5038 20.5,34C 18.7412,34.7975 17.0745,34.6309 15.5,33.5C 13.6367,29.75 11.3034,26.4167 8.5,23.5 Z"/></g>
<g><path style="opacity:0.053" fill="#212121" d="M 148.5,18.5 C 152.394,18.1098 156.06,18.7765 159.5,20.5C 159.376,21.1067 159.043,21.44 158.5,21.5C 157.167,20.1667 155.833,20.1667 154.5,21.5C 153.5,21.5 152.5,21.5 151.5,21.5C 150.1,20.8999 149.1,19.8999 148.5,18.5 Z"/></g>
<g><path style="opacity:0.053" fill="#222222" d="M 54.5,21.5 C 54.1667,21.5 53.8333,21.5 53.5,21.5C 52.5,20.1667 51.5,20.1667 50.5,21.5C 48.5,21.5 46.5,21.5 44.5,21.5C 44.5,20.5 44.5,19.5 44.5,18.5C 47.5184,18.3354 50.5184,18.502 53.5,19C 54.91,19.3678 55.91,20.2011 56.5,21.5C 56.0302,22.463 55.3635,22.463 54.5,21.5 Z"/></g>
<g><path style="opacity:0.047" fill="#282828" d="M 88.5,17.5 C 89.8333,19.1667 89.8333,20.8333 88.5,22.5C 88.6716,21.5084 88.3382,20.8417 87.5,20.5C 88.1098,19.609 88.4431,18.609 88.5,17.5 Z"/></g>
<g><path style="opacity:0.996" fill="#ececec" d="M 199.5,14.5 C 200.338,14.8417 200.672,15.5084 200.5,16.5C 200.5,17.5 200.5,18.5 200.5,19.5C 199.833,19.5 199.167,19.5 198.5,19.5C 197.5,19.5 196.5,19.5 195.5,19.5C 195.5,18.8333 195.167,18.5 194.5,18.5C 192.022,17.8359 189.355,17.5025 186.5,17.5C 183.41,17.5217 180.743,18.1883 178.5,19.5C 178.5,20.1667 178.5,20.8333 178.5,21.5C 178.5,24.1667 178.5,26.8333 178.5,29.5C 181.146,30.1644 183.979,30.4978 187,30.5C 190.252,30.4809 193.085,29.8142 195.5,28.5C 195.5,28.1667 195.5,27.8333 195.5,27.5C 193.012,25.6122 190.012,24.9455 186.5,25.5C 186.5,24.5 186.5,23.5 186.5,22.5C 191.167,22.5 195.833,22.5 200.5,22.5C 200.5,25.5 200.5,28.5 200.5,31.5C 200.423,32.7498 199.756,33.5831 198.5,34C 190.833,34.6667 183.167,34.6667 175.5,34C 174.667,33.1667 173.833,32.3333 173,31.5C 172.219,26.0833 172.385,20.7499 173.5,15.5C 182.113,14.5579 190.779,14.2246 199.5,14.5 Z"/></g>
<g><path style="opacity:0.029" fill="#303030" d="M 178.5,19.5 C 180.933,19.7856 180.933,20.4523 178.5,21.5C 178.5,20.8333 178.5,20.1667 178.5,19.5 Z"/></g>
<g><path style="opacity:0.102" fill="#333333" d="M 200.5,16.5 C 201.833,21.5 201.833,26.5 200.5,31.5C 200.5,28.5 200.5,25.5 200.5,22.5C 195.833,22.5 191.167,22.5 186.5,22.5C 184.295,22.1541 184.128,21.4874 186,20.5C 188.349,21.9765 190.516,21.8098 192.5,20C 191.833,19.6667 191.167,19.3333 190.5,19C 191.793,18.51 193.127,18.3433 194.5,18.5C 195.167,18.5 195.5,18.8333 195.5,19.5C 196.5,19.5 197.5,19.5 198.5,19.5C 198.786,21.9327 199.452,21.9327 200.5,19.5C 200.5,18.5 200.5,17.5 200.5,16.5 Z M 198.5,19.5 C 199.167,19.5 199.833,19.5 200.5,19.5C 199.452,21.9327 198.786,21.9327 198.5,19.5 Z"/></g>
<g><path style="opacity:0.059" fill="#212121" d="M 87.5,20.5 C 83.9813,21.8077 80.3147,21.8077 76.5,20.5C 77.6927,18.6163 79.3594,18.1163 81.5,19C 80.5,19.3333 79.5,19.6667 78.5,20C 81.4816,20.498 84.4816,20.6646 87.5,20.5 Z"/></g>
<g><path style="opacity:0.263" fill="#1f1f1f" d="M 5.5,18.5 C 6.88972,19.8993 7.88972,21.5659 8.5,23.5C 5.25905,22.9626 4.25905,21.2959 5.5,18.5 Z"/></g>
<g><path style="opacity:0.008" fill="#000000" d="M 117.5,21.5 C 118.833,22.1667 118.833,22.1667 117.5,21.5 Z"/></g>
<g><path style="opacity:0.039" fill="#191a19" d="M 125.5,25.5 C 126.833,26.1667 126.833,26.1667 125.5,25.5 Z"/></g>
<g><path style="opacity:0.055" fill="#202020" d="M 90.5,26.5 C 90.1667,27.1667 89.8333,27.8333 89.5,28.5C 86.8136,27.0119 87.1469,26.3453 90.5,26.5 Z"/></g>
<g><path style="opacity:0.035" fill="#383938" d="M 94.5,26.5 C 95.8333,27.1667 95.8333,27.1667 94.5,26.5 Z"/></g>
<g><path style="opacity:0.008" fill="#000000" d="M 125.5,26.5 C 124.833,27.1667 124.833,27.1667 125.5,26.5 Z"/></g>
<g><path style="opacity:0.346" fill="#6e6e6e" d="M 133.5,32.5 C 134.043,32.56 134.376,32.8933 134.5,33.5C 132.257,34.4742 129.924,34.8076 127.5,34.5C 127.817,30.2984 127.483,26.2984 126.5,22.5C 126.783,21.7109 127.283,21.0442 128,20.5C 128.499,24.8206 128.666,29.1539 128.5,33.5C 130.415,33.7845 132.081,33.4511 133.5,32.5 Z"/></g>
<g><path style="opacity:0.004" fill="#000000" d="M 124.5,27.5 C 123.833,28.1667 123.833,28.1667 124.5,27.5 Z"/></g>
<g><path style="opacity:0.102" fill="#2f2f2f" d="M 147.5,26.5 C 150.962,25.5184 154.629,25.185 158.5,25.5C 158.5,26.8333 158.5,28.1667 158.5,29.5C 161.059,29.1984 163.393,29.5318 165.5,30.5C 159.31,30.8229 153.31,30.4896 147.5,29.5C 148.833,28.5 148.833,27.5 147.5,26.5 Z"/></g>
<g><path style="opacity:0.155" fill="#313131" d="M 186.5,25.5 C 190.012,24.9455 193.012,25.6122 195.5,27.5C 194.167,27.8333 194.167,28.1667 195.5,28.5C 193.085,29.8142 190.252,30.4809 187,30.5C 183.979,30.4978 181.146,30.1644 178.5,29.5C 182.483,30.4285 185.15,29.0951 186.5,25.5 Z"/></g>
<g><path style="opacity:0.073" fill="#202020" d="M 43.5,26.5 C 46.9619,25.5184 50.6286,25.185 54.5,25.5C 55.2389,25.369 55.9056,25.5357 56.5,26C 55.1772,26.8159 54.5106,27.9826 54.5,29.5C 51.1667,29.5 47.8333,29.5 44.5,29.5C 44.7373,28.209 44.404,27.209 43.5,26.5 Z"/></g>
<g><path style="opacity:0.027" fill="#232423" d="M 76.5,28.5 C 77.8333,29.1667 77.8333,29.1667 76.5,28.5 Z"/></g>
<g><path style="opacity:0.031" fill="#3f403f" d="M 78.5,28.5 C 79.8333,29.1667 79.8333,29.1667 78.5,28.5 Z"/></g>
<g><path style="opacity:0.055" fill="#262626" d="M 94.5,27.5 C 94.1667,28.1667 93.8333,28.8333 93.5,29.5C 92.8333,29.5 92.1667,29.5 91.5,29.5C 91.8212,27.9519 92.8212,27.2852 94.5,27.5 Z"/></g>
<g><path style="opacity:0.02" fill="#2f2f2f" d="M 93.5,30.5 C 93.5,30.1667 93.5,29.8333 93.5,29.5C 96.1667,29.8333 96.1667,30.1667 93.5,30.5 Z"/></g>
<g><path style="opacity:0.449" fill="#898989" d="M 61.5,17.5 C 61.5,16.5 61.5,15.5 61.5,14.5C 53.8333,14.5 46.1667,14.5 38.5,14.5C 38.5,20.8333 38.5,27.1667 38.5,33.5C 46.1667,33.5 53.8333,33.5 61.5,33.5C 61.5,32.5 61.5,31.5 61.5,30.5C 55.31,30.8229 49.31,30.4896 43.5,29.5C 43.8333,29.5 44.1667,29.5 44.5,29.5C 47.8333,29.5 51.1667,29.5 54.5,29.5C 57.1667,29.5 59.8333,29.5 62.5,29.5C 62.5,31.1667 62.5,32.8333 62.5,34.5C 54.1667,34.5 45.8333,34.5 37.5,34.5C 37.5,27.5 37.5,20.5 37.5,13.5C 45.8333,13.5 54.1667,13.5 62.5,13.5C 62.7678,15.099 62.4345,16.4324 61.5,17.5 Z"/></g>
<g><path style="opacity:0.416" fill="#8f8f8f" d="M 75.5,26.5 C 75.5,29.1667 75.5,31.8333 75.5,34.5C 73.2646,34.7947 71.2646,34.4614 69.5,33.5C 71.1667,33.5 72.8333,33.5 74.5,33.5C 74.1984,30.9407 74.5318,28.6074 75.5,26.5 Z"/></g>
<g><path style="opacity:0.434" fill="#848484" d="M 165.5,30.5 C 166.434,31.5676 166.768,32.901 166.5,34.5C 157.983,34.8261 149.65,34.4927 141.5,33.5C 149.5,33.5 157.5,33.5 165.5,33.5C 165.5,32.5 165.5,31.5 165.5,30.5 Z"/></g>
</svg>
